<?xml version="1.0" standalone="no"?>
<!DOCTYPE svg PUBLIC "-//W3C//DTD SVG 1.1//EN" "http://www.w3.org/Graphics/SVG/1.1/DTD/svg11.dtd" >
<svg xmlns="http://www.w3.org/2000/svg" xmlns:xlink="http://www.w3.org/1999/xlink" version="1.1">
<metadata>
Created by FontForge 20170731 at Fri Dec  3 13:18:30 2021
 By Aleksey,,,
Copyright 2020 The League Gothic Project Authors (https://github.com/theleagueof/league-gothic)
</metadata>
<defs>
<font id="LeagueGothic-Regular" horiz-adv-x="716" >
  <font-face 
    font-family="League Gothic"
    font-weight="400"
    font-stretch="normal"
    units-per-em="2000"
    panose-1="0 0 0 0 0 0 0 0 0 0"
    ascent="1600"
    descent="-400"
    x-height="1094"
    cap-height="1470"
    bbox="-300 -500 1723 2103"
    underline-thickness="50"
    underline-position="-175"
    unicode-range="U+000D-FB02"
  />
<missing-glyph horiz-adv-x="747" 
d="M70 0v1470h607v-1470h-607zM170 100h363l-363 1107v-1107zM577 288v1082h-354z" />
    <glyph glyph-name="fi" unicode="fi" horiz-adv-x="734" 
d="M674 1094v-1094h-202v912h-67v182h269zM112 0v912h-102v182h102v60q0 155 72.5 239.5t189.5 84.5q26 0 48 -5t36 -13v-176q-20 15 -60 15q-29 0 -56.5 -30t-27.5 -89v-86h122v-182h-122v-912h-202z" />
    <glyph glyph-name="fl" unicode="fl" horiz-adv-x="724" 
d="M112 0v912h-102v182h102v30q0 109 20 190t73.5 125.5t154.5 44.5q44 0 84.5 -4.5t59.5 -9.5h160v-1470h-202v1298q-13 2 -28 3t-38 1q-45 0 -63.5 -40t-18.5 -90v-78h102v-182h-102v-912h-202z" />
    <glyph glyph-name=".notdef" horiz-adv-x="747" 
d="M70 0v1470h607v-1470h-607zM170 100h363l-363 1107v-1107zM577 288v1082h-354z" />
    <glyph glyph-name=".null" horiz-adv-x="0" 
 />
    <glyph glyph-name="nonmarkingreturn" horiz-adv-x="666" 
 />
    <glyph glyph-name="CR" unicode="&#xd;" horiz-adv-x="1200" 
 />
    <glyph glyph-name="space" unicode=" " horiz-adv-x="308" 
 />
    <glyph glyph-name="exclam" unicode="!" horiz-adv-x="354" 
d="M114 396l-54 1074h234l-54 -1074h-126zM72 0v222h210v-222h-210z" />
    <glyph glyph-name="quotedbl" unicode="&#x22;" horiz-adv-x="520" 
d="M354 932l-30 538h210l-30 -538h-150zM106 932l-30 538h210l-30 -538h-150z" />
    <glyph glyph-name="numbersign" unicode="#" horiz-adv-x="1228" 
d="M196 0l58 428h-194l26 190h194l36 252h-192l26 190h192l56 410h192l-56 -410h254l56 410h192l-56 -410h188l-26 -190h-188l-36 -252h186l-26 -190h-186l-58 -428h-192l58 428h-254l-58 -428h-192zM472 618h254l36 252h-254z" />
    <glyph glyph-name="dollar" unicode="$" horiz-adv-x="612" 
d="M247 1525h120v-307h-120v307zM247 281h120v-401h-120v401zM318 168q-71 0 -124 24t-88 68.5t-52.5 105.5t-17.5 136h188q0 -67 21.5 -116.5t72.5 -49.5q44 0 57 37t13 85q0 56 -43.5 114.5t-90.5 104.5q-81 80 -134.5 158t-53.5 183q0 124 65 200t185 76q72 0 121.5 -19
t79.5 -57t43.5 -93t13.5 -127h-188q0 52 -11 90t-55 38q-36 0 -51 -30.5t-15 -77.5q0 -55 26.5 -97.5t88.5 -103.5q78 -76 142.5 -162t64.5 -187q0 -66 -17.5 -121t-51 -95t-81 -62t-108.5 -22z" />
    <glyph glyph-name="percent" unicode="%" horiz-adv-x="1000" 
d="M163 0l540 1470h128l-534 -1470h-134zM219 708q-74 0 -116.5 49.5t-42.5 126.5v425q0 77 42.5 127t116.5 50q73 0 116 -50t43 -127v-425q0 -77 -43 -126.5t-116 -49.5zM219 815q23 0 32 19.5t9 49.5v425q0 31 -9 50t-32 19q-24 0 -33.5 -18.5t-9.5 -50.5v-425
q0 -31 9.5 -50t33.5 -19zM781 -16q-74 0 -116.5 49.5t-42.5 126.5v425q0 77 42.5 127t116.5 50q73 0 116 -50t43 -127v-425q0 -77 -43 -126.5t-116 -49.5zM781 91q23 0 32 19.5t9 49.5v425q0 31 -9 50t-32 19q-24 0 -33.5 -18.5t-9.5 -50.5v-425q0 -31 9.5 -50t33.5 -19z
" />
    <glyph glyph-name="ampersand" unicode="&#x26;" horiz-adv-x="846" 
d="M346 -16q-129 0 -212.5 83.5t-83.5 240.5q0 98 26.5 175.5t65 139.5t74.5 111q-52 108 -78 212.5t-26 219.5q0 137 67 228.5t197 91.5q127 0 192 -90t65 -221q0 -109 -58 -216.5t-141 -216.5q48 -109 82 -172.5t62 -105.5q20 56 31.5 118.5t14.5 87.5l172 -32
q-7 -85 -35 -181t-65 -169q20 -22 49 -43.5t51 -30.5v-230q-28 0 -69 24t-78.5 56t-56.5 56q-46 -61 -101 -98.5t-145 -37.5zM356 172q41 0 69 24t53 60q-40 65 -81.5 134t-88.5 154q-22 -37 -36 -96.5t-14 -106.5q0 -64 24 -116.5t74 -52.5zM354 926q36 56 67 122t31 124
q0 59 -16 100.5t-60 41.5q-43 0 -60 -43t-17 -102q0 -62 15.5 -123t39.5 -120z" />
    <glyph glyph-name="quotesingle" unicode="'" horiz-adv-x="302" 
d="M86 932l-30 538h210l-30 -538h-150z" />
    <glyph glyph-name="parenleft" unicode="(" horiz-adv-x="548" 
d="M350 -290q-79 125 -138.5 261.5t-103.5 304.5q-22 83 -33 171.5t-11 182.5q0 188 44 355t98 293q32 74 68 142.5t76 131.5l158 -82q-72 -103 -122.5 -224t-89.5 -274q-40 -157 -40 -342q0 -187 39 -340t87 -266q27 -64 58.5 -122.5t67.5 -109.5z" />
    <glyph glyph-name="parenright" unicode=")" horiz-adv-x="548" 
d="M198 -290l-158 82q71 102 121.5 223.5t90.5 274.5q20 77 30 161.5t10 178.5q0 188 -39.5 341t-86.5 265q-28 65 -59.5 123.5t-66.5 110.5l158 82q78 -126 137.5 -262.5t104.5 -303.5q23 -84 33.5 -172.5t10.5 -183.5q0 -187 -45 -354.5t-99 -293.5q-31 -73 -67 -141.5
t-75 -130.5z" />
    <glyph glyph-name="asterisk" unicode="*" horiz-adv-x="662" 
d="M256 976l-128 78l112 134l-168 34l42 144l160 -68l-18 172h150l-18 -172l160 68l42 -144l-168 -34l112 -134l-128 -78l-76 148z" />
    <glyph glyph-name="plus" unicode="+" horiz-adv-x="1036" 
d="M434 296v338h-362v168h362v338h168v-338h362v-168h-362v-338h-168z" />
    <glyph glyph-name="comma" unicode="," horiz-adv-x="302" 
d="M44 -260l70 260h-70v222h210v-222l-110 -260h-100z" />
    <glyph glyph-name="hyphen" unicode="-" horiz-adv-x="434" 
d="M72 444v190h290v-190h-290z" />
    <glyph glyph-name="period" unicode="." horiz-adv-x="314" 
d="M52 0v222h210v-222h-210z" />
    <glyph glyph-name="slash" unicode="/" horiz-adv-x="704" 
d="M8 -144l530 1614h158l-524 -1614h-164z" />
    <glyph glyph-name="zero" unicode="0" horiz-adv-x="708" 
d="M354 -16q-92 0 -156.5 42t-98 114.5t-33.5 161.5v866q0 90 34.5 162t99.5 114t154 42q90 0 154.5 -42.5t99 -114.5t34.5 -161v-866q0 -89 -35 -161.5t-99.5 -114.5t-153.5 -42zM354 194q38 0 55 32.5t17 75.5v866q0 44 -17 76t-55 32t-55 -33.5t-17 -74.5v-866
q0 -43 17 -75.5t55 -32.5z" />
    <glyph glyph-name="one" unicode="1" horiz-adv-x="480" 
d="M184 0v1152h-144v138q76 15 136 61t94 119h130v-1470h-216z" />
    <glyph glyph-name="two" unicode="2" horiz-adv-x="726" 
d="M70 0v214q69 106 134 223t117.5 235.5t83.5 229.5t31 204q0 66 -13 123t-59 57t-59 -56.5t-13 -123.5v-102h-216v102q0 88 15.5 158.5t49.5 120t89 75.5t134 26t134 -26t89 -74t49.5 -115.5t15.5 -150.5q0 -99 -29.5 -213.5t-78 -235t-108.5 -237t-122 -220.5h342v-214
h-586z" />
    <glyph glyph-name="three" unicode="3" horiz-adv-x="704" 
d="M354 -16q-68 0 -117.5 21.5t-82 61t-51.5 94t-27 121.5t-8 142h212q0 -64 4 -121.5t20 -93t50 -35.5t50.5 27.5t22 70t5.5 88.5q0 120 -16.5 183.5t-58 89.5t-117.5 31v180q76 4 113 28t49 79.5t12 154.5q0 49 -3.5 92.5t-17.5 70.5t-47 27q-31 0 -47 -35.5t-21.5 -92.5
t-5.5 -122h-212q0 96 13 176.5t45 139.5t87.5 91.5t140.5 32.5q68 0 120.5 -25.5t88 -70.5t53.5 -104t18 -126q0 -100 -14 -180.5t-41.5 -136t-70.5 -83.5q71 -54 107.5 -155t36.5 -229q0 -101 -32.5 -190.5t-96.5 -145.5t-161 -56z" />
    <glyph glyph-name="four" unicode="4" horiz-adv-x="702" 
d="M369 0v320h-334v170l306 980h226v-960h100v-190h-100v-320h-198zM219 510h150v460v44h-12l-12 -44z" />
    <glyph glyph-name="five" unicode="5" horiz-adv-x="684" 
d="M342 -16q-86 0 -141.5 31t-86 89.5t-42.5 140.5t-12 183h216v-58q0 -82 10 -140t56 -58q30 0 44 28.5t18 73.5t4 94v328q0 47 -11.5 77.5t-46.5 30.5q-34 0 -54 -32t-25 -76h-197v774h522v-214h-336v-316q19 23 49.5 41.5t83.5 18.5q75 0 126.5 -36.5t78 -104.5
t26.5 -163v-328q0 -78 -12.5 -147.5t-43.5 -122.5t-86 -83.5t-140 -30.5z" />
    <glyph glyph-name="six" unicode="6" horiz-adv-x="684" 
d="M342 -16q-93 0 -156 41t-94.5 113t-31.5 164v826q0 80 15.5 145.5t49 113t87.5 73.5t130 26q77 0 130.5 -24.5t87 -70.5t49 -110t15.5 -143v-72h-216q0 71 -4 123t-18 80.5t-44 28.5t-44 -24t-18 -63t-4 -83v-226q14 19 44.5 34.5t73.5 15.5q53 0 95.5 -19t72.5 -55.5
t46 -90.5t16 -125v-360q0 -93 -32 -164.5t-95 -112.5t-155 -41zM342 172q35 0 50.5 34.5t15.5 71.5v398q0 36 -15 67t-50 31q-34 0 -50.5 -30.5t-16.5 -69.5v-396q0 -37 14.5 -71.5t51.5 -34.5z" />
    <glyph glyph-name="seven" unicode="7" horiz-adv-x="614" 
d="M139 0l220 1256h-324v214h544v-216l-216 -1254h-224z" />
    <glyph glyph-name="eight" unicode="8" horiz-adv-x="680" 
d="M340 -16q-94 0 -158 38.5t-97 108.5t-33 163v262q0 83 28.5 133t83.5 87q-49 35 -74.5 79.5t-25.5 120.5v234q0 90 32 151.5t93.5 93t150.5 31.5q92 0 153 -31.5t92 -93t31 -151.5v-234q0 -76 -25 -120.5t-75 -79.5q56 -37 84 -87t28 -133v-262q0 -94 -33 -164t-97 -108
t-158 -38zM340 182q29 0 46.5 15t21.5 43q5 29 7.5 79t2.5 101q0 47 -2.5 96t-7.5 80q-6 32 -22.5 48t-45.5 16q-28 0 -44.5 -16t-21.5 -48q-5 -28 -8 -78.5t-3 -98.5q0 -49 2.5 -99.5t6.5 -79.5q4 -28 25 -43t43 -15zM340 872q21 0 34.5 13.5t19.5 40.5q5 26 7.5 68
t2.5 100q0 51 -2.5 89t-7.5 63q-6 26 -19.5 38t-34.5 12q-18 0 -30 -10.5t-18 -33.5q-7 -24 -11 -73.5t-4 -102.5q0 -45 3 -85.5t8 -64.5q5 -27 18 -40.5t34 -13.5z" />
    <glyph glyph-name="nine" unicode="9" horiz-adv-x="684" 
d="M342 1486q94 0 156.5 -41t94 -112.5t31.5 -164.5v-826q0 -80 -15.5 -145.5t-49 -113t-87.5 -73.5t-130 -26t-130 24.5t-87.5 70.5t-49 110t-15.5 143v72h216q0 -70 4 -122.5t18 -81t44 -28.5t44 24t18 63t4 83v226q-14 -19 -44 -34.5t-74 -15.5q-53 0 -95.5 19
t-72.5 55.5t-46 91t-16 124.5v360q0 93 32 165t95 112.5t155 40.5zM342 1298q-34 0 -50 -34t-16 -72v-398q0 -36 15.5 -67t49.5 -31q35 0 51 30.5t16 69.5v396q0 38 -14 72t-52 34z" />
    <glyph glyph-name="colon" unicode=":" horiz-adv-x="354" 
d="M72 872v222h210v-222h-210zM72 0v222h210v-222h-210z" />
    <glyph glyph-name="semicolon" unicode=";" horiz-adv-x="354" 
d="M72 -260l70 260h-70v222h210v-222l-110 -260h-100zM72 872v222h210v-222h-210z" />
    <glyph glyph-name="less" unicode="&#x3c;" horiz-adv-x="1034" 
d="M962 170l-890 464v156l890 464v-194l-682 -348l682 -348v-194z" />
    <glyph glyph-name="equal" unicode="=" horiz-adv-x="1034" 
d="M72 844v168h890v-168h-890zM72 466v168h890v-168h-890z" />
    <glyph glyph-name="greater" unicode="&#x3e;" horiz-adv-x="1034" 
d="M72 170v194l682 348l-682 348v194l890 -464v-156z" />
    <glyph glyph-name="question" unicode="?" horiz-adv-x="686" 
d="M242 396v250q0 91 28 170.5t65.5 149.5t65.5 131.5t28 115.5q0 31 -17.5 54t-49.5 23q-49 0 -80 -42t-48 -100l-174 82q20 69 66 125t107.5 89.5t127.5 33.5q86 0 145 -36t89.5 -99t30.5 -145q0 -72 -30 -136t-69 -127.5t-69 -134t-30 -154.5v-250h-186zM230 0v222h210
v-222h-210z" />
    <glyph glyph-name="at" unicode="@" horiz-adv-x="852" 
d="M426 -16q-100 0 -183 40t-133 110.5t-50 161.5v868q0 96 49.5 168.5t132.5 113t184 40.5q103 0 186 -41t131.5 -113.5t48.5 -167.5v-774h-160l-20 54q-35 -66 -110 -66q-79 0 -110.5 49t-31.5 119v474q0 68 31.5 117t110.5 49q43 0 70 -20.5t40 -45.5v44q0 70 -54.5 112
t-131.5 42q-76 0 -131 -44t-55 -110v-868q0 -67 56 -108.5t130 -41.5q65 0 102.5 16t61.5 46l148 -84q-40 -54 -113 -97t-199 -43zM564 508q48 0 48 52v444q0 52 -48 52q-46 0 -46 -52v-444q0 -52 46 -52z" />
    <glyph glyph-name="A" unicode="A" horiz-adv-x="778" 
d="M35 0l222 1470h264l222 -1470h-210l-40 300h-208l-40 -300h-210zM315 528h148l-62 494l-6 78h-12l-6 -78z" />
    <glyph glyph-name="B" unicode="B" horiz-adv-x="728" 
d="M80 0v1470h220q112 0 193.5 -39.5t126 -123.5t44.5 -217q0 -106 -27.5 -185t-106.5 -129q80 -44 115 -139.5t35 -220.5q0 -123 -39.5 -217t-116 -146.5t-188.5 -52.5h-256zM296 214q98 0 129 58.5t31 167.5q0 111 -31 168.5t-129 57.5v-452zM296 864q91 0 125.5 50
t34.5 148q0 99 -35.5 146.5t-124.5 47.5v-392z" />
    <glyph glyph-name="C" unicode="C" 
d="M358 -16q-92 0 -156.5 41.5t-98 113.5t-33.5 163v866q0 90 34.5 162t99.5 114t154 42q67 0 120 -25t90.5 -68.5t57.5 -101t20 -123.5v-202h-202v202q0 46 -19 77t-63 31q-40 0 -58 -32t-18 -76v-866q0 -44 19.5 -76t56.5 -32q45 0 63.5 31t18.5 77v202h202v-202
q0 -90 -35 -162t-99.5 -114t-153.5 -42z" />
    <glyph glyph-name="D" unicode="D" horiz-adv-x="744" 
d="M80 0v1470h220q104 0 176 -34t116 -116t63.5 -225t19.5 -361q0 -219 -19.5 -361.5t-63.5 -224t-116 -115t-176 -33.5h-220zM296 216q80 0 113 63t40 180t7 278q0 163 -7 278.5t-40.5 177t-112.5 61.5v-1038z" />
    <glyph glyph-name="E" unicode="E" horiz-adv-x="654" 
d="M80 0v1470h494v-222h-278v-396h200v-216h-200v-414h278v-222h-494z" />
    <glyph glyph-name="F" unicode="F" horiz-adv-x="602" 
d="M80 0v1470h514v-222h-298v-386h200v-222h-200v-640h-216z" />
    <glyph glyph-name="G" unicode="G" horiz-adv-x="726" 
d="M324 -16q-89 0 -145 42t-82.5 114t-26.5 162v866q0 89 35 161t100 114.5t153 42.5q67 0 120.5 -24.5t91 -68.5t57 -101.5t19.5 -123.5v-226h-216v226q0 44 -16 76t-56 32q-39 0 -55.5 -33.5t-16.5 -74.5v-884q0 -43 17 -75.5t55 -32.5q40 0 56 32.5t16 75.5v246h-86v202
h302v-732h-128l-26 80q-28 -45 -71.5 -70.5t-96.5 -25.5z" />
    <glyph glyph-name="H" unicode="H" horiz-adv-x="760" 
d="M80 0v1470h216v-608h168v608h216v-1470h-216v640h-168v-640h-216z" />
    <glyph glyph-name="I" unicode="I" horiz-adv-x="376" 
d="M80 0v1470h216v-1470h-216z" />
    <glyph glyph-name="J" unicode="J" horiz-adv-x="424" 
d="M12 -14v212q14 -2 21 -2q45 0 70 28.5t25 81.5v1164h216v-1198q0 -95 -34.5 -159t-100.5 -96t-160 -32h-18t-19 1z" />
    <glyph glyph-name="K" unicode="K" horiz-adv-x="750" 
d="M80 0v1470h216v-490v-24h8l10 24l168 490h222l-198 -484l224 -986h-222l-144 670h-6l-62 -150v-520h-216z" />
    <glyph glyph-name="L" unicode="L" horiz-adv-x="590" 
d="M80 0v1470h216v-1270h286v-200h-502z" />
    <glyph glyph-name="M" unicode="M" horiz-adv-x="968" 
d="M80 0v1470h274l118 -762l10 -78h4l10 78l118 762h274v-1470h-200v986h-12l-8 -62l-128 -924h-112l-128 924l-8 62h-12v-986h-200z" />
    <glyph glyph-name="N" unicode="N" horiz-adv-x="790" 
d="M80 0v1470h202l200 -766l18 -68h12v834h198v-1470h-182l-220 766l-18 68h-12v-834h-198z" />
    <glyph glyph-name="O" unicode="O" 
d="M358 -16q-90 0 -154.5 42t-99 114t-34.5 162v866q0 91 34.5 162.5t99 113.5t154.5 42t154.5 -42t99 -114t34.5 -162v-866q0 -90 -34.5 -162t-99 -114t-154.5 -42zM358 194q40 0 56 33.5t16 74.5v866q0 41 -17 74.5t-55 33.5q-37 0 -54.5 -33.5t-17.5 -74.5v-866
q0 -41 17 -74.5t55 -33.5z" />
    <glyph glyph-name="P" unicode="P" horiz-adv-x="704" 
d="M80 0v1470h216q123 0 205.5 -54t123.5 -153t41 -233t-43 -231t-125.5 -151.5t-201.5 -59.5v-588h-216zM296 808q57 0 90 22.5t47.5 71.5t14.5 126q0 78 -14.5 127t-48 72t-89.5 23v-442z" />
    <glyph glyph-name="Q" unicode="Q" 
d="M688 -112q-91 0 -148 39t-86 85q-15 -11 -44.5 -19.5t-61.5 -8.5q-92 0 -154 42t-93 114t-31 162v866q0 90 34.5 162t99.5 114t154 42q90 0 154.5 -42t99 -114t34.5 -162v-866q0 -59 -15.5 -108.5t-35.5 -73.5q13 -21 37 -33t56 -15v-184zM358 194q40 0 56 32.5t16 75.5
v866q0 41 -16 74.5t-56 33.5q-39 0 -55.5 -33.5t-16.5 -74.5v-866q0 -43 17 -75.5t55 -32.5z" />
    <glyph glyph-name="R" unicode="R" horiz-adv-x="714" 
d="M80 0v1470h216q194 0 286 -107.5t92 -316.5q0 -124 -43.5 -214.5t-105.5 -132.5l147 -699h-216l-122 620h-38v-620h-216zM296 820q60 0 95 26.5t50 75.5t15 116q0 105 -34.5 161.5t-125.5 56.5v-436z" />
    <glyph glyph-name="S" unicode="S" horiz-adv-x="676" 
d="M340 -16q-89 0 -148 29.5t-93 85.5t-48.5 135t-14.5 178l212 20q0 -48 3.5 -92.5t13 -80t28 -56.5t47.5 -21q48 0 68 44.5t20 107.5t-33 131t-79 129q-78 104 -136.5 193t-91 175t-32.5 180q0 74 19 136.5t55.5 109t88.5 72.5t119 26q83 0 140.5 -28t93 -80t52 -123.5
t16.5 -158.5l-212 -20q0 37 -3.5 74.5t-12.5 68.5t-26 50t-44 19q-42 0 -58 -35.5t-16 -100.5q0 -84 45 -162t121 -182q91 -123 148.5 -226t57.5 -228q0 -79 -17 -146.5t-53.5 -117.5t-93 -78t-136.5 -28z" />
    <glyph glyph-name="T" unicode="T" horiz-adv-x="664" 
d="M224 0v1248h-204v222h624v-222h-204v-1248h-216z" />
    <glyph glyph-name="U" unicode="U" horiz-adv-x="736" 
d="M368 -16q-91 0 -155.5 42t-98.5 114t-34 162v1168h216v-1168q0 -43 17 -75.5t55 -32.5q40 0 56 32.5t16 75.5v1168h216v-1168q0 -90 -34.5 -162t-99 -114t-154.5 -42z" />
    <glyph glyph-name="V" unicode="V" horiz-adv-x="724" 
d="M254 0l-224 1470h210l108 -868l8 -142h12l8 142l108 868h210l-224 -1470h-216z" />
    <glyph glyph-name="W" unicode="W" horiz-adv-x="1024" 
d="M228 0l-198 1470h200l86 -764l4 -48h16l6 48l92 764h156l92 -764l6 -48h16l4 48l86 764h200l-198 -1470h-168l-100 696l-12 86h-8l-12 -86l-100 -696h-168z" />
    <glyph glyph-name="X" unicode="X" horiz-adv-x="748" 
d="M30 0l238 772l-234 698h212l118 -372l6 -28h8l6 28l118 372h212l-234 -698l238 -772h-212l-124 438l-4 28h-8l-4 -28l-124 -438h-212z" />
    <glyph glyph-name="Y" unicode="Y" 
d="M250 0v626l-220 844h212l106 -470l7 -64h6l7 64l106 470h212l-220 -844v-626h-216z" />
    <glyph glyph-name="Z" unicode="Z" horiz-adv-x="632" 
d="M30 0v232l338 1024h-290v214h524v-214l-344 -1042h344v-214h-572z" />
    <glyph glyph-name="bracketleft" unicode="[" horiz-adv-x="526" 
d="M80 -376v1846h390v-192h-198v-1462h198v-192h-390z" />
    <glyph glyph-name="backslash" unicode="\" horiz-adv-x="774" 
d="M602 -176l-594 1828h158l600 -1828h-164z" />
    <glyph glyph-name="bracketright" unicode="]" horiz-adv-x="526" 
d="M56 -376v192h198v1462h-198v192h390v-1846h-390z" />
    <glyph glyph-name="asciicircum" unicode="^" horiz-adv-x="1076" 
d="M52 790l372 680h228l372 -680h-194l-292 530l-292 -530h-194z" />
    <glyph glyph-name="underscore" unicode="_" horiz-adv-x="1182" 
d="M72 -318v168h1038v-168h-1038z" />
    <glyph glyph-name="grave" unicode="`" horiz-adv-x="1000" 
d="M634 1224h-156l-188 180h210z" />
    <glyph glyph-name="a" unicode="a" horiz-adv-x="639" 
d="M207 -16q-70 0 -121 71t-51 217q0 141 60.5 227t181.5 149q38 20 64 36t32 30v120q0 41 -9.5 70.5t-46.5 29.5q-34 0 -46 -31.5t-12 -78.5v-52h-202v46q0 90 35.5 155.5t97 101t139.5 35.5q75 0 130 -34.5t85.5 -95t30.5 -138.5v-652q0 -73 4 -113.5t10 -76.5h-198
q-13 16 -15.5 47t-2.5 41h-14q-25 -46 -63.5 -75t-88.5 -29zM289 182q35 0 59.5 24t24.5 52v260q-73 -31 -106.5 -93.5t-33.5 -140.5q0 -34 13 -68t43 -34z" />
    <glyph glyph-name="b" unicode="b" horiz-adv-x="608" 
d="M412 -16q-42 0 -81 26.5t-79 61.5v-72h-202v1470h202v-448q38 36 80 62t80 26q52 0 86.5 -31.5t52 -80.5t17.5 -102v-698q0 -53 -18 -102.5t-53 -80.5t-85 -31zM316 174q23 0 36.5 19t13.5 47v614q0 29 -13.5 47.5t-36.5 18.5q-22 0 -43 -21t-21 -45v-614q0 -28 21 -47
t43 -19z" />
    <glyph glyph-name="c" unicode="c" horiz-adv-x="598" 
d="M298 -15q-133 0 -195.5 83t-62.5 231v497q0 149 62.5 231.5t195.5 82.5t196.5 -83t63.5 -231v-86h-202v112q0 46 -12 77t-46 31t-45 -31.5t-11 -76.5v-549q0 -45 11 -76.5t45 -31.5t46 31t12 77v112h202v-86q0 -148 -63.5 -231t-196.5 -83z" />
    <glyph glyph-name="d" unicode="d" horiz-adv-x="640" 
d="M196 -16q-50 0 -85 31t-53 80.5t-18 102.5v698q0 53 17.5 102t52.5 80.5t86 31.5q38 0 80 -26t80 -62v448h202v-1470h-202v72q-40 -35 -79 -61.5t-81 -26.5zM292 174q23 0 43.5 19t20.5 47v614q0 24 -20.5 45t-43.5 21q-22 0 -36 -18.5t-14 -47.5v-614q0 -28 14 -47
t36 -19z" />
    <glyph glyph-name="e" unicode="e" horiz-adv-x="602" 
d="M300 -16q-121 0 -190.5 83.5t-69.5 204.5v550q0 128 69 208t193 80q81 0 139.5 -37t89.5 -100.5t31 -144.5v-318h-334v-238q0 -41 18.5 -75.5t55.5 -34.5q39 0 55.5 32t16.5 78v120h188v-126q0 -127 -68.5 -204.5t-193.5 -77.5zM228 668h146v154q0 45 -15.5 78.5
t-56.5 33.5q-38 0 -56 -34.5t-18 -77.5v-154z" />
    <glyph glyph-name="f" unicode="f" horiz-adv-x="468" 
d="M112 0v912h-102v182h102v60q0 155 72.5 239.5t189.5 84.5q26 0 48 -5t36 -13v-176q-20 15 -60 15q-29 0 -56.5 -30t-27.5 -89v-86h122v-182h-122v-912h-202z" />
    <glyph glyph-name="g" unicode="g" horiz-adv-x="690" 
d="M339 -392q-85 0 -159 19t-119.5 61.5t-45.5 111.5q0 53 29.5 92t67.5 63.5t61 30.5q-49 14 -85.5 48t-36.5 98q0 62 40 101t86 63q-55 36 -85.5 94.5t-30.5 143.5v298q0 123 68.5 200.5t187.5 77.5q77 0 125.5 -29.5t76.5 -70.5q29 49 78 74.5t88 25.5v-180
q-40 0 -70 -6.5t-48 -17.5q3 -7 6.5 -29t3.5 -39v-310q0 -116 -71 -193t-189 -77q-28 0 -38 2q-13 -12 -20.5 -24t-7.5 -26q0 -32 36.5 -45.5t97.5 -22.5q129 -19 209.5 -75t80.5 -179q0 -96 -48.5 -158t-125.5 -92t-162 -30zM343 -222q50 0 87 18t37 56t-22.5 51.5
t-75.5 26.5l-84 20q-31 -18 -52.5 -41t-21.5 -55q0 -31 31 -53.5t101 -22.5zM319 426q32 0 46 22t14 66v320q0 40 -13 65t-47 25t-47 -26t-13 -64v-320q0 -44 14 -66t46 -22z" />
    <glyph glyph-name="h" unicode="h" horiz-adv-x="628" 
d="M50 0v1470h202v-451q26 27 77 59t97 32q50 0 84 -29t51 -77.5t17 -107.5v-896h-202v854q0 30 -13.5 48.5t-31.5 18.5q-21 0 -50 -23.5t-29 -52.5v-845h-202z" />
    <glyph glyph-name="i" unicode="i" horiz-adv-x="322" 
d="M60 0v1094h202v-1094h-202zM60 1268v202h202v-202h-202z" />
    <glyph glyph-name="j" unicode="j" horiz-adv-x="336" 
d="M44 -376q-28 0 -51 3.5t-37 10.5v186q6 -4 23 -7t33 -3q31 0 44 23t15.5 60t2.5 77v1120h202v-1122q0 -103 -18.5 -181.5t-68.5 -122.5t-145 -44zM74 1268v202h202v-202h-202z" />
    <glyph glyph-name="k" unicode="k" horiz-adv-x="607" 
d="M50 0v1470h202v-662v-36h10l12 36l98 286h192l-156 -356l184 -738h-204l-100 442l-2 16h-2l-32 -80v-378h-202z" />
    <glyph glyph-name="l" unicode="l" horiz-adv-x="322" 
d="M60 0v1470h202v-1470h-202z" />
    <glyph glyph-name="m" unicode="m" horiz-adv-x="942" 
d="M50 0v1094h202v-92q49 45 89.5 76.5t78.5 31.5q54 0 87 -37t49 -85q43 44 89.5 83t94.5 39q50 0 84 -32t51 -81t17 -101v-896h-190v856q0 32 -15.5 45t-38.5 13t-44 -17.5t-32 -34.5v-862h-190v856q0 32 -15.5 45t-38.5 13t-44 -17.5t-32 -34.5v-862h-202z" />
    <glyph glyph-name="n" unicode="n" horiz-adv-x="618" 
d="M50 0v1094h202v-92q36 35 81 71.5t83 36.5q50 0 84 -32t51 -81t17 -101v-896h-202v856q0 32 -11 45t-37 13q-22 0 -37.5 -15.5t-28.5 -36.5v-862h-202z" />
    <glyph glyph-name="o" unicode="o" horiz-adv-x="598" 
d="M299 -14q-121 0 -190 81.5t-69 206.5v548q0 125 69 206.5t190 81.5q120 0 189.5 -81.5t69.5 -206.5v-548q0 -125 -69.5 -206.5t-189.5 -81.5zM299 162q39 0 54 31.5t15 80.5v548q0 50 -15 81t-54 31t-54 -31t-15 -81v-548q0 -50 15 -81t54 -31z" />
    <glyph glyph-name="p" unicode="p" horiz-adv-x="608" 
d="M50 -376v1470h202v-72q38 36 80 62t80 26q52 0 86.5 -31.5t52 -80.5t17.5 -102v-698q0 -53 -18 -102.5t-53 -80.5t-85 -31q-42 0 -82 26.5t-78 61.5v-448h-202zM322 174q23 0 33.5 14t10.5 42v614q0 38 -10.5 57t-33.5 19q-22 0 -46 -18.5t-24 -47.5v-614q0 -24 24 -45
t46 -21z" />
    <glyph glyph-name="q" unicode="q" horiz-adv-x="608" 
d="M356 -376v448q-38 -35 -78 -61.5t-82 -26.5q-50 0 -85 31t-53 80.5t-18 102.5v698q0 53 17.5 102t52.5 80.5t86 31.5q38 0 80 -26t80 -62v72h202v-1470h-202zM286 174q23 0 46.5 21t23.5 45v614q0 29 -23.5 47.5t-46.5 18.5q-22 0 -33 -19t-11 -57v-614q0 -28 11 -42
t33 -14z" />
    <glyph glyph-name="r" unicode="r" horiz-adv-x="474" 
d="M50 0v1094h202v-122q6 40 37 71t75.5 49t89.5 18v-224q-13 5 -27.5 6.5t-28.5 1.5q-66 0 -106 -36t-40 -98v-760h-202z" />
    <glyph glyph-name="s" unicode="s" horiz-adv-x="600" 
d="M312 -16q-71 0 -124 24t-88 68.5t-52.5 105.5t-17.5 136h188q0 -67 21.5 -116.5t72.5 -49.5q44 0 57 37t13 85q0 56 -43.5 114.5t-90.5 104.5q-81 80 -134.5 158t-53.5 183q0 124 65 200t185 76q72 0 121.5 -19t79.5 -57t43.5 -93t13.5 -127h-188q0 52 -11 90t-55 38
q-36 0 -51 -30.5t-15 -77.5q0 -55 26.5 -97.5t88.5 -103.5q78 -76 142.5 -162t64.5 -187q0 -66 -17.5 -121t-51 -95t-81 -62t-108.5 -22z" />
    <glyph glyph-name="t" unicode="t" horiz-adv-x="463" 
d="M344 -16q-95 0 -145 42t-68.5 120t-18.5 186v580h-102v182h102v270h202v-270h139v-182h-139v-609q0 -64 19 -94.5t62 -30.5q19 0 33.5 3t23.5 7v-185q-20 -8 -43.5 -13.5t-64.5 -5.5z" />
    <glyph glyph-name="u" unicode="u" horiz-adv-x="618" 
d="M202 -16q-50 0 -84 32t-51 81.5t-17 100.5v896h202v-856q0 -31 11.5 -44.5t36.5 -13.5q22 0 37.5 15.5t28.5 36.5v862h202v-1094h-202v92q-36 -34 -81 -71t-83 -37z" />
    <glyph glyph-name="v" unicode="v" horiz-adv-x="586" 
d="M193 0l-178 1094h196l68 -634l6 -110h16l6 110l68 634h196l-178 -1094h-200z" />
    <glyph glyph-name="w" unicode="w" horiz-adv-x="874" 
d="M177 0l-162 1094h194l54 -572l8 -112h12l10 112l84 572h120l84 -572l10 -112h12l8 112l54 572h194l-162 -1094h-168l-78 522l-10 102h-8l-10 -102l-78 -522h-168z" />
    <glyph glyph-name="x" unicode="x" horiz-adv-x="602" 
d="M15 0l188 564l-172 530h190l72 -266l6 -40h4l6 40l72 266h190l-172 -530l188 -564h-196l-82 286l-6 40h-4l-6 -40l-82 -286h-196z" />
    <glyph glyph-name="y" unicode="y" horiz-adv-x="602" 
d="M89 -392q-13 0 -31 1t-35 4v179q3 -1 16 -2.5t17 -1.5q56 0 90.5 30t48.5 80q5 15 5.5 35t0.5 35l-186 1126h198l80 -682l4 -76h8l4 76l80 682h198l-194 -1176q-11 -88 -49.5 -158.5t-102.5 -111t-152 -40.5z" />
    <glyph glyph-name="z" unicode="z" horiz-adv-x="592" 
d="M50 0v164l278 746h-234v184h448v-164l-278 -746h278v-184h-492z" />
    <glyph glyph-name="braceleft" unicode="{" horiz-adv-x="672" 
d="M616 -442q-155 0 -249 27.5t-136.5 105.5t-42.5 227v388q0 69 -36 102.5t-92 33.5v160q58 0 93 42t35 94v388q0 152 42 229t136.5 104t249.5 27v-168q-84 0 -136 -14t-76 -55.5t-24 -122.5v-388q0 -79 -32.5 -129.5t-91.5 -86.5q59 -37 91.5 -87.5t32.5 -128.5v-388
q0 -82 24.5 -123t76.5 -55t135 -14v-168z" />
    <glyph glyph-name="bar" unicode="|" horiz-adv-x="348" 
d="M80 -500v2152h188v-2152h-188z" />
    <glyph glyph-name="braceright" unicode="}" horiz-adv-x="672" 
d="M60 -442v168q83 0 135 14t76.5 55t24.5 123v388q0 78 33 128.5t91 87.5q-58 36 -91 86.5t-33 129.5v388q0 81 -24 122.5t-75.5 55.5t-136.5 14v168q156 0 250 -27t136 -104t42 -229v-388q0 -52 35 -94t93 -42v-160q-55 0 -91.5 -33.5t-36.5 -102.5v-388
q0 -149 -42.5 -227t-136.5 -105.5t-249 -27.5z" />
    <glyph glyph-name="asciitilde" unicode="~" horiz-adv-x="1206" 
d="M192 1264l-132 56q28 81 75 149.5t111 109.5t142 41q90 0 151 -30.5t119 -69.5q41 -28 82.5 -49t87.5 -21q44 0 78 23t60.5 63.5t47.5 91.5l132 -56q-29 -80 -75 -149t-106.5 -111t-136.5 -42q-84 0 -146.5 29t-119.5 69q-42 29 -84.5 50.5t-89.5 21.5q-46 0 -84.5 -24.5
t-66.5 -64.5t-45 -87z" />
    <glyph glyph-name="uni0093" horiz-adv-x="610" 
d="M348 988v222l110 260h100l-70 -260h70v-222h-210zM52 988v222l110 260h100l-70 -260h70v-222h-210z" />
    <glyph glyph-name="uni0094" horiz-adv-x="610" 
d="M348 988l70 260h-70v222h210v-222l-110 -260h-100zM52 988l70 260h-70v222h210v-222l-110 -260h-100z" />
    <glyph glyph-name="uni00A0" unicode="&#xa0;" horiz-adv-x="308" 
 />
    <glyph glyph-name="exclamdown" unicode="&#xa1;" horiz-adv-x="354" 
d="M60 -376l54 1074h126l54 -1074h-234zM72 872v222h210v-222h-210z" />
    <glyph glyph-name="cent" unicode="&#xa2;" horiz-adv-x="650" 
d="M274 -120v294q-60 9 -106 43.5t-72 102.5t-26 176v478q0 161 57 234t147 86v236h120v-238q74 -12 114.5 -52.5t56 -105t15.5 -150.5v-86h-184v132q0 50 -18.5 69t-53.5 19q-40 0 -55 -29t-15 -59v-590q0 -30 15 -59t55 -29q35 0 53.5 19.5t18.5 68.5v152h184v-106
q0 -104 -21 -169t-62.5 -98.5t-102.5 -42.5v-296h-120z" />
    <glyph glyph-name="sterling" unicode="&#xa3;" horiz-adv-x="846" 
d="M182 -16l-142 78q33 73 85.5 134.5t120.5 73.5q17 47 26.5 99.5t9.5 94.5q0 38 -8 81t-22 89h-184v134h144q-28 73 -55 163.5t-27 190.5q0 103 34 185t100.5 130.5t163.5 48.5q171 0 242.5 -104.5t71.5 -287.5h-208q0 83 -26 137.5t-76 54.5q-46 0 -72 -44.5t-26 -119.5
q0 -102 28.5 -194t55.5 -160h196v-134h-160q12 -49 17 -84t5 -77q0 -32 -8.5 -75t-23 -83.5t-32.5 -64.5q22 0 43 -14.5t42.5 -29t44.5 -14.5q29 0 45.5 29t24.5 72t10 85l184 -22q-12 -184 -81 -278t-165 -94q-44 0 -92 25t-92.5 50t-81.5 25t-68.5 -32.5t-43.5 -67.5z" />
    <glyph glyph-name="currency" unicode="&#xa4;" horiz-adv-x="823" 
d="M142 323l-67 69l91 92q-57 78 -57 177q0 98 57 177l-90 90l67 69l91 -91q79 57 178 57q97 0 176 -57l92 92l68 -69l-91 -91q57 -79 57 -177q0 -99 -57 -178l91 -91l-67 -69l-92 92q-79 -57 -177 -57q-99 0 -178 57zM412 507q64 0 108.5 45t44.5 109t-45 108.5t-108 44.5
q-64 0 -109 -44.5t-45 -108.5t45 -109t109 -45z" />
    <glyph glyph-name="yen" unicode="&#xa5;" 
d="M76 465h556v-133h-556v133zM76 731h556v-133h-556v133zM250 0v626l-220 844h212l106 -470l7 -64h6l7 64l106 470h212l-220 -844v-626h-216z" />
    <glyph glyph-name="brokenbar" unicode="&#xa6;" horiz-adv-x="348" 
d="M80 -500v893h188v-893h-188zM80 759v893h188v-893h-188z" />
    <glyph glyph-name="section" unicode="&#xa7;" horiz-adv-x="700" 
d="M624 654q0 -171 -105 -251q47 -60 65 -108t18 -111q0 -137 -70 -218.5t-188 -81.5q-130 0 -206 90t-76 244h188q0 -78 25 -122t69 -44q70 0 70 118q0 35 -10 63.5t-37.5 62t-78.5 82.5q-108 104 -150 177.5t-42 158.5q0 84 27 149.5t76 102.5q-46 58 -63.5 104.5
t-17.5 113.5q0 142 63.5 218t182.5 78q127 2 192.5 -73t65.5 -223h-188q0 62 -17 95t-49 33q-30 0 -46 -30.5t-16 -86.5q0 -32 9.5 -57.5t38 -59t84.5 -90.5q72 -72 112.5 -125.5t57 -102t16.5 -106.5zM284 725q0 -30 9 -55t34 -56t74 -81q17 12 26 41t9 66q0 51 -22.5 90
t-90.5 106q-11 -7 -20 -23.5t-14 -39t-5 -48.5z" />
    <glyph glyph-name="dieresis" unicode="&#xa8;" horiz-adv-x="1000" 
d="M548 1216v196h186v-196h-186zM266 1216v196h186v-196h-186z" />
    <glyph glyph-name="copyright" unicode="&#xa9;" horiz-adv-x="1606" 
d="M802 -16q-155 0 -291 58.5t-239 161.5t-161.5 239t-58.5 291q0 157 58.5 293.5t162 239.5t239.5 161t290 58q156 0 292.5 -58.5t239.5 -161.5t161.5 -239.5t58.5 -292.5q0 -155 -58.5 -291t-161.5 -239t-239.5 -161.5t-292.5 -58.5zM800 284q-88 0 -138 55t-50 137v518
q0 85 50.5 138.5t137.5 53.5q84 0 134 -56t50 -136v-122h-134v122q0 26 -11 44t-37 18q-25 0 -36.5 -20.5t-11.5 -41.5v-518q0 -62 48 -62q27 0 37.5 18.5t10.5 43.5v122h134v-122q0 -82 -50 -137t-134 -55zM802 100q130 0 245 49.5t203 136.5t138 202t50 246
q0 132 -49.5 247.5t-136.5 202.5t-202.5 136.5t-247.5 49.5t-247 -50t-202 -138.5t-136 -203.5t-49 -244t50 -244t137.5 -202.5t202.5 -137.5t244 -50z" />
    <glyph glyph-name="ordfeminine" unicode="&#xaa;" horiz-adv-x="369" 
d="M129 539q-81 0 -81 135t121 197q27 13 48 33v60q0 50 -28 50q-17 0 -23 -16t-6 -65h-101v23q0 61 40 103.5t96 42.5q52 0 87.5 -35.5t35.5 -88.5v-336q0 -25 1.5 -45.5t5.5 -49.5h-99q-4 5 -6.5 17t-2.5 27h-7q-30 -52 -81 -52zM175 638q17 0 29.5 10t12.5 23v139
q-31 -14 -50.5 -46.5t-19.5 -74.5q0 -51 28 -51z" />
    <glyph glyph-name="guillemotleft" unicode="&#xab;" horiz-adv-x="776" 
d="M716 204l-326 265v152l326 265v-190l-238 -176v50l238 -176v-190zM386 204l-326 265v152l326 265v-190l-238 -176v50l238 -176v-190z" />
    <glyph glyph-name="logicalnot" unicode="&#xac;" horiz-adv-x="1036" 
d="M796 296v338h-724v168h892v-506h-168z" />
    <glyph glyph-name="uni00AD" unicode="&#xad;" horiz-adv-x="434" 
d="M72 444v190h290v-190h-290z" />
    <glyph glyph-name="registered" unicode="&#xae;" horiz-adv-x="1606" 
d="M802 -16q-155 0 -291 58.5t-239 161.5t-161.5 239t-58.5 291q0 157 58.5 293.5t162 239.5t239.5 161t290 58q156 0 292.5 -58.5t239.5 -161.5t161.5 -239.5t58.5 -292.5q0 -155 -58.5 -291t-161.5 -239t-239.5 -161.5t-292.5 -58.5zM802 100q130 0 245 49.5t203 136.5
t138 202t50 246q0 132 -49.5 247.5t-136.5 202.5t-202.5 136.5t-247.5 49.5t-247 -50t-202 -138.5t-136 -203.5t-49 -244t50 -244t137.5 -202.5t202.5 -137.5t244 -50zM610 306v858h192q120 0 173 -66.5t53 -185.5q0 -64 -13 -115t-73 -101l104 -390h-148l-92 356h-54v-356
h-142zM752 786h44q62 0 82 40q9 18 11.5 40t2.5 44q0 23 -2.5 45.5t-11.5 40.5t-29.5 30t-52.5 12h-44v-252z" />
    <glyph glyph-name="macron" unicode="&#xaf;" horiz-adv-x="1000" 
d="M306 1235v148h388v-148h-388z" />
    <glyph glyph-name="degree" unicode="&#xb0;" horiz-adv-x="458" 
d="M230 1168q-61 0 -105.5 39.5t-44.5 100.5q0 62 44.5 101t105.5 39q62 0 105 -39t43 -101q0 -61 -43 -100.5t-105 -39.5zM230 1238q29 0 51.5 21t22.5 49q0 29 -22.5 49.5t-51.5 20.5q-28 0 -51 -20.5t-23 -49.5q0 -28 23 -49t51 -21z" />
    <glyph glyph-name="plusminus" unicode="&#xb1;" horiz-adv-x="1036" 
d="M434 296v338h-362v168h362v338h168v-338h362v-168h-362v-338h-168zM73 0v168h890v-168h-890z" />
    <glyph glyph-name="uni00B2" unicode="&#xb2;" horiz-adv-x="641" 
d="M100 600v117q98 115 157.5 202t87.5 156t30 130q1 36 -14.5 57t-40.5 21q-30 0 -42 -17t-12 -60v-55h-162v55q0 101 56 155t160 54q108 0 162 -52t54 -156q0 -54 -20 -111t-72.5 -141.5t-150.5 -222.5h246v-132h-439z" />
    <glyph glyph-name="uni00B3" unicode="&#xb3;" horiz-adv-x="631" 
d="M311 591q-205 0 -205 242h159q0 -58 14.5 -84t39.5 -26q34 0 43.5 26t9.5 84q0 57 -9 84.5t-38 36.5t-90 10v100q53 8 79.5 20t35 36.5t8.5 68.5q0 56 -10.5 75t-37.5 19q-29 0 -40 -23.5t-11 -86.5h-159q0 242 207 242q101 0 155.5 -54.5t54.5 -156.5q0 -55 -17.5 -93
t-61.5 -78q51 -44 72 -89t21 -113q0 -118 -56 -179t-164 -61z" />
    <glyph glyph-name="acute" unicode="&#xb4;" horiz-adv-x="1000" 
d="M391 1224l134 180h210l-188 -180h-156z" />
    <glyph glyph-name="uni00B5" unicode="&#xb5;" horiz-adv-x="674" 
d="M76 -376v1470h202v-866q0 -48 48 -48q26 0 46 22t20 50v842h202v-1094h-202v92q-32 -34 -60.5 -57.5t-53.5 -36.5v-374h-202z" />
    <glyph glyph-name="paragraph" unicode="&#xb6;" horiz-adv-x="1064" 
d="M446 -300v888q-181 0 -280.5 116t-99.5 326t99.5 325t280.5 115h216v-1770h-216zM768 -300v1770h216v-1770h-216z" />
    <glyph glyph-name="periodcentered" unicode="&#xb7;" horiz-adv-x="210" 
d="M0 634v222h210v-222h-210z" />
    <glyph glyph-name="cedilla" unicode="&#xb8;" horiz-adv-x="1000" 
d="M662 -61q44 0 80 -29.5t36 -99.5q0 -65 -36.5 -106.5t-94 -60.5t-120.5 -19q-54 0 -109.5 16.5t-81.5 35.5l52 110q18 -13 62.5 -31t87.5 -18q44 0 75 15t31 52q0 31 -16.5 42t-35.5 11q-45 0 -65 -34l-109 36l59 141h119l-47 -108h-9q8 22 45 34.5t77 12.5z" />
    <glyph glyph-name="uni00B9" unicode="&#xb9;" horiz-adv-x="470" 
d="M208 600v629h-108v79q51 8 79.5 19.5t56.5 35.5q29 25 37 40h97v-803h-162z" />
    <glyph glyph-name="ordmasculine" unicode="&#xba;" horiz-adv-x="446" 
d="M223 930q-80 0 -126.5 54.5t-46.5 137.5v166q0 83 46.5 137.5t126.5 54.5t126.5 -54.5t46.5 -137.5v-166q0 -83 -46.5 -137.5t-126.5 -54.5zM223 1048q26 0 36 20.5t10 53.5v166q0 33 -10 53.5t-36 20.5t-36 -20.5t-10 -53.5v-166q0 -33 10 -53.5t36 -20.5z" />
    <glyph glyph-name="guillemotright" unicode="&#xbb;" horiz-adv-x="776" 
d="M60 204v190l238 176v-50l-238 176v190l326 -265v-152zM390 204v190l238 176v-50l-238 176v190l326 -265v-152z" />
    <glyph glyph-name="onequarter" unicode="&#xbc;" horiz-adv-x="1642" 
d="M208 600v629h-108v79q51 8 79.5 19.5t56.5 35.5q29 25 37 40h97v-803h-162zM170 0l1042 1470h151l-1039 -1470h-154zM1339 0v175h-251v103l237 525h162v-510h75v-118h-75v-175h-148zM1233 293h106v248h-9l-12 -46z" />
    <glyph glyph-name="onehalf" unicode="&#xbd;" horiz-adv-x="1704" 
d="M208 600v629h-108v79q51 8 79.5 19.5t56.5 35.5q29 25 37 40h97v-803h-162zM170 0l1042 1470h151l-1039 -1470h-154zM1163 0v117q98 115 157.5 202t87.5 156t30 130q1 36 -14.5 57t-40.5 21q-30 0 -42 -17t-12 -60v-55h-162v55q0 101 56 155t160 54q108 0 162 -52
t54 -156q0 -54 -20 -111t-72.5 -141.5t-150.5 -222.5h246v-132h-439z" />
    <glyph glyph-name="threequarters" unicode="&#xbe;" horiz-adv-x="1803" 
d="M311 591q-205 0 -205 242h159q0 -58 14.5 -84t39.5 -26q34 0 43.5 26t9.5 84q0 57 -9 84.5t-38 36.5t-90 10v100q53 8 79.5 20t35 36.5t8.5 68.5q0 56 -10.5 75t-37.5 19q-29 0 -40 -23.5t-11 -86.5h-159q0 242 207 242q101 0 155.5 -54.5t54.5 -156.5q0 -55 -17.5 -93
t-61.5 -78q51 -44 72 -89t21 -113q0 -118 -56 -179t-164 -61zM331 0l1042 1470h151l-1039 -1470h-154zM1500 0v175h-251v103l237 525h162v-510h75v-118h-75v-175h-148zM1394 293h106v248h-9l-12 -46z" />
    <glyph glyph-name="questiondown" unicode="&#xbf;" horiz-adv-x="686" 
d="M444 698v-250q0 -91 -28 -170.5t-65.5 -149.5t-65.5 -131.5t-28 -115.5q0 -31 17.5 -54t49.5 -23q49 0 80.5 42t47.5 100l174 -82q-20 -69 -66 -125t-107.5 -89.5t-127.5 -33.5q-85 0 -144.5 36t-90 99.5t-30.5 144.5q0 72 30 136t69 127.5t69 134t30 154.5v250h186z
M456 1094v-222h-210v222h210z" />
    <glyph glyph-name="Agrave" unicode="&#xc0;" horiz-adv-x="778" 
d="M35 0l222 1470h264l222 -1470h-210l-40 300h-208l-40 -300h-210zM315 528h148l-62 494l-6 78h-12l-6 -78zM479 1600h-156l-188 180h210z" />
    <glyph glyph-name="Aacute" unicode="&#xc1;" horiz-adv-x="778" 
d="M35 0l222 1470h264l222 -1470h-210l-40 300h-208l-40 -300h-210zM315 528h148l-62 494l-6 78h-12l-6 -78zM291 1600l134 180h210l-188 -180h-156z" />
    <glyph glyph-name="Acircumflex" unicode="&#xc2;" horiz-adv-x="778" 
d="M35 0l222 1470h264l222 -1470h-210l-40 300h-208l-40 -300h-210zM315 528h148l-62 494l-6 78h-12l-6 -78zM144 1604l138 180h214l138 -180h-184l-62 90l-60 -90h-184z" />
    <glyph glyph-name="Atilde" unicode="&#xc3;" horiz-adv-x="778" 
d="M35 0l222 1470h264l222 -1470h-210l-40 300h-208l-40 -300h-210zM315 528h148l-62 494l-6 78h-12l-6 -78zM477 1581q-47 0 -86 18q-43 20 -90 20q-27 0 -56 -9.5t-50 -22.5v148q14 11 31 18.5t35 13.5t40 6q47 0 88 -16q22 -8 44 -15t44 -7q27 0 56 9.5t50 22.5v-148
q-19 -17 -51 -27.5t-55 -10.5z" />
    <glyph glyph-name="Adieresis" unicode="&#xc4;" horiz-adv-x="778" 
d="M35 0l222 1470h264l222 -1470h-210l-40 300h-208l-40 -300h-210zM315 528h148l-62 494l-6 78h-12l-6 -78zM437 1592v196h186v-196h-186zM155 1592v196h186v-196h-186z" />
    <glyph glyph-name="Aring" unicode="&#xc5;" horiz-adv-x="778" 
d="M35 0l222 1470h264l222 -1470h-210l-40 300h-208l-40 -300h-210zM315 528h148l-62 494l-6 78h-12l-6 -78zM390 1570q-61 0 -105.5 39.5t-44.5 100.5q0 62 44.5 101t105.5 39q62 0 105 -39t43 -101q0 -61 -43 -100.5t-105 -39.5zM390 1640q29 0 51.5 21t22.5 49
q0 29 -22.5 49.5t-51.5 20.5q-28 0 -51 -20.5t-23 -49.5q0 -28 23 -49t51 -21z" />
    <glyph glyph-name="AE" unicode="&#xc6;" horiz-adv-x="1133" 
d="M35 0l410 1470h608v-222h-278v-386h200v-236h-200v-404h278v-222h-494v300h-222l-88 -300h-214zM403 528h156v502h-10z" />
    <glyph glyph-name="Ccedilla" unicode="&#xc7;" 
d="M358 -16q-92 0 -156.5 41.5t-98 113.5t-33.5 163v866q0 90 34.5 162t99.5 114t154 42q67 0 120 -25t90.5 -68.5t57.5 -101t20 -123.5v-202h-202v202q0 46 -19 77t-63 31q-40 0 -58 -32t-18 -76v-866q0 -44 19.5 -76t56.5 -32q45 0 63.5 31t18.5 77v202h202v-202
q0 -90 -35 -162t-99.5 -114t-153.5 -42zM475 -61q44 0 80 -29.5t36 -99.5q0 -65 -36.5 -106.5t-94 -60.5t-120.5 -19q-54 0 -109.5 16.5t-81.5 35.5l52 110q18 -13 62.5 -31t87.5 -18q44 0 75 15t31 52q0 31 -16.5 42t-35.5 11q-45 0 -65 -34l-109 36l59 141h119l-47 -108
h-9q8 22 45 34.5t77 12.5z" />
    <glyph glyph-name="Egrave" unicode="&#xc8;" horiz-adv-x="654" 
d="M80 0v1470h494v-222h-278v-396h200v-216h-200v-414h278v-222h-494zM398 1600h-156l-188 180h210z" />
    <glyph glyph-name="Eacute" unicode="&#xc9;" horiz-adv-x="614" 
d="M80 0v1470h494v-222h-278v-386h200v-236h-200v-404h278v-222h-494zM230 1600l104 180h210l-158 -180h-156z" />
    <glyph glyph-name="Ecircumflex" unicode="&#xca;" horiz-adv-x="654" 
d="M80 0v1470h494v-222h-278v-396h200v-216h-200v-414h278v-222h-494zM63 1604l138 180h214l138 -180h-184l-62 90l-60 -90h-184z" />
    <glyph glyph-name="Edieresis" unicode="&#xcb;" horiz-adv-x="654" 
d="M80 0v1470h494v-222h-278v-396h200v-216h-200v-414h278v-222h-494zM356 1592v196h186v-196h-186zM74 1592v196h186v-196h-186z" />
    <glyph glyph-name="Igrave" unicode="&#xcc;" horiz-adv-x="376" 
d="M80 0v1470h216v-1470h-216zM278 1600h-156l-188 180h210z" />
    <glyph glyph-name="Iacute" unicode="&#xcd;" horiz-adv-x="376" 
d="M80 0v1470h216v-1470h-216zM90 1600l134 180h210l-188 -180h-156z" />
    <glyph glyph-name="Icircumflex" unicode="&#xce;" horiz-adv-x="376" 
d="M80 0v1470h216v-1470h-216zM-57 1604l138 180h214l138 -180h-184l-62 90l-60 -90h-184z" />
    <glyph glyph-name="Idieresis" unicode="&#xcf;" horiz-adv-x="376" 
d="M80 0v1470h216v-1470h-216zM236 1592v196h186v-196h-186zM-46 1592v196h186v-196h-186z" />
    <glyph glyph-name="Eth" unicode="&#xd0;" horiz-adv-x="744" 
d="M32 634v190h358v-190h-358zM80 0v1470h220q104 0 176 -34t116 -116t63.5 -225t19.5 -361q0 -219 -19.5 -361.5t-63.5 -224t-116 -115t-176 -33.5h-220zM296 216q80 0 113 63t40 180t7 278q0 163 -7 278.5t-40.5 177t-112.5 61.5v-1038z" />
    <glyph glyph-name="Ntilde" unicode="&#xd1;" horiz-adv-x="790" 
d="M80 0v1470h202l200 -766l18 -68h12v834h198v-1470h-182l-220 766l-18 68h-12v-834h-198zM484 1581q-47 0 -86 18q-43 20 -90 20q-27 0 -56 -9.5t-50 -22.5v148q14 11 31 18.5t35 13.5t40 6q47 0 88 -16q22 -8 44 -15t44 -7q27 0 56 9.5t50 22.5v-148q-19 -17 -51 -27.5
t-55 -10.5z" />
    <glyph glyph-name="Ograve" unicode="&#xd2;" 
d="M358 -16q-90 0 -154.5 42t-99 114t-34.5 162v866q0 91 34.5 162.5t99 113.5t154.5 42t154.5 -42t99 -114t34.5 -162v-866q0 -90 -34.5 -162t-99 -114t-154.5 -42zM358 194q40 0 56 33.5t16 74.5v866q0 41 -17 74.5t-55 33.5q-37 0 -54.5 -33.5t-17.5 -74.5v-866
q0 -41 17 -74.5t55 -33.5zM448 1600h-156l-188 180h210z" />
    <glyph glyph-name="Oacute" unicode="&#xd3;" 
d="M358 -16q-90 0 -154.5 42t-99 114t-34.5 162v866q0 91 34.5 162.5t99 113.5t154.5 42t154.5 -42t99 -114t34.5 -162v-866q0 -90 -34.5 -162t-99 -114t-154.5 -42zM358 194q40 0 56 33.5t16 74.5v866q0 41 -17 74.5t-55 33.5q-37 0 -54.5 -33.5t-17.5 -74.5v-866
q0 -41 17 -74.5t55 -33.5zM260 1600l134 180h210l-188 -180h-156z" />
    <glyph glyph-name="Ocircumflex" unicode="&#xd4;" 
d="M358 -16q-90 0 -154.5 42t-99 114t-34.5 162v866q0 91 34.5 162.5t99 113.5t154.5 42t154.5 -42t99 -114t34.5 -162v-866q0 -90 -34.5 -162t-99 -114t-154.5 -42zM358 194q40 0 56 33.5t16 74.5v866q0 41 -17 74.5t-55 33.5q-37 0 -54.5 -33.5t-17.5 -74.5v-866
q0 -41 17 -74.5t55 -33.5zM113 1604l138 180h214l138 -180h-184l-62 90l-60 -90h-184z" />
    <glyph glyph-name="Otilde" unicode="&#xd5;" 
d="M358 -16q-90 0 -154.5 42t-99 114t-34.5 162v866q0 91 34.5 162.5t99 113.5t154.5 42t154.5 -42t99 -114t34.5 -162v-866q0 -90 -34.5 -162t-99 -114t-154.5 -42zM358 194q40 0 56 33.5t16 74.5v866q0 41 -17 74.5t-55 33.5q-37 0 -54.5 -33.5t-17.5 -74.5v-866
q0 -41 17 -74.5t55 -33.5zM446 1581q-47 0 -86 18q-43 20 -90 20q-27 0 -56 -9.5t-50 -22.5v148q14 11 31 18.5t35 13.5t40 6q47 0 88 -16q22 -8 44 -15t44 -7q27 0 56 9.5t50 22.5v-148q-19 -17 -51 -27.5t-55 -10.5z" />
    <glyph glyph-name="Odieresis" unicode="&#xd6;" 
d="M358 -16q-90 0 -154.5 42t-99 114t-34.5 162v866q0 91 34.5 162.5t99 113.5t154.5 42t154.5 -42t99 -114t34.5 -162v-866q0 -90 -34.5 -162t-99 -114t-154.5 -42zM358 194q40 0 56 33.5t16 74.5v866q0 41 -17 74.5t-55 33.5q-37 0 -54.5 -33.5t-17.5 -74.5v-866
q0 -41 17 -74.5t55 -33.5zM406 1592v196h186v-196h-186zM124 1592v196h186v-196h-186z" />
    <glyph glyph-name="multiply" unicode="&#xd7;" horiz-adv-x="860" 
d="M191 360l-119 119l239 239l-239 239l119 119l239 -239l239 239l119 -119l-239 -239l239 -239l-119 -119l-239 239z" />
    <glyph glyph-name="Oslash" unicode="&#xd8;" 
d="M59 24l483 1472l124 -60l-478 -1472zM358 -16q-90 0 -154.5 42t-99 114t-34.5 162v866q0 91 34.5 162.5t99 113.5t154.5 42t154.5 -42t99 -114t34.5 -162v-866q0 -90 -34.5 -162t-99 -114t-154.5 -42zM358 194q40 0 56 33.5t16 74.5v866q0 41 -17 74.5t-55 33.5
q-37 0 -54.5 -33.5t-17.5 -74.5v-866q0 -41 17 -74.5t55 -33.5z" />
    <glyph glyph-name="Ugrave" unicode="&#xd9;" horiz-adv-x="736" 
d="M368 -16q-91 0 -155.5 42t-98.5 114t-34 162v1168h216v-1168q0 -43 17 -75.5t55 -32.5q40 0 56 32.5t16 75.5v1168h216v-1168q0 -90 -34.5 -162t-99 -114t-154.5 -42zM458 1600h-156l-188 180h210z" />
    <glyph glyph-name="Uacute" unicode="&#xda;" horiz-adv-x="736" 
d="M368 -16q-91 0 -155.5 42t-98.5 114t-34 162v1168h216v-1168q0 -43 17 -75.5t55 -32.5q40 0 56 32.5t16 75.5v1168h216v-1168q0 -90 -34.5 -162t-99 -114t-154.5 -42zM270 1600l134 180h210l-188 -180h-156z" />
    <glyph glyph-name="Ucircumflex" unicode="&#xdb;" horiz-adv-x="736" 
d="M368 -16q-91 0 -155.5 42t-98.5 114t-34 162v1168h216v-1168q0 -43 17 -75.5t55 -32.5q40 0 56 32.5t16 75.5v1168h216v-1168q0 -90 -34.5 -162t-99 -114t-154.5 -42zM123 1604l138 180h214l138 -180h-184l-62 90l-60 -90h-184z" />
    <glyph glyph-name="Udieresis" unicode="&#xdc;" horiz-adv-x="736" 
d="M368 -16q-91 0 -155.5 42t-98.5 114t-34 162v1168h216v-1168q0 -43 17 -75.5t55 -32.5q40 0 56 32.5t16 75.5v1168h216v-1168q0 -90 -34.5 -162t-99 -114t-154.5 -42zM416 1592v196h186v-196h-186zM134 1592v196h186v-196h-186z" />
    <glyph glyph-name="Yacute" unicode="&#xdd;" 
d="M250 0v626l-220 844h212l106 -470l7 -64h6l7 64l106 470h212l-220 -844v-626h-216zM260 1600l134 180h210l-188 -180h-156z" />
    <glyph glyph-name="Thorn" unicode="&#xde;" horiz-adv-x="714" 
d="M80 0v1470h214v-236q123 0 208.5 -51t129.5 -149t44 -240q0 -134 -43.5 -233.5t-128 -154t-208.5 -54.5v-352h-216zM296 572q61 0 96 21t50.5 68.5t15.5 124.5q0 78 -15.5 128.5t-51 75t-95.5 24.5v-442z" />
    <glyph glyph-name="germandbls" unicode="&#xdf;" horiz-adv-x="700" 
d="M60 0v1206q0 88 34 150.5t96 96t144 33.5q85 0 144 -35.5t89.5 -98t30.5 -144.5q0 -54 -22.5 -97t-63.5 -73q35 -19 62 -54t46 -92q20 -57 30 -138.5t10 -191.5q0 -181 -21 -292.5t-63 -171.5t-103 -79t-139 -19v188q30 0 54.5 13t39.5 53q15 41 22.5 114.5t7.5 193.5
q0 128 -7.5 205t-22.5 119t-39.5 56t-54.5 14v138q35 0 59.5 31t24.5 83q0 41 -18 69.5t-62 28.5q-37 0 -56.5 -29.5t-19.5 -70.5v-1206h-202z" />
    <glyph glyph-name="agrave" unicode="&#xe0;" horiz-adv-x="639" 
d="M207 -16q-70 0 -121 71t-51 217q0 141 60.5 227t181.5 149q38 20 64 36t32 30v120q0 41 -9.5 70.5t-46.5 29.5q-34 0 -46 -31.5t-12 -78.5v-52h-202v46q0 90 35.5 155.5t97 101t139.5 35.5q75 0 130 -34.5t85.5 -95t30.5 -138.5v-652q0 -73 4 -113.5t10 -76.5h-198
q-13 16 -15.5 47t-2.5 41h-14q-25 -46 -63.5 -75t-88.5 -29zM289 182q35 0 59.5 24t24.5 52v260q-73 -31 -106.5 -93.5t-33.5 -140.5q0 -34 13 -68t43 -34zM411 1224h-156l-188 180h210z" />
    <glyph glyph-name="aacute" unicode="&#xe1;" horiz-adv-x="639" 
d="M207 -16q-70 0 -121 71t-51 217q0 141 60.5 227t181.5 149q38 20 64 36t32 30v120q0 41 -9.5 70.5t-46.5 29.5q-34 0 -46 -31.5t-12 -78.5v-52h-202v46q0 90 35.5 155.5t97 101t139.5 35.5q75 0 130 -34.5t85.5 -95t30.5 -138.5v-652q0 -73 4 -113.5t10 -76.5h-198
q-13 16 -15.5 47t-2.5 41h-14q-25 -46 -63.5 -75t-88.5 -29zM289 182q35 0 59.5 24t24.5 52v260q-73 -31 -106.5 -93.5t-33.5 -140.5q0 -34 13 -68t43 -34zM223 1224l134 180h210l-188 -180h-156z" />
    <glyph glyph-name="acircumflex" unicode="&#xe2;" horiz-adv-x="639" 
d="M207 -16q-70 0 -121 71t-51 217q0 141 60.5 227t181.5 149q38 20 64 36t32 30v120q0 41 -9.5 70.5t-46.5 29.5q-34 0 -46 -31.5t-12 -78.5v-52h-202v46q0 90 35.5 155.5t97 101t139.5 35.5q75 0 130 -34.5t85.5 -95t30.5 -138.5v-652q0 -73 4 -113.5t10 -76.5h-198
q-13 16 -15.5 47t-2.5 41h-14q-25 -46 -63.5 -75t-88.5 -29zM289 182q35 0 59.5 24t24.5 52v260q-73 -31 -106.5 -93.5t-33.5 -140.5q0 -34 13 -68t43 -34zM76 1228l138 180h214l138 -180h-184l-62 90l-60 -90h-184z" />
    <glyph glyph-name="atilde" unicode="&#xe3;" horiz-adv-x="639" 
d="M207 -16q-70 0 -121 71t-51 217q0 141 60.5 227t181.5 149q38 20 64 36t32 30v120q0 41 -9.5 70.5t-46.5 29.5q-34 0 -46 -31.5t-12 -78.5v-52h-202v46q0 90 35.5 155.5t97 101t139.5 35.5q75 0 130 -34.5t85.5 -95t30.5 -138.5v-652q0 -73 4 -113.5t10 -76.5h-198
q-13 16 -15.5 47t-2.5 41h-14q-25 -46 -63.5 -75t-88.5 -29zM289 182q35 0 59.5 24t24.5 52v260q-73 -31 -106.5 -93.5t-33.5 -140.5q0 -34 13 -68t43 -34zM409 1205q-47 0 -86 18q-43 20 -90 20q-27 0 -56 -9.5t-50 -22.5v148q14 11 31 18.5t35 13.5t40 6q47 0 88 -16
q22 -8 44 -15t44 -7q27 0 56 9.5t50 22.5v-148q-19 -17 -51 -27.5t-55 -10.5z" />
    <glyph glyph-name="adieresis" unicode="&#xe4;" horiz-adv-x="639" 
d="M207 -16q-70 0 -121 71t-51 217q0 141 60.5 227t181.5 149q38 20 64 36t32 30v120q0 41 -9.5 70.5t-46.5 29.5q-34 0 -46 -31.5t-12 -78.5v-52h-202v46q0 90 35.5 155.5t97 101t139.5 35.5q75 0 130 -34.5t85.5 -95t30.5 -138.5v-652q0 -73 4 -113.5t10 -76.5h-198
q-13 16 -15.5 47t-2.5 41h-14q-25 -46 -63.5 -75t-88.5 -29zM289 182q35 0 59.5 24t24.5 52v260q-73 -31 -106.5 -93.5t-33.5 -140.5q0 -34 13 -68t43 -34zM369 1216v196h186v-196h-186zM87 1216v196h186v-196h-186z" />
    <glyph glyph-name="aring" unicode="&#xe5;" horiz-adv-x="639" 
d="M207 -16q-70 0 -121 71t-51 217q0 141 60.5 227t181.5 149q38 20 64 36t32 30v120q0 41 -9.5 70.5t-46.5 29.5q-34 0 -46 -31.5t-12 -78.5v-52h-202v46q0 90 35.5 155.5t97 101t139.5 35.5q75 0 130 -34.5t85.5 -95t30.5 -138.5v-652q0 -73 4 -113.5t10 -76.5h-198
q-13 16 -15.5 47t-2.5 41h-14q-25 -46 -63.5 -75t-88.5 -29zM289 182q35 0 59.5 24t24.5 52v260q-73 -31 -106.5 -93.5t-33.5 -140.5q0 -34 13 -68t43 -34zM322 1194q-61 0 -105.5 39.5t-44.5 100.5q0 62 44.5 101t105.5 39q62 0 105 -39t43 -101q0 -61 -43 -100.5
t-105 -39.5zM322 1264q29 0 51.5 21t22.5 49q0 29 -22.5 49.5t-51.5 20.5q-28 0 -51 -20.5t-23 -49.5q0 -28 23 -49t51 -21z" />
    <glyph glyph-name="ae" unicode="&#xe6;" horiz-adv-x="945" 
d="M307 -16q-75 0 -136.5 31.5t-98.5 95.5t-37 161q0 141 60.5 217t181.5 139q38 20 64 36t32 30v140q0 41 -9.5 70.5t-46.5 29.5q-34 0 -46 -31.5t-12 -78.5v-52h-202v46q0 90 35.5 155.5t97 101t139.5 35.5q75 0 127.5 -34.5t80.5 -95t28 -138.5v-612q0 -111 -71 -178.5
t-187 -67.5zM289 182q35 0 59.5 24t24.5 52v240q-73 -31 -106.5 -83.5t-33.5 -130.5q0 -34 13 -68t43 -34zM643 -16q-121 0 -190.5 83.5t-69.5 204.5v550q0 128 69 208t193 80q81 0 139.5 -37t89.5 -100.5t31 -144.5v-318h-334v-238q0 -41 18.5 -75.5t55.5 -34.5
q39 0 55.5 32t16.5 78v120h188v-126q0 -127 -68.5 -204.5t-193.5 -77.5zM571 668h146v154q0 45 -15.5 78.5t-56.5 33.5q-38 0 -56 -34.5t-18 -77.5v-154z" />
    <glyph glyph-name="ccedilla" unicode="&#xe7;" horiz-adv-x="598" 
d="M298 -15q-133 0 -195.5 83t-62.5 231v497q0 149 62.5 231.5t195.5 82.5t196.5 -83t63.5 -231v-86h-202v112q0 46 -12 77t-46 31t-45 -31.5t-11 -76.5v-549q0 -45 11 -76.5t45 -31.5t46 31t12 77v112h202v-86q0 -148 -63.5 -231t-196.5 -83zM422 -61q44 0 80 -29.5
t36 -99.5q0 -65 -36.5 -106.5t-94 -60.5t-120.5 -19q-54 0 -109.5 16.5t-81.5 35.5l52 110q18 -13 62.5 -31t87.5 -18q44 0 75 15t31 52q0 31 -16.5 42t-35.5 11q-45 0 -65 -34l-109 36l59 141h119l-47 -108h-9q8 22 45 34.5t77 12.5z" />
    <glyph glyph-name="egrave" unicode="&#xe8;" horiz-adv-x="602" 
d="M300 -16q-121 0 -190.5 83.5t-69.5 204.5v550q0 128 69 208t193 80q81 0 139.5 -37t89.5 -100.5t31 -144.5v-318h-334v-238q0 -41 18.5 -75.5t55.5 -34.5q39 0 55.5 32t16.5 78v120h188v-126q0 -127 -68.5 -204.5t-193.5 -77.5zM228 668h146v154q0 45 -15.5 78.5
t-56.5 33.5q-38 0 -56 -34.5t-18 -77.5v-154zM388 1224h-156l-188 180h210z" />
    <glyph glyph-name="eacute" unicode="&#xe9;" horiz-adv-x="602" 
d="M300 -16q-121 0 -190.5 83.5t-69.5 204.5v550q0 128 69 208t193 80q81 0 139.5 -37t89.5 -100.5t31 -144.5v-318h-334v-238q0 -41 18.5 -75.5t55.5 -34.5q39 0 55.5 32t16.5 78v120h188v-126q0 -127 -68.5 -204.5t-193.5 -77.5zM228 668h146v154q0 45 -15.5 78.5
t-56.5 33.5q-38 0 -56 -34.5t-18 -77.5v-154zM200 1224l134 180h210l-188 -180h-156z" />
    <glyph glyph-name="ecircumflex" unicode="&#xea;" horiz-adv-x="602" 
d="M300 -16q-121 0 -190.5 83.5t-69.5 204.5v550q0 128 69 208t193 80q81 0 139.5 -37t89.5 -100.5t31 -144.5v-318h-334v-238q0 -41 18.5 -75.5t55.5 -34.5q39 0 55.5 32t16.5 78v120h188v-126q0 -127 -68.5 -204.5t-193.5 -77.5zM228 668h146v154q0 45 -15.5 78.5
t-56.5 33.5q-38 0 -56 -34.5t-18 -77.5v-154zM53 1228l138 180h214l138 -180h-184l-62 90l-60 -90h-184z" />
    <glyph glyph-name="edieresis" unicode="&#xeb;" horiz-adv-x="602" 
d="M300 -16q-121 0 -190.5 83.5t-69.5 204.5v550q0 128 69 208t193 80q81 0 139.5 -37t89.5 -100.5t31 -144.5v-318h-334v-238q0 -41 18.5 -75.5t55.5 -34.5q39 0 55.5 32t16.5 78v120h188v-126q0 -127 -68.5 -204.5t-193.5 -77.5zM228 668h146v154q0 45 -15.5 78.5
t-56.5 33.5q-38 0 -56 -34.5t-18 -77.5v-154zM346 1216v196h186v-196h-186zM64 1216v196h186v-196h-186z" />
    <glyph glyph-name="igrave" unicode="&#xec;" horiz-adv-x="362" 
d="M80 0v1094h202v-1094h-202zM271 1224h-156l-188 180h210z" />
    <glyph glyph-name="iacute" unicode="&#xed;" horiz-adv-x="362" 
d="M80 0v1094h202v-1094h-202zM83 1224l134 180h210l-188 -180h-156z" />
    <glyph glyph-name="icircumflex" unicode="&#xee;" horiz-adv-x="362" 
d="M80 0v1094h202v-1094h-202zM-64 1228l138 180h214l138 -180h-184l-62 90l-60 -90h-184z" />
    <glyph glyph-name="idieresis" unicode="&#xef;" horiz-adv-x="362" 
d="M80 0v1094h202v-1094h-202zM229 1216v196h186v-196h-186zM-53 1216v196h186v-196h-186z" />
    <glyph glyph-name="eth" unicode="&#xf0;" horiz-adv-x="598" 
d="M298 -16q-80 0 -138 38.5t-89 104t-31 145.5v566q0 54 8 103t27 87t51.5 60t81.5 22q35 0 73.5 -20.5t78.5 -55.5q-7 62 -20 111.5t-30 86.5l-80 -70l-54 62l98 86q-5 8 -19 28t-25 36l106 98q8 -8 25.5 -28t26.5 -32l92 80l54 -64l-98 -86q47 -72 84.5 -179t37.5 -257
v-640q0 -82 -31 -145.5t-89 -100t-140 -36.5zM298 162q42 0 56 33t14 77v550q0 50 -15 81t-55 31q-39 0 -53.5 -36t-14.5 -76v-550q0 -43 14 -76.5t54 -33.5z" />
    <glyph glyph-name="ntilde" unicode="&#xf1;" horiz-adv-x="618" 
d="M50 0v1094h202v-92q36 35 81 71.5t83 36.5q50 0 84 -32t51 -81t17 -101v-896h-202v856q0 32 -11 45t-37 13q-22 0 -37.5 -15.5t-28.5 -36.5v-862h-202zM396 1205q-47 0 -86 18q-43 20 -90 20q-27 0 -56 -9.5t-50 -22.5v148q14 11 31 18.5t35 13.5t40 6q47 0 88 -16
q22 -8 44 -15t44 -7q27 0 56 9.5t50 22.5v-148q-19 -17 -51 -27.5t-55 -10.5z" />
    <glyph glyph-name="ograve" unicode="&#xf2;" horiz-adv-x="598" 
d="M299 -14q-121 0 -190 81.5t-69 206.5v548q0 125 69 206.5t190 81.5q120 0 189.5 -81.5t69.5 -206.5v-548q0 -125 -69.5 -206.5t-189.5 -81.5zM299 162q39 0 54 31.5t15 80.5v548q0 50 -15 81t-54 31t-54 -31t-15 -81v-548q0 -50 15 -81t54 -31zM390 1224h-156l-188 180
h210z" />
    <glyph glyph-name="oacute" unicode="&#xf3;" horiz-adv-x="598" 
d="M299 -14q-121 0 -190 81.5t-69 206.5v548q0 125 69 206.5t190 81.5q120 0 189.5 -81.5t69.5 -206.5v-548q0 -125 -69.5 -206.5t-189.5 -81.5zM299 162q39 0 54 31.5t15 80.5v548q0 50 -15 81t-54 31t-54 -31t-15 -81v-548q0 -50 15 -81t54 -31zM202 1224l134 180h210
l-188 -180h-156z" />
    <glyph glyph-name="ocircumflex" unicode="&#xf4;" horiz-adv-x="598" 
d="M299 -14q-121 0 -190 81.5t-69 206.5v548q0 125 69 206.5t190 81.5q120 0 189.5 -81.5t69.5 -206.5v-548q0 -125 -69.5 -206.5t-189.5 -81.5zM299 162q39 0 54 31.5t15 80.5v548q0 50 -15 81t-54 31t-54 -31t-15 -81v-548q0 -50 15 -81t54 -31zM55 1228l138 180h214
l138 -180h-184l-62 90l-60 -90h-184z" />
    <glyph glyph-name="otilde" unicode="&#xf5;" horiz-adv-x="598" 
d="M299 -14q-121 0 -190 81.5t-69 206.5v548q0 125 69 206.5t190 81.5q120 0 189.5 -81.5t69.5 -206.5v-548q0 -125 -69.5 -206.5t-189.5 -81.5zM299 162q39 0 54 31.5t15 80.5v548q0 50 -15 81t-54 31t-54 -31t-15 -81v-548q0 -50 15 -81t54 -31zM388 1205q-47 0 -86 18
q-43 20 -90 20q-27 0 -56 -9.5t-50 -22.5v148q14 11 31 18.5t35 13.5t40 6q47 0 88 -16q22 -8 44 -15t44 -7q27 0 56 9.5t50 22.5v-148q-19 -17 -51 -27.5t-55 -10.5z" />
    <glyph glyph-name="odieresis" unicode="&#xf6;" horiz-adv-x="598" 
d="M299 -14q-121 0 -190 81.5t-69 206.5v548q0 125 69 206.5t190 81.5q120 0 189.5 -81.5t69.5 -206.5v-548q0 -125 -69.5 -206.5t-189.5 -81.5zM299 162q39 0 54 31.5t15 80.5v548q0 50 -15 81t-54 31t-54 -31t-15 -81v-548q0 -50 15 -81t54 -31zM348 1216v196h186v-196
h-186zM66 1216v196h186v-196h-186z" />
    <glyph glyph-name="divide" unicode="&#xf7;" horiz-adv-x="758" 
d="M72 634v168h614v-168h-614zM380 882q-44 0 -75 31t-31 75q0 43 31 73.5t75 30.5q43 0 73.5 -30.5t30.5 -73.5q0 -44 -30.5 -75t-73.5 -31zM380 344q-44 0 -75 31t-31 75q0 43 31 73.5t75 30.5q43 0 73.5 -30.5t30.5 -73.5q0 -44 -30.5 -75t-73.5 -31z" />
    <glyph glyph-name="oslash" unicode="&#xf8;" horiz-adv-x="598" 
d="M69 14l357 1129l114 -50l-352 -1129zM299 -14q-121 0 -190 81.5t-69 206.5v548q0 125 69 206.5t190 81.5q120 0 189.5 -81.5t69.5 -206.5v-548q0 -125 -69.5 -206.5t-189.5 -81.5zM299 162q39 0 54 31.5t15 80.5v548q0 50 -15 81t-54 31t-54 -31t-15 -81v-548
q0 -50 15 -81t54 -31z" />
    <glyph glyph-name="ugrave" unicode="&#xf9;" horiz-adv-x="618" 
d="M202 -16q-50 0 -84 32t-51 81.5t-17 100.5v896h202v-856q0 -31 11.5 -44.5t36.5 -13.5q22 0 37.5 15.5t28.5 36.5v862h202v-1094h-202v92q-36 -34 -81 -71t-83 -37zM402 1224h-156l-188 180h210z" />
    <glyph glyph-name="uacute" unicode="&#xfa;" horiz-adv-x="618" 
d="M202 -16q-50 0 -84 32t-51 81.5t-17 100.5v896h202v-856q0 -31 11.5 -44.5t36.5 -13.5q22 0 37.5 15.5t28.5 36.5v862h202v-1094h-202v92q-36 -34 -81 -71t-83 -37zM214 1224l134 180h210l-188 -180h-156z" />
    <glyph glyph-name="ucircumflex" unicode="&#xfb;" horiz-adv-x="618" 
d="M202 -16q-50 0 -84 32t-51 81.5t-17 100.5v896h202v-856q0 -31 11.5 -44.5t36.5 -13.5q22 0 37.5 15.5t28.5 36.5v862h202v-1094h-202v92q-36 -34 -81 -71t-83 -37zM67 1228l138 180h214l138 -180h-184l-62 90l-60 -90h-184z" />
    <glyph glyph-name="udieresis" unicode="&#xfc;" horiz-adv-x="618" 
d="M202 -16q-50 0 -84 32t-51 81.5t-17 100.5v896h202v-856q0 -31 11.5 -44.5t36.5 -13.5q22 0 37.5 15.5t28.5 36.5v862h202v-1094h-202v92q-36 -34 -81 -71t-83 -37zM360 1216v196h186v-196h-186zM78 1216v196h186v-196h-186z" />
    <glyph glyph-name="yacute" unicode="&#xfd;" horiz-adv-x="602" 
d="M89 -392q-13 0 -31 1t-35 4v179q3 -1 16 -2.5t17 -1.5q56 0 90.5 30t48.5 80q5 15 5.5 35t0.5 35l-186 1126h198l80 -682l4 -76h8l4 76l80 682h198l-194 -1176q-11 -88 -49.5 -158.5t-102.5 -111t-152 -40.5zM203 1224l134 180h210l-188 -180h-156z" />
    <glyph glyph-name="thorn" unicode="&#xfe;" horiz-adv-x="608" 
d="M50 1470h202v-401h-202v401zM50 -376v1470h202v-72q38 36 80 62t80 26q52 0 86.5 -31.5t52 -80.5t17.5 -102v-698q0 -53 -18 -102.5t-53 -80.5t-85 -31q-42 0 -82 26.5t-78 61.5v-448h-202zM322 174q23 0 33.5 14t10.5 42v614q0 38 -10.5 57t-33.5 19q-22 0 -46 -18.5
t-24 -47.5v-614q0 -24 24 -45t46 -21z" />
    <glyph glyph-name="ydieresis" unicode="&#xff;" horiz-adv-x="602" 
d="M89 -392q-13 0 -31 1t-35 4v179q3 -1 16 -2.5t17 -1.5q56 0 90.5 30t48.5 80q5 15 5.5 35t0.5 35l-186 1126h198l80 -682l4 -76h8l4 76l80 682h198l-194 -1176q-11 -88 -49.5 -158.5t-102.5 -111t-152 -40.5zM349 1216v196h186v-196h-186zM67 1216v196h186v-196h-186z
" />
    <glyph glyph-name="Amacron" unicode="&#x100;" horiz-adv-x="778" 
d="M35 0l222 1470h264l222 -1470h-210l-40 300h-208l-40 -300h-210zM315 528h148l-62 494l-6 78h-12l-6 -78zM195 1611v148h388v-148h-388z" />
    <glyph glyph-name="amacron" unicode="&#x101;" horiz-adv-x="639" 
d="M207 -16q-70 0 -121 71t-51 217q0 141 60.5 227t181.5 149q38 20 64 36t32 30v120q0 41 -9.5 70.5t-46.5 29.5q-34 0 -46 -31.5t-12 -78.5v-52h-202v46q0 90 35.5 155.5t97 101t139.5 35.5q75 0 130 -34.5t85.5 -95t30.5 -138.5v-652q0 -73 4 -113.5t10 -76.5h-198
q-13 16 -15.5 47t-2.5 41h-14q-25 -46 -63.5 -75t-88.5 -29zM289 182q35 0 59.5 24t24.5 52v260q-73 -31 -106.5 -93.5t-33.5 -140.5q0 -34 13 -68t43 -34zM127 1235v148h388v-148h-388z" />
    <glyph glyph-name="Abreve" unicode="&#x102;" horiz-adv-x="778" 
d="M35 0l222 1470h264l222 -1470h-210l-40 300h-208l-40 -300h-210zM315 528h148l-62 494l-6 78h-12l-6 -78zM389 1579q-64 0 -123 25.5t-97 68.5l108 92q18 -23 48.5 -34.5t63.5 -11.5q37 0 68.5 13t47.5 33l104 -92q-46 -46 -100.5 -70t-119.5 -24z" />
    <glyph glyph-name="abreve" unicode="&#x103;" horiz-adv-x="639" 
d="M207 -16q-70 0 -121 71t-51 217q0 141 60.5 227t181.5 149q38 20 64 36t32 30v120q0 41 -9.5 70.5t-46.5 29.5q-34 0 -46 -31.5t-12 -78.5v-52h-202v46q0 90 35.5 155.5t97 101t139.5 35.5q75 0 130 -34.5t85.5 -95t30.5 -138.5v-652q0 -73 4 -113.5t10 -76.5h-198
q-13 16 -15.5 47t-2.5 41h-14q-25 -46 -63.5 -75t-88.5 -29zM289 182q35 0 59.5 24t24.5 52v260q-73 -31 -106.5 -93.5t-33.5 -140.5q0 -34 13 -68t43 -34zM321 1203q-64 0 -123 25.5t-97 68.5l108 92q18 -23 48.5 -34.5t63.5 -11.5q37 0 68.5 13t47.5 33l104 -92
q-46 -46 -100.5 -70t-119.5 -24z" />
    <glyph glyph-name="Aogonek" unicode="&#x104;" horiz-adv-x="778" 
d="M35 0l222 1470h264l222 -1470h-210l-40 300h-208l-40 -300h-210zM315 528h148l-62 494l-6 78h-12l-6 -78zM742 -375q-83 0 -139 34.5t-56 124.5q0 51 21 103t61 113h114q-15 -40 -29.5 -91.5t-14.5 -85.5q0 -43 26 -54t45 -11q47 0 84 23v-133q-37 -23 -112 -23z" />
    <glyph glyph-name="aogonek" unicode="&#x105;" horiz-adv-x="639" 
d="M207 -16q-70 0 -121 71t-51 217q0 141 60.5 227t181.5 149q38 20 64 36t32 30v120q0 41 -9.5 70.5t-46.5 29.5q-34 0 -46 -31.5t-12 -78.5v-52h-202v46q0 90 35.5 155.5t97 101t139.5 35.5q75 0 130 -34.5t85.5 -95t30.5 -138.5v-652q0 -73 4 -113.5t10 -76.5h-198
q-13 16 -15.5 47t-2.5 41h-14q-25 -46 -63.5 -75t-88.5 -29zM289 182q35 0 59.5 24t24.5 52v260q-73 -31 -106.5 -93.5t-33.5 -140.5q0 -34 13 -68t43 -34zM588 -375q-83 0 -139 34.5t-56 124.5q0 51 21 103t61 113h114q-15 -40 -29.5 -91.5t-14.5 -85.5q0 -43 26 -54
t45 -11q47 0 84 23v-133q-37 -23 -112 -23z" />
    <glyph glyph-name="Cacute" unicode="&#x106;" 
d="M358 -16q-92 0 -156.5 41.5t-98 113.5t-33.5 163v866q0 90 34.5 162t99.5 114t154 42q67 0 120 -25t90.5 -68.5t57.5 -101t20 -123.5v-202h-202v202q0 46 -19 77t-63 31q-40 0 -58 -32t-18 -76v-866q0 -44 19.5 -76t56.5 -32q45 0 63.5 31t18.5 77v202h202v-202
q0 -90 -35 -162t-99.5 -114t-153.5 -42zM252 1600l134 180h210l-188 -180h-156z" />
    <glyph glyph-name="cacute" unicode="&#x107;" horiz-adv-x="598" 
d="M298 -15q-133 0 -195.5 83t-62.5 231v497q0 149 62.5 231.5t195.5 82.5t196.5 -83t63.5 -231v-86h-202v112q0 46 -12 77t-46 31t-45 -31.5t-11 -76.5v-549q0 -45 11 -76.5t45 -31.5t46 31t12 77v112h202v-86q0 -148 -63.5 -231t-196.5 -83zM199 1224l134 180h210
l-188 -180h-156z" />
    <glyph glyph-name="Cdotaccent" unicode="&#x10a;" 
d="M358 -16q-92 0 -156.5 41.5t-98 113.5t-33.5 163v866q0 90 34.5 162t99.5 114t154 42q67 0 120 -25t90.5 -68.5t57.5 -101t20 -123.5v-202h-202v202q0 46 -19 77t-63 31q-40 0 -58 -32t-18 -76v-866q0 -44 19.5 -76t56.5 -32q45 0 63.5 31t18.5 77v202h202v-202
q0 -90 -35 -162t-99.5 -114t-153.5 -42zM249 1595v202h202v-202h-202z" />
    <glyph glyph-name="cdotaccent" unicode="&#x10b;" horiz-adv-x="598" 
d="M298 -15q-133 0 -195.5 83t-62.5 231v497q0 149 62.5 231.5t195.5 82.5t196.5 -83t63.5 -231v-86h-202v112q0 46 -12 77t-46 31t-45 -31.5t-11 -76.5v-549q0 -45 11 -76.5t45 -31.5t46 31t12 77v112h202v-86q0 -148 -63.5 -231t-196.5 -83zM196 1219v202h202v-202h-202z
" />
    <glyph glyph-name="Ccaron" unicode="&#x10c;" 
d="M358 -16q-92 0 -156.5 41.5t-98 113.5t-33.5 163v866q0 90 34.5 162t99.5 114t154 42q67 0 120 -25t90.5 -68.5t57.5 -101t20 -123.5v-202h-202v202q0 46 -19 77t-63 31q-40 0 -58 -32t-18 -76v-866q0 -44 19.5 -76t56.5 -32q45 0 63.5 31t18.5 77v202h202v-202
q0 -90 -35 -162t-99.5 -114t-153.5 -42zM243 1605l-138 180h184l60 -90l62 90h184l-138 -180h-214z" />
    <glyph glyph-name="ccaron" unicode="&#x10d;" horiz-adv-x="598" 
d="M298 -15q-133 0 -195.5 83t-62.5 231v497q0 149 62.5 231.5t195.5 82.5t196.5 -83t63.5 -231v-86h-202v112q0 46 -12 77t-46 31t-45 -31.5t-11 -76.5v-549q0 -45 11 -76.5t45 -31.5t46 31t12 77v112h202v-86q0 -148 -63.5 -231t-196.5 -83zM190 1229l-138 180h184l60 -90
l62 90h184l-138 -180h-214z" />
    <glyph glyph-name="Dcaron" unicode="&#x10e;" horiz-adv-x="744" 
d="M80 0v1470h220q104 0 176 -34t116 -116t63.5 -225t19.5 -361q0 -219 -19.5 -361.5t-63.5 -224t-116 -115t-176 -33.5h-220zM296 216q80 0 113 63t40 180t7 278q0 163 -7 278.5t-40.5 177t-112.5 61.5v-1038zM265 1605l-138 180h184l60 -90l62 90h184l-138 -180h-214z" />
    <glyph glyph-name="dcaron" unicode="&#x10f;" horiz-adv-x="810" 
d="M196 -16q-50 0 -85 31t-53 80.5t-18 102.5v698q0 53 17.5 102t52.5 80.5t86 31.5q38 0 80 -26t80 -62v448h202v-1470h-202v72q-40 -35 -79 -61.5t-81 -26.5zM292 174q23 0 43.5 19t20.5 47v614q0 24 -20.5 45t-43.5 21q-22 0 -36 -18.5t-14 -47.5v-614q0 -28 14 -47
t36 -19zM600 988l70 260h-70v222h210v-222l-110 -260h-100z" />
    <glyph glyph-name="Dcroat" unicode="&#x110;" horiz-adv-x="744" 
d="M32 634v190h358v-190h-358zM80 0v1470h220q104 0 176 -34t116 -116t63.5 -225t19.5 -361q0 -219 -19.5 -361.5t-63.5 -224t-116 -115t-176 -33.5h-220zM296 216q80 0 113 63t40 180t7 278q0 163 -7 278.5t-40.5 177t-112.5 61.5v-1038z" />
    <glyph glyph-name="dcroat" unicode="&#x111;" horiz-adv-x="640" 
d="M237 1220v142h399v-142h-399zM196 -16q-50 0 -85 31t-53 80.5t-18 102.5v698q0 53 17.5 102t52.5 80.5t86 31.5q38 0 80 -26t80 -62v448h202v-1470h-202v72q-40 -35 -79 -61.5t-81 -26.5zM292 174q23 0 43.5 19t20.5 47v614q0 24 -20.5 45t-43.5 21q-22 0 -36 -18.5
t-14 -47.5v-614q0 -28 14 -47t36 -19z" />
    <glyph glyph-name="Emacron" unicode="&#x112;" horiz-adv-x="654" 
d="M80 0v1470h494v-222h-278v-396h200v-216h-200v-414h278v-222h-494zM114 1611v148h388v-148h-388z" />
    <glyph glyph-name="emacron" unicode="&#x113;" horiz-adv-x="602" 
d="M300 -16q-121 0 -190.5 83.5t-69.5 204.5v550q0 128 69 208t193 80q81 0 139.5 -37t89.5 -100.5t31 -144.5v-318h-334v-238q0 -41 18.5 -75.5t55.5 -34.5q39 0 55.5 32t16.5 78v120h188v-126q0 -127 -68.5 -204.5t-193.5 -77.5zM228 668h146v154q0 45 -15.5 78.5
t-56.5 33.5q-38 0 -56 -34.5t-18 -77.5v-154zM104 1235v148h388v-148h-388z" />
    <glyph glyph-name="Edotaccent" unicode="&#x116;" horiz-adv-x="654" 
d="M80 0v1470h494v-222h-278v-396h200v-216h-200v-414h278v-222h-494zM207 1595v202h202v-202h-202z" />
    <glyph glyph-name="edotaccent" unicode="&#x117;" horiz-adv-x="602" 
d="M300 -16q-121 0 -190.5 83.5t-69.5 204.5v550q0 128 69 208t193 80q81 0 139.5 -37t89.5 -100.5t31 -144.5v-318h-334v-238q0 -41 18.5 -75.5t55.5 -34.5q39 0 55.5 32t16.5 78v120h188v-126q0 -127 -68.5 -204.5t-193.5 -77.5zM228 668h146v154q0 45 -15.5 78.5
t-56.5 33.5q-38 0 -56 -34.5t-18 -77.5v-154zM197 1219v202h202v-202h-202z" />
    <glyph glyph-name="Eogonek" unicode="&#x118;" horiz-adv-x="654" 
d="M80 0v1470h494v-222h-278v-396h200v-216h-200v-414h278v-222h-494zM573 -375q-83 0 -139 34.5t-56 124.5q0 51 21 103t61 113h114q-15 -40 -29.5 -91.5t-14.5 -85.5q0 -43 26 -54t45 -11q47 0 84 23v-133q-37 -23 -112 -23z" />
    <glyph glyph-name="eogonek" unicode="&#x119;" horiz-adv-x="602" 
d="M300 -16q-121 0 -190.5 83.5t-69.5 204.5v550q0 128 69 208t193 80q81 0 139.5 -37t89.5 -100.5t31 -144.5v-318h-334v-238q0 -41 18.5 -75.5t55.5 -34.5q39 0 55.5 32t16.5 78v120h188v-126q0 -127 -68.5 -204.5t-193.5 -77.5zM228 668h146v154q0 45 -15.5 78.5
t-56.5 33.5q-38 0 -56 -34.5t-18 -77.5v-154zM441 -355q-83 0 -139 34.5t-56 124.5q0 51 21 103t61 113h114q-15 -40 -29.5 -91.5t-14.5 -85.5q0 -43 26 -54t45 -11q47 0 84 23v-133q-37 -23 -112 -23z" />
    <glyph glyph-name="Ecaron" unicode="&#x11a;" horiz-adv-x="654" 
d="M80 0v1470h494v-222h-278v-396h200v-216h-200v-414h278v-222h-494zM201 1605l-138 180h184l60 -90l62 90h184l-138 -180h-214z" />
    <glyph glyph-name="ecaron" unicode="&#x11b;" horiz-adv-x="602" 
d="M300 -16q-121 0 -190.5 83.5t-69.5 204.5v550q0 128 69 208t193 80q81 0 139.5 -37t89.5 -100.5t31 -144.5v-318h-334v-238q0 -41 18.5 -75.5t55.5 -34.5q39 0 55.5 32t16.5 78v120h188v-126q0 -127 -68.5 -204.5t-193.5 -77.5zM228 668h146v154q0 45 -15.5 78.5
t-56.5 33.5q-38 0 -56 -34.5t-18 -77.5v-154zM191 1229l-138 180h184l60 -90l62 90h184l-138 -180h-214z" />
    <glyph glyph-name="Gbreve" unicode="&#x11e;" horiz-adv-x="726" 
d="M324 -16q-89 0 -145 42t-82.5 114t-26.5 162v866q0 89 35 161t100 114.5t153 42.5q67 0 120.5 -24.5t91 -68.5t57 -101.5t19.5 -123.5v-226h-216v226q0 44 -16 76t-56 32q-39 0 -55.5 -33.5t-16.5 -74.5v-884q0 -43 17 -75.5t55 -32.5q40 0 56 32.5t16 75.5v246h-86v202
h302v-732h-128l-26 80q-28 -45 -71.5 -70.5t-96.5 -25.5zM364 1579q-64 0 -123 25.5t-97 68.5l108 92q18 -23 48.5 -34.5t63.5 -11.5q37 0 68.5 13t47.5 33l104 -92q-46 -46 -100.5 -70t-119.5 -24z" />
    <glyph glyph-name="gbreve" unicode="&#x11f;" horiz-adv-x="690" 
d="M339 -392q-85 0 -159 19t-119.5 61.5t-45.5 111.5q0 53 29.5 92t67.5 63.5t61 30.5q-49 14 -85.5 48t-36.5 98q0 62 40 101t86 63q-55 36 -85.5 94.5t-30.5 143.5v298q0 123 68.5 200.5t187.5 77.5q77 0 125.5 -29.5t76.5 -70.5q29 49 78 74.5t88 25.5v-180
q-40 0 -70 -6.5t-48 -17.5q3 -7 6.5 -29t3.5 -39v-310q0 -116 -71 -193t-189 -77q-28 0 -38 2q-13 -12 -20.5 -24t-7.5 -26q0 -32 36.5 -45.5t97.5 -22.5q129 -19 209.5 -75t80.5 -179q0 -96 -48.5 -158t-125.5 -92t-162 -30zM343 -222q50 0 87 18t37 56t-22.5 51.5
t-75.5 26.5l-84 20q-31 -18 -52.5 -41t-21.5 -55q0 -31 31 -53.5t101 -22.5zM319 426q32 0 46 22t14 66v320q0 40 -13 65t-47 25t-47 -26t-13 -64v-320q0 -44 14 -66t46 -22zM345 1203q-64 0 -123 25.5t-97 68.5l108 92q18 -23 48.5 -34.5t63.5 -11.5q37 0 68.5 13t47.5 33
l104 -92q-46 -46 -100.5 -70t-119.5 -24z" />
    <glyph glyph-name="Gdotaccent" unicode="&#x120;" horiz-adv-x="726" 
d="M324 -16q-89 0 -145 42t-82.5 114t-26.5 162v866q0 89 35 161t100 114.5t153 42.5q67 0 120.5 -24.5t91 -68.5t57 -101.5t19.5 -123.5v-226h-216v226q0 44 -16 76t-56 32q-39 0 -55.5 -33.5t-16.5 -74.5v-884q0 -43 17 -75.5t55 -32.5q40 0 56 32.5t16 75.5v246h-86v202
h302v-732h-128l-26 80q-28 -45 -71.5 -70.5t-96.5 -25.5zM263 1595v202h202v-202h-202z" />
    <glyph glyph-name="gdotaccent" unicode="&#x121;" horiz-adv-x="690" 
d="M339 -392q-85 0 -159 19t-119.5 61.5t-45.5 111.5q0 53 29.5 92t67.5 63.5t61 30.5q-49 14 -85.5 48t-36.5 98q0 62 40 101t86 63q-55 36 -85.5 94.5t-30.5 143.5v298q0 123 68.5 200.5t187.5 77.5q77 0 125.5 -29.5t76.5 -70.5q29 49 78 74.5t88 25.5v-180
q-40 0 -70 -6.5t-48 -17.5q3 -7 6.5 -29t3.5 -39v-310q0 -116 -71 -193t-189 -77q-28 0 -38 2q-13 -12 -20.5 -24t-7.5 -26q0 -32 36.5 -45.5t97.5 -22.5q129 -19 209.5 -75t80.5 -179q0 -96 -48.5 -158t-125.5 -92t-162 -30zM343 -222q50 0 87 18t37 56t-22.5 51.5
t-75.5 26.5l-84 20q-31 -18 -52.5 -41t-21.5 -55q0 -31 31 -53.5t101 -22.5zM319 426q32 0 46 22t14 66v320q0 40 -13 65t-47 25t-47 -26t-13 -64v-320q0 -44 14 -66t46 -22zM244 1219v202h202v-202h-202z" />
    <glyph glyph-name="uni0122" unicode="&#x122;" horiz-adv-x="726" 
d="M324 -16q-89 0 -145 42t-82.5 114t-26.5 162v866q0 89 35 161t100 114.5t153 42.5q67 0 120.5 -24.5t91 -68.5t57 -101.5t19.5 -123.5v-226h-216v226q0 44 -16 76t-56 32q-39 0 -55.5 -33.5t-16.5 -74.5v-884q0 -43 17 -75.5t55 -32.5q40 0 56 32.5t16 75.5v246h-86v202
h302v-732h-128l-26 80q-28 -45 -71.5 -70.5t-96.5 -25.5zM265 -458l66 166h-66v208h197v-208l-103 -166h-94z" />
    <glyph glyph-name="uni0123" unicode="&#x123;" horiz-adv-x="690" 
d="M339 -392q-85 0 -159 19t-119.5 61.5t-45.5 111.5q0 53 29.5 92t67.5 63.5t61 30.5q-49 14 -85.5 48t-36.5 98q0 62 40 101t86 63q-55 36 -85.5 94.5t-30.5 143.5v298q0 123 68.5 200.5t187.5 77.5q77 0 125.5 -29.5t76.5 -70.5q29 49 78 74.5t88 25.5v-180
q-40 0 -70 -6.5t-48 -17.5q3 -7 6.5 -29t3.5 -39v-310q0 -116 -71 -193t-189 -77q-28 0 -38 2q-13 -12 -20.5 -24t-7.5 -26q0 -32 36.5 -45.5t97.5 -22.5q129 -19 209.5 -75t80.5 -179q0 -96 -48.5 -158t-125.5 -92t-162 -30zM343 -222q50 0 87 18t37 56t-22.5 51.5
t-75.5 26.5l-84 20q-31 -18 -52.5 -41t-21.5 -55q0 -31 31 -53.5t101 -22.5zM319 426q32 0 46 22t14 66v320q0 40 -13 65t-47 25t-47 -26t-13 -64v-320q0 -44 14 -66t46 -22zM443 1571l-66 -166h66v-208h-197v208l103 166h94z" />
    <glyph glyph-name="Hbar" unicode="&#x126;" horiz-adv-x="760" 
d="M20 1136v190h725v-190h-725zM80 0v1470h216v-608h168v608h216v-1470h-216v640h-168v-640h-216z" />
    <glyph glyph-name="hbar" unicode="&#x127;" horiz-adv-x="618" 
d="M0 1220v142h399v-142h-399zM50 0v1470h202v-451q26 27 77 59t97 32q50 0 84 -29t51 -77.5t17 -107.5v-896h-202v854q0 30 -13.5 48.5t-31.5 18.5q-21 0 -50 -23.5t-29 -52.5v-845h-202z" />
    <glyph glyph-name="Itilde" unicode="&#x128;" horiz-adv-x="376" 
d="M80 0v1470h216v-1470h-216zM276 1581q-47 0 -86 18q-43 20 -90 20q-27 0 -56 -9.5t-50 -22.5v148q14 11 31 18.5t35 13.5t40 6q47 0 88 -16q22 -8 44 -15t44 -7q27 0 56 9.5t50 22.5v-148q-19 -17 -51 -27.5t-55 -10.5z" />
    <glyph glyph-name="itilde" unicode="&#x129;" horiz-adv-x="362" 
d="M80 0v1094h202v-1094h-202zM269 1205q-47 0 -86 18q-43 20 -90 20q-27 0 -56 -9.5t-50 -22.5v148q14 11 31 18.5t35 13.5t40 6q47 0 88 -16q22 -8 44 -15t44 -7q27 0 56 9.5t50 22.5v-148q-19 -17 -51 -27.5t-55 -10.5z" />
    <glyph glyph-name="Imacron" unicode="&#x12a;" horiz-adv-x="376" 
d="M80 0v1470h216v-1470h-216zM-6 1611v148h388v-148h-388z" />
    <glyph glyph-name="imacron" unicode="&#x12b;" horiz-adv-x="362" 
d="M80 0v1094h202v-1094h-202zM-10 1284v158h388v-158h-388z" />
    <glyph glyph-name="Iogonek" unicode="&#x12e;" horiz-adv-x="376" 
d="M80 0v1470h216v-1470h-216zM295 -375q-83 0 -139 34.5t-56 124.5q0 51 21 103t61 113h114q-15 -40 -29.5 -91.5t-14.5 -85.5q0 -43 26 -54t45 -11q47 0 84 23v-133q-37 -23 -112 -23z" />
    <glyph glyph-name="iogonek" unicode="&#x12f;" horiz-adv-x="362" 
d="M80 0v1094h202v-1094h-202zM80 1219v202h202v-202h-202zM281 -375q-83 0 -139 34.5t-56 124.5q0 51 21 103t61 113h114q-15 -40 -29.5 -91.5t-14.5 -85.5q0 -43 26 -54t45 -11q47 0 84 23v-133q-37 -23 -112 -23z" />
    <glyph glyph-name="Idotaccent" unicode="&#x130;" horiz-adv-x="376" 
d="M80 0v1470h216v-1470h-216zM87 1595v202h202v-202h-202z" />
    <glyph glyph-name="dotlessi" unicode="&#x131;" horiz-adv-x="362" 
d="M80 0v1094h202v-1094h-202z" />
    <glyph glyph-name="IJ" unicode="&#x132;" horiz-adv-x="790" 
d="M388 -14v212q36 -5 62 6t40 37t14 65v1164h216v-1198q0 -101 -39 -167t-113 -95.5t-180 -23.5zM80 0v1470h216v-1470h-216z" />
    <glyph glyph-name="ij" unicode="&#x133;" horiz-adv-x="718" 
d="M406 -376q-26 0 -46 2.5t-42 9.5v186q6 -2 27 -5t29 -3q45 0 53.5 48t8.5 112v1120h202v-1122q0 -103 -18.5 -181.5t-68.5 -122.5t-145 -44zM80 0v1094h202v-1094h-202zM80 1268v202h202v-202h-202zM436 1268v202h202v-202h-202z" />
    <glyph glyph-name="uni0136" unicode="&#x136;" horiz-adv-x="750" 
d="M80 0v1470h216v-490v-24h8l10 24l168 490h222l-198 -484l224 -986h-222l-144 670h-6l-62 -150v-520h-216zM277 -458l66 166h-66v208h197v-208l-103 -166h-94z" />
    <glyph glyph-name="uni0137" unicode="&#x137;" horiz-adv-x="607" 
d="M50 0v1470h202v-662v-36h10l12 36l98 286h192l-156 -356l184 -738h-204l-100 442l-2 16h-2l-32 -80v-378h-202zM185 -458l66 166h-66v208h197v-208l-103 -166h-94z" />
    <glyph glyph-name="Lacute" unicode="&#x139;" horiz-adv-x="590" 
d="M80 0v1470h216v-1270h286v-200h-502zM198 1600l134 180h210l-188 -180h-156z" />
    <glyph glyph-name="lacute" unicode="&#x13a;" horiz-adv-x="322" 
d="M60 0v1470h202v-1470h-202zM64 1600l134 180h210l-188 -180h-156z" />
    <glyph glyph-name="uni013B" unicode="&#x13b;" horiz-adv-x="590" 
d="M80 0v1470h216v-1270h286v-200h-502zM197 -458l66 166h-66v208h197v-208l-103 -166h-94z" />
    <glyph glyph-name="uni013C" unicode="&#x13c;" horiz-adv-x="322" 
d="M60 0v1470h202v-1470h-202zM63 -458l66 166h-66v208h197v-208l-103 -166h-94z" />
    <glyph glyph-name="Lcaron" unicode="&#x13d;" horiz-adv-x="590" 
d="M80 0v1470h216v-1270h286v-200h-502zM368 1214l70 260h-70v222h210v-222l-110 -260h-100z" />
    <glyph glyph-name="lcaron" unicode="&#x13e;" horiz-adv-x="545" 
d="M60 0v1470h202v-1470h-202zM335 988l70 260h-70v222h210v-222l-110 -260h-100z" />
    <glyph glyph-name="Ldot" unicode="&#x13f;" horiz-adv-x="590" 
d="M80 0v1470h216v-1270h286v-200h-502zM372 658v222h210v-222h-210z" />
    <glyph glyph-name="Lslash" unicode="&#x141;" horiz-adv-x="590" 
d="M-63 642l443 304l88 -133l-443 -304zM80 0v1470h216v-1270h286v-200h-502z" />
    <glyph glyph-name="lslash" unicode="&#x142;" horiz-adv-x="362" 
d="M-43 672l365 251l88 -133l-365 -251zM60 0v1470h202v-1470h-202z" />
    <glyph glyph-name="Nacute" unicode="&#x143;" horiz-adv-x="790" 
d="M80 0v1470h202l200 -766l18 -68h12v834h198v-1470h-182l-220 766l-18 68h-12v-834h-198zM298 1600l134 180h210l-188 -180h-156z" />
    <glyph glyph-name="nacute" unicode="&#x144;" horiz-adv-x="618" 
d="M50 0v1094h202v-92q36 35 81 71.5t83 36.5q50 0 84 -32t51 -81t17 -101v-896h-202v856q0 32 -11 45t-37 13q-22 0 -37.5 -15.5t-28.5 -36.5v-862h-202zM210 1224l134 180h210l-188 -180h-156z" />
    <glyph glyph-name="uni0145" unicode="&#x145;" horiz-adv-x="790" 
d="M80 0v1470h202l200 -766l18 -68h12v834h198v-1470h-182l-220 766l-18 68h-12v-834h-198zM297 -458l66 166h-66v208h197v-208l-103 -166h-94z" />
    <glyph glyph-name="uni0146" unicode="&#x146;" horiz-adv-x="618" 
d="M50 0v1094h202v-92q36 35 81 71.5t83 36.5q50 0 84 -32t51 -81t17 -101v-896h-202v856q0 32 -11 45t-37 13q-22 0 -37.5 -15.5t-28.5 -36.5v-862h-202zM209 -458l66 166h-66v208h197v-208l-103 -166h-94z" />
    <glyph glyph-name="Ncaron" unicode="&#x147;" horiz-adv-x="790" 
d="M80 0v1470h202l200 -766l18 -68h12v834h198v-1470h-182l-220 766l-18 68h-12v-834h-198zM289 1605l-138 180h184l60 -90l62 90h184l-138 -180h-214z" />
    <glyph glyph-name="ncaron" unicode="&#x148;" horiz-adv-x="618" 
d="M50 0v1094h202v-92q36 35 81 71.5t83 36.5q50 0 84 -32t51 -81t17 -101v-896h-202v856q0 32 -11 45t-37 13q-22 0 -37.5 -15.5t-28.5 -36.5v-862h-202zM201 1229l-138 180h184l60 -90l62 90h184l-138 -180h-214z" />
    <glyph glyph-name="Eng" unicode="&#x14a;" horiz-adv-x="790" 
d="M498 -376q-58 0 -88 14v186q16 -10 56 -10q47 0 54.5 49.5t7.5 110.5v139h182v-141q0 -103 -13.5 -181.5t-58.5 -122.5t-140 -44zM80 0v1470h202l200 -766l18 -68h12v834h198v-1470h-182l-220 766l-18 68h-12v-834h-198z" />
    <glyph glyph-name="eng" unicode="&#x14b;" horiz-adv-x="618" 
d="M336 -376q-58 0 -88 14v186q16 -10 56 -10q47 0 54.5 49.5t7.5 110.5v139h202v-141q0 -103 -18.5 -181.5t-68.5 -122.5t-145 -44zM50 0v1094h202v-92q36 35 81 71.5t83 36.5q50 0 84 -32t51 -81t17 -101v-896h-202v856q0 32 -11 45t-37 13q-22 0 -37.5 -15.5t-28.5 -36.5
v-862h-202z" />
    <glyph glyph-name="Omacron" unicode="&#x14c;" 
d="M358 -16q-90 0 -154.5 42t-99 114t-34.5 162v866q0 91 34.5 162.5t99 113.5t154.5 42t154.5 -42t99 -114t34.5 -162v-866q0 -90 -34.5 -162t-99 -114t-154.5 -42zM358 194q40 0 56 33.5t16 74.5v866q0 41 -17 74.5t-55 33.5q-37 0 -54.5 -33.5t-17.5 -74.5v-866
q0 -41 17 -74.5t55 -33.5zM164 1611v148h388v-148h-388z" />
    <glyph glyph-name="omacron" unicode="&#x14d;" horiz-adv-x="598" 
d="M299 -14q-121 0 -190 81.5t-69 206.5v548q0 125 69 206.5t190 81.5q120 0 189.5 -81.5t69.5 -206.5v-548q0 -125 -69.5 -206.5t-189.5 -81.5zM299 162q39 0 54 31.5t15 80.5v548q0 50 -15 81t-54 31t-54 -31t-15 -81v-548q0 -50 15 -81t54 -31zM106 1235v148h388v-148
h-388z" />
    <glyph glyph-name="Ohungarumlaut" unicode="&#x150;" 
d="M358 -16q-90 0 -154.5 42t-99 114t-34.5 162v866q0 91 34.5 162.5t99 113.5t154.5 42t154.5 -42t99 -114t34.5 -162v-866q0 -90 -34.5 -162t-99 -114t-154.5 -42zM358 194q40 0 56 33.5t16 74.5v866q0 41 -17 74.5t-55 33.5q-37 0 -54.5 -33.5t-17.5 -74.5v-866
q0 -41 17 -74.5t55 -33.5zM329 1600l134 180h210l-178 -180h-166zM43 1600l124 180h200l-168 -180h-156z" />
    <glyph glyph-name="ohungarumlaut" unicode="&#x151;" horiz-adv-x="598" 
d="M299 -14q-121 0 -190 81.5t-69 206.5v548q0 125 69 206.5t190 81.5q120 0 189.5 -81.5t69.5 -206.5v-548q0 -125 -69.5 -206.5t-189.5 -81.5zM299 162q39 0 54 31.5t15 80.5v548q0 50 -15 81t-54 31t-54 -31t-15 -81v-548q0 -50 15 -81t54 -31zM271 1224l134 180h210
l-178 -180h-166zM-15 1224l124 180h200l-168 -180h-156z" />
    <glyph glyph-name="OE" unicode="&#x152;" horiz-adv-x="1010" 
d="M436 0v1470h494v-222h-278v-396h200v-216h-200v-414h278v-222h-494zM358 -16q-90 0 -154.5 42t-99 114t-34.5 162v866q0 91 34.5 162.5t99 113.5t154.5 42t154.5 -42t99 -114t34.5 -162v-866q0 -90 -34.5 -162t-99 -114t-154.5 -42zM358 194q40 0 56 33.5t16 74.5v866
q0 41 -17 74.5t-55 33.5q-37 0 -54.5 -33.5t-17.5 -74.5v-866q0 -41 17 -74.5t55 -33.5z" />
    <glyph glyph-name="oe" unicode="&#x153;" horiz-adv-x="933" 
d="M299 -14q-121 0 -190 81.5t-69 206.5v548q0 125 69 206.5t190 81.5q120 0 189.5 -81.5t69.5 -206.5v-548q0 -125 -69.5 -206.5t-189.5 -81.5zM299 162q39 0 54 31.5t15 80.5v548q0 50 -15 81t-54 31t-54 -31t-15 -81v-548q0 -50 15 -81t54 -31zM631 -16
q-121 0 -190.5 83.5t-69.5 204.5v550q0 128 69 208t193 80q81 0 139.5 -37t89.5 -100.5t31 -144.5v-318h-334v-238q0 -41 18.5 -75.5t55.5 -34.5q39 0 55.5 32t16.5 78v120h188v-126q0 -127 -68.5 -204.5t-193.5 -77.5zM559 668h146v154q0 45 -15.5 78.5t-56.5 33.5
q-38 0 -56 -34.5t-18 -77.5v-154z" />
    <glyph glyph-name="Racute" unicode="&#x154;" horiz-adv-x="714" 
d="M80 0v1470h216q194 0 286 -107.5t92 -316.5q0 -124 -43.5 -214.5t-105.5 -132.5l147 -699h-216l-122 620h-38v-620h-216zM296 820q60 0 95 26.5t50 75.5t15 116q0 105 -34.5 161.5t-125.5 56.5v-436zM264 1600l134 180h210l-188 -180h-156z" />
    <glyph glyph-name="racute" unicode="&#x155;" horiz-adv-x="474" 
d="M50 0v1094h202v-122q6 40 37 71t75.5 49t89.5 18v-224q-13 5 -27.5 6.5t-28.5 1.5q-66 0 -106 -36t-40 -98v-760h-202zM183 1224l134 180h210l-188 -180h-156z" />
    <glyph glyph-name="uni0156" unicode="&#x156;" horiz-adv-x="714" 
d="M80 0v1470h216q194 0 286 -107.5t92 -316.5q0 -124 -43.5 -214.5t-105.5 -132.5l147 -699h-216l-122 620h-38v-620h-216zM296 820q60 0 95 26.5t50 75.5t15 116q0 105 -34.5 161.5t-125.5 56.5v-436zM263 -458l66 166h-66v208h197v-208l-103 -166h-94z" />
    <glyph glyph-name="uni0157" unicode="&#x157;" horiz-adv-x="474" 
d="M50 0v1094h202v-122q6 40 37 71t75.5 49t89.5 18v-224q-13 5 -27.5 6.5t-28.5 1.5q-66 0 -106 -36t-40 -98v-760h-202zM117 -458l66 166h-66v208h197v-208l-103 -166h-94z" />
    <glyph glyph-name="Rcaron" unicode="&#x158;" horiz-adv-x="714" 
d="M80 0v1470h216q194 0 286 -107.5t92 -316.5q0 -124 -43.5 -214.5t-105.5 -132.5l147 -699h-216l-122 620h-38v-620h-216zM296 820q60 0 95 26.5t50 75.5t15 116q0 105 -34.5 161.5t-125.5 56.5v-436zM255 1605l-138 180h184l60 -90l62 90h184l-138 -180h-214z" />
    <glyph glyph-name="rcaron" unicode="&#x159;" horiz-adv-x="474" 
d="M50 0v1094h202v-122q6 40 37 71t75.5 49t89.5 18v-224q-13 5 -27.5 6.5t-28.5 1.5q-66 0 -106 -36t-40 -98v-760h-202zM174 1229l-138 180h184l60 -90l62 90h184l-138 -180h-214z" />
    <glyph glyph-name="Sacute" unicode="&#x15a;" horiz-adv-x="676" 
d="M340 -16q-89 0 -148 29.5t-93 85.5t-48.5 135t-14.5 178l212 20q0 -48 3.5 -92.5t13 -80t28 -56.5t47.5 -21q48 0 68 44.5t20 107.5t-33 131t-79 129q-78 104 -136.5 193t-91 175t-32.5 180q0 74 19 136.5t55.5 109t88.5 72.5t119 26q83 0 140.5 -28t93 -80t52 -123.5
t16.5 -158.5l-212 -20q0 37 -3.5 74.5t-12.5 68.5t-26 50t-44 19q-42 0 -58 -35.5t-16 -100.5q0 -84 45 -162t121 -182q91 -123 148.5 -226t57.5 -228q0 -79 -17 -146.5t-53.5 -117.5t-93 -78t-136.5 -28zM236 1600l134 180h210l-188 -180h-156z" />
    <glyph glyph-name="sacute" unicode="&#x15b;" horiz-adv-x="600" 
d="M312 -16q-71 0 -124 24t-88 68.5t-52.5 105.5t-17.5 136h188q0 -67 21.5 -116.5t72.5 -49.5q44 0 57 37t13 85q0 56 -43.5 114.5t-90.5 104.5q-81 80 -134.5 158t-53.5 183q0 124 65 200t185 76q72 0 121.5 -19t79.5 -57t43.5 -93t13.5 -127h-188q0 52 -11 90t-55 38
q-36 0 -51 -30.5t-15 -77.5q0 -55 26.5 -97.5t88.5 -103.5q78 -76 142.5 -162t64.5 -187q0 -66 -17.5 -121t-51 -95t-81 -62t-108.5 -22zM204 1224l134 180h210l-188 -180h-156z" />
    <glyph glyph-name="Scedilla" unicode="&#x15e;" horiz-adv-x="676" 
d="M340 -16q-89 0 -148 29.5t-93 85.5t-48.5 135t-14.5 178l212 20q0 -48 3.5 -92.5t13 -80t28 -56.5t47.5 -21q48 0 68 44.5t20 107.5t-33 131t-79 129q-78 104 -136.5 193t-91 175t-32.5 180q0 74 19 136.5t55.5 109t88.5 72.5t119 26q83 0 140.5 -28t93 -80t52 -123.5
t16.5 -158.5l-212 -20q0 37 -3.5 74.5t-12.5 68.5t-26 50t-44 19q-42 0 -58 -35.5t-16 -100.5q0 -84 45 -162t121 -182q91 -123 148.5 -226t57.5 -228q0 -79 -17 -146.5t-53.5 -117.5t-93 -78t-136.5 -28zM459 -61q44 0 80 -29.5t36 -99.5q0 -65 -36.5 -106.5t-94 -60.5
t-120.5 -19q-54 0 -109.5 16.5t-81.5 35.5l52 110q18 -13 62.5 -31t87.5 -18q44 0 75 15t31 52q0 31 -16.5 42t-35.5 11q-45 0 -65 -34l-109 36l59 141h119l-47 -108h-9q8 22 45 34.5t77 12.5z" />
    <glyph glyph-name="scedilla" unicode="&#x15f;" horiz-adv-x="600" 
d="M312 -16q-71 0 -124 24t-88 68.5t-52.5 105.5t-17.5 136h188q0 -67 21.5 -116.5t72.5 -49.5q44 0 57 37t13 85q0 56 -43.5 114.5t-90.5 104.5q-81 80 -134.5 158t-53.5 183q0 124 65 200t185 76q72 0 121.5 -19t79.5 -57t43.5 -93t13.5 -127h-188q0 52 -11 90t-55 38
q-36 0 -51 -30.5t-15 -77.5q0 -55 26.5 -97.5t88.5 -103.5q78 -76 142.5 -162t64.5 -187q0 -66 -17.5 -121t-51 -95t-81 -62t-108.5 -22zM427 -61q44 0 80 -29.5t36 -99.5q0 -65 -36.5 -106.5t-94 -60.5t-120.5 -19q-54 0 -109.5 16.5t-81.5 35.5l52 110q18 -13 62.5 -31
t87.5 -18q44 0 75 15t31 52q0 31 -16.5 42t-35.5 11q-45 0 -65 -34l-109 36l59 141h119l-47 -108h-9q8 22 45 34.5t77 12.5z" />
    <glyph glyph-name="Scaron" unicode="&#x160;" horiz-adv-x="676" 
d="M340 -16q-89 0 -148 29.5t-93 85.5t-48.5 135t-14.5 178l212 20q0 -48 3.5 -92.5t13 -80t28 -56.5t47.5 -21q48 0 68 44.5t20 107.5t-33 131t-79 129q-78 104 -136.5 193t-91 175t-32.5 180q0 74 19 136.5t55.5 109t88.5 72.5t119 26q83 0 140.5 -28t93 -80t52 -123.5
t16.5 -158.5l-212 -20q0 37 -3.5 74.5t-12.5 68.5t-26 50t-44 19q-42 0 -58 -35.5t-16 -100.5q0 -84 45 -162t121 -182q91 -123 148.5 -226t57.5 -228q0 -79 -17 -146.5t-53.5 -117.5t-93 -78t-136.5 -28zM227 1605l-138 180h184l60 -90l62 90h184l-138 -180h-214z" />
    <glyph glyph-name="scaron" unicode="&#x161;" horiz-adv-x="600" 
d="M312 -16q-71 0 -124 24t-88 68.5t-52.5 105.5t-17.5 136h188q0 -67 21.5 -116.5t72.5 -49.5q44 0 57 37t13 85q0 56 -43.5 114.5t-90.5 104.5q-81 80 -134.5 158t-53.5 183q0 124 65 200t185 76q72 0 121.5 -19t79.5 -57t43.5 -93t13.5 -127h-188q0 52 -11 90t-55 38
q-36 0 -51 -30.5t-15 -77.5q0 -55 26.5 -97.5t88.5 -103.5q78 -76 142.5 -162t64.5 -187q0 -66 -17.5 -121t-51 -95t-81 -62t-108.5 -22zM195 1229l-138 180h184l60 -90l62 90h184l-138 -180h-214z" />
    <glyph glyph-name="uni0162" unicode="&#x162;" horiz-adv-x="664" 
d="M224 0v1248h-204v222h624v-222h-204v-1248h-216zM457 -61q44 0 80 -29.5t36 -99.5q0 -65 -36.5 -106.5t-94 -60.5t-120.5 -19q-54 0 -109.5 16.5t-81.5 35.5l52 110q18 -13 62.5 -31t87.5 -18q44 0 75 15t31 52q0 31 -16.5 42t-35.5 11q-45 0 -65 -34l-109 36l59 141h119
l-47 -108h-9q8 22 45 34.5t77 12.5z" />
    <glyph glyph-name="uni0163" unicode="&#x163;" horiz-adv-x="463" 
d="M344 -16q-95 0 -145 42t-68.5 120t-18.5 186v580h-102v182h102v270h202v-270h139v-182h-139v-609q0 -64 19 -94.5t62 -30.5q19 0 33.5 3t23.5 7v-185q-20 -8 -43.5 -13.5t-64.5 -5.5zM423 -61q44 0 80 -29.5t36 -99.5q0 -65 -36.5 -106.5t-94 -60.5t-120.5 -19
q-54 0 -109.5 16.5t-81.5 35.5l52 110q18 -13 62.5 -31t87.5 -18q44 0 75 15t31 52q0 31 -16.5 42t-35.5 11q-45 0 -65 -34l-109 36l59 141h119l-47 -108h-9q8 22 45 34.5t77 12.5z" />
    <glyph glyph-name="Tcaron" unicode="&#x164;" horiz-adv-x="664" 
d="M224 0v1248h-204v222h624v-222h-204v-1248h-216zM225 1605l-138 180h184l60 -90l62 90h184l-138 -180h-214z" />
    <glyph glyph-name="tcaron" unicode="&#x165;" horiz-adv-x="463" 
d="M344 -16q-95 0 -145 42t-68.5 120t-18.5 186v580h-102v182h102v270h202v-270h139v-182h-139v-609q0 -64 19 -94.5t62 -30.5q19 0 33.5 3t23.5 7v-185q-20 -8 -43.5 -13.5t-64.5 -5.5zM128 1498l-138 180h184l60 -90l62 90h184l-138 -180h-214z" />
    <glyph glyph-name="Tbar" unicode="&#x166;" horiz-adv-x="664" 
d="M91 641v190h479v-190h-479zM224 0v1248h-204v222h624v-222h-204v-1248h-216z" />
    <glyph glyph-name="tbar" unicode="&#x167;" horiz-adv-x="493" 
d="M50 589v154h380v-154h-380zM344 -16q-95 0 -145 42t-68.5 120t-18.5 186v580h-102v182h102v270h202v-270h139v-182h-139v-609q0 -64 19 -94.5t62 -30.5q19 0 33.5 3t23.5 7v-185q-20 -8 -43.5 -13.5t-64.5 -5.5z" />
    <glyph glyph-name="Utilde" unicode="&#x168;" horiz-adv-x="736" 
d="M368 -16q-91 0 -155.5 42t-98.5 114t-34 162v1168h216v-1168q0 -43 17 -75.5t55 -32.5q40 0 56 32.5t16 75.5v1168h216v-1168q0 -90 -34.5 -162t-99 -114t-154.5 -42zM456 1581q-47 0 -86 18q-43 20 -90 20q-27 0 -56 -9.5t-50 -22.5v148q14 11 31 18.5t35 13.5t40 6
q47 0 88 -16q22 -8 44 -15t44 -7q27 0 56 9.5t50 22.5v-148q-19 -17 -51 -27.5t-55 -10.5z" />
    <glyph glyph-name="utilde" unicode="&#x169;" horiz-adv-x="618" 
d="M202 -16q-50 0 -84 32t-51 81.5t-17 100.5v896h202v-856q0 -31 11.5 -44.5t36.5 -13.5q22 0 37.5 15.5t28.5 36.5v862h202v-1094h-202v92q-36 -34 -81 -71t-83 -37zM400 1205q-47 0 -86 18q-43 20 -90 20q-27 0 -56 -9.5t-50 -22.5v148q14 11 31 18.5t35 13.5t40 6
q47 0 88 -16q22 -8 44 -15t44 -7q27 0 56 9.5t50 22.5v-148q-19 -17 -51 -27.5t-55 -10.5z" />
    <glyph glyph-name="Umacron" unicode="&#x16a;" horiz-adv-x="736" 
d="M368 -16q-91 0 -155.5 42t-98.5 114t-34 162v1168h216v-1168q0 -43 17 -75.5t55 -32.5q40 0 56 32.5t16 75.5v1168h216v-1168q0 -90 -34.5 -162t-99 -114t-154.5 -42zM174 1611v148h388v-148h-388z" />
    <glyph glyph-name="umacron" unicode="&#x16b;" horiz-adv-x="618" 
d="M202 -16q-50 0 -84 32t-51 81.5t-17 100.5v896h202v-856q0 -31 11.5 -44.5t36.5 -13.5q22 0 37.5 15.5t28.5 36.5v862h202v-1094h-202v92q-36 -34 -81 -71t-83 -37zM118 1235v148h388v-148h-388z" />
    <glyph glyph-name="Uring" unicode="&#x16e;" horiz-adv-x="736" 
d="M368 -16q-91 0 -155.5 42t-98.5 114t-34 162v1168h216v-1168q0 -43 17 -75.5t55 -32.5q40 0 56 32.5t16 75.5v1168h216v-1168q0 -90 -34.5 -162t-99 -114t-154.5 -42zM369 1570q-61 0 -105.5 39.5t-44.5 100.5q0 62 44.5 101t105.5 39q62 0 105 -39t43 -101
q0 -61 -43 -100.5t-105 -39.5zM369 1640q29 0 51.5 21t22.5 49q0 29 -22.5 49.5t-51.5 20.5q-28 0 -51 -20.5t-23 -49.5q0 -28 23 -49t51 -21z" />
    <glyph glyph-name="uring" unicode="&#x16f;" horiz-adv-x="618" 
d="M202 -16q-50 0 -84 32t-51 81.5t-17 100.5v896h202v-856q0 -31 11.5 -44.5t36.5 -13.5q22 0 37.5 15.5t28.5 36.5v862h202v-1094h-202v92q-36 -34 -81 -71t-83 -37zM313 1194q-61 0 -105.5 39.5t-44.5 100.5q0 62 44.5 101t105.5 39q62 0 105 -39t43 -101
q0 -61 -43 -100.5t-105 -39.5zM313 1264q29 0 51.5 21t22.5 49q0 29 -22.5 49.5t-51.5 20.5q-28 0 -51 -20.5t-23 -49.5q0 -28 23 -49t51 -21z" />
    <glyph glyph-name="Uhungarumlaut" unicode="&#x170;" horiz-adv-x="736" 
d="M368 -16q-91 0 -155.5 42t-98.5 114t-34 162v1168h216v-1168q0 -43 17 -75.5t55 -32.5q40 0 56 32.5t16 75.5v1168h216v-1168q0 -90 -34.5 -162t-99 -114t-154.5 -42zM339 1600l134 180h210l-178 -180h-166zM53 1600l124 180h200l-168 -180h-156z" />
    <glyph glyph-name="uhungarumlaut" unicode="&#x171;" horiz-adv-x="618" 
d="M202 -16q-50 0 -84 32t-51 81.5t-17 100.5v896h202v-856q0 -31 11.5 -44.5t36.5 -13.5q22 0 37.5 15.5t28.5 36.5v862h202v-1094h-202v92q-36 -34 -81 -71t-83 -37zM283 1224l134 180h210l-178 -180h-166zM-3 1224l124 180h200l-168 -180h-156z" />
    <glyph glyph-name="Uogonek" unicode="&#x172;" horiz-adv-x="736" 
d="M368 -16q-91 0 -155.5 42t-98.5 114t-34 162v1168h216v-1168q0 -43 17 -75.5t55 -32.5q40 0 56 32.5t16 75.5v1168h216v-1168q0 -90 -34.5 -162t-99 -114t-154.5 -42zM559 -312q-83 0 -139 34.5t-56 124.5q0 51 21 103t61 113h114q-15 -40 -29.5 -91.5t-14.5 -85.5
q0 -43 26 -54t45 -11q47 0 84 23v-133q-37 -23 -112 -23z" />
    <glyph glyph-name="uogonek" unicode="&#x173;" horiz-adv-x="618" 
d="M202 -16q-50 0 -84 32t-51 81.5t-17 100.5v896h202v-856q0 -31 11.5 -44.5t36.5 -13.5q22 0 37.5 15.5t28.5 36.5v862h202v-1094h-202v92q-36 -34 -81 -71t-83 -37zM567 -375q-83 0 -139 34.5t-56 124.5q0 51 21 103t61 113h114q-15 -40 -29.5 -91.5t-14.5 -85.5
q0 -43 26 -54t45 -11q47 0 84 23v-133q-37 -23 -112 -23z" />
    <glyph glyph-name="Wcircumflex" unicode="&#x174;" horiz-adv-x="1024" 
d="M228 0l-198 1470h200l86 -764l4 -48h16l6 48l92 764h156l92 -764l6 -48h16l4 48l86 764h200l-198 -1470h-168l-100 696l-12 86h-8l-12 -86l-100 -696h-168zM267 1604l138 180h214l138 -180h-184l-62 90l-60 -90h-184z" />
    <glyph glyph-name="wcircumflex" unicode="&#x175;" horiz-adv-x="874" 
d="M177 0l-162 1094h194l54 -572l8 -112h12l10 112l84 572h120l84 -572l10 -112h12l8 112l54 572h194l-162 -1094h-168l-78 522l-10 102h-8l-10 -102l-78 -522h-168zM192 1228l138 180h214l138 -180h-184l-62 90l-60 -90h-184z" />
    <glyph glyph-name="Ycircumflex" unicode="&#x176;" 
d="M250 0v626l-220 844h212l106 -470l7 -64h6l7 64l106 470h212l-220 -844v-626h-216zM113 1604l138 180h214l138 -180h-184l-62 90l-60 -90h-184z" />
    <glyph glyph-name="ycircumflex" unicode="&#x177;" horiz-adv-x="602" 
d="M89 -392q-13 0 -31 1t-35 4v179q3 -1 16 -2.5t17 -1.5q56 0 90.5 30t48.5 80q5 15 5.5 35t0.5 35l-186 1126h198l80 -682l4 -76h8l4 76l80 682h198l-194 -1176q-11 -88 -49.5 -158.5t-102.5 -111t-152 -40.5zM56 1228l138 180h214l138 -180h-184l-62 90l-60 -90h-184z
" />
    <glyph glyph-name="Ydieresis" unicode="&#x178;" 
d="M250 0v626l-220 844h212l106 -470l7 -64h6l7 64l106 470h212l-220 -844v-626h-216zM406 1592v196h186v-196h-186zM124 1592v196h186v-196h-186z" />
    <glyph glyph-name="Zacute" unicode="&#x179;" horiz-adv-x="632" 
d="M30 0v232l338 1024h-290v214h524v-214l-344 -1042h344v-214h-572zM218 1600l134 180h210l-188 -180h-156z" />
    <glyph glyph-name="zacute" unicode="&#x17a;" horiz-adv-x="592" 
d="M50 0v164l278 746h-234v184h448v-164l-278 -746h278v-184h-492zM200 1224l134 180h210l-188 -180h-156z" />
    <glyph glyph-name="Zdotaccent" unicode="&#x17b;" horiz-adv-x="632" 
d="M30 0v232l338 1024h-290v214h524v-214l-344 -1042h344v-214h-572zM215 1595v202h202v-202h-202z" />
    <glyph glyph-name="zdotaccent" unicode="&#x17c;" horiz-adv-x="592" 
d="M50 0v164l278 746h-234v184h448v-164l-278 -746h278v-184h-492zM197 1219v202h202v-202h-202z" />
    <glyph glyph-name="Zcaron" unicode="&#x17d;" horiz-adv-x="632" 
d="M30 0v232l338 1024h-290v214h524v-214l-344 -1042h344v-214h-572zM209 1605l-138 180h184l60 -90l62 90h184l-138 -180h-214z" />
    <glyph glyph-name="zcaron" unicode="&#x17e;" horiz-adv-x="592" 
d="M50 0v164l278 746h-234v184h448v-164l-278 -746h278v-184h-492zM191 1229l-138 180h184l60 -90l62 90h184l-138 -180h-214z" />
    <glyph glyph-name="longs" unicode="&#x17f;" horiz-adv-x="464" 
d="M36 0v1146q0 121 32.5 188t89.5 93.5t132 26.5q32 0 67.5 -4t74.5 -12l-24 -156q-21 5 -42 6.5t-44 1.5q-72 0 -102 -32.5t-30 -127.5v-1130h-154z" />
    <glyph glyph-name="Ohorn" unicode="&#x1a0;" 
d="M358 -16q-90 0 -154.5 42t-99 114t-34.5 162v866q0 91 34.5 162.5t99 113.5t154.5 42t154.5 -42t99 -114t34.5 -162v-866q0 -90 -34.5 -162t-99 -114t-154.5 -42zM358 194q40 0 56 33.5t16 74.5v866q0 41 -17 74.5t-55 33.5q-37 0 -54.5 -33.5t-17.5 -74.5v-866
q0 -41 17 -74.5t55 -33.5zM453 1470q52 0 77.5 15.5t33.5 60.5t8 132h164q0 -139 -33 -214t-96 -103t-154 -28v137z" />
    <glyph glyph-name="ohorn" unicode="&#x1a1;" horiz-adv-x="598" 
d="M299 -14q-121 0 -190 81.5t-69 206.5v548q0 125 69 206.5t190 81.5q120 0 189.5 -81.5t69.5 -206.5v-548q0 -125 -69.5 -206.5t-189.5 -81.5zM299 162q39 0 54 31.5t15 80.5v548q0 50 -15 81t-54 31t-54 -31t-15 -81v-548q0 -50 15 -81t54 -31zM398 1081q52 0 77.5 15.5
t33.5 60.5t8 132h164q0 -139 -33 -214t-96 -103t-154 -28v137z" />
    <glyph glyph-name="Uhorn" unicode="&#x1af;" horiz-adv-x="736" 
d="M368 -16q-91 0 -155.5 42t-98.5 114t-34 162v1168h216v-1168q0 -43 17 -75.5t55 -32.5q40 0 56 32.5t16 75.5v1168h216v-1168q0 -90 -34.5 -162t-99 -114t-154.5 -42zM576 1470q52 0 77.5 15.5t33.5 60.5t8 132h164q0 -139 -33 -214t-96 -103t-154 -28v137z" />
    <glyph glyph-name="uhorn" unicode="&#x1b0;" horiz-adv-x="618" 
d="M202 -16q-50 0 -84 32t-51 81.5t-17 100.5v896h202v-856q0 -31 11.5 -44.5t36.5 -13.5q22 0 37.5 15.5t28.5 36.5v862h202v-1094h-202v92q-36 -34 -81 -71t-83 -37zM526 1094q52 0 77.5 15.5t33.5 60.5t8 132h164q0 -139 -33 -214t-96 -103t-154 -28v137z" />
    <glyph glyph-name="uni01CD" unicode="&#x1cd;" horiz-adv-x="778" 
d="M35 0l222 1470h264l222 -1470h-210l-40 300h-208l-40 -300h-210zM315 528h148l-62 494l-6 78h-12l-6 -78zM282 1605l-138 180h184l60 -90l62 90h184l-138 -180h-214z" />
    <glyph glyph-name="uni01CE" unicode="&#x1ce;" horiz-adv-x="639" 
d="M207 -16q-70 0 -121 71t-51 217q0 141 60.5 227t181.5 149q38 20 64 36t32 30v120q0 41 -9.5 70.5t-46.5 29.5q-34 0 -46 -31.5t-12 -78.5v-52h-202v46q0 90 35.5 155.5t97 101t139.5 35.5q75 0 130 -34.5t85.5 -95t30.5 -138.5v-652q0 -73 4 -113.5t10 -76.5h-198
q-13 16 -15.5 47t-2.5 41h-14q-25 -46 -63.5 -75t-88.5 -29zM289 182q35 0 59.5 24t24.5 52v260q-73 -31 -106.5 -93.5t-33.5 -140.5q0 -34 13 -68t43 -34zM214 1229l-138 180h184l60 -90l62 90h184l-138 -180h-214z" />
    <glyph glyph-name="uni01CF" unicode="&#x1cf;" horiz-adv-x="376" 
d="M80 0v1470h216v-1470h-216zM81 1605l-138 180h184l60 -90l62 90h184l-138 -180h-214z" />
    <glyph glyph-name="uni01D0" unicode="&#x1d0;" horiz-adv-x="362" 
d="M80 0v1094h202v-1094h-202zM74 1229l-138 180h184l60 -90l62 90h184l-138 -180h-214z" />
    <glyph glyph-name="uni01D1" unicode="&#x1d1;" 
d="M358 -16q-90 0 -154.5 42t-99 114t-34.5 162v866q0 91 34.5 162.5t99 113.5t154.5 42t154.5 -42t99 -114t34.5 -162v-866q0 -90 -34.5 -162t-99 -114t-154.5 -42zM358 194q40 0 56 33.5t16 74.5v866q0 41 -17 74.5t-55 33.5q-37 0 -54.5 -33.5t-17.5 -74.5v-866
q0 -41 17 -74.5t55 -33.5zM251 1605l-138 180h184l60 -90l62 90h184l-138 -180h-214z" />
    <glyph glyph-name="uni01D2" unicode="&#x1d2;" horiz-adv-x="598" 
d="M299 -14q-121 0 -190 81.5t-69 206.5v548q0 125 69 206.5t190 81.5q120 0 189.5 -81.5t69.5 -206.5v-548q0 -125 -69.5 -206.5t-189.5 -81.5zM299 162q39 0 54 31.5t15 80.5v548q0 50 -15 81t-54 31t-54 -31t-15 -81v-548q0 -50 15 -81t54 -31zM193 1229l-138 180h184
l60 -90l62 90h184l-138 -180h-214z" />
    <glyph glyph-name="uni01D3" unicode="&#x1d3;" horiz-adv-x="736" 
d="M368 -16q-91 0 -155.5 42t-98.5 114t-34 162v1168h216v-1168q0 -43 17 -75.5t55 -32.5q40 0 56 32.5t16 75.5v1168h216v-1168q0 -90 -34.5 -162t-99 -114t-154.5 -42zM261 1605l-138 180h184l60 -90l62 90h184l-138 -180h-214z" />
    <glyph glyph-name="uni01D4" unicode="&#x1d4;" horiz-adv-x="618" 
d="M202 -16q-50 0 -84 32t-51 81.5t-17 100.5v896h202v-856q0 -31 11.5 -44.5t36.5 -13.5q22 0 37.5 15.5t28.5 36.5v862h202v-1094h-202v92q-36 -34 -81 -71t-83 -37zM205 1229l-138 180h184l60 -90l62 90h184l-138 -180h-214z" />
    <glyph glyph-name="uni01D5" unicode="&#x1d5;" horiz-adv-x="736" 
d="M368 -16q-91 0 -155.5 42t-98.5 114t-34 162v1168h216v-1168q0 -43 17 -75.5t55 -32.5q40 0 56 32.5t16 75.5v1168h216v-1168q0 -90 -34.5 -162t-99 -114t-154.5 -42zM416 1592v196h186v-196h-186zM134 1592v196h186v-196h-186zM174 1929v148h388v-148h-388z" />
    <glyph glyph-name="uni01D6" unicode="&#x1d6;" horiz-adv-x="618" 
d="M202 -16q-50 0 -84 32t-51 81.5t-17 100.5v896h202v-856q0 -31 11.5 -44.5t36.5 -13.5q22 0 37.5 15.5t28.5 36.5v862h202v-1094h-202v92q-36 -34 -81 -71t-83 -37zM360 1216v196h186v-196h-186zM78 1216v196h186v-196h-186zM118 1553v148h388v-148h-388z" />
    <glyph glyph-name="uni01D7" unicode="&#x1d7;" horiz-adv-x="736" 
d="M368 -16q-91 0 -155.5 42t-98.5 114t-34 162v1168h216v-1168q0 -43 17 -75.5t55 -32.5q40 0 56 32.5t16 75.5v1168h216v-1168q0 -90 -34.5 -162t-99 -114t-154.5 -42zM416 1592v196h186v-196h-186zM134 1592v196h186v-196h-186zM270 1918l134 180h210l-188 -180h-156z
" />
    <glyph glyph-name="uni01D8" unicode="&#x1d8;" horiz-adv-x="618" 
d="M202 -16q-50 0 -84 32t-51 81.5t-17 100.5v896h202v-856q0 -31 11.5 -44.5t36.5 -13.5q22 0 37.5 15.5t28.5 36.5v862h202v-1094h-202v92q-36 -34 -81 -71t-83 -37zM360 1216v196h186v-196h-186zM78 1216v196h186v-196h-186zM214 1542l134 180h210l-188 -180h-156z" />
    <glyph glyph-name="uni01D9" unicode="&#x1d9;" horiz-adv-x="736" 
d="M368 -16q-91 0 -155.5 42t-98.5 114t-34 162v1168h216v-1168q0 -43 17 -75.5t55 -32.5q40 0 56 32.5t16 75.5v1168h216v-1168q0 -90 -34.5 -162t-99 -114t-154.5 -42zM416 1592v196h186v-196h-186zM134 1592v196h186v-196h-186zM261 1923l-138 180h184l60 -90l62 90h184
l-138 -180h-214z" />
    <glyph glyph-name="uni01DA" unicode="&#x1da;" horiz-adv-x="618" 
d="M202 -16q-50 0 -84 32t-51 81.5t-17 100.5v896h202v-856q0 -31 11.5 -44.5t36.5 -13.5q22 0 37.5 15.5t28.5 36.5v862h202v-1094h-202v92q-36 -34 -81 -71t-83 -37zM360 1216v196h186v-196h-186zM78 1216v196h186v-196h-186zM205 1547l-138 180h184l60 -90l62 90h184
l-138 -180h-214z" />
    <glyph glyph-name="uni01DB" unicode="&#x1db;" horiz-adv-x="736" 
d="M368 -16q-91 0 -155.5 42t-98.5 114t-34 162v1168h216v-1168q0 -43 17 -75.5t55 -32.5q40 0 56 32.5t16 75.5v1168h216v-1168q0 -90 -34.5 -162t-99 -114t-154.5 -42zM416 1592v196h186v-196h-186zM134 1592v196h186v-196h-186zM458 1918h-156l-188 180h210z" />
    <glyph glyph-name="uni01DC" unicode="&#x1dc;" horiz-adv-x="618" 
d="M202 -16q-50 0 -84 32t-51 81.5t-17 100.5v896h202v-856q0 -31 11.5 -44.5t36.5 -13.5q22 0 37.5 15.5t28.5 36.5v862h202v-1094h-202v92q-36 -34 -81 -71t-83 -37zM360 1216v196h186v-196h-186zM78 1216v196h186v-196h-186zM402 1542h-156l-188 180h210z" />
    <glyph glyph-name="uni0218" unicode="&#x218;" horiz-adv-x="676" 
d="M340 -16q-89 0 -148 29.5t-93 85.5t-48.5 135t-14.5 178l212 20q0 -48 3.5 -92.5t13 -80t28 -56.5t47.5 -21q48 0 68 44.5t20 107.5t-33 131t-79 129q-78 104 -136.5 193t-91 175t-32.5 180q0 74 19 136.5t55.5 109t88.5 72.5t119 26q83 0 140.5 -28t93 -80t52 -123.5
t16.5 -158.5l-212 -20q0 37 -3.5 74.5t-12.5 68.5t-26 50t-44 19q-42 0 -58 -35.5t-16 -100.5q0 -84 45 -162t121 -182q91 -123 148.5 -226t57.5 -228q0 -79 -17 -146.5t-53.5 -117.5t-93 -78t-136.5 -28zM235 -458l66 166h-66v208h197v-208l-103 -166h-94z" />
    <glyph glyph-name="uni0219" unicode="&#x219;" horiz-adv-x="600" 
d="M312 -16q-71 0 -124 24t-88 68.5t-52.5 105.5t-17.5 136h188q0 -67 21.5 -116.5t72.5 -49.5q44 0 57 37t13 85q0 56 -43.5 114.5t-90.5 104.5q-81 80 -134.5 158t-53.5 183q0 124 65 200t185 76q72 0 121.5 -19t79.5 -57t43.5 -93t13.5 -127h-188q0 52 -11 90t-55 38
q-36 0 -51 -30.5t-15 -77.5q0 -55 26.5 -97.5t88.5 -103.5q78 -76 142.5 -162t64.5 -187q0 -66 -17.5 -121t-51 -95t-81 -62t-108.5 -22zM203 -458l66 166h-66v208h197v-208l-103 -166h-94z" />
    <glyph glyph-name="uni021A" unicode="&#x21a;" horiz-adv-x="664" 
d="M224 0v1248h-204v222h624v-222h-204v-1248h-216zM233 -458l66 166h-66v208h197v-208l-103 -166h-94z" />
    <glyph glyph-name="uni021B" unicode="&#x21b;" horiz-adv-x="463" 
d="M344 -16q-95 0 -145 42t-68.5 120t-18.5 186v580h-102v182h102v270h202v-270h139v-182h-139v-609q0 -64 19 -94.5t62 -30.5q19 0 33.5 3t23.5 7v-185q-20 -8 -43.5 -13.5t-64.5 -5.5zM199 -458l66 166h-66v208h197v-208l-103 -166h-94z" />
    <glyph glyph-name="circumflex" unicode="&#x2c6;" horiz-adv-x="998" 
d="M254 1228l138 180h214l138 -180h-184l-62 90l-60 -90h-184z" />
    <glyph glyph-name="caron" unicode="&#x2c7;" horiz-adv-x="998" 
d="M392 1229l-138 180h184l60 -90l62 90h184l-138 -180h-214z" />
    <glyph glyph-name="breve" unicode="&#x2d8;" horiz-adv-x="1000" 
d="M500 1203q-64 0 -123 25.5t-97 68.5l108 92q18 -23 48.5 -34.5t63.5 -11.5q37 0 68.5 13t47.5 33l104 -92q-46 -46 -100.5 -70t-119.5 -24z" />
    <glyph glyph-name="dotaccent" unicode="&#x2d9;" horiz-adv-x="998" 
d="M385 1219v202h202v-202h-202z" />
    <glyph glyph-name="ring" unicode="&#x2da;" horiz-adv-x="998" 
d="M500 1194q-61 0 -105.5 39.5t-44.5 100.5q0 62 44.5 101t105.5 39q62 0 105 -39t43 -101q0 -61 -43 -100.5t-105 -39.5zM500 1264q29 0 51.5 21t22.5 49q0 29 -22.5 49.5t-51.5 20.5q-28 0 -51 -20.5t-23 -49.5q0 -28 23 -49t51 -21z" />
    <glyph glyph-name="ogonek" unicode="&#x2db;" horiz-adv-x="1000" 
d="M521 -375q-83 0 -139 34.5t-56 124.5q0 51 21 103t61 113h114q-15 -40 -29.5 -91.5t-14.5 -85.5q0 -43 26 -54t45 -11q47 0 84 23v-133q-37 -23 -112 -23z" />
    <glyph glyph-name="tilde" unicode="&#x2dc;" horiz-adv-x="1000" 
d="M588 1205q-47 0 -86 18q-43 20 -90 20q-27 0 -56 -9.5t-50 -22.5v148q14 11 31 18.5t35 13.5t40 6q47 0 88 -16q22 -8 44 -15t44 -7q27 0 56 9.5t50 22.5v-148q-19 -17 -51 -27.5t-55 -10.5z" />
    <glyph glyph-name="hungarumlaut" unicode="&#x2dd;" horiz-adv-x="1000" 
d="M496 1224l134 180h210l-178 -180h-166zM210 1224l124 180h200l-168 -180h-156z" />
    <glyph glyph-name="gravecomb" unicode="&#x300;" horiz-adv-x="0" 
d="M634 1224h-156l-188 180h210z" />
    <glyph glyph-name="acutecomb" unicode="&#x301;" horiz-adv-x="0" 
d="M391 1224l134 180h210l-188 -180h-156z" />
    <glyph glyph-name="uni0302" unicode="&#x302;" horiz-adv-x="0" 
d="M254 1228l138 180h214l138 -180h-184l-62 90l-60 -90h-184z" />
    <glyph glyph-name="tildecomb" unicode="&#x303;" horiz-adv-x="0" 
d="M588 1205q-47 0 -86 18q-43 20 -90 20q-27 0 -56 -9.5t-50 -22.5v148q14 11 31 18.5t35 13.5t40 6q47 0 88 -16q22 -8 44 -15t44 -7q27 0 56 9.5t50 22.5v-148q-19 -17 -51 -27.5t-55 -10.5z" />
    <glyph glyph-name="uni0304" unicode="&#x304;" horiz-adv-x="0" 
d="M306 1235v148h388v-148h-388z" />
    <glyph glyph-name="uni0306" unicode="&#x306;" horiz-adv-x="0" 
d="M500 1203q-64 0 -123 25.5t-97 68.5l108 92q18 -23 48.5 -34.5t63.5 -11.5q37 0 68.5 13t47.5 33l104 -92q-46 -46 -100.5 -70t-119.5 -24z" />
    <glyph glyph-name="uni0307" unicode="&#x307;" horiz-adv-x="0" 
d="M385 1219v202h202v-202h-202z" />
    <glyph glyph-name="uni0308" unicode="&#x308;" horiz-adv-x="0" 
d="M548 1216v196h186v-196h-186zM266 1216v196h186v-196h-186z" />
    <glyph glyph-name="hookabovecomb" unicode="&#x309;" horiz-adv-x="0" 
d="M351 1437q71 0 138.5 -6.5t112 -30t44.5 -73.5q0 -64 -64 -95t-150 -31l-23 74q26 2 64 10t38 30q0 20 -41 27t-119 7v88z" />
    <glyph glyph-name="uni030A" unicode="&#x30a;" horiz-adv-x="0" 
d="M500 1194q-61 0 -105.5 39.5t-44.5 100.5q0 62 44.5 101t105.5 39q62 0 105 -39t43 -101q0 -61 -43 -100.5t-105 -39.5zM500 1264q29 0 51.5 21t22.5 49q0 29 -22.5 49.5t-51.5 20.5q-28 0 -51 -20.5t-23 -49.5q0 -28 23 -49t51 -21z" />
    <glyph glyph-name="uni030B" unicode="&#x30b;" horiz-adv-x="0" 
d="M496 1224l134 180h210l-178 -180h-166zM210 1224l124 180h200l-168 -180h-156z" />
    <glyph glyph-name="uni030C" unicode="&#x30c;" horiz-adv-x="0" 
d="M392 1229l-138 180h184l60 -90l62 90h184l-138 -180h-214z" />
    <glyph glyph-name="uni0312" unicode="&#x312;" horiz-adv-x="0" 
d="M562 1571l-66 -166h66v-208h-197v208l103 166h94z" />
    <glyph glyph-name="uni031B" unicode="&#x31b;" horiz-adv-x="0" 
d="M402 1094q52 0 77.5 15.5t33.5 60.5t8 132h164q0 -139 -33 -214t-96 -103t-154 -28v137z" />
    <glyph glyph-name="dotbelowcomb" unicode="&#x323;" horiz-adv-x="0" 
d="M435 -287v202h202v-202h-202z" />
    <glyph glyph-name="uni0326" unicode="&#x326;" horiz-adv-x="0" 
d="M384 -458l66 166h-66v208h197v-208l-103 -166h-94z" />
    <glyph glyph-name="uni0327" unicode="&#x327;" horiz-adv-x="0" 
d="M662 -61q44 0 80 -29.5t36 -99.5q0 -65 -36.5 -106.5t-94 -60.5t-120.5 -19q-54 0 -109.5 16.5t-81.5 35.5l52 110q18 -13 62.5 -31t87.5 -18q44 0 75 15t31 52q0 31 -16.5 42t-35.5 11q-45 0 -65 -34l-109 36l59 141h119l-47 -108h-9q8 22 45 34.5t77 12.5z" />
    <glyph glyph-name="uni0328" unicode="&#x328;" horiz-adv-x="0" 
d="M521 -375q-83 0 -139 34.5t-56 124.5q0 51 21 103t61 113h114q-15 -40 -29.5 -91.5t-14.5 -85.5q0 -43 26 -54t45 -11q47 0 84 23v-133q-37 -23 -112 -23z" />
    <glyph glyph-name="Wgrave" unicode="&#x1e80;" horiz-adv-x="1024" 
d="M228 0l-198 1470h200l86 -764l4 -48h16l6 48l92 764h156l92 -764l6 -48h16l4 48l86 764h200l-198 -1470h-168l-100 696l-12 86h-8l-12 -86l-100 -696h-168zM602 1600h-156l-188 180h210z" />
    <glyph glyph-name="wgrave" unicode="&#x1e81;" horiz-adv-x="874" 
d="M177 0l-162 1094h194l54 -572l8 -112h12l10 112l84 572h120l84 -572l10 -112h12l8 112l54 572h194l-162 -1094h-168l-78 522l-10 102h-8l-10 -102l-78 -522h-168zM527 1224h-156l-188 180h210z" />
    <glyph glyph-name="Wacute" unicode="&#x1e82;" horiz-adv-x="1024" 
d="M228 0l-198 1470h200l86 -764l4 -48h16l6 48l92 764h156l92 -764l6 -48h16l4 48l86 764h200l-198 -1470h-168l-100 696l-12 86h-8l-12 -86l-100 -696h-168zM414 1600l134 180h210l-188 -180h-156z" />
    <glyph glyph-name="wacute" unicode="&#x1e83;" horiz-adv-x="874" 
d="M177 0l-162 1094h194l54 -572l8 -112h12l10 112l84 572h120l84 -572l10 -112h12l8 112l54 572h194l-162 -1094h-168l-78 522l-10 102h-8l-10 -102l-78 -522h-168zM339 1224l134 180h210l-188 -180h-156z" />
    <glyph glyph-name="Wdieresis" unicode="&#x1e84;" horiz-adv-x="1024" 
d="M228 0l-198 1470h200l86 -764l4 -48h16l6 48l92 764h156l92 -764l6 -48h16l4 48l86 764h200l-198 -1470h-168l-100 696l-12 86h-8l-12 -86l-100 -696h-168zM560 1592v196h186v-196h-186zM278 1592v196h186v-196h-186z" />
    <glyph glyph-name="wdieresis" unicode="&#x1e85;" horiz-adv-x="874" 
d="M177 0l-162 1094h194l54 -572l8 -112h12l10 112l84 572h120l84 -572l10 -112h12l8 112l54 572h194l-162 -1094h-168l-78 522l-10 102h-8l-10 -102l-78 -522h-168zM485 1216v196h186v-196h-186zM203 1216v196h186v-196h-186z" />
    <glyph glyph-name="uni1E9E" unicode="&#x1e9e;" horiz-adv-x="700" 
d="M60 0v1206q0 88 34 150.5t96 96t144 33.5q85 0 144 -35.5t89.5 -98t30.5 -144.5q0 -54 -22.5 -97t-63.5 -73q35 -19 62 -54t46 -92q20 -57 30 -138.5t10 -191.5q0 -181 -21 -292.5t-63 -171.5t-103 -79t-139 -19v188q30 0 54.5 13t39.5 53q15 41 22.5 114.5t7.5 193.5
q0 128 -7.5 205t-22.5 119t-39.5 56t-54.5 14v138q35 0 59.5 31t24.5 83q0 41 -18 69.5t-62 28.5q-37 0 -56.5 -29.5t-19.5 -70.5v-1206h-202z" />
    <glyph glyph-name="uni1EA0" unicode="&#x1ea0;" horiz-adv-x="778" 
d="M35 0l222 1470h264l222 -1470h-210l-40 300h-208l-40 -300h-210zM315 528h148l-62 494l-6 78h-12l-6 -78zM288 -287v202h202v-202h-202z" />
    <glyph glyph-name="uni1EA1" unicode="&#x1ea1;" horiz-adv-x="639" 
d="M207 -16q-70 0 -121 71t-51 217q0 141 60.5 227t181.5 149q38 20 64 36t32 30v120q0 41 -9.5 70.5t-46.5 29.5q-34 0 -46 -31.5t-12 -78.5v-52h-202v46q0 90 35.5 155.5t97 101t139.5 35.5q75 0 130 -34.5t85.5 -95t30.5 -138.5v-652q0 -73 4 -113.5t10 -76.5h-198
q-13 16 -15.5 47t-2.5 41h-14q-25 -46 -63.5 -75t-88.5 -29zM289 182q35 0 59.5 24t24.5 52v260q-73 -31 -106.5 -93.5t-33.5 -140.5q0 -34 13 -68t43 -34zM209 -287v202h202v-202h-202z" />
    <glyph glyph-name="uni1EA2" unicode="&#x1ea2;" horiz-adv-x="778" 
d="M35 0l222 1470h264l222 -1470h-210l-40 300h-208l-40 -300h-210zM315 528h148l-62 494l-6 78h-12l-6 -78zM251 1813q71 0 138.5 -6.5t112 -30t44.5 -73.5q0 -64 -64 -95t-150 -31l-23 74q26 2 64 10t38 30q0 20 -41 27t-119 7v88z" />
    <glyph glyph-name="uni1EA3" unicode="&#x1ea3;" horiz-adv-x="639" 
d="M207 -16q-70 0 -121 71t-51 217q0 141 60.5 227t181.5 149q38 20 64 36t32 30v120q0 41 -9.5 70.5t-46.5 29.5q-34 0 -46 -31.5t-12 -78.5v-52h-202v46q0 90 35.5 155.5t97 101t139.5 35.5q75 0 130 -34.5t85.5 -95t30.5 -138.5v-652q0 -73 4 -113.5t10 -76.5h-198
q-13 16 -15.5 47t-2.5 41h-14q-25 -46 -63.5 -75t-88.5 -29zM289 182q35 0 59.5 24t24.5 52v260q-73 -31 -106.5 -93.5t-33.5 -140.5q0 -34 13 -68t43 -34zM183 1437q71 0 138.5 -6.5t112 -30t44.5 -73.5q0 -64 -64 -95t-150 -31l-23 74q26 2 64 10t38 30q0 20 -41 27
t-119 7v88z" />
    <glyph glyph-name="uni1EA4" unicode="&#x1ea4;" horiz-adv-x="778" 
d="M35 0l222 1470h264l222 -1470h-210l-40 300h-208l-40 -300h-210zM315 528h148l-62 494l-6 78h-12l-6 -78zM144 1604l138 180h214l138 -180h-184l-62 90l-60 -90h-184zM560 1747l134 180h210l-188 -180h-156z" />
    <glyph glyph-name="uni1EA5" unicode="&#x1ea5;" horiz-adv-x="639" 
d="M207 -16q-70 0 -121 71t-51 217q0 141 60.5 227t181.5 149q38 20 64 36t32 30v120q0 41 -9.5 70.5t-46.5 29.5q-34 0 -46 -31.5t-12 -78.5v-52h-202v46q0 90 35.5 155.5t97 101t139.5 35.5q75 0 130 -34.5t85.5 -95t30.5 -138.5v-652q0 -73 4 -113.5t10 -76.5h-198
q-13 16 -15.5 47t-2.5 41h-14q-25 -46 -63.5 -75t-88.5 -29zM289 182q35 0 59.5 24t24.5 52v260q-73 -31 -106.5 -93.5t-33.5 -140.5q0 -34 13 -68t43 -34zM76 1228l138 180h214l138 -180h-184l-62 90l-60 -90h-184zM492 1371l134 180h210l-188 -180h-156z" />
    <glyph glyph-name="uni1EA6" unicode="&#x1ea6;" horiz-adv-x="778" 
d="M35 0l222 1470h264l222 -1470h-210l-40 300h-208l-40 -300h-210zM315 528h148l-62 494l-6 78h-12l-6 -78zM144 1604l138 180h214l138 -180h-184l-62 90l-60 -90h-184zM775 1749h-156l-188 180h210z" />
    <glyph glyph-name="uni1EA7" unicode="&#x1ea7;" horiz-adv-x="639" 
d="M207 -16q-70 0 -121 71t-51 217q0 141 60.5 227t181.5 149q38 20 64 36t32 30v120q0 41 -9.5 70.5t-46.5 29.5q-34 0 -46 -31.5t-12 -78.5v-52h-202v46q0 90 35.5 155.5t97 101t139.5 35.5q75 0 130 -34.5t85.5 -95t30.5 -138.5v-652q0 -73 4 -113.5t10 -76.5h-198
q-13 16 -15.5 47t-2.5 41h-14q-25 -46 -63.5 -75t-88.5 -29zM289 182q35 0 59.5 24t24.5 52v260q-73 -31 -106.5 -93.5t-33.5 -140.5q0 -34 13 -68t43 -34zM76 1228l138 180h214l138 -180h-184l-62 90l-60 -90h-184zM707 1373h-156l-188 180h210z" />
    <glyph glyph-name="uni1EA8" unicode="&#x1ea8;" horiz-adv-x="778" 
d="M35 0l222 1470h264l222 -1470h-210l-40 300h-208l-40 -300h-210zM315 528h148l-62 494l-6 78h-12l-6 -78zM144 1604l138 180h214l138 -180h-184l-62 90l-60 -90h-184zM509 1980q71 0 138.5 -6.5t112 -30t44.5 -73.5q0 -64 -64 -95t-150 -31l-23 74q26 2 64 10t38 30
q0 20 -41 27t-119 7v88z" />
    <glyph glyph-name="uni1EA9" unicode="&#x1ea9;" horiz-adv-x="639" 
d="M207 -16q-70 0 -121 71t-51 217q0 141 60.5 227t181.5 149q38 20 64 36t32 30v120q0 41 -9.5 70.5t-46.5 29.5q-34 0 -46 -31.5t-12 -78.5v-52h-202v46q0 90 35.5 155.5t97 101t139.5 35.5q75 0 130 -34.5t85.5 -95t30.5 -138.5v-652q0 -73 4 -113.5t10 -76.5h-198
q-13 16 -15.5 47t-2.5 41h-14q-25 -46 -63.5 -75t-88.5 -29zM289 182q35 0 59.5 24t24.5 52v260q-73 -31 -106.5 -93.5t-33.5 -140.5q0 -34 13 -68t43 -34zM76 1228l138 180h214l138 -180h-184l-62 90l-60 -90h-184zM441 1604q71 0 138.5 -6.5t112 -30t44.5 -73.5
q0 -64 -64 -95t-150 -31l-23 74q26 2 64 10t38 30q0 20 -41 27t-119 7v88z" />
    <glyph glyph-name="uni1EAA" unicode="&#x1eaa;" horiz-adv-x="778" 
d="M35 0l222 1470h264l222 -1470h-210l-40 300h-208l-40 -300h-210zM315 528h148l-62 494l-6 78h-12l-6 -78zM144 1604l138 180h214l138 -180h-184l-62 90l-60 -90h-184zM476 1834q-47 0 -86 18q-43 20 -90 20q-27 0 -56 -9.5t-50 -22.5v148q14 11 31 18.5t35 13.5t40 6
q47 0 88 -16q22 -8 44 -15t44 -7q27 0 56 9.5t50 22.5v-148q-19 -17 -51 -27.5t-55 -10.5z" />
    <glyph glyph-name="uni1EAB" unicode="&#x1eab;" horiz-adv-x="639" 
d="M207 -16q-70 0 -121 71t-51 217q0 141 60.5 227t181.5 149q38 20 64 36t32 30v120q0 41 -9.5 70.5t-46.5 29.5q-34 0 -46 -31.5t-12 -78.5v-52h-202v46q0 90 35.5 155.5t97 101t139.5 35.5q75 0 130 -34.5t85.5 -95t30.5 -138.5v-652q0 -73 4 -113.5t10 -76.5h-198
q-13 16 -15.5 47t-2.5 41h-14q-25 -46 -63.5 -75t-88.5 -29zM289 182q35 0 59.5 24t24.5 52v260q-73 -31 -106.5 -93.5t-33.5 -140.5q0 -34 13 -68t43 -34zM76 1228l138 180h214l138 -180h-184l-62 90l-60 -90h-184zM408 1458q-47 0 -86 18q-43 20 -90 20q-27 0 -56 -9.5
t-50 -22.5v148q14 11 31 18.5t35 13.5t40 6q47 0 88 -16q22 -8 44 -15t44 -7q27 0 56 9.5t50 22.5v-148q-19 -17 -51 -27.5t-55 -10.5z" />
    <glyph glyph-name="uni1EAC" unicode="&#x1eac;" horiz-adv-x="778" 
d="M35 0l222 1470h264l222 -1470h-210l-40 300h-208l-40 -300h-210zM315 528h148l-62 494l-6 78h-12l-6 -78zM288 -287v202h202v-202h-202zM144 1604l138 180h214l138 -180h-184l-62 90l-60 -90h-184z" />
    <glyph glyph-name="uni1EAD" unicode="&#x1ead;" horiz-adv-x="639" 
d="M207 -16q-70 0 -121 71t-51 217q0 141 60.5 227t181.5 149q38 20 64 36t32 30v120q0 41 -9.5 70.5t-46.5 29.5q-34 0 -46 -31.5t-12 -78.5v-52h-202v46q0 90 35.5 155.5t97 101t139.5 35.5q75 0 130 -34.5t85.5 -95t30.5 -138.5v-652q0 -73 4 -113.5t10 -76.5h-198
q-13 16 -15.5 47t-2.5 41h-14q-25 -46 -63.5 -75t-88.5 -29zM289 182q35 0 59.5 24t24.5 52v260q-73 -31 -106.5 -93.5t-33.5 -140.5q0 -34 13 -68t43 -34zM209 -287v202h202v-202h-202zM76 1228l138 180h214l138 -180h-184l-62 90l-60 -90h-184z" />
    <glyph glyph-name="uni1EAE" unicode="&#x1eae;" horiz-adv-x="778" 
d="M35 0l222 1470h264l222 -1470h-210l-40 300h-208l-40 -300h-210zM315 528h148l-62 494l-6 78h-12l-6 -78zM389 1579q-64 0 -123 25.5t-97 68.5l108 92q18 -23 48.5 -34.5t63.5 -11.5q37 0 68.5 13t47.5 33l104 -92q-46 -46 -100.5 -70t-119.5 -24zM263 1832l134 180h210
l-188 -180h-156z" />
    <glyph glyph-name="uni1EAF" unicode="&#x1eaf;" horiz-adv-x="639" 
d="M207 -16q-70 0 -121 71t-51 217q0 141 60.5 227t181.5 149q38 20 64 36t32 30v120q0 41 -9.5 70.5t-46.5 29.5q-34 0 -46 -31.5t-12 -78.5v-52h-202v46q0 90 35.5 155.5t97 101t139.5 35.5q75 0 130 -34.5t85.5 -95t30.5 -138.5v-652q0 -73 4 -113.5t10 -76.5h-198
q-13 16 -15.5 47t-2.5 41h-14q-25 -46 -63.5 -75t-88.5 -29zM289 182q35 0 59.5 24t24.5 52v260q-73 -31 -106.5 -93.5t-33.5 -140.5q0 -34 13 -68t43 -34zM321 1203q-64 0 -123 25.5t-97 68.5l108 92q18 -23 48.5 -34.5t63.5 -11.5q37 0 68.5 13t47.5 33l104 -92
q-46 -46 -100.5 -70t-119.5 -24zM195 1456l134 180h210l-188 -180h-156z" />
    <glyph glyph-name="uni1EB0" unicode="&#x1eb0;" horiz-adv-x="778" 
d="M35 0l222 1470h264l222 -1470h-210l-40 300h-208l-40 -300h-210zM315 528h148l-62 494l-6 78h-12l-6 -78zM389 1579q-64 0 -123 25.5t-97 68.5l108 92q18 -23 48.5 -34.5t63.5 -11.5q37 0 68.5 13t47.5 33l104 -92q-46 -46 -100.5 -70t-119.5 -24zM479 1836h-156
l-188 180h210z" />
    <glyph glyph-name="uni1EB1" unicode="&#x1eb1;" horiz-adv-x="639" 
d="M207 -16q-70 0 -121 71t-51 217q0 141 60.5 227t181.5 149q38 20 64 36t32 30v120q0 41 -9.5 70.5t-46.5 29.5q-34 0 -46 -31.5t-12 -78.5v-52h-202v46q0 90 35.5 155.5t97 101t139.5 35.5q75 0 130 -34.5t85.5 -95t30.5 -138.5v-652q0 -73 4 -113.5t10 -76.5h-198
q-13 16 -15.5 47t-2.5 41h-14q-25 -46 -63.5 -75t-88.5 -29zM289 182q35 0 59.5 24t24.5 52v260q-73 -31 -106.5 -93.5t-33.5 -140.5q0 -34 13 -68t43 -34zM321 1203q-64 0 -123 25.5t-97 68.5l108 92q18 -23 48.5 -34.5t63.5 -11.5q37 0 68.5 13t47.5 33l104 -92
q-46 -46 -100.5 -70t-119.5 -24zM411 1460h-156l-188 180h210z" />
    <glyph glyph-name="uni1EB2" unicode="&#x1eb2;" horiz-adv-x="778" 
d="M35 0l222 1470h264l222 -1470h-210l-40 300h-208l-40 -300h-210zM315 528h148l-62 494l-6 78h-12l-6 -78zM389 1579q-64 0 -123 25.5t-97 68.5l108 92q18 -23 48.5 -34.5t63.5 -11.5q37 0 68.5 13t47.5 33l104 -92q-46 -46 -100.5 -70t-119.5 -24zM241 2043
q71 0 138.5 -6.5t112 -30t44.5 -73.5q0 -64 -64 -95t-150 -31l-23 74q26 2 64 10t38 30q0 20 -41 27t-119 7v88z" />
    <glyph glyph-name="uni1EB3" unicode="&#x1eb3;" horiz-adv-x="639" 
d="M207 -16q-70 0 -121 71t-51 217q0 141 60.5 227t181.5 149q38 20 64 36t32 30v120q0 41 -9.5 70.5t-46.5 29.5q-34 0 -46 -31.5t-12 -78.5v-52h-202v46q0 90 35.5 155.5t97 101t139.5 35.5q75 0 130 -34.5t85.5 -95t30.5 -138.5v-652q0 -73 4 -113.5t10 -76.5h-198
q-13 16 -15.5 47t-2.5 41h-14q-25 -46 -63.5 -75t-88.5 -29zM289 182q35 0 59.5 24t24.5 52v260q-73 -31 -106.5 -93.5t-33.5 -140.5q0 -34 13 -68t43 -34zM321 1203q-64 0 -123 25.5t-97 68.5l108 92q18 -23 48.5 -34.5t63.5 -11.5q37 0 68.5 13t47.5 33l104 -92
q-46 -46 -100.5 -70t-119.5 -24zM173 1667q71 0 138.5 -6.5t112 -30t44.5 -73.5q0 -64 -64 -95t-150 -31l-23 74q26 2 64 10t38 30q0 20 -41 27t-119 7v88z" />
    <glyph glyph-name="uni1EB4" unicode="&#x1eb4;" horiz-adv-x="778" 
d="M35 0l222 1470h264l222 -1470h-210l-40 300h-208l-40 -300h-210zM315 528h148l-62 494l-6 78h-12l-6 -78zM389 1579q-64 0 -123 25.5t-97 68.5l108 92q18 -23 48.5 -34.5t63.5 -11.5q37 0 68.5 13t47.5 33l104 -92q-46 -46 -100.5 -70t-119.5 -24zM477 1810q-47 0 -86 18
q-43 20 -90 20q-27 0 -56 -9.5t-50 -22.5v148q14 11 31 18.5t35 13.5t40 6q47 0 88 -16q22 -8 44 -15t44 -7q27 0 56 9.5t50 22.5v-148q-19 -17 -51 -27.5t-55 -10.5z" />
    <glyph glyph-name="uni1EB5" unicode="&#x1eb5;" horiz-adv-x="639" 
d="M207 -16q-70 0 -121 71t-51 217q0 141 60.5 227t181.5 149q38 20 64 36t32 30v120q0 41 -9.5 70.5t-46.5 29.5q-34 0 -46 -31.5t-12 -78.5v-52h-202v46q0 90 35.5 155.5t97 101t139.5 35.5q75 0 130 -34.5t85.5 -95t30.5 -138.5v-652q0 -73 4 -113.5t10 -76.5h-198
q-13 16 -15.5 47t-2.5 41h-14q-25 -46 -63.5 -75t-88.5 -29zM289 182q35 0 59.5 24t24.5 52v260q-73 -31 -106.5 -93.5t-33.5 -140.5q0 -34 13 -68t43 -34zM321 1203q-64 0 -123 25.5t-97 68.5l108 92q18 -23 48.5 -34.5t63.5 -11.5q37 0 68.5 13t47.5 33l104 -92
q-46 -46 -100.5 -70t-119.5 -24zM409 1434q-47 0 -86 18q-43 20 -90 20q-27 0 -56 -9.5t-50 -22.5v148q14 11 31 18.5t35 13.5t40 6q47 0 88 -16q22 -8 44 -15t44 -7q27 0 56 9.5t50 22.5v-148q-19 -17 -51 -27.5t-55 -10.5z" />
    <glyph glyph-name="uni1EB6" unicode="&#x1eb6;" horiz-adv-x="778" 
d="M35 0l222 1470h264l222 -1470h-210l-40 300h-208l-40 -300h-210zM315 528h148l-62 494l-6 78h-12l-6 -78zM288 -287v202h202v-202h-202zM389 1579q-64 0 -123 25.5t-97 68.5l108 92q18 -23 48.5 -34.5t63.5 -11.5q37 0 68.5 13t47.5 33l104 -92q-46 -46 -100.5 -70
t-119.5 -24z" />
    <glyph glyph-name="uni1EB7" unicode="&#x1eb7;" horiz-adv-x="639" 
d="M207 -16q-70 0 -121 71t-51 217q0 141 60.5 227t181.5 149q38 20 64 36t32 30v120q0 41 -9.5 70.5t-46.5 29.5q-34 0 -46 -31.5t-12 -78.5v-52h-202v46q0 90 35.5 155.5t97 101t139.5 35.5q75 0 130 -34.5t85.5 -95t30.5 -138.5v-652q0 -73 4 -113.5t10 -76.5h-198
q-13 16 -15.5 47t-2.5 41h-14q-25 -46 -63.5 -75t-88.5 -29zM289 182q35 0 59.5 24t24.5 52v260q-73 -31 -106.5 -93.5t-33.5 -140.5q0 -34 13 -68t43 -34zM209 -287v202h202v-202h-202zM321 1203q-64 0 -123 25.5t-97 68.5l108 92q18 -23 48.5 -34.5t63.5 -11.5
q37 0 68.5 13t47.5 33l104 -92q-46 -46 -100.5 -70t-119.5 -24z" />
    <glyph glyph-name="uni1EB8" unicode="&#x1eb8;" horiz-adv-x="654" 
d="M80 0v1470h494v-222h-278v-396h200v-216h-200v-414h278v-222h-494zM207 -287v202h202v-202h-202z" />
    <glyph glyph-name="uni1EB9" unicode="&#x1eb9;" horiz-adv-x="602" 
d="M300 -16q-121 0 -190.5 83.5t-69.5 204.5v550q0 128 69 208t193 80q81 0 139.5 -37t89.5 -100.5t31 -144.5v-318h-334v-238q0 -41 18.5 -75.5t55.5 -34.5q39 0 55.5 32t16.5 78v120h188v-126q0 -127 -68.5 -204.5t-193.5 -77.5zM228 668h146v154q0 45 -15.5 78.5
t-56.5 33.5q-38 0 -56 -34.5t-18 -77.5v-154zM197 -287v202h202v-202h-202z" />
    <glyph glyph-name="uni1EBA" unicode="&#x1eba;" horiz-adv-x="654" 
d="M80 0v1470h494v-222h-278v-396h200v-216h-200v-414h278v-222h-494zM170 1813q71 0 138.5 -6.5t112 -30t44.5 -73.5q0 -64 -64 -95t-150 -31l-23 74q26 2 64 10t38 30q0 20 -41 27t-119 7v88z" />
    <glyph glyph-name="uni1EBB" unicode="&#x1ebb;" horiz-adv-x="602" 
d="M300 -16q-121 0 -190.5 83.5t-69.5 204.5v550q0 128 69 208t193 80q81 0 139.5 -37t89.5 -100.5t31 -144.5v-318h-334v-238q0 -41 18.5 -75.5t55.5 -34.5q39 0 55.5 32t16.5 78v120h188v-126q0 -127 -68.5 -204.5t-193.5 -77.5zM228 668h146v154q0 45 -15.5 78.5
t-56.5 33.5q-38 0 -56 -34.5t-18 -77.5v-154zM160 1437q71 0 138.5 -6.5t112 -30t44.5 -73.5q0 -64 -64 -95t-150 -31l-23 74q26 2 64 10t38 30q0 20 -41 27t-119 7v88z" />
    <glyph glyph-name="uni1EBC" unicode="&#x1ebc;" horiz-adv-x="654" 
d="M80 0v1470h494v-222h-278v-396h200v-216h-200v-414h278v-222h-494zM396 1581q-47 0 -86 18q-43 20 -90 20q-27 0 -56 -9.5t-50 -22.5v148q14 11 31 18.5t35 13.5t40 6q47 0 88 -16q22 -8 44 -15t44 -7q27 0 56 9.5t50 22.5v-148q-19 -17 -51 -27.5t-55 -10.5z" />
    <glyph glyph-name="uni1EBD" unicode="&#x1ebd;" horiz-adv-x="602" 
d="M300 -16q-121 0 -190.5 83.5t-69.5 204.5v550q0 128 69 208t193 80q81 0 139.5 -37t89.5 -100.5t31 -144.5v-318h-334v-238q0 -41 18.5 -75.5t55.5 -34.5q39 0 55.5 32t16.5 78v120h188v-126q0 -127 -68.5 -204.5t-193.5 -77.5zM228 668h146v154q0 45 -15.5 78.5
t-56.5 33.5q-38 0 -56 -34.5t-18 -77.5v-154zM386 1205q-47 0 -86 18q-43 20 -90 20q-27 0 -56 -9.5t-50 -22.5v148q14 11 31 18.5t35 13.5t40 6q47 0 88 -16q22 -8 44 -15t44 -7q27 0 56 9.5t50 22.5v-148q-19 -17 -51 -27.5t-55 -10.5z" />
    <glyph glyph-name="uni1EBE" unicode="&#x1ebe;" horiz-adv-x="654" 
d="M80 0v1470h494v-222h-278v-396h200v-216h-200v-414h278v-222h-494zM63 1604l138 180h214l138 -180h-184l-62 90l-60 -90h-184zM479 1747l134 180h210l-188 -180h-156z" />
    <glyph glyph-name="uni1EBF" unicode="&#x1ebf;" horiz-adv-x="602" 
d="M300 -16q-121 0 -190.5 83.5t-69.5 204.5v550q0 128 69 208t193 80q81 0 139.5 -37t89.5 -100.5t31 -144.5v-318h-334v-238q0 -41 18.5 -75.5t55.5 -34.5q39 0 55.5 32t16.5 78v120h188v-126q0 -127 -68.5 -204.5t-193.5 -77.5zM228 668h146v154q0 45 -15.5 78.5
t-56.5 33.5q-38 0 -56 -34.5t-18 -77.5v-154zM53 1228l138 180h214l138 -180h-184l-62 90l-60 -90h-184zM469 1371l134 180h210l-188 -180h-156z" />
    <glyph glyph-name="uni1EC0" unicode="&#x1ec0;" horiz-adv-x="654" 
d="M80 0v1470h494v-222h-278v-396h200v-216h-200v-414h278v-222h-494zM63 1604l138 180h214l138 -180h-184l-62 90l-60 -90h-184zM694 1749h-156l-188 180h210z" />
    <glyph glyph-name="uni1EC1" unicode="&#x1ec1;" horiz-adv-x="602" 
d="M300 -16q-121 0 -190.5 83.5t-69.5 204.5v550q0 128 69 208t193 80q81 0 139.5 -37t89.5 -100.5t31 -144.5v-318h-334v-238q0 -41 18.5 -75.5t55.5 -34.5q39 0 55.5 32t16.5 78v120h188v-126q0 -127 -68.5 -204.5t-193.5 -77.5zM228 668h146v154q0 45 -15.5 78.5
t-56.5 33.5q-38 0 -56 -34.5t-18 -77.5v-154zM53 1228l138 180h214l138 -180h-184l-62 90l-60 -90h-184zM684 1373h-156l-188 180h210z" />
    <glyph glyph-name="uni1EC2" unicode="&#x1ec2;" horiz-adv-x="654" 
d="M80 0v1470h494v-222h-278v-396h200v-216h-200v-414h278v-222h-494zM63 1604l138 180h214l138 -180h-184l-62 90l-60 -90h-184zM428 1980q71 0 138.5 -6.5t112 -30t44.5 -73.5q0 -64 -64 -95t-150 -31l-23 74q26 2 64 10t38 30q0 20 -41 27t-119 7v88z" />
    <glyph glyph-name="uni1EC3" unicode="&#x1ec3;" horiz-adv-x="602" 
d="M300 -16q-121 0 -190.5 83.5t-69.5 204.5v550q0 128 69 208t193 80q81 0 139.5 -37t89.5 -100.5t31 -144.5v-318h-334v-238q0 -41 18.5 -75.5t55.5 -34.5q39 0 55.5 32t16.5 78v120h188v-126q0 -127 -68.5 -204.5t-193.5 -77.5zM228 668h146v154q0 45 -15.5 78.5
t-56.5 33.5q-38 0 -56 -34.5t-18 -77.5v-154zM53 1228l138 180h214l138 -180h-184l-62 90l-60 -90h-184zM418 1604q71 0 138.5 -6.5t112 -30t44.5 -73.5q0 -64 -64 -95t-150 -31l-23 74q26 2 64 10t38 30q0 20 -41 27t-119 7v88z" />
    <glyph glyph-name="uni1EC4" unicode="&#x1ec4;" horiz-adv-x="654" 
d="M80 0v1470h494v-222h-278v-396h200v-216h-200v-414h278v-222h-494zM63 1604l138 180h214l138 -180h-184l-62 90l-60 -90h-184zM395 1834q-47 0 -86 18q-43 20 -90 20q-27 0 -56 -9.5t-50 -22.5v148q14 11 31 18.5t35 13.5t40 6q47 0 88 -16q22 -8 44 -15t44 -7
q27 0 56 9.5t50 22.5v-148q-19 -17 -51 -27.5t-55 -10.5z" />
    <glyph glyph-name="uni1EC5" unicode="&#x1ec5;" horiz-adv-x="602" 
d="M300 -16q-121 0 -190.5 83.5t-69.5 204.5v550q0 128 69 208t193 80q81 0 139.5 -37t89.5 -100.5t31 -144.5v-318h-334v-238q0 -41 18.5 -75.5t55.5 -34.5q39 0 55.5 32t16.5 78v120h188v-126q0 -127 -68.5 -204.5t-193.5 -77.5zM228 668h146v154q0 45 -15.5 78.5
t-56.5 33.5q-38 0 -56 -34.5t-18 -77.5v-154zM53 1228l138 180h214l138 -180h-184l-62 90l-60 -90h-184zM385 1458q-47 0 -86 18q-43 20 -90 20q-27 0 -56 -9.5t-50 -22.5v148q14 11 31 18.5t35 13.5t40 6q47 0 88 -16q22 -8 44 -15t44 -7q27 0 56 9.5t50 22.5v-148
q-19 -17 -51 -27.5t-55 -10.5z" />
    <glyph glyph-name="uni1EC6" unicode="&#x1ec6;" horiz-adv-x="654" 
d="M80 0v1470h494v-222h-278v-396h200v-216h-200v-414h278v-222h-494zM207 -287v202h202v-202h-202zM63 1604l138 180h214l138 -180h-184l-62 90l-60 -90h-184z" />
    <glyph glyph-name="uni1EC7" unicode="&#x1ec7;" horiz-adv-x="602" 
d="M300 -16q-121 0 -190.5 83.5t-69.5 204.5v550q0 128 69 208t193 80q81 0 139.5 -37t89.5 -100.5t31 -144.5v-318h-334v-238q0 -41 18.5 -75.5t55.5 -34.5q39 0 55.5 32t16.5 78v120h188v-126q0 -127 -68.5 -204.5t-193.5 -77.5zM228 668h146v154q0 45 -15.5 78.5
t-56.5 33.5q-38 0 -56 -34.5t-18 -77.5v-154zM197 -287v202h202v-202h-202zM53 1228l138 180h214l138 -180h-184l-62 90l-60 -90h-184z" />
    <glyph glyph-name="uni1EC8" unicode="&#x1ec8;" horiz-adv-x="376" 
d="M80 0v1470h216v-1470h-216zM50 1813q71 0 138.5 -6.5t112 -30t44.5 -73.5q0 -64 -64 -95t-150 -31l-23 74q26 2 64 10t38 30q0 20 -41 27t-119 7v88z" />
    <glyph glyph-name="uni1EC9" unicode="&#x1ec9;" horiz-adv-x="362" 
d="M80 0v1094h202v-1094h-202zM43 1437q71 0 138.5 -6.5t112 -30t44.5 -73.5q0 -64 -64 -95t-150 -31l-23 74q26 2 64 10t38 30q0 20 -41 27t-119 7v88z" />
    <glyph glyph-name="uni1ECA" unicode="&#x1eca;" horiz-adv-x="376" 
d="M80 0v1470h216v-1470h-216zM87 -287v202h202v-202h-202z" />
    <glyph glyph-name="uni1ECB" unicode="&#x1ecb;" horiz-adv-x="322" 
d="M60 0v1094h202v-1094h-202zM60 1268v202h202v-202h-202zM60 -287v202h202v-202h-202z" />
    <glyph glyph-name="uni1ECC" unicode="&#x1ecc;" 
d="M358 -16q-90 0 -154.5 42t-99 114t-34.5 162v866q0 91 34.5 162.5t99 113.5t154.5 42t154.5 -42t99 -114t34.5 -162v-866q0 -90 -34.5 -162t-99 -114t-154.5 -42zM358 194q40 0 56 33.5t16 74.5v866q0 41 -17 74.5t-55 33.5q-37 0 -54.5 -33.5t-17.5 -74.5v-866
q0 -41 17 -74.5t55 -33.5zM257 -287v202h202v-202h-202z" />
    <glyph glyph-name="uni1ECD" unicode="&#x1ecd;" horiz-adv-x="598" 
d="M299 -14q-121 0 -190 81.5t-69 206.5v548q0 125 69 206.5t190 81.5q120 0 189.5 -81.5t69.5 -206.5v-548q0 -125 -69.5 -206.5t-189.5 -81.5zM299 162q39 0 54 31.5t15 80.5v548q0 50 -15 81t-54 31t-54 -31t-15 -81v-548q0 -50 15 -81t54 -31zM198 -287v202h202v-202
h-202z" />
    <glyph glyph-name="uni1ECE" unicode="&#x1ece;" 
d="M358 -16q-90 0 -154.5 42t-99 114t-34.5 162v866q0 91 34.5 162.5t99 113.5t154.5 42t154.5 -42t99 -114t34.5 -162v-866q0 -90 -34.5 -162t-99 -114t-154.5 -42zM358 194q40 0 56 33.5t16 74.5v866q0 41 -17 74.5t-55 33.5q-37 0 -54.5 -33.5t-17.5 -74.5v-866
q0 -41 17 -74.5t55 -33.5zM220 1813q71 0 138.5 -6.5t112 -30t44.5 -73.5q0 -64 -64 -95t-150 -31l-23 74q26 2 64 10t38 30q0 20 -41 27t-119 7v88z" />
    <glyph glyph-name="uni1ECF" unicode="&#x1ecf;" horiz-adv-x="598" 
d="M299 -14q-121 0 -190 81.5t-69 206.5v548q0 125 69 206.5t190 81.5q120 0 189.5 -81.5t69.5 -206.5v-548q0 -125 -69.5 -206.5t-189.5 -81.5zM299 162q39 0 54 31.5t15 80.5v548q0 50 -15 81t-54 31t-54 -31t-15 -81v-548q0 -50 15 -81t54 -31zM162 1437q71 0 138.5 -6.5
t112 -30t44.5 -73.5q0 -64 -64 -95t-150 -31l-23 74q26 2 64 10t38 30q0 20 -41 27t-119 7v88z" />
    <glyph glyph-name="uni1ED0" unicode="&#x1ed0;" 
d="M358 -16q-90 0 -154.5 42t-99 114t-34.5 162v866q0 91 34.5 162.5t99 113.5t154.5 42t154.5 -42t99 -114t34.5 -162v-866q0 -90 -34.5 -162t-99 -114t-154.5 -42zM358 194q40 0 56 33.5t16 74.5v866q0 41 -17 74.5t-55 33.5q-37 0 -54.5 -33.5t-17.5 -74.5v-866
q0 -41 17 -74.5t55 -33.5zM113 1604l138 180h214l138 -180h-184l-62 90l-60 -90h-184zM529 1747l134 180h210l-188 -180h-156z" />
    <glyph glyph-name="uni1ED1" unicode="&#x1ed1;" horiz-adv-x="598" 
d="M299 -14q-121 0 -190 81.5t-69 206.5v548q0 125 69 206.5t190 81.5q120 0 189.5 -81.5t69.5 -206.5v-548q0 -125 -69.5 -206.5t-189.5 -81.5zM299 162q39 0 54 31.5t15 80.5v548q0 50 -15 81t-54 31t-54 -31t-15 -81v-548q0 -50 15 -81t54 -31zM55 1228l138 180h214
l138 -180h-184l-62 90l-60 -90h-184zM471 1371l134 180h210l-188 -180h-156z" />
    <glyph glyph-name="uni1ED2" unicode="&#x1ed2;" 
d="M358 -16q-90 0 -154.5 42t-99 114t-34.5 162v866q0 91 34.5 162.5t99 113.5t154.5 42t154.5 -42t99 -114t34.5 -162v-866q0 -90 -34.5 -162t-99 -114t-154.5 -42zM358 194q40 0 56 33.5t16 74.5v866q0 41 -17 74.5t-55 33.5q-37 0 -54.5 -33.5t-17.5 -74.5v-866
q0 -41 17 -74.5t55 -33.5zM113 1604l138 180h214l138 -180h-184l-62 90l-60 -90h-184zM744 1749h-156l-188 180h210z" />
    <glyph glyph-name="uni1ED3" unicode="&#x1ed3;" horiz-adv-x="598" 
d="M299 -14q-121 0 -190 81.5t-69 206.5v548q0 125 69 206.5t190 81.5q120 0 189.5 -81.5t69.5 -206.5v-548q0 -125 -69.5 -206.5t-189.5 -81.5zM299 162q39 0 54 31.5t15 80.5v548q0 50 -15 81t-54 31t-54 -31t-15 -81v-548q0 -50 15 -81t54 -31zM55 1228l138 180h214
l138 -180h-184l-62 90l-60 -90h-184zM686 1373h-156l-188 180h210z" />
    <glyph glyph-name="uni1ED4" unicode="&#x1ed4;" 
d="M358 -16q-90 0 -154.5 42t-99 114t-34.5 162v866q0 91 34.5 162.5t99 113.5t154.5 42t154.5 -42t99 -114t34.5 -162v-866q0 -90 -34.5 -162t-99 -114t-154.5 -42zM358 194q40 0 56 33.5t16 74.5v866q0 41 -17 74.5t-55 33.5q-37 0 -54.5 -33.5t-17.5 -74.5v-866
q0 -41 17 -74.5t55 -33.5zM113 1604l138 180h214l138 -180h-184l-62 90l-60 -90h-184zM478 1980q71 0 138.5 -6.5t112 -30t44.5 -73.5q0 -64 -64 -95t-150 -31l-23 74q26 2 64 10t38 30q0 20 -41 27t-119 7v88z" />
    <glyph glyph-name="uni1ED5" unicode="&#x1ed5;" horiz-adv-x="598" 
d="M299 -14q-121 0 -190 81.5t-69 206.5v548q0 125 69 206.5t190 81.5q120 0 189.5 -81.5t69.5 -206.5v-548q0 -125 -69.5 -206.5t-189.5 -81.5zM299 162q39 0 54 31.5t15 80.5v548q0 50 -15 81t-54 31t-54 -31t-15 -81v-548q0 -50 15 -81t54 -31zM55 1228l138 180h214
l138 -180h-184l-62 90l-60 -90h-184zM420 1604q71 0 138.5 -6.5t112 -30t44.5 -73.5q0 -64 -64 -95t-150 -31l-23 74q26 2 64 10t38 30q0 20 -41 27t-119 7v88z" />
    <glyph glyph-name="uni1ED6" unicode="&#x1ed6;" 
d="M358 -16q-90 0 -154.5 42t-99 114t-34.5 162v866q0 91 34.5 162.5t99 113.5t154.5 42t154.5 -42t99 -114t34.5 -162v-866q0 -90 -34.5 -162t-99 -114t-154.5 -42zM358 194q40 0 56 33.5t16 74.5v866q0 41 -17 74.5t-55 33.5q-37 0 -54.5 -33.5t-17.5 -74.5v-866
q0 -41 17 -74.5t55 -33.5zM113 1604l138 180h214l138 -180h-184l-62 90l-60 -90h-184zM445 1834q-47 0 -86 18q-43 20 -90 20q-27 0 -56 -9.5t-50 -22.5v148q14 11 31 18.5t35 13.5t40 6q47 0 88 -16q22 -8 44 -15t44 -7q27 0 56 9.5t50 22.5v-148q-19 -17 -51 -27.5
t-55 -10.5z" />
    <glyph glyph-name="uni1ED7" unicode="&#x1ed7;" horiz-adv-x="598" 
d="M299 -14q-121 0 -190 81.5t-69 206.5v548q0 125 69 206.5t190 81.5q120 0 189.5 -81.5t69.5 -206.5v-548q0 -125 -69.5 -206.5t-189.5 -81.5zM299 162q39 0 54 31.5t15 80.5v548q0 50 -15 81t-54 31t-54 -31t-15 -81v-548q0 -50 15 -81t54 -31zM55 1228l138 180h214
l138 -180h-184l-62 90l-60 -90h-184zM387 1458q-47 0 -86 18q-43 20 -90 20q-27 0 -56 -9.5t-50 -22.5v148q14 11 31 18.5t35 13.5t40 6q47 0 88 -16q22 -8 44 -15t44 -7q27 0 56 9.5t50 22.5v-148q-19 -17 -51 -27.5t-55 -10.5z" />
    <glyph glyph-name="uni1ED8" unicode="&#x1ed8;" 
d="M358 -16q-90 0 -154.5 42t-99 114t-34.5 162v866q0 91 34.5 162.5t99 113.5t154.5 42t154.5 -42t99 -114t34.5 -162v-866q0 -90 -34.5 -162t-99 -114t-154.5 -42zM358 194q40 0 56 33.5t16 74.5v866q0 41 -17 74.5t-55 33.5q-37 0 -54.5 -33.5t-17.5 -74.5v-866
q0 -41 17 -74.5t55 -33.5zM257 -287v202h202v-202h-202zM113 1604l138 180h214l138 -180h-184l-62 90l-60 -90h-184z" />
    <glyph glyph-name="uni1ED9" unicode="&#x1ed9;" horiz-adv-x="598" 
d="M299 -14q-121 0 -190 81.5t-69 206.5v548q0 125 69 206.5t190 81.5q120 0 189.5 -81.5t69.5 -206.5v-548q0 -125 -69.5 -206.5t-189.5 -81.5zM299 162q39 0 54 31.5t15 80.5v548q0 50 -15 81t-54 31t-54 -31t-15 -81v-548q0 -50 15 -81t54 -31zM198 -287v202h202v-202
h-202zM55 1228l138 180h214l138 -180h-184l-62 90l-60 -90h-184z" />
    <glyph glyph-name="uni1EDA" unicode="&#x1eda;" 
d="M358 -16q-90 0 -154.5 42t-99 114t-34.5 162v866q0 91 34.5 162.5t99 113.5t154.5 42t154.5 -42t99 -114t34.5 -162v-866q0 -90 -34.5 -162t-99 -114t-154.5 -42zM358 194q40 0 56 33.5t16 74.5v866q0 41 -17 74.5t-55 33.5q-37 0 -54.5 -33.5t-17.5 -74.5v-866
q0 -41 17 -74.5t55 -33.5zM453 1470q52 0 77.5 15.5t33.5 60.5t8 132h164q0 -139 -33 -214t-96 -103t-154 -28v137zM260 1600l134 180h210l-188 -180h-156z" />
    <glyph glyph-name="uni1EDB" unicode="&#x1edb;" horiz-adv-x="598" 
d="M299 -14q-121 0 -190 81.5t-69 206.5v548q0 125 69 206.5t190 81.5q120 0 189.5 -81.5t69.5 -206.5v-548q0 -125 -69.5 -206.5t-189.5 -81.5zM299 162q39 0 54 31.5t15 80.5v548q0 50 -15 81t-54 31t-54 -31t-15 -81v-548q0 -50 15 -81t54 -31zM398 1081q52 0 77.5 15.5
t33.5 60.5t8 132h164q0 -139 -33 -214t-96 -103t-154 -28v137zM202 1224l134 180h210l-188 -180h-156z" />
    <glyph glyph-name="uni1EDC" unicode="&#x1edc;" 
d="M358 -16q-90 0 -154.5 42t-99 114t-34.5 162v866q0 91 34.5 162.5t99 113.5t154.5 42t154.5 -42t99 -114t34.5 -162v-866q0 -90 -34.5 -162t-99 -114t-154.5 -42zM358 194q40 0 56 33.5t16 74.5v866q0 41 -17 74.5t-55 33.5q-37 0 -54.5 -33.5t-17.5 -74.5v-866
q0 -41 17 -74.5t55 -33.5zM453 1470q52 0 77.5 15.5t33.5 60.5t8 132h164q0 -139 -33 -214t-96 -103t-154 -28v137zM448 1600h-156l-188 180h210z" />
    <glyph glyph-name="uni1EDD" unicode="&#x1edd;" horiz-adv-x="598" 
d="M299 -14q-121 0 -190 81.5t-69 206.5v548q0 125 69 206.5t190 81.5q120 0 189.5 -81.5t69.5 -206.5v-548q0 -125 -69.5 -206.5t-189.5 -81.5zM299 162q39 0 54 31.5t15 80.5v548q0 50 -15 81t-54 31t-54 -31t-15 -81v-548q0 -50 15 -81t54 -31zM398 1081q52 0 77.5 15.5
t33.5 60.5t8 132h164q0 -139 -33 -214t-96 -103t-154 -28v137zM390 1224h-156l-188 180h210z" />
    <glyph glyph-name="uni1EDE" unicode="&#x1ede;" 
d="M358 -16q-90 0 -154.5 42t-99 114t-34.5 162v866q0 91 34.5 162.5t99 113.5t154.5 42t154.5 -42t99 -114t34.5 -162v-866q0 -90 -34.5 -162t-99 -114t-154.5 -42zM358 194q40 0 56 33.5t16 74.5v866q0 41 -17 74.5t-55 33.5q-37 0 -54.5 -33.5t-17.5 -74.5v-866
q0 -41 17 -74.5t55 -33.5zM453 1470q52 0 77.5 15.5t33.5 60.5t8 132h164q0 -139 -33 -214t-96 -103t-154 -28v137zM220 1813q71 0 138.5 -6.5t112 -30t44.5 -73.5q0 -64 -64 -95t-150 -31l-23 74q26 2 64 10t38 30q0 20 -41 27t-119 7v88z" />
    <glyph glyph-name="uni1EDF" unicode="&#x1edf;" horiz-adv-x="598" 
d="M299 -14q-121 0 -190 81.5t-69 206.5v548q0 125 69 206.5t190 81.5q120 0 189.5 -81.5t69.5 -206.5v-548q0 -125 -69.5 -206.5t-189.5 -81.5zM299 162q39 0 54 31.5t15 80.5v548q0 50 -15 81t-54 31t-54 -31t-15 -81v-548q0 -50 15 -81t54 -31zM398 1081q52 0 77.5 15.5
t33.5 60.5t8 132h164q0 -139 -33 -214t-96 -103t-154 -28v137zM162 1437q71 0 138.5 -6.5t112 -30t44.5 -73.5q0 -64 -64 -95t-150 -31l-23 74q26 2 64 10t38 30q0 20 -41 27t-119 7v88z" />
    <glyph glyph-name="uni1EE0" unicode="&#x1ee0;" 
d="M358 -16q-90 0 -154.5 42t-99 114t-34.5 162v866q0 91 34.5 162.5t99 113.5t154.5 42t154.5 -42t99 -114t34.5 -162v-866q0 -90 -34.5 -162t-99 -114t-154.5 -42zM358 194q40 0 56 33.5t16 74.5v866q0 41 -17 74.5t-55 33.5q-37 0 -54.5 -33.5t-17.5 -74.5v-866
q0 -41 17 -74.5t55 -33.5zM453 1470q52 0 77.5 15.5t33.5 60.5t8 132h164q0 -139 -33 -214t-96 -103t-154 -28v137zM446 1581q-47 0 -86 18q-43 20 -90 20q-27 0 -56 -9.5t-50 -22.5v148q14 11 31 18.5t35 13.5t40 6q47 0 88 -16q22 -8 44 -15t44 -7q27 0 56 9.5t50 22.5
v-148q-19 -17 -51 -27.5t-55 -10.5z" />
    <glyph glyph-name="uni1EE1" unicode="&#x1ee1;" horiz-adv-x="598" 
d="M299 -14q-121 0 -190 81.5t-69 206.5v548q0 125 69 206.5t190 81.5q120 0 189.5 -81.5t69.5 -206.5v-548q0 -125 -69.5 -206.5t-189.5 -81.5zM299 162q39 0 54 31.5t15 80.5v548q0 50 -15 81t-54 31t-54 -31t-15 -81v-548q0 -50 15 -81t54 -31zM398 1081q52 0 77.5 15.5
t33.5 60.5t8 132h164q0 -139 -33 -214t-96 -103t-154 -28v137zM388 1205q-47 0 -86 18q-43 20 -90 20q-27 0 -56 -9.5t-50 -22.5v148q14 11 31 18.5t35 13.5t40 6q47 0 88 -16q22 -8 44 -15t44 -7q27 0 56 9.5t50 22.5v-148q-19 -17 -51 -27.5t-55 -10.5z" />
    <glyph glyph-name="uni1EE2" unicode="&#x1ee2;" 
d="M358 -16q-90 0 -154.5 42t-99 114t-34.5 162v866q0 91 34.5 162.5t99 113.5t154.5 42t154.5 -42t99 -114t34.5 -162v-866q0 -90 -34.5 -162t-99 -114t-154.5 -42zM358 194q40 0 56 33.5t16 74.5v866q0 41 -17 74.5t-55 33.5q-37 0 -54.5 -33.5t-17.5 -74.5v-866
q0 -41 17 -74.5t55 -33.5zM453 1470q52 0 77.5 15.5t33.5 60.5t8 132h164q0 -139 -33 -214t-96 -103t-154 -28v137zM257 -287v202h202v-202h-202z" />
    <glyph glyph-name="uni1EE3" unicode="&#x1ee3;" horiz-adv-x="598" 
d="M299 -14q-121 0 -190 81.5t-69 206.5v548q0 125 69 206.5t190 81.5q120 0 189.5 -81.5t69.5 -206.5v-548q0 -125 -69.5 -206.5t-189.5 -81.5zM299 162q39 0 54 31.5t15 80.5v548q0 50 -15 81t-54 31t-54 -31t-15 -81v-548q0 -50 15 -81t54 -31zM398 1081q52 0 77.5 15.5
t33.5 60.5t8 132h164q0 -139 -33 -214t-96 -103t-154 -28v137zM198 -287v202h202v-202h-202z" />
    <glyph glyph-name="uni1EE4" unicode="&#x1ee4;" horiz-adv-x="736" 
d="M368 -16q-91 0 -155.5 42t-98.5 114t-34 162v1168h216v-1168q0 -43 17 -75.5t55 -32.5q40 0 56 32.5t16 75.5v1168h216v-1168q0 -90 -34.5 -162t-99 -114t-154.5 -42zM267 -287v202h202v-202h-202z" />
    <glyph glyph-name="uni1EE5" unicode="&#x1ee5;" horiz-adv-x="618" 
d="M202 -16q-50 0 -84 32t-51 81.5t-17 100.5v896h202v-856q0 -31 11.5 -44.5t36.5 -13.5q22 0 37.5 15.5t28.5 36.5v862h202v-1094h-202v92q-36 -34 -81 -71t-83 -37zM208 -287v202h202v-202h-202z" />
    <glyph glyph-name="uni1EE6" unicode="&#x1ee6;" horiz-adv-x="736" 
d="M368 -16q-91 0 -155.5 42t-98.5 114t-34 162v1168h216v-1168q0 -43 17 -75.5t55 -32.5q40 0 56 32.5t16 75.5v1168h216v-1168q0 -90 -34.5 -162t-99 -114t-154.5 -42zM230 1813q71 0 138.5 -6.5t112 -30t44.5 -73.5q0 -64 -64 -95t-150 -31l-23 74q26 2 64 10t38 30
q0 20 -41 27t-119 7v88z" />
    <glyph glyph-name="uni1EE7" unicode="&#x1ee7;" horiz-adv-x="618" 
d="M202 -16q-50 0 -84 32t-51 81.5t-17 100.5v896h202v-856q0 -31 11.5 -44.5t36.5 -13.5q22 0 37.5 15.5t28.5 36.5v862h202v-1094h-202v92q-36 -34 -81 -71t-83 -37zM174 1437q71 0 138.5 -6.5t112 -30t44.5 -73.5q0 -64 -64 -95t-150 -31l-23 74q26 2 64 10t38 30
q0 20 -41 27t-119 7v88z" />
    <glyph glyph-name="uni1EE8" unicode="&#x1ee8;" horiz-adv-x="736" 
d="M368 -16q-91 0 -155.5 42t-98.5 114t-34 162v1168h216v-1168q0 -43 17 -75.5t55 -32.5q40 0 56 32.5t16 75.5v1168h216v-1168q0 -90 -34.5 -162t-99 -114t-154.5 -42zM576 1470q52 0 77.5 15.5t33.5 60.5t8 132h164q0 -139 -33 -214t-96 -103t-154 -28v137zM270 1600
l134 180h210l-188 -180h-156z" />
    <glyph glyph-name="uni1EE9" unicode="&#x1ee9;" horiz-adv-x="618" 
d="M202 -16q-50 0 -84 32t-51 81.5t-17 100.5v896h202v-856q0 -31 11.5 -44.5t36.5 -13.5q22 0 37.5 15.5t28.5 36.5v862h202v-1094h-202v92q-36 -34 -81 -71t-83 -37zM526 1094q52 0 77.5 15.5t33.5 60.5t8 132h164q0 -139 -33 -214t-96 -103t-154 -28v137zM214 1224
l134 180h210l-188 -180h-156z" />
    <glyph glyph-name="uni1EEA" unicode="&#x1eea;" horiz-adv-x="736" 
d="M368 -16q-91 0 -155.5 42t-98.5 114t-34 162v1168h216v-1168q0 -43 17 -75.5t55 -32.5q40 0 56 32.5t16 75.5v1168h216v-1168q0 -90 -34.5 -162t-99 -114t-154.5 -42zM576 1470q52 0 77.5 15.5t33.5 60.5t8 132h164q0 -139 -33 -214t-96 -103t-154 -28v137zM458 1600
h-156l-188 180h210z" />
    <glyph glyph-name="uni1EEB" unicode="&#x1eeb;" horiz-adv-x="618" 
d="M202 -16q-50 0 -84 32t-51 81.5t-17 100.5v896h202v-856q0 -31 11.5 -44.5t36.5 -13.5q22 0 37.5 15.5t28.5 36.5v862h202v-1094h-202v92q-36 -34 -81 -71t-83 -37zM526 1094q52 0 77.5 15.5t33.5 60.5t8 132h164q0 -139 -33 -214t-96 -103t-154 -28v137zM402 1224h-156
l-188 180h210z" />
    <glyph glyph-name="uni1EEC" unicode="&#x1eec;" horiz-adv-x="736" 
d="M368 -16q-91 0 -155.5 42t-98.5 114t-34 162v1168h216v-1168q0 -43 17 -75.5t55 -32.5q40 0 56 32.5t16 75.5v1168h216v-1168q0 -90 -34.5 -162t-99 -114t-154.5 -42zM576 1470q52 0 77.5 15.5t33.5 60.5t8 132h164q0 -139 -33 -214t-96 -103t-154 -28v137zM230 1813
q71 0 138.5 -6.5t112 -30t44.5 -73.5q0 -64 -64 -95t-150 -31l-23 74q26 2 64 10t38 30q0 20 -41 27t-119 7v88z" />
    <glyph glyph-name="uni1EED" unicode="&#x1eed;" horiz-adv-x="618" 
d="M202 -16q-50 0 -84 32t-51 81.5t-17 100.5v896h202v-856q0 -31 11.5 -44.5t36.5 -13.5q22 0 37.5 15.5t28.5 36.5v862h202v-1094h-202v92q-36 -34 -81 -71t-83 -37zM526 1094q52 0 77.5 15.5t33.5 60.5t8 132h164q0 -139 -33 -214t-96 -103t-154 -28v137zM174 1437
q71 0 138.5 -6.5t112 -30t44.5 -73.5q0 -64 -64 -95t-150 -31l-23 74q26 2 64 10t38 30q0 20 -41 27t-119 7v88z" />
    <glyph glyph-name="uni1EEE" unicode="&#x1eee;" horiz-adv-x="736" 
d="M368 -16q-91 0 -155.5 42t-98.5 114t-34 162v1168h216v-1168q0 -43 17 -75.5t55 -32.5q40 0 56 32.5t16 75.5v1168h216v-1168q0 -90 -34.5 -162t-99 -114t-154.5 -42zM576 1470q52 0 77.5 15.5t33.5 60.5t8 132h164q0 -139 -33 -214t-96 -103t-154 -28v137zM456 1581
q-47 0 -86 18q-43 20 -90 20q-27 0 -56 -9.5t-50 -22.5v148q14 11 31 18.5t35 13.5t40 6q47 0 88 -16q22 -8 44 -15t44 -7q27 0 56 9.5t50 22.5v-148q-19 -17 -51 -27.5t-55 -10.5z" />
    <glyph glyph-name="uni1EEF" unicode="&#x1eef;" horiz-adv-x="618" 
d="M202 -16q-50 0 -84 32t-51 81.5t-17 100.5v896h202v-856q0 -31 11.5 -44.5t36.5 -13.5q22 0 37.5 15.5t28.5 36.5v862h202v-1094h-202v92q-36 -34 -81 -71t-83 -37zM526 1094q52 0 77.5 15.5t33.5 60.5t8 132h164q0 -139 -33 -214t-96 -103t-154 -28v137zM400 1205
q-47 0 -86 18q-43 20 -90 20q-27 0 -56 -9.5t-50 -22.5v148q14 11 31 18.5t35 13.5t40 6q47 0 88 -16q22 -8 44 -15t44 -7q27 0 56 9.5t50 22.5v-148q-19 -17 -51 -27.5t-55 -10.5z" />
    <glyph glyph-name="uni1EF0" unicode="&#x1ef0;" horiz-adv-x="736" 
d="M368 -16q-91 0 -155.5 42t-98.5 114t-34 162v1168h216v-1168q0 -43 17 -75.5t55 -32.5q40 0 56 32.5t16 75.5v1168h216v-1168q0 -90 -34.5 -162t-99 -114t-154.5 -42zM576 1470q52 0 77.5 15.5t33.5 60.5t8 132h164q0 -139 -33 -214t-96 -103t-154 -28v137zM267 -287v202
h202v-202h-202z" />
    <glyph glyph-name="uni1EF1" unicode="&#x1ef1;" horiz-adv-x="618" 
d="M202 -16q-50 0 -84 32t-51 81.5t-17 100.5v896h202v-856q0 -31 11.5 -44.5t36.5 -13.5q22 0 37.5 15.5t28.5 36.5v862h202v-1094h-202v92q-36 -34 -81 -71t-83 -37zM526 1094q52 0 77.5 15.5t33.5 60.5t8 132h164q0 -139 -33 -214t-96 -103t-154 -28v137zM208 -287v202
h202v-202h-202z" />
    <glyph glyph-name="Ygrave" unicode="&#x1ef2;" 
d="M250 0v626l-220 844h212l106 -470l7 -64h6l7 64l106 470h212l-220 -844v-626h-216zM448 1600h-156l-188 180h210z" />
    <glyph glyph-name="ygrave" unicode="&#x1ef3;" horiz-adv-x="602" 
d="M89 -392q-13 0 -31 1t-35 4v179q3 -1 16 -2.5t17 -1.5q56 0 90.5 30t48.5 80q5 15 5.5 35t0.5 35l-186 1126h198l80 -682l4 -76h8l4 76l80 682h198l-194 -1176q-11 -88 -49.5 -158.5t-102.5 -111t-152 -40.5zM391 1224h-156l-188 180h210z" />
    <glyph glyph-name="uni1EF4" unicode="&#x1ef4;" 
d="M250 0v626l-220 844h212l106 -470l7 -64h6l7 64l106 470h212l-220 -844v-626h-216zM257 -287v202h202v-202h-202z" />
    <glyph glyph-name="uni1EF5" unicode="&#x1ef5;" horiz-adv-x="602" 
d="M89 -392q-13 0 -31 1t-35 4v179q3 -1 16 -2.5t17 -1.5q56 0 90.5 30t48.5 80q5 15 5.5 35t0.5 35l-186 1126h198l80 -682l4 -76h8l4 76l80 682h198l-194 -1176q-11 -88 -49.5 -158.5t-102.5 -111t-152 -40.5zM432 -287v202h202v-202h-202z" />
    <glyph glyph-name="uni1EF6" unicode="&#x1ef6;" 
d="M250 0v626l-220 844h212l106 -470l7 -64h6l7 64l106 470h212l-220 -844v-626h-216zM220 1813q71 0 138.5 -6.5t112 -30t44.5 -73.5q0 -64 -64 -95t-150 -31l-23 74q26 2 64 10t38 30q0 20 -41 27t-119 7v88z" />
    <glyph glyph-name="uni1EF7" unicode="&#x1ef7;" horiz-adv-x="602" 
d="M89 -392q-13 0 -31 1t-35 4v179q3 -1 16 -2.5t17 -1.5q56 0 90.5 30t48.5 80q5 15 5.5 35t0.5 35l-186 1126h198l80 -682l4 -76h8l4 76l80 682h198l-194 -1176q-11 -88 -49.5 -158.5t-102.5 -111t-152 -40.5zM163 1437q71 0 138.5 -6.5t112 -30t44.5 -73.5q0 -64 -64 -95
t-150 -31l-23 74q26 2 64 10t38 30q0 20 -41 27t-119 7v88z" />
    <glyph glyph-name="uni1EF8" unicode="&#x1ef8;" 
d="M250 0v626l-220 844h212l106 -470l7 -64h6l7 64l106 470h212l-220 -844v-626h-216zM446 1581q-47 0 -86 18q-43 20 -90 20q-27 0 -56 -9.5t-50 -22.5v148q14 11 31 18.5t35 13.5t40 6q47 0 88 -16q22 -8 44 -15t44 -7q27 0 56 9.5t50 22.5v-148q-19 -17 -51 -27.5
t-55 -10.5z" />
    <glyph glyph-name="uni1EF9" unicode="&#x1ef9;" horiz-adv-x="602" 
d="M89 -392q-13 0 -31 1t-35 4v179q3 -1 16 -2.5t17 -1.5q56 0 90.5 30t48.5 80q5 15 5.5 35t0.5 35l-186 1126h198l80 -682l4 -76h8l4 76l80 682h198l-194 -1176q-11 -88 -49.5 -158.5t-102.5 -111t-152 -40.5zM389 1205q-47 0 -86 18q-43 20 -90 20q-27 0 -56 -9.5
t-50 -22.5v148q14 11 31 18.5t35 13.5t40 6q47 0 88 -16q22 -8 44 -15t44 -7q27 0 56 9.5t50 22.5v-148q-19 -17 -51 -27.5t-55 -10.5z" />
    <glyph glyph-name="endash" unicode="&#x2013;" horiz-adv-x="788" 
d="M72 634v190h644v-190h-644z" />
    <glyph glyph-name="emdash" unicode="&#x2014;" horiz-adv-x="950" 
d="M72 634v190h806v-190h-806z" />
    <glyph glyph-name="quoteleft" unicode="&#x2018;" horiz-adv-x="302" 
d="M48 988v222l110 260h100l-70 -260h70v-222h-210z" />
    <glyph glyph-name="quoteright" unicode="&#x2019;" horiz-adv-x="302" 
d="M44 988l70 260h-70v222h210v-222l-110 -260h-100z" />
    <glyph glyph-name="quotesinglbase" unicode="&#x201a;" horiz-adv-x="302" 
d="M44 -260l70 260h-70v222h210v-222l-110 -260h-100z" />
    <glyph glyph-name="quotedblleft" unicode="&#x201c;" horiz-adv-x="610" 
d="M348 988v222l110 260h100l-70 -260h70v-222h-210zM52 988v222l110 260h100l-70 -260h70v-222h-210z" />
    <glyph glyph-name="quotedblright" unicode="&#x201d;" horiz-adv-x="610" 
d="M348 988l70 260h-70v222h210v-222l-110 -260h-100zM52 988l70 260h-70v222h210v-222l-110 -260h-100z" />
    <glyph glyph-name="quotedblbase" unicode="&#x201e;" horiz-adv-x="610" 
d="M348 -260l70 260h-70v222h210v-222l-110 -260h-100zM52 -260l70 260h-70v222h210v-222l-110 -260h-100z" />
    <glyph glyph-name="uni201F" unicode="&#x201f;" horiz-adv-x="610" 
d="M458 988l-110 260v222h210v-222h-70l70 -260h-100zM162 988l-110 260v222h210v-222h-70l70 -260h-100z" />
    <glyph glyph-name="bullet" unicode="&#x2022;" horiz-adv-x="648" 
d="M326 552q-68 0 -124 33t-89 89t-33 124q0 67 33 122t88.5 87.5t124.5 32.5q102 0 172 -70t70 -172q0 -70 -33 -125.5t-88 -88t-121 -32.5z" />
    <glyph glyph-name="ellipsis" unicode="&#x2026;" horiz-adv-x="942" 
d="M680 0v222h210v-222h-210zM52 0v222h210v-222h-210zM366 0v222h210v-222h-210z" />
    <glyph glyph-name="guilsinglleft" unicode="&#x2039;" horiz-adv-x="446" 
d="M386 204l-326 265v152l326 265v-190l-238 -176v50l238 -176v-190z" />
    <glyph glyph-name="guilsinglright" unicode="&#x203a;" horiz-adv-x="446" 
d="M60 204v190l238 176v-50l-238 176v190l326 -265v-152z" />
    <glyph glyph-name="fraction" unicode="&#x2044;" horiz-adv-x="593" 
d="M-300 0l1042 1470h151l-1039 -1470h-154z" />
    <glyph glyph-name="uni2074" unicode="&#x2074;" horiz-adv-x="579" 
d="M276 600v175h-251v103l237 525h162v-510h75v-118h-75v-175h-148zM170 893h106v248h-9l-12 -46z" />
    <glyph glyph-name="Euro" unicode="&#x20ac;" horiz-adv-x="794" 
d="M444 -16q-137 0 -212.5 92.5t-75.5 225.5v232h-104v134h104v134h-104v134h104v232q0 89 35 161t100 114.5t153 42.5q137 0 212.5 -91.5t75.5 -226.5v-82h-202v82q0 46 -19 77t-63 31q-40 0 -58 -32t-18 -76v-232h228v-134h-228v-134h228v-134h-228v-232q0 -40 19.5 -74
t56.5 -34q45 0 63.5 31t18.5 77v82h202v-82q0 -134 -77 -226t-211 -92z" />
    <glyph glyph-name="trademark" unicode="&#x2122;" horiz-adv-x="904" 
d="M428 802v668h134l66 -312h6l66 312h134v-668h-102v438l-76 -438h-50l-78 438v-438h-100zM172 802v566h-102v102h314v-102h-102v-566h-110z" />
    <glyph glyph-name="minus" unicode="&#x2212;" horiz-adv-x="758" 
d="M72 634v168h614v-168h-614z" />
    <glyph glyph-name="uni2215" unicode="&#x2215;" horiz-adv-x="704" 
d="M8 -144l530 1614h158l-524 -1614h-164z" />
    <glyph glyph-name="a.ss01" horiz-adv-x="608" 
d="M196 -16q-50 0 -85 31t-53 80.5t-18 102.5v698q0 53 17.5 102t52.5 80.5t86 31.5q38 0 80 -26t80 -62v72h202v-1094h-202v72q-40 -35 -79 -61.5t-81 -26.5zM292 174q23 0 43.5 19t20.5 47v614q0 24 -20.5 45t-43.5 21q-22 0 -36 -18.5t-14 -47.5v-614q0 -28 14 -47
t36 -19z" />
    <glyph glyph-name="aacute.ss01" horiz-adv-x="608" 
d="M196 -16q-50 0 -85 31t-53 80.5t-18 102.5v698q0 53 17.5 102t52.5 80.5t86 31.5q38 0 80 -26t80 -62v72h202v-1094h-202v72q-40 -35 -79 -61.5t-81 -26.5zM292 174q23 0 43.5 19t20.5 47v614q0 24 -20.5 45t-43.5 21q-22 0 -36 -18.5t-14 -47.5v-614q0 -28 14 -47
t36 -19zM206 1224l134 180h210l-188 -180h-156z" />
    <glyph glyph-name="abreve.ss01" horiz-adv-x="608" 
d="M196 -16q-50 0 -85 31t-53 80.5t-18 102.5v698q0 53 17.5 102t52.5 80.5t86 31.5q38 0 80 -26t80 -62v72h202v-1094h-202v72q-40 -35 -79 -61.5t-81 -26.5zM292 174q23 0 43.5 19t20.5 47v614q0 24 -20.5 45t-43.5 21q-22 0 -36 -18.5t-14 -47.5v-614q0 -28 14 -47
t36 -19zM304 1203q-64 0 -123 25.5t-97 68.5l108 92q18 -23 48.5 -34.5t63.5 -11.5q37 0 68.5 13t47.5 33l104 -92q-46 -46 -100.5 -70t-119.5 -24z" />
    <glyph glyph-name="uni1EAF.ss01" horiz-adv-x="608" 
d="M196 -16q-50 0 -85 31t-53 80.5t-18 102.5v698q0 53 17.5 102t52.5 80.5t86 31.5q38 0 80 -26t80 -62v72h202v-1094h-202v72q-40 -35 -79 -61.5t-81 -26.5zM292 174q23 0 43.5 19t20.5 47v614q0 24 -20.5 45t-43.5 21q-22 0 -36 -18.5t-14 -47.5v-614q0 -28 14 -47
t36 -19zM304 1203q-64 0 -123 25.5t-97 68.5l108 92q18 -23 48.5 -34.5t63.5 -11.5q37 0 68.5 13t47.5 33l104 -92q-46 -46 -100.5 -70t-119.5 -24zM178 1456l134 180h210l-188 -180h-156z" />
    <glyph glyph-name="uni1EB7.ss01" horiz-adv-x="608" 
d="M196 -16q-50 0 -85 31t-53 80.5t-18 102.5v698q0 53 17.5 102t52.5 80.5t86 31.5q38 0 80 -26t80 -62v72h202v-1094h-202v72q-40 -35 -79 -61.5t-81 -26.5zM292 174q23 0 43.5 19t20.5 47v614q0 24 -20.5 45t-43.5 21q-22 0 -36 -18.5t-14 -47.5v-614q0 -28 14 -47
t36 -19zM204 -287v202h202v-202h-202zM304 1203q-64 0 -123 25.5t-97 68.5l108 92q18 -23 48.5 -34.5t63.5 -11.5q37 0 68.5 13t47.5 33l104 -92q-46 -46 -100.5 -70t-119.5 -24z" />
    <glyph glyph-name="uni1EB1.ss01" horiz-adv-x="608" 
d="M196 -16q-50 0 -85 31t-53 80.5t-18 102.5v698q0 53 17.5 102t52.5 80.5t86 31.5q38 0 80 -26t80 -62v72h202v-1094h-202v72q-40 -35 -79 -61.5t-81 -26.5zM292 174q23 0 43.5 19t20.5 47v614q0 24 -20.5 45t-43.5 21q-22 0 -36 -18.5t-14 -47.5v-614q0 -28 14 -47
t36 -19zM304 1203q-64 0 -123 25.5t-97 68.5l108 92q18 -23 48.5 -34.5t63.5 -11.5q37 0 68.5 13t47.5 33l104 -92q-46 -46 -100.5 -70t-119.5 -24zM394 1460h-156l-188 180h210z" />
    <glyph glyph-name="uni1EB3.ss01" horiz-adv-x="608" 
d="M196 -16q-50 0 -85 31t-53 80.5t-18 102.5v698q0 53 17.5 102t52.5 80.5t86 31.5q38 0 80 -26t80 -62v72h202v-1094h-202v72q-40 -35 -79 -61.5t-81 -26.5zM292 174q23 0 43.5 19t20.5 47v614q0 24 -20.5 45t-43.5 21q-22 0 -36 -18.5t-14 -47.5v-614q0 -28 14 -47
t36 -19zM304 1203q-64 0 -123 25.5t-97 68.5l108 92q18 -23 48.5 -34.5t63.5 -11.5q37 0 68.5 13t47.5 33l104 -92q-46 -46 -100.5 -70t-119.5 -24zM156 1667q71 0 138.5 -6.5t112 -30t44.5 -73.5q0 -64 -64 -95t-150 -31l-23 74q26 2 64 10t38 30q0 20 -41 27t-119 7v88z
" />
    <glyph glyph-name="uni1EB5.ss01" horiz-adv-x="608" 
d="M196 -16q-50 0 -85 31t-53 80.5t-18 102.5v698q0 53 17.5 102t52.5 80.5t86 31.5q38 0 80 -26t80 -62v72h202v-1094h-202v72q-40 -35 -79 -61.5t-81 -26.5zM292 174q23 0 43.5 19t20.5 47v614q0 24 -20.5 45t-43.5 21q-22 0 -36 -18.5t-14 -47.5v-614q0 -28 14 -47
t36 -19zM304 1203q-64 0 -123 25.5t-97 68.5l108 92q18 -23 48.5 -34.5t63.5 -11.5q37 0 68.5 13t47.5 33l104 -92q-46 -46 -100.5 -70t-119.5 -24zM392 1434q-47 0 -86 18q-43 20 -90 20q-27 0 -56 -9.5t-50 -22.5v148q14 11 31 18.5t35 13.5t40 6q47 0 88 -16
q22 -8 44 -15t44 -7q27 0 56 9.5t50 22.5v-148q-19 -17 -51 -27.5t-55 -10.5z" />
    <glyph glyph-name="uni01CE.ss01" horiz-adv-x="608" 
d="M196 -16q-50 0 -85 31t-53 80.5t-18 102.5v698q0 53 17.5 102t52.5 80.5t86 31.5q38 0 80 -26t80 -62v72h202v-1094h-202v72q-40 -35 -79 -61.5t-81 -26.5zM292 174q23 0 43.5 19t20.5 47v614q0 24 -20.5 45t-43.5 21q-22 0 -36 -18.5t-14 -47.5v-614q0 -28 14 -47
t36 -19zM197 1229l-138 180h184l60 -90l62 90h184l-138 -180h-214z" />
    <glyph glyph-name="acircumflex.ss01" horiz-adv-x="608" 
d="M196 -16q-50 0 -85 31t-53 80.5t-18 102.5v698q0 53 17.5 102t52.5 80.5t86 31.5q38 0 80 -26t80 -62v72h202v-1094h-202v72q-40 -35 -79 -61.5t-81 -26.5zM292 174q23 0 43.5 19t20.5 47v614q0 24 -20.5 45t-43.5 21q-22 0 -36 -18.5t-14 -47.5v-614q0 -28 14 -47
t36 -19zM59 1228l138 180h214l138 -180h-184l-62 90l-60 -90h-184z" />
    <glyph glyph-name="uni1EA5.ss01" horiz-adv-x="608" 
d="M196 -16q-50 0 -85 31t-53 80.5t-18 102.5v698q0 53 17.5 102t52.5 80.5t86 31.5q38 0 80 -26t80 -62v72h202v-1094h-202v72q-40 -35 -79 -61.5t-81 -26.5zM292 174q23 0 43.5 19t20.5 47v614q0 24 -20.5 45t-43.5 21q-22 0 -36 -18.5t-14 -47.5v-614q0 -28 14 -47
t36 -19zM59 1228l138 180h214l138 -180h-184l-62 90l-60 -90h-184zM475 1371l134 180h210l-188 -180h-156z" />
    <glyph glyph-name="uni1EAD.ss01" horiz-adv-x="608" 
d="M196 -16q-50 0 -85 31t-53 80.5t-18 102.5v698q0 53 17.5 102t52.5 80.5t86 31.5q38 0 80 -26t80 -62v72h202v-1094h-202v72q-40 -35 -79 -61.5t-81 -26.5zM292 174q23 0 43.5 19t20.5 47v614q0 24 -20.5 45t-43.5 21q-22 0 -36 -18.5t-14 -47.5v-614q0 -28 14 -47
t36 -19zM204 -287v202h202v-202h-202zM59 1228l138 180h214l138 -180h-184l-62 90l-60 -90h-184z" />
    <glyph glyph-name="uni1EA7.ss01" horiz-adv-x="608" 
d="M196 -16q-50 0 -85 31t-53 80.5t-18 102.5v698q0 53 17.5 102t52.5 80.5t86 31.5q38 0 80 -26t80 -62v72h202v-1094h-202v72q-40 -35 -79 -61.5t-81 -26.5zM292 174q23 0 43.5 19t20.5 47v614q0 24 -20.5 45t-43.5 21q-22 0 -36 -18.5t-14 -47.5v-614q0 -28 14 -47
t36 -19zM59 1228l138 180h214l138 -180h-184l-62 90l-60 -90h-184zM690 1373h-156l-188 180h210z" />
    <glyph glyph-name="uni1EA9.ss01" horiz-adv-x="608" 
d="M196 -16q-50 0 -85 31t-53 80.5t-18 102.5v698q0 53 17.5 102t52.5 80.5t86 31.5q38 0 80 -26t80 -62v72h202v-1094h-202v72q-40 -35 -79 -61.5t-81 -26.5zM292 174q23 0 43.5 19t20.5 47v614q0 24 -20.5 45t-43.5 21q-22 0 -36 -18.5t-14 -47.5v-614q0 -28 14 -47
t36 -19zM59 1228l138 180h214l138 -180h-184l-62 90l-60 -90h-184zM424 1604q71 0 138.5 -6.5t112 -30t44.5 -73.5q0 -64 -64 -95t-150 -31l-23 74q26 2 64 10t38 30q0 20 -41 27t-119 7v88z" />
    <glyph glyph-name="uni1EAB.ss01" horiz-adv-x="608" 
d="M196 -16q-50 0 -85 31t-53 80.5t-18 102.5v698q0 53 17.5 102t52.5 80.5t86 31.5q38 0 80 -26t80 -62v72h202v-1094h-202v72q-40 -35 -79 -61.5t-81 -26.5zM292 174q23 0 43.5 19t20.5 47v614q0 24 -20.5 45t-43.5 21q-22 0 -36 -18.5t-14 -47.5v-614q0 -28 14 -47
t36 -19zM59 1228l138 180h214l138 -180h-184l-62 90l-60 -90h-184zM391 1458q-47 0 -86 18q-43 20 -90 20q-27 0 -56 -9.5t-50 -22.5v148q14 11 31 18.5t35 13.5t40 6q47 0 88 -16q22 -8 44 -15t44 -7q27 0 56 9.5t50 22.5v-148q-19 -17 -51 -27.5t-55 -10.5z" />
    <glyph glyph-name="adieresis.ss01" horiz-adv-x="608" 
d="M196 -16q-50 0 -85 31t-53 80.5t-18 102.5v698q0 53 17.5 102t52.5 80.5t86 31.5q38 0 80 -26t80 -62v72h202v-1094h-202v72q-40 -35 -79 -61.5t-81 -26.5zM292 174q23 0 43.5 19t20.5 47v614q0 24 -20.5 45t-43.5 21q-22 0 -36 -18.5t-14 -47.5v-614q0 -28 14 -47
t36 -19zM352 1216v196h186v-196h-186zM70 1216v196h186v-196h-186z" />
    <glyph glyph-name="uni1EA1.ss01" horiz-adv-x="608" 
d="M196 -16q-50 0 -85 31t-53 80.5t-18 102.5v698q0 53 17.5 102t52.5 80.5t86 31.5q38 0 80 -26t80 -62v72h202v-1094h-202v72q-40 -35 -79 -61.5t-81 -26.5zM292 174q23 0 43.5 19t20.5 47v614q0 24 -20.5 45t-43.5 21q-22 0 -36 -18.5t-14 -47.5v-614q0 -28 14 -47
t36 -19zM204 -287v202h202v-202h-202z" />
    <glyph glyph-name="agrave.ss01" horiz-adv-x="608" 
d="M196 -16q-50 0 -85 31t-53 80.5t-18 102.5v698q0 53 17.5 102t52.5 80.5t86 31.5q38 0 80 -26t80 -62v72h202v-1094h-202v72q-40 -35 -79 -61.5t-81 -26.5zM292 174q23 0 43.5 19t20.5 47v614q0 24 -20.5 45t-43.5 21q-22 0 -36 -18.5t-14 -47.5v-614q0 -28 14 -47
t36 -19zM394 1224h-156l-188 180h210z" />
    <glyph glyph-name="uni1EA3.ss01" horiz-adv-x="608" 
d="M196 -16q-50 0 -85 31t-53 80.5t-18 102.5v698q0 53 17.5 102t52.5 80.5t86 31.5q38 0 80 -26t80 -62v72h202v-1094h-202v72q-40 -35 -79 -61.5t-81 -26.5zM292 174q23 0 43.5 19t20.5 47v614q0 24 -20.5 45t-43.5 21q-22 0 -36 -18.5t-14 -47.5v-614q0 -28 14 -47
t36 -19zM166 1437q71 0 138.5 -6.5t112 -30t44.5 -73.5q0 -64 -64 -95t-150 -31l-23 74q26 2 64 10t38 30q0 20 -41 27t-119 7v88z" />
    <glyph glyph-name="amacron.ss01" horiz-adv-x="608" 
d="M196 -16q-50 0 -85 31t-53 80.5t-18 102.5v698q0 53 17.5 102t52.5 80.5t86 31.5q38 0 80 -26t80 -62v72h202v-1094h-202v72q-40 -35 -79 -61.5t-81 -26.5zM292 174q23 0 43.5 19t20.5 47v614q0 24 -20.5 45t-43.5 21q-22 0 -36 -18.5t-14 -47.5v-614q0 -28 14 -47
t36 -19zM110 1235v148h388v-148h-388z" />
    <glyph glyph-name="aogonek.ss01" horiz-adv-x="608" 
d="M196 -16q-50 0 -85 31t-53 80.5t-18 102.5v698q0 53 17.5 102t52.5 80.5t86 31.5q38 0 80 -26t80 -62v72h202v-1094h-202v72q-40 -35 -79 -61.5t-81 -26.5zM292 174q23 0 43.5 19t20.5 47v614q0 24 -20.5 45t-43.5 21q-22 0 -36 -18.5t-14 -47.5v-614q0 -28 14 -47
t36 -19zM557 -375q-83 0 -139 34.5t-56 124.5q0 51 21 103t61 113h114q-15 -40 -29.5 -91.5t-14.5 -85.5q0 -43 26 -54t45 -11q47 0 84 23v-133q-37 -23 -112 -23z" />
    <glyph glyph-name="aring.ss01" horiz-adv-x="608" 
d="M196 -16q-50 0 -85 31t-53 80.5t-18 102.5v698q0 53 17.5 102t52.5 80.5t86 31.5q38 0 80 -26t80 -62v72h202v-1094h-202v72q-40 -35 -79 -61.5t-81 -26.5zM292 174q23 0 43.5 19t20.5 47v614q0 24 -20.5 45t-43.5 21q-22 0 -36 -18.5t-14 -47.5v-614q0 -28 14 -47
t36 -19zM305 1194q-61 0 -105.5 39.5t-44.5 100.5q0 62 44.5 101t105.5 39q62 0 105 -39t43 -101q0 -61 -43 -100.5t-105 -39.5zM305 1264q29 0 51.5 21t22.5 49q0 29 -22.5 49.5t-51.5 20.5q-28 0 -51 -20.5t-23 -49.5q0 -28 23 -49t51 -21z" />
    <glyph glyph-name="atilde.ss01" horiz-adv-x="608" 
d="M196 -16q-50 0 -85 31t-53 80.5t-18 102.5v698q0 53 17.5 102t52.5 80.5t86 31.5q38 0 80 -26t80 -62v72h202v-1094h-202v72q-40 -35 -79 -61.5t-81 -26.5zM292 174q23 0 43.5 19t20.5 47v614q0 24 -20.5 45t-43.5 21q-22 0 -36 -18.5t-14 -47.5v-614q0 -28 14 -47
t36 -19zM392 1205q-47 0 -86 18q-43 20 -90 20q-27 0 -56 -9.5t-50 -22.5v148q14 11 31 18.5t35 13.5t40 6q47 0 88 -16q22 -8 44 -15t44 -7q27 0 56 9.5t50 22.5v-148q-19 -17 -51 -27.5t-55 -10.5z" />
    <glyph glyph-name="g.ss01" horiz-adv-x="608" 
d="M235 -376q-55 0 -90.5 8t-49.5 15v180q22 -11 54.5 -17.5t78.5 -6.5q65 0 96 30t31 95v201h203v-203q0 -139 -90 -220.5t-233 -81.5zM196 -16q-50 0 -85 31t-53 80.5t-18 102.5v698q0 53 17.5 102t52.5 80.5t86 31.5q38 0 80 -26t80 -62v72h202v-1094h-202v72
q-40 -35 -79 -61.5t-81 -26.5zM292 174q23 0 43.5 19t20.5 47v614q0 24 -20.5 45t-43.5 21q-22 0 -36 -18.5t-14 -47.5v-614q0 -28 14 -47t36 -19z" />
    <glyph glyph-name="gbreve.ss01" horiz-adv-x="608" 
d="M235 -376q-55 0 -90.5 8t-49.5 15v180q22 -11 54.5 -17.5t78.5 -6.5q65 0 96 30t31 95v201h203v-203q0 -139 -90 -220.5t-233 -81.5zM196 -16q-50 0 -85 31t-53 80.5t-18 102.5v698q0 53 17.5 102t52.5 80.5t86 31.5q38 0 80 -26t80 -62v72h202v-1094h-202v72
q-40 -35 -79 -61.5t-81 -26.5zM292 174q23 0 43.5 19t20.5 47v614q0 24 -20.5 45t-43.5 21q-22 0 -36 -18.5t-14 -47.5v-614q0 -28 14 -47t36 -19zM304 1203q-64 0 -123 25.5t-97 68.5l108 92q18 -23 48.5 -34.5t63.5 -11.5q37 0 68.5 13t47.5 33l104 -92
q-46 -46 -100.5 -70t-119.5 -24z" />
    <glyph glyph-name="uni0123.ss01" horiz-adv-x="608" 
d="M235 -376q-55 0 -90.5 8t-49.5 15v180q22 -11 54.5 -17.5t78.5 -6.5q65 0 96 30t31 95v201h203v-203q0 -139 -90 -220.5t-233 -81.5zM196 -16q-50 0 -85 31t-53 80.5t-18 102.5v698q0 53 17.5 102t52.5 80.5t86 31.5q38 0 80 -26t80 -62v72h202v-1094h-202v72
q-40 -35 -79 -61.5t-81 -26.5zM292 174q23 0 43.5 19t20.5 47v614q0 24 -20.5 45t-43.5 21q-22 0 -36 -18.5t-14 -47.5v-614q0 -28 14 -47t36 -19zM402 1571l-66 -166h66v-208h-197v208l103 166h94z" />
    <glyph glyph-name="gdotaccent.ss01" horiz-adv-x="608" 
d="M235 -376q-55 0 -90.5 8t-49.5 15v180q22 -11 54.5 -17.5t78.5 -6.5q65 0 96 30t31 95v201h203v-203q0 -139 -90 -220.5t-233 -81.5zM196 -16q-50 0 -85 31t-53 80.5t-18 102.5v698q0 53 17.5 102t52.5 80.5t86 31.5q38 0 80 -26t80 -62v72h202v-1094h-202v72
q-40 -35 -79 -61.5t-81 -26.5zM292 174q23 0 43.5 19t20.5 47v614q0 24 -20.5 45t-43.5 21q-22 0 -36 -18.5t-14 -47.5v-614q0 -28 14 -47t36 -19zM203 1219v202h202v-202h-202z" />
    <glyph glyph-name="i.loclTRK" horiz-adv-x="362" 
d="M80 0v1094h202v-1094h-202zM80 1219v202h202v-202h-202z" />
    <glyph glyph-name="one.dnom" horiz-adv-x="470" 
d="M208 0v629h-108v79q51 8 79.5 19.5t56.5 35.5q29 25 37 40h97v-803h-162z" />
    <glyph glyph-name="two.dnom" horiz-adv-x="641" 
d="M100 0v117q98 115 157.5 202t87.5 156t30 130q1 36 -14.5 57t-40.5 21q-30 0 -42 -17t-12 -60v-55h-162v55q0 101 56 155t160 54q108 0 162 -52t54 -156q0 -54 -20 -111t-72.5 -141.5t-150.5 -222.5h246v-132h-439z" />
    <glyph glyph-name="three.dnom" horiz-adv-x="631" 
d="M311 -9q-205 0 -205 242h159q0 -58 14.5 -84t39.5 -26q34 0 43.5 26t9.5 84q0 57 -9 84.5t-38 36.5t-90 10v100q53 8 79.5 20t35 36.5t8.5 68.5q0 56 -10.5 75t-37.5 19q-29 0 -40 -23.5t-11 -86.5h-159q0 242 207 242q101 0 155.5 -54.5t54.5 -156.5q0 -55 -17.5 -93
t-61.5 -78q51 -44 72 -89t21 -113q0 -118 -56 -179t-164 -61z" />
    <glyph glyph-name="four.dnom" horiz-adv-x="579" 
d="M276 0v175h-251v103l237 525h162v-510h75v-118h-75v-175h-148zM170 293h106v248h-9l-12 -46z" />
    <glyph glyph-name="exclamdown.case" horiz-adv-x="354" 
d="M60 0l54 1074h126l54 -1074h-234zM72 1248v222h210v-222h-210z" />
    <glyph glyph-name="questiondown.case" horiz-adv-x="686" 
d="M444 1074v-250q0 -91 -28 -170.5t-65.5 -149.5t-65.5 -131.5t-28 -115.5q0 -31 17.5 -54t49.5 -23q49 0 80.5 42t47.5 100l174 -82q-20 -69 -66 -125t-107.5 -89.5t-127.5 -33.5q-85 0 -144.5 36t-90 99.5t-30.5 144.5q0 72 30 136t69 127.5t69 134t30 154.5v250h186z
M456 1470v-222h-210v222h210z" />
    <glyph glyph-name="uni03060301" horiz-adv-x="0" 
d="M500 1203q-64 0 -123 25.5t-97 68.5l108 92q18 -23 48.5 -34.5t63.5 -11.5q37 0 68.5 13t47.5 33l104 -92q-46 -46 -100.5 -70t-119.5 -24zM374 1456l134 180h210l-188 -180h-156z" />
    <glyph glyph-name="uni03060300" horiz-adv-x="0" 
d="M500 1203q-64 0 -123 25.5t-97 68.5l108 92q18 -23 48.5 -34.5t63.5 -11.5q37 0 68.5 13t47.5 33l104 -92q-46 -46 -100.5 -70t-119.5 -24zM590 1460h-156l-188 180h210z" />
    <glyph glyph-name="uni03060309" horiz-adv-x="0" 
d="M500 1203q-64 0 -123 25.5t-97 68.5l108 92q18 -23 48.5 -34.5t63.5 -11.5q37 0 68.5 13t47.5 33l104 -92q-46 -46 -100.5 -70t-119.5 -24zM352 1667q71 0 138.5 -6.5t112 -30t44.5 -73.5q0 -64 -64 -95t-150 -31l-23 74q26 2 64 10t38 30q0 20 -41 27t-119 7v88z" />
    <glyph glyph-name="uni03060303" horiz-adv-x="0" 
d="M500 1203q-64 0 -123 25.5t-97 68.5l108 92q18 -23 48.5 -34.5t63.5 -11.5q37 0 68.5 13t47.5 33l104 -92q-46 -46 -100.5 -70t-119.5 -24zM588 1434q-47 0 -86 18q-43 20 -90 20q-27 0 -56 -9.5t-50 -22.5v148q14 11 31 18.5t35 13.5t40 6q47 0 88 -16q22 -8 44 -15
t44 -7q27 0 56 9.5t50 22.5v-148q-19 -17 -51 -27.5t-55 -10.5z" />
    <glyph glyph-name="uni03020301" horiz-adv-x="0" 
d="M254 1228l138 180h214l138 -180h-184l-62 90l-60 -90h-184zM670 1371l134 180h210l-188 -180h-156z" />
    <glyph glyph-name="uni03020300" horiz-adv-x="0" 
d="M254 1228l138 180h214l138 -180h-184l-62 90l-60 -90h-184zM885 1373h-156l-188 180h210z" />
    <glyph glyph-name="uni03020309" horiz-adv-x="0" 
d="M254 1228l138 180h214l138 -180h-184l-62 90l-60 -90h-184zM619 1604q71 0 138.5 -6.5t112 -30t44.5 -73.5q0 -64 -64 -95t-150 -31l-23 74q26 2 64 10t38 30q0 20 -41 27t-119 7v88z" />
    <glyph glyph-name="uni03020303" horiz-adv-x="0" 
d="M254 1228l138 180h214l138 -180h-184l-62 90l-60 -90h-184zM586 1458q-47 0 -86 18q-43 20 -90 20q-27 0 -56 -9.5t-50 -22.5v148q14 11 31 18.5t35 13.5t40 6q47 0 88 -16q22 -8 44 -15t44 -7q27 0 56 9.5t50 22.5v-148q-19 -17 -51 -27.5t-55 -10.5z" />
    </font>
</defs>
</svg>
