<?xml version="1.0" standalone="no"?>
<!DOCTYPE svg PUBLIC "-//W3C//DTD SVG 1.1//EN" "http://www.w3.org/Graphics/SVG/1.1/DTD/svg11.dtd" >
<svg xmlns="http://www.w3.org/2000/svg" xmlns:xlink="http://www.w3.org/1999/xlink" version="1.1">
<metadata>
Created by FontForge 20170731 at Fri Dec  3 13:18:30 2021
 By Aleksey,,,
Copyright 2020 The League Gothic Project Authors (https://github.com/theleagueof/league-gothic)
</metadata>
<defs>
<font id="LeagueGothicCondensed-Regular" horiz-adv-x="432" >
  <font-face 
    font-family="League Gothic Condensed"
    font-weight="400"
    font-stretch="condensed"
    units-per-em="2000"
    panose-1="0 0 0 0 0 0 0 0 0 0"
    ascent="1600"
    descent="-400"
    x-height="1094"
    cap-height="1470"
    bbox="-200 -500 1497 2103"
    underline-thickness="50"
    underline-position="-175"
    unicode-range="U+000D-FB02"
  />
<missing-glyph horiz-adv-x="547" 
d="M60 0v1470h427v-1470h-427zM157 100h213l-213 987v-987zM390 408v962h-207z" />
    <glyph glyph-name="fi" unicode="fi" horiz-adv-x="470" 
d="M430 1094v-1094h-156v912h-24v182h180zM67 0v912h-57v182h57v114q0 138 42 204t114 66q20 0 43 -4.5t41 -15.5v-166q-16 10 -33 10q-29 0 -40 -27.5t-11 -74.5v-106h72v-182h-72v-912h-156z" />
    <glyph glyph-name="fl" unicode="fl" horiz-adv-x="488" 
d="M72 0v912h-62v182h62v100q0 67 16 132.5t52.5 108.5t97.5 43q14 0 29 -2.5t23 -5.5h158v-1470h-158v1298q-5 2 -10.5 2.5t-10.5 0.5q-27 0 -34 -37t-7 -84v-86h76v-182h-76v-912h-156z" />
    <glyph glyph-name=".notdef" horiz-adv-x="547" 
d="M60 0v1470h427v-1470h-427zM157 100h213l-213 987v-987zM390 408v962h-207z" />
    <glyph glyph-name=".null" horiz-adv-x="0" 
 />
    <glyph glyph-name="nonmarkingreturn" horiz-adv-x="666" 
 />
    <glyph glyph-name="CR" unicode="&#xd;" horiz-adv-x="1200" 
 />
    <glyph glyph-name="space" unicode=" " horiz-adv-x="216" 
 />
    <glyph glyph-name="exclam" unicode="!" horiz-adv-x="256" 
d="M72 396l-32 1074h176l-32 -1074h-112zM46 0v222h162v-222h-162z" />
    <glyph glyph-name="quotedbl" unicode="&#x22;" horiz-adv-x="408" 
d="M240 932l-18 538h162l-18 -538h-126zM38 932l-18 538h162l-18 -538h-126z" />
    <glyph glyph-name="numbersign" unicode="#" horiz-adv-x="928" 
d="M126 0l58 428h-144l26 190h144l36 252h-142l26 190h142l56 410h172l-56 -410h134l56 410h172l-56 -410h138l-26 -190h-138l-36 -252h136l-26 -190h-136l-58 -428h-172l58 428h-134l-58 -428h-172zM382 618h134l36 252h-134z" />
    <glyph glyph-name="dollar" unicode="$" 
d="M145 1525h105v-307h-105v307zM145 281h105v-401h-105v401zM186 168q-64 0 -100.5 31t-54 80.5t-22.5 108.5t-5 114h144q0 -67 8.5 -116.5t29.5 -49.5t26.5 33.5t5.5 88.5q0 53 -25.5 109t-61.5 116q-46 78 -79.5 161.5t-33.5 189.5q0 105 44 182.5t134 77.5
q62 0 97.5 -30.5t52 -77t21.5 -97t5 -91.5h-136q0 56 -6 92t-29 36q-18 0 -26.5 -33.5t-8.5 -80.5q0 -64 22.5 -121t49.5 -99q42 -66 86 -156t44 -204q0 -35 -7 -80t-25.5 -87t-54.5 -69.5t-95 -27.5z" />
    <glyph glyph-name="percent" unicode="%" horiz-adv-x="846" 
d="M149 0l420 1470h128l-414 -1470h-134zM187 718q-78 0 -112.5 59t-34.5 150v350q0 92 34.5 150.5t112.5 58.5t112.5 -58.5t34.5 -150.5v-350q0 -91 -34.5 -150t-112.5 -59zM188 858q17 0 22 19t5 55v340q0 36 -5 54.5t-22 18.5q-18 0 -23.5 -18.5t-5.5 -54.5v-340
q0 -36 5.5 -55t23.5 -19zM659 -16q-78 0 -112.5 59t-34.5 150v350q0 92 34.5 150.5t112.5 58.5t112.5 -58.5t34.5 -150.5v-350q0 -91 -34.5 -150t-112.5 -59zM660 124q17 0 22 19t5 55v340q0 36 -5 54.5t-22 18.5q-18 0 -23.5 -18.5t-5.5 -54.5v-340q0 -36 5.5 -55t23.5 -19
z" />
    <glyph glyph-name="ampersand" unicode="&#x26;" horiz-adv-x="634" 
d="M260 -16q-96 0 -158 83.5t-62 240.5q0 98 19.5 175.5t48 139.5t55.5 111q-39 108 -58 212.5t-19 219.5q0 137 49.5 228.5t146.5 91.5q95 0 143 -90t48 -221q0 -108 -42 -214t-106 -219q36 -109 61 -172.5t46 -105.5q13 48 18.5 110t5.5 96l138 -22q0 -105 -23.5 -200
t-50.5 -160q15 -22 36.5 -43.5t37.5 -30.5v-230q-21 0 -51.5 24t-58.5 56t-42 56q-34 -61 -74.5 -98.5t-107.5 -37.5zM267 172q30 0 50 24t31 60q-30 65 -59.5 134t-56.5 154q-9 -37 -18.5 -96.5t-9.5 -106.5q0 -64 16.5 -116.5t46.5 -52.5zM266 926q26 56 44.5 122
t18.5 124q0 59 -10.5 100.5t-36.5 41.5q-25 0 -36 -43t-11 -102q0 -62 6.5 -123t24.5 -120z" />
    <glyph glyph-name="quotesingle" unicode="'" horiz-adv-x="242" 
d="M34 932l-18 538h162l-18 -538h-126z" />
    <glyph glyph-name="parenleft" unicode="(" horiz-adv-x="388" 
d="M200 -308q-52 134 -89.5 277.5t-64.5 306.5q-13 81 -19.5 171t-6.5 183q0 182 26.5 352t59.5 296q20 74 45 153.5t47 140.5l122 -106q-40 -100 -70.5 -220.5t-53.5 -273.5q-24 -153 -24 -342q0 -187 23 -340t53 -266q17 -66 35 -122t37 -106z" />
    <glyph glyph-name="parenright" unicode=")" horiz-adv-x="388" 
d="M128 -308l-120 104q41 96 71 221.5t55 272.5q11 75 17.5 162t6.5 178q0 179 -24.5 337t-51.5 269q-16 60 -36 123.5t-38 106.5l122 106q50 -132 87.5 -275.5t64.5 -310.5q14 -82 20 -172.5t6 -183.5q0 -187 -26.5 -354.5t-59.5 -293.5q-18 -69 -41.5 -141t-52.5 -149z
" />
    <glyph glyph-name="asterisk" unicode="*" horiz-adv-x="458" 
d="M138 960l-98 98l94 130l-112 38l28 138l96 -46l-10 152h126l-10 -154l94 48l30 -138l-106 -38l86 -130l-96 -98l-62 122z" />
    <glyph glyph-name="plus" unicode="+" horiz-adv-x="682" 
d="M232 296v338h-206v168h206v338h158v-338h206v-168h-206v-338h-158z" />
    <glyph glyph-name="comma" unicode="," horiz-adv-x="242" 
d="M8 -260l50 260h-50v222h162v-222l-66 -260h-96z" />
    <glyph glyph-name="hyphen" unicode="-" horiz-adv-x="320" 
d="M26 444v190h210v-190h-210z" />
    <glyph glyph-name="period" unicode="." horiz-adv-x="248" 
d="M14 0v222h162v-222h-162z" />
    <glyph glyph-name="slash" unicode="/" horiz-adv-x="482" 
d="M-14 -144l318 1614h132l-314 -1614h-136z" />
    <glyph glyph-name="zero" unicode="0" horiz-adv-x="462" 
d="M232 -16q-78 0 -122 45.5t-62 114t-18 138.5v906q0 76 19.5 144t63.5 111t119 43q80 0 123.5 -49.5t60 -119t16.5 -129.5v-906q0 -76 -18.5 -144t-62 -111t-119.5 -43zM234 194q15 0 23.5 27t8.5 61v906q0 35 -7.5 61.5t-24.5 26.5q-16 0 -25 -26t-9 -62v-906
q0 -40 10.5 -64t23.5 -24z" />
    <glyph glyph-name="one" unicode="1" horiz-adv-x="312" 
d="M106 0v1152h-86v134q51 19 87.5 71t50.5 113h114v-1470h-166z" />
    <glyph glyph-name="two" unicode="2" horiz-adv-x="478" 
d="M40 0v214q45 117 87.5 232t76.5 227.5t54 221t20 211.5q0 72 -6.5 126t-27.5 54q-24 0 -29 -54.5t-5 -125.5v-102h-166v102q0 55 6.5 120.5t26 124.5t60 97t107.5 38q70 0 109.5 -38.5t57.5 -96.5t22.5 -120.5t4.5 -110.5q0 -100 -20.5 -219t-53.5 -243t-70.5 -238.5
t-71.5 -205.5h206v-214h-388z" />
    <glyph glyph-name="three" unicode="3" horiz-adv-x="460" 
d="M234 -16q-59 0 -96 33.5t-58 86t-30.5 113t-11.5 115.5t-2 92h162q0 -44 2 -103t9.5 -103t24.5 -44q16 0 23 36.5t9 84t2 79.5q0 111 -9.5 173t-35 88t-73.5 29v178q48 2 72 40t31.5 95.5t7.5 118.5q0 29 -1.5 75t-8 82.5t-21.5 36.5q-16 0 -23.5 -43.5t-10 -101
t-2.5 -99.5h-164q0 56 5.5 130.5t24.5 145t59 117.5t109 47q61 0 99.5 -34.5t60 -87t30 -108t8.5 -98.5q0 -107 -8.5 -180.5t-30.5 -127t-61 -100.5q51 -34 77.5 -123.5t26.5 -250.5q0 -96 -13.5 -186t-55.5 -148t-127 -58z" />
    <glyph glyph-name="four" unicode="4" horiz-adv-x="505" 
d="M251 0v320h-231v190l218 960h172v-960h75v-190h-75v-320h-159zM162 510h89v460v44h11l-9 -44z" />
    <glyph glyph-name="five" unicode="5" horiz-adv-x="462" 
d="M231 -16q-67 0 -106.5 44t-59 113t-25 145.5t-5.5 141.5h164v-98q0 -70 4.5 -114t25.5 -44q14 0 22 19t11 54t3 83v368q0 47 -5.5 77.5t-26.5 30.5q-24 0 -35 -33t-11 -75h-152v774h356v-214h-195v-321q7 28 26.5 46.5t54.5 18.5q62 0 94 -45t44 -114.5t12 -144.5v-348
q0 -55 -5.5 -118.5t-25 -119t-58.5 -91t-107 -35.5z" />
    <glyph glyph-name="six" unicode="6" horiz-adv-x="470" 
d="M237 -16q-78 0 -122 47.5t-62 117t-18 133.5v868q0 54 7.5 112.5t28 109.5t59.5 82.5t103 31.5q66 0 105 -35t59 -88t26 -110.5t6 -102.5v-64h-160q0 33 -1.5 83.5t-9 89.5t-25.5 39q-16 0 -22.5 -33t-8 -69.5t-1.5 -45.5v-242q4 11 22.5 27.5t47.5 16.5q58 0 91 -27
t48.5 -69t20 -88.5t4.5 -85.5v-400q0 -66 -17 -135t-59.5 -116t-121.5 -47zM237 172q23 0 30.5 28t7.5 59v441q0 29 -6.5 56.5t-30.5 27.5q-22 0 -29.5 -26.5t-7.5 -57.5v-442q0 -31 7 -58.5t29 -27.5z" />
    <glyph glyph-name="seven" unicode="7" horiz-adv-x="404" 
d="M84 0l132 1256h-196v214h364v-216l-130 -1254h-170z" />
    <glyph glyph-name="eight" unicode="8" horiz-adv-x="468" 
d="M224 -16q-71 0 -114 42t-62.5 104.5t-19.5 123.5v312q0 78 25 127t59 83q-34 35 -56 76.5t-22 113.5v284q0 57 18.5 111.5t60 89.5t111.5 35t111.5 -35t60 -89t18.5 -112v-284q0 -72 -19.5 -114.5t-58.5 -75.5q39 -22 61.5 -77t22.5 -133v-312q0 -62 -19.5 -124.5
t-62.5 -104t-114 -41.5zM224 178q12 0 23 19t11 47v78v78v90v90q0 32 -8 58t-26 26t-26 -26t-8 -58v-90v-90v-78v-78q0 -28 11 -47t23 -19zM224 858q12 0 23 19t11 47v68v68v80v80q0 32 -8 57t-26 25t-26 -25t-8 -57v-80v-80v-68v-68q0 -28 11 -47t23 -19z" />
    <glyph glyph-name="nine" unicode="9" horiz-adv-x="480" 
d="M238 1486q79 0 122.5 -47.5t61.5 -116.5t18 -134v-868q0 -54 -7.5 -112.5t-28 -109.5t-59.5 -82.5t-103 -31.5q-66 0 -105 35t-59 88t-26 110.5t-6 102.5v64h160q0 -33 1.5 -83t9 -89.5t25.5 -39.5q16 0 22.5 33.5t8 69.5t1.5 45v242q-4 -10 -22.5 -27t-47.5 -17
q-58 0 -91 27t-48.5 69t-20 88.5t-4.5 85.5v400q0 66 17 135t60 116t121 47zM238 1298q-22 0 -30 -28t-8 -59v-441q0 -28 6.5 -56t30.5 -28q23 0 30 26.5t7 57.5v442q0 32 -6.5 59t-29.5 27z" />
    <glyph glyph-name="colon" unicode=":" horiz-adv-x="272" 
d="M26 872v222h162v-222h-162zM26 0v222h162v-222h-162z" />
    <glyph glyph-name="semicolon" unicode=";" horiz-adv-x="272" 
d="M26 -260l50 260h-50v222h162v-222l-66 -260h-96zM26 872v222h162v-222h-162z" />
    <glyph glyph-name="less" unicode="&#x3c;" horiz-adv-x="680" 
d="M596 144l-570 496v144l570 496v-214l-416 -354l416 -354v-214z" />
    <glyph glyph-name="equal" unicode="=" horiz-adv-x="680" 
d="M26 844v168h570v-168h-570zM26 466v168h570v-168h-570z" />
    <glyph glyph-name="greater" unicode="&#x3e;" horiz-adv-x="680" 
d="M26 144v214l414 354l-414 354v214l570 -496v-144z" />
    <glyph glyph-name="question" unicode="?" horiz-adv-x="474" 
d="M152 396v250q0 72 20 148.5t46.5 153t46.5 148.5t20 135q0 25 -9 42t-32 17q-32 0 -49.5 -38.5t-30.5 -103.5l-124 82q11 72 37.5 128t69.5 88t101 32q74 0 114.5 -42.5t56 -103t15.5 -114.5q0 -78 -21 -142t-49 -127t-49 -135.5t-21 -167.5v-250h-142zM144 0v222h162
v-222h-162z" />
    <glyph glyph-name="at" unicode="@" horiz-adv-x="695" 
d="M348 -16q-84 0 -154 40t-112 110.5t-42 161.5v868q0 96 41.5 168.5t111.5 113t155 40.5q87 0 156.5 -41t110 -113.5t40.5 -167.5v-774h-144l-17 54q-31 -66 -93 -66q-67 0 -98 49t-31 119v474q0 68 31 117t98 49q36 0 59.5 -20.5t33.5 -45.5v44q0 70 -41 112t-105 42
t-105.5 -44t-41.5 -110v-868q0 -67 42 -108.5t105 -41.5q54 0 86 16t51 46l125 -84q-34 -54 -95 -97t-167 -43zM454 508q40 0 40 52v444q0 52 -40 52q-39 0 -39 -52v-444q0 -52 39 -52z" />
    <glyph glyph-name="A" unicode="A" horiz-adv-x="520" 
d="M20 0l144 1470h194l142 -1470h-172l-22 300h-92l-22 -300h-172zM227 506h68l-33 575v31h-4v-31z" />
    <glyph glyph-name="B" unicode="B" horiz-adv-x="506" 
d="M40 0v1470h146q91 0 145 -49t77.5 -134.5t23.5 -196.5q0 -97 -17 -184t-75 -130q56 -38 76 -132.5t20 -227.5q0 -119 -25.5 -213t-76 -148.5t-126.5 -54.5h-168zM206 214q36 0 49 63t13 163q0 98 -12.5 162t-49.5 64v-452zM206 864q37 0 47 59.5t10 136.5
q0 83 -9.5 139.5t-47.5 56.5v-392z" />
    <glyph glyph-name="C" unicode="C" horiz-adv-x="454" 
d="M226 -16q-78 0 -120.5 47.5t-59 116.5t-16.5 134v906q0 65 18 134t60.5 116.5t117.5 47.5q60 0 98.5 -31t60.5 -79t30.5 -98.5t8.5 -89.5v-222h-162v230q0 24 -4.5 52t-27.5 28q-22 0 -26 -28t-4 -52v-922q0 -24 4.5 -52t25.5 -28q23 0 27.5 28t4.5 52v230h162v-222
q0 -77 -18 -145t-61 -110.5t-119 -42.5z" />
    <glyph glyph-name="D" unicode="D" horiz-adv-x="516" 
d="M40 0v1470h128q89 0 144 -50.5t84 -146.5t39.5 -232t10.5 -307q0 -178 -12.5 -314.5t-43 -230t-84 -141.5t-135.5 -48h-131zM206 216q33 0 47.5 64.5t18.5 181t4 271.5t-4 272.5t-18.5 183t-47.5 65.5v-1038z" />
    <glyph glyph-name="E" unicode="E" horiz-adv-x="412" 
d="M40 0v1470h332v-222h-166v-396h130v-216h-130v-414h166v-222h-332z" />
    <glyph glyph-name="F" unicode="F" 
d="M40 0v1470h344v-222h-178v-386h120v-222h-120v-640h-166z" />
    <glyph glyph-name="G" unicode="G" horiz-adv-x="466" 
d="M202 -16q-74 0 -111 46.5t-49 115.5t-12 136v906q0 66 18.5 135t61.5 116t118 47q60 0 98.5 -29.5t60.5 -75.5t30.5 -97.5t8.5 -95.5v-246h-166v254q0 25 -5 52.5t-27 27.5q-21 0 -25.5 -27t-4.5 -53v-940q0 -32 6.5 -56t28.5 -24q24 0 31.5 25.5t7.5 54.5v274h-36v202
h190v-732h-86l-18 54q-13 -34 -45.5 -52t-74.5 -18z" />
    <glyph glyph-name="H" unicode="H" horiz-adv-x="476" 
d="M40 0v1470h166v-608h64v608h166v-1470h-166v640h-64v-640h-166z" />
    <glyph glyph-name="I" unicode="I" horiz-adv-x="246" 
d="M40 0v1470h166v-1470h-166z" />
    <glyph glyph-name="J" unicode="J" horiz-adv-x="280" 
d="M0 -12v216q10 -2 15 -2q39 0 49 38t10 66v1164h166v-1198q0 -80 -17.5 -145.5t-62 -104t-125.5 -38.5q-7 0 -16.5 0.5t-18.5 3.5z" />
    <glyph glyph-name="K" unicode="K" horiz-adv-x="520" 
d="M40 0v1470h160v-490v-24h6l7 24l125 490h164l-140 -495l160 -975h-165l-107 660h-4l-46 -160v-500h-160z" />
    <glyph glyph-name="L" unicode="L" horiz-adv-x="424" 
d="M40 0v1470h166v-1270h172v-200h-338z" />
    <glyph glyph-name="M" unicode="M" horiz-adv-x="610" 
d="M40 0v1470h199l61 -676l3 -88h4l3 88l61 676h199v-1470h-159v744h-3l-1 -34l-56 -710h-90l-58 710l-1 34h-3v-744h-159z" />
    <glyph glyph-name="N" unicode="N" horiz-adv-x="494" 
d="M40 0v1470h150l97 -636l10 -88h3v724h154v-1470h-140l-106 630l-11 114h-3v-744h-154z" />
    <glyph glyph-name="O" unicode="O" horiz-adv-x="462" 
d="M232 -16q-75 0 -119 43t-63.5 111t-19.5 144v906q0 73 19.5 141t63.5 112.5t119 44.5q80 0 123.5 -44.5t60 -112.5t16.5 -141v-906q0 -76 -19 -144t-62.5 -111t-118.5 -43zM234 194q23 0 27.5 27t4.5 61v906q0 35 -4.5 61.5t-27.5 26.5q-22 0 -28 -26t-6 -62v-906
q0 -40 6 -64t28 -24z" />
    <glyph glyph-name="P" unicode="P" horiz-adv-x="492" 
d="M40 0v1470h158q90 0 144 -62t78 -162.5t24 -215.5q0 -118 -20.5 -217.5t-72 -160.5t-145.5 -64v-588h-166zM206 808q32 0 46 31.5t18 82t4 108.5t-4 109t-18 83t-46 32v-446z" />
    <glyph glyph-name="Q" unicode="Q" horiz-adv-x="470" 
d="M440 -112q-70 0 -109 33.5t-56 75.5q-14 -7 -33 -10t-34 -3q-70 0 -108.5 44t-54 112.5t-15.5 141.5v906q0 75 17.5 143t59.5 111.5t117 43.5t118.5 -43.5t62.5 -111.5t19 -143v-906q0 -48 -8.5 -92t-23.5 -86q5 -21 18 -28.5t30 -7.5v-180zM226 194q17 0 22.5 26t5.5 62
v906q0 37 -5.5 62.5t-22.5 25.5q-16 0 -21 -26t-5 -62v-906q0 -36 5 -62t21 -26z" />
    <glyph glyph-name="R" unicode="R" horiz-adv-x="474" 
d="M40 0v1470h158q117 0 173.5 -107.5t56.5 -316.5q0 -105 -18.5 -196t-57.5 -138l102 -712h-172l-71 640h-5v-640h-166zM206 810q27 0 40.5 33.5t18.5 86t5 108.5q0 84 -12 151t-52 67v-446z" />
    <glyph glyph-name="S" unicode="S" horiz-adv-x="472" 
d="M210 -16q-66 0 -106.5 37.5t-62 99.5t-29.5 137.5t-8 151.5l162 24q0 -17 1 -57.5t5 -85.5t13 -77t25 -32q23 0 28.5 36t5.5 106q0 86 -24 176.5t-86 213.5q-30 61 -57 137t-44 152.5t-17 138.5q0 56 8 116t28.5 111.5t58 84t97.5 32.5q72 0 112.5 -34.5t59.5 -91.5
t23.5 -125.5t4.5 -136.5l-164 -24q0 20 -0.5 55t-3.5 71.5t-9.5 62t-18.5 25.5q-18 0 -23 -40.5t-5 -105.5q0 -72 24 -155.5t74 -190.5q62 -130 96 -235.5t34 -216.5q0 -52 -7.5 -114.5t-29 -118t-61 -91.5t-104.5 -36z" />
    <glyph glyph-name="T" unicode="T" horiz-adv-x="450" 
d="M142 0v1248h-122v222h410v-222h-122v-1248h-166z" />
    <glyph glyph-name="U" unicode="U" horiz-adv-x="474" 
d="M238 -16q-80 0 -123 39.5t-59 107.5t-16 151v1188h166v-1188q0 -42 6.5 -65t25.5 -23q18 0 24 23.5t6 64.5v1188h166v-1188q0 -83 -15.5 -150.5t-58 -107.5t-122.5 -40z" />
    <glyph glyph-name="V" unicode="V" horiz-adv-x="466" 
d="M151 0l-136 1470h162l51 -735l1 -97h8l1 96l51 736h162l-136 -1470h-164z" />
    <glyph glyph-name="W" unicode="W" horiz-adv-x="689" 
d="M126 0l-111 1470h163l26 -764l3 -48h11l4 48l51 764h143l51 -764l5 -48h10l2 48l27 764h163l-112 -1470h-151l-55 696l-9 86h-5l-8 -86l-57 -696h-151z" />
    <glyph glyph-name="X" unicode="X" horiz-adv-x="499" 
d="M15 0l142 772l-139 698h164l61 -402l4 -68h5l4 68l61 402h164l-139 -698l142 -772h-165l-64 468l-3 68h-5l-3 -68l-65 -468h-164z" />
    <glyph glyph-name="Y" unicode="Y" horiz-adv-x="522" 
d="M180 0v626l-165 844h178l60 -470l5 -64h5l6 64l58 470h180l-165 -844v-626h-162z" />
    <glyph glyph-name="Z" unicode="Z" horiz-adv-x="410" 
d="M15 0v232l202 1024h-174v214h352v-214l-208 -1042h208v-214h-380z" />
    <glyph glyph-name="bracketleft" unicode="[" horiz-adv-x="376" 
d="M30 -376v1846h270v-192h-118v-1462h118v-192h-270z" />
    <glyph glyph-name="backslash" unicode="\" horiz-adv-x="524" 
d="M344 -176l-358 1828h132l360 -1828h-134z" />
    <glyph glyph-name="bracketright" unicode="]" horiz-adv-x="376" 
d="M16 -376v192h118v1462h-118v192h270v-1846h-270z" />
    <glyph glyph-name="asciicircum" unicode="^" horiz-adv-x="706" 
d="M14 790l222 680h174l222 -680h-152l-158 476l-156 -476h-152z" />
    <glyph glyph-name="underscore" unicode="_" horiz-adv-x="708" 
d="M26 -318v168h598v-168h-598z" />
    <glyph glyph-name="grave" unicode="`" horiz-adv-x="660" 
d="M439 1224h-120l-144 180h161z" />
    <glyph glyph-name="a" unicode="a" horiz-adv-x="444" 
d="M154 -16q-64 0 -99 87t-35 213q0 114 39.5 203t122.5 161q20 17 40 39.5t24 38.5v118q0 26 -3.5 59t-22.5 33q-20 0 -24 -34.5t-4 -57.5v-72h-152v76q0 61 19 121.5t60 100.5t107 40q61 0 98 -40.5t53.5 -98.5t16.5 -109v-712q0 -55 3 -92.5t7 -57.5h-134q-3 5 -11 25.5
t-8 40.5h-5q-12 -31 -34 -56.5t-58 -25.5zM207 174q20 0 28.5 23t8.5 51v254q-27 -34 -48.5 -92t-21.5 -124q0 -46 7 -79t26 -33z" />
    <glyph glyph-name="b" unicode="b" 
d="M298 -16q-39 0 -65.5 34t-34.5 52l-10 -70h-148v1470h158v-422q12 20 38 41t54 21q46 0 70 -34.5t33 -84.5t9 -95v-698q0 -39 -9.5 -89t-32 -87.5t-62.5 -37.5zM226 174q17 0 22.5 23t5.5 53v612q0 29 -7 50.5t-21 21.5q-15 0 -21.5 -24t-6.5 -48v-612q0 -28 6.5 -52
t21.5 -24z" />
    <glyph glyph-name="c" unicode="c" 
d="M216 -15q-97 0 -141.5 76t-44.5 178v617q0 102 44.5 178t141.5 76q98 0 142 -73.5t44 -180.5v-146h-152v144q0 38 -4.5 59t-25.5 21t-26.5 -21t-5.5 -59v-613q0 -37 5.5 -58.5t26.5 -21.5t25.5 21.5t4.5 58.5v144h152v-146q0 -106 -44 -180t-142 -74z" />
    <glyph glyph-name="d" unicode="d" 
d="M134 -16q-40 0 -62.5 37.5t-32 87.5t-9.5 89v698q0 45 8.5 95t30.5 84.5t63 34.5q29 0 59.5 -21t42.5 -41v422h158v-1470h-148l-10 70q-7 -18 -34 -52t-66 -34zM206 174q15 0 21.5 24t6.5 52v612q0 24 -6.5 48t-21.5 24q-13 0 -20.5 -21.5t-7.5 -50.5v-612q0 -30 6 -53
t22 -23z" />
    <glyph glyph-name="e" unicode="e" 
d="M214 -16q-97 0 -140.5 71t-43.5 192v589q0 113 43.5 193.5t140.5 80.5q65 0 106.5 -38t61.5 -100.5t20 -135.5v-326h-218v-268q0 -37 5.5 -58.5t26.5 -21.5q22 0 29 22t7 59v149h150v-148q0 -121 -45 -190.5t-143 -69.5zM184 668h68v184q0 41 -5 61.5t-31 20.5
q-19 0 -25.5 -21.5t-6.5 -60.5v-184z" />
    <glyph glyph-name="f" unicode="f" horiz-adv-x="317" 
d="M67 0v912h-57v182h57v114q0 138 42 204t114 66q20 0 43 -4.5t41 -15.5v-166q-16 10 -33 10q-29 0 -40 -27.5t-11 -74.5v-106h72v-182h-72v-912h-156z" />
    <glyph glyph-name="g" unicode="g" horiz-adv-x="478" 
d="M222 -392q-69 0 -118.5 28t-76.5 74t-27 100q0 48 17.5 84.5t44 62t52.5 39.5q-40 20 -62 47t-22 79q0 45 25.5 85.5t56.5 68.5q-30 24 -53 66.5t-23 141.5v368q0 117 48.5 187.5t133.5 70.5q45 0 75.5 -17.5t48.5 -50.5q26 30 56 49t70 19v-180q-28 0 -47 -6.5
t-27 -17.5q3 -6 5.5 -22.5t2.5 -25.5v-380q0 -102 -47 -171t-127 -69q-20 0 -30 5q-4 -7 -8 -18.5t-4 -26.5q0 -37 27.5 -52t64.5 -24q80 -20 135 -68.5t55 -155.5q0 -73 -27.5 -139.5t-82 -108.5t-136.5 -42zM224 -222q33 0 53.5 23.5t20.5 60.5q0 44 -17 63.5t-37 25.5
l-48 15q-13 -15 -23.5 -44t-10.5 -68q0 -31 14.5 -53.5t47.5 -22.5zM220 406q21 0 24.5 29.5t3.5 58.5v350q0 33 -3.5 61.5t-24.5 28.5t-24.5 -28.5t-3.5 -61.5v-350q0 -28 3.5 -58t24.5 -30z" />
    <glyph glyph-name="h" unicode="h" horiz-adv-x="435" 
d="M40 0v1470h158v-422q16 20 48 41t57 21q50 0 71.5 -39.5t26 -90.5t4.5 -84v-896h-150v862q0 18 -4 45t-19 27q-16 0 -25 -26t-9 -46v-862h-158z" />
    <glyph glyph-name="i" unicode="i" horiz-adv-x="238" 
d="M40 0v1094h158v-1094h-158zM40 1268v202h158v-202h-158z" />
    <glyph glyph-name="j" unicode="j" horiz-adv-x="224" 
d="M26 -376q-16 0 -31.5 3t-38.5 13v182q3 -2 13 -7t20 -5q18 0 26 21t9.5 49t1.5 48v1166h158v-1122q0 -87 -10 -167t-43.5 -130.5t-104.5 -50.5zM26 1268v202h158v-202h-158z" />
    <glyph glyph-name="k" unicode="k" horiz-adv-x="458" 
d="M40 0v1470h152v-662v-36h8l9 36l74 286h144l-107 -356l128 -738h-153l-76 442l-1 16h-2l-24 -90v-368h-152z" />
    <glyph glyph-name="l" unicode="l" horiz-adv-x="238" 
d="M40 0v1470h158v-1470h-158z" />
    <glyph glyph-name="m" unicode="m" horiz-adv-x="646" 
d="M40 0v1094h158v-58q18 30 49 52t59 22q33 0 53 -25t23 -55q15 33 53 56.5t71 23.5q50 0 71 -39.5t25 -90.5t4 -84v-896h-146v862q0 32 -6.5 52t-23.5 20q-16 0 -23 -27t-7 -45v-862h-144v866q0 32 -7.5 50t-22.5 18q-13 0 -20.5 -21.5t-7.5 -50.5v-862h-158z" />
    <glyph glyph-name="n" unicode="n" horiz-adv-x="452" 
d="M40 0v1094h158v-56q15 23 48 47.5t58 24.5q50 0 73 -39.5t29 -90.5t6 -84v-896h-156v864q0 32 -7.5 51t-22.5 19t-21.5 -20t-6.5 -52v-862h-158z" />
    <glyph glyph-name="o" unicode="o" horiz-adv-x="430" 
d="M215 -14q-97 0 -141 74t-44 188v600q0 114 44 188t141 74q98 0 141.5 -74t43.5 -188v-600q0 -114 -43.5 -188t-141.5 -74zM216 162q22 0 28 23.5t6 68.5v588q0 45 -6 68.5t-28 23.5t-29 -23.5t-7 -68.5v-588q0 -45 7 -68.5t29 -23.5z" />
    <glyph glyph-name="p" unicode="p" horiz-adv-x="442" 
d="M40 -376v1470h158v-56q17 26 52 49t62 23q37 0 58.5 -26t31.5 -72t10 -106v-708q0 -39 -7 -89t-30.5 -87.5t-72.5 -37.5q-27 0 -58 23.5t-46 56.5v-440h-158zM233 174q15 0 19 16.5t4 49.5v620q0 29 -3 51.5t-20 22.5q-16 0 -25.5 -17.5t-9.5 -46.5v-635q0 -34 10 -47.5
t25 -13.5z" />
    <glyph glyph-name="q" unicode="q" horiz-adv-x="442" 
d="M244 -376v440q-15 -33 -46 -56.5t-58 -23.5q-49 0 -72.5 37.5t-30.5 87.5t-7 89v708q0 60 10 106t32 72t58 26q27 0 62.5 -23t51.5 -49v56h158v-1470h-158zM209 174q15 0 25 13.5t10 47.5v635q0 29 -9 46.5t-26 17.5q-16 0 -19.5 -22.5t-3.5 -51.5v-620q0 -33 4 -49.5
t19 -16.5z" />
    <glyph glyph-name="r" unicode="r" horiz-adv-x="343" 
d="M40 0v1094h154v-87q11 19 29.5 43t44.5 42t60 18v-240q-9 4 -18 5.5t-19 1.5q-36 0 -66.5 -33t-30.5 -84v-760h-154z" />
    <glyph glyph-name="s" unicode="s" horiz-adv-x="408" 
d="M202 -16q-64 0 -100.5 31t-54 80.5t-22.5 108.5t-5 114h144q0 -67 8.5 -116.5t29.5 -49.5t26.5 33.5t5.5 88.5q0 53 -25.5 109t-61.5 116q-46 78 -79.5 161.5t-33.5 189.5q0 105 44 182.5t134 77.5q62 0 97.5 -30.5t52 -77t21.5 -97t5 -91.5h-136q0 56 -6 92t-29 36
q-18 0 -26.5 -33.5t-8.5 -80.5q0 -64 22.5 -121t49.5 -99q42 -66 86 -156t44 -204q0 -35 -7 -80t-25.5 -87t-54.5 -69.5t-95 -27.5z" />
    <glyph glyph-name="t" unicode="t" horiz-adv-x="384" 
d="M275 -16q-63 0 -103 37t-59 110t-19 181v600h-84v182h84v270h166v-270h114v-182h-114v-609q0 -64 10.5 -94.5t46.5 -30.5q15 0 27 3t19 7v-185q-16 -8 -35 -13.5t-53 -5.5z" />
    <glyph glyph-name="u" unicode="u" horiz-adv-x="452" 
d="M148 -16q-50 0 -73 39.5t-29 90.5t-6 84v896h156v-864q0 -31 7.5 -50.5t22.5 -19.5t21.5 20.5t6.5 51.5v862h158v-1094h-158v56q-15 -22 -47.5 -47t-58.5 -25z" />
    <glyph glyph-name="v" unicode="v" horiz-adv-x="400" 
d="M121 0l-116 1094h148l42 -620l2 -62h4l2 62l44 620h148l-118 -1094h-156z" />
    <glyph glyph-name="w" unicode="w" horiz-adv-x="552" 
d="M93 0l-88 1094h152l16 -468l2 -84h4l4 84l46 468h96l44 -468l4 -84h4l2 84l16 468h152l-86 -1094h-140l-41 499l-3 71h-4l-3 -71l-39 -499h-138z" />
    <glyph glyph-name="x" unicode="x" horiz-adv-x="410" 
d="M15 0l102 564l-112 530h158l30 -231l8 -83h4l8 83l34 231h158l-114 -530l102 -564h-156l-25 244l-7 92h-4l-7 -92l-21 -244h-158z" />
    <glyph glyph-name="y" unicode="y" horiz-adv-x="430" 
d="M84 -396q-13 0 -26 2.5t-27 7.5v178q8 -4 16 -5.5t15 -1.5q12 0 22 4t17 14q23 36 29.5 82t6.5 83l-132 1126h154l52 -602l4 -94h4l3 94l47 602h156l-136 -1176q-9 -80 -32 -152t-64.5 -117t-108.5 -45z" />
    <glyph glyph-name="z" unicode="z" horiz-adv-x="410" 
d="M40 0v164l166 746h-140v184h304v-164l-166 -746h166v-184h-330z" />
    <glyph glyph-name="braceleft" unicode="{" horiz-adv-x="464" 
d="M388 -442q-132 0 -194.5 41.5t-81 122t-18.5 196.5v388q0 43 -18.5 89.5t-57.5 46.5v160q41 0 58.5 47t17.5 89v388q0 121 21 201t84 119.5t189 39.5v-168q-67 0 -97 -25t-37.5 -68.5t-7.5 -98.5v-388q0 -72 -29 -137t-71 -79q44 -28 72 -86.5t28 -129.5v-388
q0 -63 9 -105.5t39 -64.5t94 -22v-168z" />
    <glyph glyph-name="bar" unicode="|" horiz-adv-x="268" 
d="M30 -500v2152h148v-2152h-148z" />
    <glyph glyph-name="braceright" unicode="}" horiz-adv-x="464" 
d="M76 -442v168q64 0 94 22t39 64.5t9 105.5v388q0 71 28.5 129.5t71.5 86.5q-42 14 -71 79t-29 137v388q0 55 -7.5 98.5t-37.5 68.5t-97 25v168q126 0 189 -39.5t84 -119.5t21 -201v-388q0 -42 18 -89t58 -47v-160q-39 0 -57.5 -46.5t-18.5 -89.5v-388q0 -116 -18.5 -196.5
t-81 -122t-194.5 -41.5z" />
    <glyph glyph-name="asciitilde" unicode="~" horiz-adv-x="788" 
d="M162 1246l-112 80q14 71 42 138.5t71 111.5t101 44q44 0 85.5 -24t88.5 -76q26 -28 49 -49t41 -21q20 0 39 36t34 82t23 76l114 -78q-17 -75 -45 -142.5t-68.5 -110.5t-96.5 -43q-58 0 -97.5 30.5t-72.5 67.5q-25 29 -49.5 50.5t-44.5 21.5q-21 0 -42 -32t-37 -77
t-23 -85z" />
    <glyph glyph-name="uni0093" horiz-adv-x="464" 
d="M230 988v222l66 260h96l-42 -260h42v-222h-162zM14 988v222l66 260h96l-42 -260h42v-222h-162z" />
    <glyph glyph-name="uni0094" horiz-adv-x="456" 
d="M230 988l42 260h-42v222h162v-222l-66 -260h-96zM14 988l42 260h-42v222h162v-222l-66 -260h-96z" />
    <glyph glyph-name="uni00A0" unicode="&#xa0;" horiz-adv-x="216" 
 />
    <glyph glyph-name="exclamdown" unicode="&#xa1;" horiz-adv-x="256" 
d="M40 -376l32 1074h112l32 -1074h-176zM46 872v222h162v-222h-162z" />
    <glyph glyph-name="cent" unicode="&#xa2;" 
d="M158 -120v294q-55 19 -82.5 66t-36.5 109.5t-9 128.5v518q0 102 24.5 186.5t103.5 111.5v236h108v-234q65 -13 93.5 -58t35.5 -107t7 -125v-106h-152v144q0 50 -8 65t-22 15q-13 0 -22.5 -17.5t-9.5 -62.5v-602q0 -30 7.5 -58t22.5 -28t23.5 18.5t8.5 67.5v152h152v-126
q0 -69 -8 -130t-37 -103.5t-91 -56.5v-298h-108z" />
    <glyph glyph-name="sterling" unicode="&#xa3;" horiz-adv-x="587" 
d="M138 -16l-108 78q23 80 59 138t83 70q11 47 18 99.5t7 94.5q0 38 -6 81t-15 89h-127v134h99q-19 73 -37.5 163.5t-18.5 190.5q0 103 23.5 185t69 130.5t112.5 48.5q118 0 167 -104.5t49 -287.5h-163q0 83 -8 137.5t-42 54.5q-32 0 -40 -44.5t-8 -119.5q0 -102 19.5 -194
t38.5 -160h115v-134h-90q8 -49 11.5 -84t3.5 -77q0 -32 -8.5 -75t-20.5 -83.5t-25 -64.5q11 0 23 -14.5l24 -29t22 -14.5q15 0 24.5 29t15 72t6.5 85l146 -22q-8 -184 -55.5 -278t-113.5 -94q-30 0 -63 25t-64 50t-56 25q-26 0 -42.5 -32.5t-24.5 -67.5z" />
    <glyph glyph-name="currency" unicode="&#xa4;" horiz-adv-x="632" 
d="M123 323l-48 69l65 91q-41 79 -41 178q0 98 41 177l-64 90l48 69l65 -91q57 57 127 57q69 0 126 -57l66 92l49 -69l-66 -92q41 -77 41 -176q0 -100 -41 -177l66 -92l-48 -69l-66 92q-57 -57 -127 -57t-127 57zM316 507q46 0 78 45t32 109t-32.5 108.5t-77.5 44.5
q-46 0 -78 -44.5t-32 -108.5t32 -109t78 -45z" />
    <glyph glyph-name="yen" unicode="&#xa5;" horiz-adv-x="532" 
d="M71 465h377v-133h-377v133zM71 731h377v-133h-377v133zM185 0v626l-165 844h178l60 -470l5 -64h5l6 64l58 470h180l-165 -844v-626h-162z" />
    <glyph glyph-name="brokenbar" unicode="&#xa6;" horiz-adv-x="268" 
d="M60 -500v893h148v-893h-148zM60 759v893h148v-893h-148z" />
    <glyph glyph-name="section" unicode="&#xa7;" horiz-adv-x="480" 
d="M414 625q0 -158 -81 -227q27 -64 39 -118.5t12 -111.5q0 -122 -49 -193t-133 -71q-91 0 -136.5 84t-45.5 250h144q0 -79 10 -122.5t28 -43.5q32 0 32 118q0 38 -5 66t-22.5 68.5t-54.5 115.5q-63 125 -87.5 198t-24.5 132q0 91 21.5 146.5t67.5 88.5q-34 74 -46.5 120.5
t-12.5 101.5q0 126 44.5 193t127.5 67q85 0 130.5 -77t45.5 -219h-136q0 52 -11 90t-25 38q-13 0 -20.5 -31.5t-7.5 -82.5q0 -37 5.5 -66t22 -63.5t48.5 -88.5q42 -70 68.5 -131.5t39 -117.5t12.5 -113zM203 853q-4 -6 -7.5 -21.5t-5.5 -37t-2 -46.5q0 -54 13 -92.5
t53 -109.5q5 11 7.5 40t2.5 61q0 33 -4.5 59t-17.5 59.5t-39 87.5z" />
    <glyph glyph-name="dieresis" unicode="&#xa8;" horiz-adv-x="660" 
d="M381 1216v196h142v-196h-142zM166 1216v196h142v-196h-142z" />
    <glyph glyph-name="copyright" unicode="&#xa9;" horiz-adv-x="1282" 
d="M640 -16q-136 0 -246.5 58.5t-189.5 161.5t-121.5 239t-42.5 291q0 157 42.5 293.5t122 239.5t190 161t245.5 58q137 0 248 -58.5t190 -161.5t121.5 -239.5t42.5 -292.5q0 -155 -42.5 -291t-121.5 -239t-190 -161.5t-248 -58.5zM638 284q-74 0 -115.5 55t-41.5 137v518
q0 85 42 138.5t115 53.5q70 0 111.5 -56t41.5 -136v-122h-112v122q0 26 -8.5 44t-31.5 18q-20 0 -30 -20.5t-10 -41.5v-518q0 -62 40 -62q23 0 31.5 18.5t8.5 43.5v122h112v-122q0 -82 -41.5 -137t-111.5 -55zM640 100q111 0 201 49.5t153.5 136.5t97.5 202t34 246
q0 132 -33.5 247.5t-96.5 202.5t-153 136.5t-203 49.5t-202.5 -50t-152.5 -138.5t-96 -203.5t-33 -244t34 -244t97.5 -202.5t152.5 -137.5t200 -50z" />
    <glyph glyph-name="ordfeminine" unicode="&#xaa;" horiz-adv-x="273" 
d="M67 539q-57 0 -57 135q0 133 76 197q19 17 32 39v59q0 46 -13 46q-7 0 -10.5 -21t-3.5 -61h-76v33q0 58 27 97t66 39q37 0 60.5 -34.5t23.5 -89.5v-336q0 -22 1 -42.5t4 -52.5h-67q-2 5 -6.5 17.5t-4.5 15.5h-1q-15 -41 -51 -41zM96 634q8 0 14.5 11.5t6.5 25.5v127
q-14 -17 -24.5 -53t-10.5 -70q0 -41 14 -41z" />
    <glyph glyph-name="guillemotleft" unicode="&#xab;" horiz-adv-x="503" 
d="M443 204l-163 265v152l163 265v-201l-119 -200v120l119 -200v-201zM223 204l-163 265v152l163 265v-201l-119 -200v120l119 -200v-201z" />
    <glyph glyph-name="logicalnot" unicode="&#xac;" horiz-adv-x="682" 
d="M458 296v338h-432v168h570v-506h-138z" />
    <glyph glyph-name="uni00AD" unicode="&#xad;" horiz-adv-x="320" 
d="M26 444v190h210v-190h-210z" />
    <glyph glyph-name="registered" unicode="&#xae;" horiz-adv-x="1282" 
d="M640 -16q-136 0 -246.5 58.5t-189.5 161.5t-121.5 239t-42.5 291q0 157 42.5 293.5t122 239.5t190 161t245.5 58q137 0 248 -58.5t190 -161.5t121.5 -239.5t42.5 -292.5q0 -155 -42.5 -291t-121.5 -239t-190 -161.5t-248 -58.5zM640 100q111 0 201 49.5t153.5 136.5
t97.5 202t34 246q0 132 -33.5 247.5t-96.5 202.5t-153 136.5t-203 49.5t-202.5 -50t-152.5 -138.5t-96 -203.5t-33 -244t34 -244t97.5 -202.5t152.5 -137.5t200 -50zM470 306v858h164q103 0 148.5 -66.5t45.5 -185.5q0 -64 -11 -115t-63 -101l89 -390h-126l-79 356h-46v-356
h-122zM592 786h37q53 0 70 40q8 18 10 40t2 44q0 23 -2 45.5t-10 40.5q-7 18 -25 30t-45 12h-37v-252z" />
    <glyph glyph-name="macron" unicode="&#xaf;" horiz-adv-x="660" 
d="M197 1235v148h306v-148h-306z" />
    <glyph glyph-name="degree" unicode="&#xb0;" horiz-adv-x="244" 
d="M138 1168q-45 0 -76.5 39.5t-31.5 100.5q0 62 31.5 101t76.5 39q44 0 75 -39t31 -101q0 -61 -31 -100.5t-75 -39.5zM138 1244q9 0 19.5 18t10.5 46q0 29 -10.5 45.5t-19.5 16.5q-10 0 -20 -16.5t-10 -45.5q0 -28 10 -46t20 -18z" />
    <glyph glyph-name="plusminus" unicode="&#xb1;" horiz-adv-x="680" 
d="M271 296v338h-216v168h216v338h138v-338h216v-168h-216v-338h-138zM55 0v168h570v-168h-570z" />
    <glyph glyph-name="uni00B2" unicode="&#xb2;" horiz-adv-x="498" 
d="M100 600v117q60 92 99.5 195t59 193t19.5 139q0 32 -6.5 46.5t-17.5 14.5q-20 0 -23.5 -37.5t-3.5 -61.5v-55h-123v55q0 98 39 153.5t115 55.5q66 0 103 -44t37 -130q0 -62 -20 -139t-56 -172t-86 -213h155v-117h-291z" />
    <glyph glyph-name="uni00B3" unicode="&#xb3;" horiz-adv-x="500" 
d="M247 591q-142 0 -142 242h121q0 -73 7 -105.5t22 -32.5q14 0 19 24t5 84q0 68 -6 101.5t-25 45.5t-58 14v99q37 7 54.5 19t23 42t5.5 90q0 56 -4.5 77t-16.5 21q-16 0 -22.5 -31t-6.5 -108h-123q0 242 154 242q71 0 107 -46.5t36 -136.5q0 -61 -17.5 -109t-57.5 -90
q39 -32 58.5 -85t19.5 -127q0 -108 -40.5 -169t-112.5 -61z" />
    <glyph glyph-name="acute" unicode="&#xb4;" horiz-adv-x="660" 
d="M242 1224l103 180h161l-144 -180h-120z" />
    <glyph glyph-name="uni00B5" unicode="&#xb5;" horiz-adv-x="466" 
d="M22 -376v1470h158v-864q0 -70 30 -70q14 0 21 18.5t7 53.5v862h158v-1094h-158v56q-10 -15 -25.5 -29t-32.5 -25v-378h-158z" />
    <glyph glyph-name="paragraph" unicode="&#xb6;" horiz-adv-x="725" 
d="M269 -300v888q-115 4 -171.5 113.5t-56.5 328.5q0 220 56.5 330t169.5 110h168v-1770h-166zM499 -300l-2 1770h168v-1770h-166z" />
    <glyph glyph-name="periodcentered" unicode="&#xb7;" horiz-adv-x="186" 
d="M-18 634v222h162v-222h-162z" />
    <glyph glyph-name="cedilla" unicode="&#xb8;" horiz-adv-x="660" 
d="M403 -69q28 0 59 -25.5t31 -95.5q0 -65 -25 -106.5t-63.5 -60.5t-79.5 -19q-35 0 -72 15.5t-54 34.5l35 92q12 -13 41 -28t57 -15q29 0 49 20t20 57q0 31 -11 44t-23 13q-30 0 -42 -34l-72 36l39 141h78l-31 -108h-6q5 22 24 30.5t46 8.5z" />
    <glyph glyph-name="uni00B9" unicode="&#xb9;" horiz-adv-x="389" 
d="M165 600v629h-65v76q24 7 47 22t36 34q11 15 21 42h85v-803h-124z" />
    <glyph glyph-name="ordmasculine" unicode="&#xba;" horiz-adv-x="326" 
d="M163 920q-65 0 -94 49.5t-29 125.5v210q0 76 29 125.5t94 49.5t94 -49.5t29 -125.5v-210q0 -76 -29 -125.5t-94 -49.5zM164 1038q14 0 18 15.5t4 45.5v202q0 30 -4 45.5t-18 15.5q-15 0 -19.5 -15.5t-4.5 -45.5v-202q0 -30 4.5 -45.5t19.5 -15.5z" />
    <glyph glyph-name="guillemotright" unicode="&#xbb;" horiz-adv-x="503" 
d="M60 204v201l119 200v-120l-119 200v201l163 -265v-152zM280 204v201l119 200v-120l-119 200v201l163 -265v-152z" />
    <glyph glyph-name="onequarter" unicode="&#xbc;" horiz-adv-x="1486" 
d="M165 600v629h-65v76q24 7 47 22t36 34q11 15 21 42h85v-803h-124zM189 0l894 1470h132l-889 -1470h-137zM1234 0v175h-169v103l154 525h122v-525h45v-103h-45v-175h-107zM1170 278h67v285h-1l-1 -28z" />
    <glyph glyph-name="onehalf" unicode="&#xbd;" horiz-adv-x="1513" 
d="M165 600v629h-65v76q24 7 47 22t36 34q11 15 21 42h85v-803h-124zM189 0l894 1470h132l-889 -1470h-137zM1115 0v117q60 92 99.5 195t59 193t19.5 139q0 32 -6.5 46.5t-17.5 14.5q-20 0 -23.5 -37.5t-3.5 -61.5v-55h-123v55q0 98 39 153.5t115 55.5q66 0 103 -44t37 -130
q0 -62 -20 -139t-56 -172t-86 -213h155v-117h-291z" />
    <glyph glyph-name="threequarters" unicode="&#xbe;" horiz-adv-x="1597" 
d="M247 591q-142 0 -142 242h121q0 -73 7 -105.5t22 -32.5q14 0 19 24t5 84q0 68 -6 101.5t-25 45.5t-58 14v99q37 7 54.5 19t23 42t5.5 90q0 56 -4.5 77t-16.5 21q-16 0 -22.5 -31t-6.5 -108h-123q0 242 154 242q71 0 107 -46.5t36 -136.5q0 -61 -17.5 -109t-57.5 -90
q39 -32 58.5 -85t19.5 -127q0 -108 -40.5 -169t-112.5 -61zM300 0l894 1470h132l-889 -1470h-137zM1345 0v175h-169v103l154 525h122v-525h45v-103h-45v-175h-107zM1281 278h67v285h-1l-1 -28z" />
    <glyph glyph-name="questiondown" unicode="&#xbf;" horiz-adv-x="474" 
d="M322 698v-250q0 -72 -20 -148.5t-46.5 -153t-46.5 -148.5t-20 -135q0 -25 9 -42t32 -17q32 0 49.5 39t30.5 103l124 -82q-10 -71 -37 -127.5t-70 -88.5t-101 -32q-74 0 -114.5 42.5t-56 103t-15.5 114.5q0 78 21 142t49 127t49 136t21 167v250h142zM330 1094v-222h-162
v222h162z" />
    <glyph glyph-name="Agrave" unicode="&#xc0;" horiz-adv-x="520" 
d="M20 0l144 1470h194l142 -1470h-172l-22 300h-92l-22 -300h-172zM227 506h68l-33 575v31h-4v-31zM333 1600h-120l-144 180h161z" />
    <glyph glyph-name="Aacute" unicode="&#xc1;" horiz-adv-x="520" 
d="M20 0l144 1470h194l142 -1470h-172l-22 300h-92l-22 -300h-172zM227 506h68l-33 575v31h-4v-31zM187 1600l103 180h161l-144 -180h-120z" />
    <glyph glyph-name="Acircumflex" unicode="&#xc2;" horiz-adv-x="520" 
d="M20 0l144 1470h194l142 -1470h-172l-22 300h-92l-22 -300h-172zM227 506h68l-33 575v31h-4v-31zM77 1604l104 180h161l104 -180h-138l-47 90l-45 -90h-139z" />
    <glyph glyph-name="Atilde" unicode="&#xc3;" horiz-adv-x="520" 
d="M20 0l144 1470h194l142 -1470h-172l-22 300h-92l-22 -300h-172zM227 506h68l-33 575v31h-4v-31zM332 1581q-37 0 -69 18q-34 20 -71 20q-22 0 -45 -9.5t-40 -22.5v148q11 11 25 18.5t28 13.5t32 6q37 0 70 -16q17 -8 34.5 -15t35.5 -7q22 0 45 9.5t40 22.5v-148
q-16 -17 -41 -27.5t-44 -10.5z" />
    <glyph glyph-name="Adieresis" unicode="&#xc4;" horiz-adv-x="520" 
d="M20 0l144 1470h194l142 -1470h-172l-22 300h-92l-22 -300h-172zM227 506h68l-33 575v31h-4v-31zM298 1592v196h142v-196h-142zM83 1592v196h142v-196h-142z" />
    <glyph glyph-name="Aring" unicode="&#xc5;" horiz-adv-x="520" 
d="M20 0l144 1470h194l142 -1470h-172l-22 300h-92l-22 -300h-172zM227 506h68l-33 575v31h-4v-31zM263 1570q-61 0 -105.5 39.5t-44.5 100.5q0 62 44.5 101t105.5 39q62 0 105 -39t43 -101q0 -61 -43 -100.5t-105 -39.5zM263 1640q29 0 51.5 21t22.5 49q0 29 -22.5 49.5
t-51.5 20.5q-28 0 -51 -20.5t-23 -49.5q0 -28 23 -49t51 -21z" />
    <glyph glyph-name="AE" unicode="&#xc6;" horiz-adv-x="706" 
d="M20 0l246 1470h400v-222h-166v-386h120v-236h-120v-404h166v-222h-332v300h-98l-52 -300h-164zM270 528h64v548h-1z" />
    <glyph glyph-name="Ccedilla" unicode="&#xc7;" horiz-adv-x="454" 
d="M226 -16q-78 0 -120.5 47.5t-59 116.5t-16.5 134v906q0 65 18 134t60.5 116.5t117.5 47.5q60 0 98.5 -31t60.5 -79t30.5 -98.5t8.5 -89.5v-222h-162v230q0 24 -4.5 52t-27.5 28q-22 0 -26 -28t-4 -52v-922q0 -24 4.5 -52t25.5 -28q23 0 27.5 28t4.5 52v230h162v-222
q0 -77 -18 -145t-61 -110.5t-119 -42.5zM322 -69q28 0 59 -25.5t31 -95.5q0 -65 -25 -106.5t-63.5 -60.5t-79.5 -19q-35 0 -72 15.5t-54 34.5l35 92q12 -13 41 -28t57 -15q29 0 49 20t20 57q0 31 -11 44t-23 13q-30 0 -42 -34l-72 36l39 141h78l-31 -108h-6q5 22 24 30.5
t46 8.5z" />
    <glyph glyph-name="Egrave" unicode="&#xc8;" horiz-adv-x="412" 
d="M40 0v1470h332v-222h-166v-396h130v-216h-130v-414h166v-222h-332zM295 1600h-120l-144 180h161z" />
    <glyph glyph-name="Eacute" unicode="&#xc9;" horiz-adv-x="428" 
d="M30 0v1470h332v-222h-166v-386h120v-236h-120v-404h166v-222h-332zM120 1600l62 180h160l-94 -180h-128z" />
    <glyph glyph-name="Ecircumflex" unicode="&#xca;" horiz-adv-x="412" 
d="M40 0v1470h332v-222h-166v-396h130v-216h-130v-414h166v-222h-332zM39 1604l104 180h161l104 -180h-138l-47 90l-45 -90h-139z" />
    <glyph glyph-name="Edieresis" unicode="&#xcb;" horiz-adv-x="412" 
d="M40 0v1470h332v-222h-166v-396h130v-216h-130v-414h166v-222h-332zM260 1592v196h142v-196h-142zM45 1592v196h142v-196h-142z" />
    <glyph glyph-name="Igrave" unicode="&#xcc;" horiz-adv-x="246" 
d="M40 0v1470h166v-1470h-166zM194 1600h-120l-144 180h161z" />
    <glyph glyph-name="Iacute" unicode="&#xcd;" horiz-adv-x="246" 
d="M40 0v1470h166v-1470h-166zM48 1600l103 180h161l-144 -180h-120z" />
    <glyph glyph-name="Icircumflex" unicode="&#xce;" horiz-adv-x="246" 
d="M40 0v1470h166v-1470h-166zM-62 1604l104 180h161l104 -180h-138l-47 90l-45 -90h-139z" />
    <glyph glyph-name="Idieresis" unicode="&#xcf;" horiz-adv-x="246" 
d="M40 0v1470h166v-1470h-166zM159 1592v196h142v-196h-142zM-56 1592v196h142v-196h-142z" />
    <glyph glyph-name="Eth" unicode="&#xd0;" horiz-adv-x="516" 
d="M12 634v190h242v-190h-242zM40 0v1470h128q89 0 144 -50.5t84 -146.5t39.5 -232t10.5 -307q0 -178 -12.5 -314.5t-43 -230t-84 -141.5t-135.5 -48h-131zM206 216q33 0 47.5 64.5t18.5 181t4 271.5t-4 272.5t-18.5 183t-47.5 65.5v-1038z" />
    <glyph glyph-name="Ntilde" unicode="&#xd1;" horiz-adv-x="494" 
d="M40 0v1470h150l97 -636l10 -88h3v724h154v-1470h-140l-106 630l-11 114h-3v-744h-154zM348 1581q-37 0 -69 18q-34 20 -71 20q-22 0 -45 -9.5t-40 -22.5v148q11 11 25 18.5t28 13.5t32 6q37 0 70 -16q17 -8 34.5 -15t35.5 -7q22 0 45 9.5t40 22.5v-148q-16 -17 -41 -27.5
t-44 -10.5z" />
    <glyph glyph-name="Ograve" unicode="&#xd2;" horiz-adv-x="462" 
d="M232 -16q-75 0 -119 43t-63.5 111t-19.5 144v906q0 73 19.5 141t63.5 112.5t119 44.5q80 0 123.5 -44.5t60 -112.5t16.5 -141v-906q0 -76 -19 -144t-62.5 -111t-118.5 -43zM234 194q23 0 27.5 27t4.5 61v906q0 35 -4.5 61.5t-27.5 26.5q-22 0 -28 -26t-6 -62v-906
q0 -40 6 -64t28 -24zM304 1600h-120l-144 180h161z" />
    <glyph glyph-name="Oacute" unicode="&#xd3;" horiz-adv-x="462" 
d="M232 -16q-75 0 -119 43t-63.5 111t-19.5 144v906q0 73 19.5 141t63.5 112.5t119 44.5q80 0 123.5 -44.5t60 -112.5t16.5 -141v-906q0 -76 -19 -144t-62.5 -111t-118.5 -43zM234 194q23 0 27.5 27t4.5 61v906q0 35 -4.5 61.5t-27.5 26.5q-22 0 -28 -26t-6 -62v-906
q0 -40 6 -64t28 -24zM158 1600l103 180h161l-144 -180h-120z" />
    <glyph glyph-name="Ocircumflex" unicode="&#xd4;" horiz-adv-x="462" 
d="M232 -16q-75 0 -119 43t-63.5 111t-19.5 144v906q0 73 19.5 141t63.5 112.5t119 44.5q80 0 123.5 -44.5t60 -112.5t16.5 -141v-906q0 -76 -19 -144t-62.5 -111t-118.5 -43zM234 194q23 0 27.5 27t4.5 61v906q0 35 -4.5 61.5t-27.5 26.5q-22 0 -28 -26t-6 -62v-906
q0 -40 6 -64t28 -24zM48 1604l104 180h161l104 -180h-138l-47 90l-45 -90h-139z" />
    <glyph glyph-name="Otilde" unicode="&#xd5;" horiz-adv-x="462" 
d="M232 -16q-75 0 -119 43t-63.5 111t-19.5 144v906q0 73 19.5 141t63.5 112.5t119 44.5q80 0 123.5 -44.5t60 -112.5t16.5 -141v-906q0 -76 -19 -144t-62.5 -111t-118.5 -43zM234 194q23 0 27.5 27t4.5 61v906q0 35 -4.5 61.5t-27.5 26.5q-22 0 -28 -26t-6 -62v-906
q0 -40 6 -64t28 -24zM303 1581q-37 0 -69 18q-34 20 -71 20q-22 0 -45 -9.5t-40 -22.5v148q11 11 25 18.5t28 13.5t32 6q37 0 70 -16q17 -8 34.5 -15t35.5 -7q22 0 45 9.5t40 22.5v-148q-16 -17 -41 -27.5t-44 -10.5z" />
    <glyph glyph-name="Odieresis" unicode="&#xd6;" horiz-adv-x="462" 
d="M232 -16q-75 0 -119 43t-63.5 111t-19.5 144v906q0 73 19.5 141t63.5 112.5t119 44.5q80 0 123.5 -44.5t60 -112.5t16.5 -141v-906q0 -76 -19 -144t-62.5 -111t-118.5 -43zM234 194q23 0 27.5 27t4.5 61v906q0 35 -4.5 61.5t-27.5 26.5q-22 0 -28 -26t-6 -62v-906
q0 -40 6 -64t28 -24zM269 1592v196h142v-196h-142zM54 1592v196h142v-196h-142z" />
    <glyph glyph-name="multiply" unicode="&#xd7;" horiz-adv-x="621" 
d="M110 360l-84 119l170 239l-170 239l84 119l170 -239l170 239l85 -119l-170 -239l170 -239l-85 -119l-170 239z" />
    <glyph glyph-name="Oslash" unicode="&#xd8;" horiz-adv-x="462" 
d="M-1 20l383 1472l104 -47l-378 -1472zM232 -16q-75 0 -119 43t-63.5 111t-19.5 144v906q0 73 19.5 141t63.5 112.5t119 44.5q80 0 123.5 -44.5t60 -112.5t16.5 -141v-906q0 -76 -19 -144t-62.5 -111t-118.5 -43zM234 194q23 0 27.5 27t4.5 61v906q0 35 -4.5 61.5
t-27.5 26.5q-22 0 -28 -26t-6 -62v-906q0 -40 6 -64t28 -24z" />
    <glyph glyph-name="Ugrave" unicode="&#xd9;" horiz-adv-x="474" 
d="M238 -16q-80 0 -123 39.5t-59 107.5t-16 151v1188h166v-1188q0 -42 6.5 -65t25.5 -23q18 0 24 23.5t6 64.5v1188h166v-1188q0 -83 -15.5 -150.5t-58 -107.5t-122.5 -40zM309 1600h-120l-144 180h161z" />
    <glyph glyph-name="Uacute" unicode="&#xda;" horiz-adv-x="474" 
d="M238 -16q-80 0 -123 39.5t-59 107.5t-16 151v1188h166v-1188q0 -42 6.5 -65t25.5 -23q18 0 24 23.5t6 64.5v1188h166v-1188q0 -83 -15.5 -150.5t-58 -107.5t-122.5 -40zM163 1600l103 180h161l-144 -180h-120z" />
    <glyph glyph-name="Ucircumflex" unicode="&#xdb;" horiz-adv-x="474" 
d="M238 -16q-80 0 -123 39.5t-59 107.5t-16 151v1188h166v-1188q0 -42 6.5 -65t25.5 -23q18 0 24 23.5t6 64.5v1188h166v-1188q0 -83 -15.5 -150.5t-58 -107.5t-122.5 -40zM53 1604l104 180h161l104 -180h-138l-47 90l-45 -90h-139z" />
    <glyph glyph-name="Udieresis" unicode="&#xdc;" horiz-adv-x="474" 
d="M238 -16q-80 0 -123 39.5t-59 107.5t-16 151v1188h166v-1188q0 -42 6.5 -65t25.5 -23q18 0 24 23.5t6 64.5v1188h166v-1188q0 -83 -15.5 -150.5t-58 -107.5t-122.5 -40zM274 1592v196h142v-196h-142zM59 1592v196h142v-196h-142z" />
    <glyph glyph-name="Yacute" unicode="&#xdd;" horiz-adv-x="522" 
d="M180 0v626l-165 844h178l60 -470l5 -64h5l6 64l58 470h180l-165 -844v-626h-162zM183 1600l103 180h161l-144 -180h-120z" />
    <glyph glyph-name="Thorn" unicode="&#xde;" horiz-adv-x="482" 
d="M40 0v1470h166v-236q89 0 138.5 -65t69.5 -166t20 -209q0 -111 -20.5 -212.5t-70.5 -165.5t-137 -64v-352h-166zM206 572q28 0 41.5 32t18 81.5t4.5 100.5q0 49 -4.5 102t-18 89.5t-41.5 36.5v-442z" />
    <glyph glyph-name="germandbls" unicode="&#xdf;" horiz-adv-x="506" 
d="M40 0v1206q0 71 21 135t65.5 104.5t115.5 40.5q78 0 121 -43t60 -107.5t17 -127.5q0 -49 -15.5 -93t-42.5 -77q23 -24 41.5 -61t28.5 -85q13 -57 18.5 -138.5t5.5 -191.5q0 -181 -12 -292.5t-38 -171.5q-25 -60 -71 -79t-111 -19v188q18 0 33.5 13t24.5 53
q9 41 13.5 114.5t4.5 193.5q0 128 -4.5 205t-13.5 119t-24.5 56t-33.5 14v138q21 0 36.5 31t15.5 83q0 41 -14 69.5t-40 28.5q-22 0 -33 -27.5t-11 -72.5v-1206h-158z" />
    <glyph glyph-name="agrave" unicode="&#xe0;" horiz-adv-x="444" 
d="M154 -16q-64 0 -99 87t-35 213q0 114 39.5 203t122.5 161q20 17 40 39.5t24 38.5v118q0 26 -3.5 59t-22.5 33q-20 0 -24 -34.5t-4 -57.5v-72h-152v76q0 61 19 121.5t60 100.5t107 40q61 0 98 -40.5t53.5 -98.5t16.5 -109v-712q0 -55 3 -92.5t7 -57.5h-134q-3 5 -11 25.5
t-8 40.5h-5q-12 -31 -34 -56.5t-58 -25.5zM207 174q20 0 28.5 23t8.5 51v254q-27 -34 -48.5 -92t-21.5 -124q0 -46 7 -79t26 -33zM321 1224h-120l-144 180h161z" />
    <glyph glyph-name="aacute" unicode="&#xe1;" horiz-adv-x="444" 
d="M154 -16q-64 0 -99 87t-35 213q0 114 39.5 203t122.5 161q20 17 40 39.5t24 38.5v118q0 26 -3.5 59t-22.5 33q-20 0 -24 -34.5t-4 -57.5v-72h-152v76q0 61 19 121.5t60 100.5t107 40q61 0 98 -40.5t53.5 -98.5t16.5 -109v-712q0 -55 3 -92.5t7 -57.5h-134q-3 5 -11 25.5
t-8 40.5h-5q-12 -31 -34 -56.5t-58 -25.5zM207 174q20 0 28.5 23t8.5 51v254q-27 -34 -48.5 -92t-21.5 -124q0 -46 7 -79t26 -33zM175 1224l103 180h161l-144 -180h-120z" />
    <glyph glyph-name="acircumflex" unicode="&#xe2;" horiz-adv-x="444" 
d="M154 -16q-64 0 -99 87t-35 213q0 114 39.5 203t122.5 161q20 17 40 39.5t24 38.5v118q0 26 -3.5 59t-22.5 33q-20 0 -24 -34.5t-4 -57.5v-72h-152v76q0 61 19 121.5t60 100.5t107 40q61 0 98 -40.5t53.5 -98.5t16.5 -109v-712q0 -55 3 -92.5t7 -57.5h-134q-3 5 -11 25.5
t-8 40.5h-5q-12 -31 -34 -56.5t-58 -25.5zM207 174q20 0 28.5 23t8.5 51v254q-27 -34 -48.5 -92t-21.5 -124q0 -46 7 -79t26 -33zM65 1228l104 180h161l104 -180h-138l-47 90l-45 -90h-139z" />
    <glyph glyph-name="atilde" unicode="&#xe3;" horiz-adv-x="444" 
d="M154 -16q-64 0 -99 87t-35 213q0 114 39.5 203t122.5 161q20 17 40 39.5t24 38.5v118q0 26 -3.5 59t-22.5 33q-20 0 -24 -34.5t-4 -57.5v-72h-152v76q0 61 19 121.5t60 100.5t107 40q61 0 98 -40.5t53.5 -98.5t16.5 -109v-712q0 -55 3 -92.5t7 -57.5h-134q-3 5 -11 25.5
t-8 40.5h-5q-12 -31 -34 -56.5t-58 -25.5zM207 174q20 0 28.5 23t8.5 51v254q-27 -34 -48.5 -92t-21.5 -124q0 -46 7 -79t26 -33zM320 1205q-37 0 -69 18q-34 20 -71 20q-22 0 -45 -9.5t-40 -22.5v148q11 11 25 18.5t28 13.5t32 6q37 0 70 -16q17 -8 34.5 -15t35.5 -7
q22 0 45 9.5t40 22.5v-148q-16 -17 -41 -27.5t-44 -10.5z" />
    <glyph glyph-name="adieresis" unicode="&#xe4;" horiz-adv-x="444" 
d="M154 -16q-64 0 -99 87t-35 213q0 114 39.5 203t122.5 161q20 17 40 39.5t24 38.5v118q0 26 -3.5 59t-22.5 33q-20 0 -24 -34.5t-4 -57.5v-72h-152v76q0 61 19 121.5t60 100.5t107 40q61 0 98 -40.5t53.5 -98.5t16.5 -109v-712q0 -55 3 -92.5t7 -57.5h-134q-3 5 -11 25.5
t-8 40.5h-5q-12 -31 -34 -56.5t-58 -25.5zM207 174q20 0 28.5 23t8.5 51v254q-27 -34 -48.5 -92t-21.5 -124q0 -46 7 -79t26 -33zM286 1216v196h142v-196h-142zM71 1216v196h142v-196h-142z" />
    <glyph glyph-name="aring" unicode="&#xe5;" horiz-adv-x="444" 
d="M154 -16q-64 0 -99 87t-35 213q0 114 39.5 203t122.5 161q20 17 40 39.5t24 38.5v118q0 26 -3.5 59t-22.5 33q-20 0 -24 -34.5t-4 -57.5v-72h-152v76q0 61 19 121.5t60 100.5t107 40q61 0 98 -40.5t53.5 -98.5t16.5 -109v-712q0 -55 3 -92.5t7 -57.5h-134q-3 5 -11 25.5
t-8 40.5h-5q-12 -31 -34 -56.5t-58 -25.5zM207 174q20 0 28.5 23t8.5 51v254q-27 -34 -48.5 -92t-21.5 -124q0 -46 7 -79t26 -33zM251 1194q-61 0 -105.5 39.5t-44.5 100.5q0 62 44.5 101t105.5 39q62 0 105 -39t43 -101q0 -61 -43 -100.5t-105 -39.5zM251 1264
q29 0 51.5 21t22.5 49q0 29 -22.5 49.5t-51.5 20.5q-28 0 -51 -20.5t-23 -49.5q0 -28 23 -49t51 -21z" />
    <glyph glyph-name="ae" unicode="&#xe6;" horiz-adv-x="652" 
d="M214 -16q-42 0 -87 24t-76 89t-31 187q0 114 39.5 188t122.5 146q20 17 40 39.5t24 38.5v148q0 26 -3.5 59t-22.5 33q-20 0 -24 -34.5t-4 -57.5v-72h-152v76q0 61 19 121.5t60 100.5t107 40q61 0 98 -40.5t53.5 -98.5t16.5 -109v-666q0 -114 -57.5 -163t-122.5 -49z
M207 174q20 0 28.5 23t8.5 51v224q-27 -34 -48.5 -77t-21.5 -109q0 -46 7 -79t26 -33zM434 -16q-97 0 -140.5 71t-43.5 192v589q0 113 43.5 193.5t140.5 80.5q65 0 106.5 -38t61.5 -100.5t20 -135.5v-326h-218v-268q0 -37 5.5 -58.5t26.5 -21.5q22 0 29 22t7 59v149h150
v-148q0 -121 -45 -190.5t-143 -69.5zM404 668h68v184q0 41 -5 61.5t-31 20.5q-19 0 -25.5 -21.5t-6.5 -60.5v-184z" />
    <glyph glyph-name="ccedilla" unicode="&#xe7;" 
d="M216 -15q-97 0 -141.5 76t-44.5 178v617q0 102 44.5 178t141.5 76q98 0 142 -73.5t44 -180.5v-146h-152v144q0 38 -4.5 59t-25.5 21t-26.5 -21t-5.5 -59v-613q0 -37 5.5 -58.5t26.5 -21.5t25.5 21.5t4.5 58.5v144h152v-146q0 -106 -44 -180t-142 -74zM286 -69
q28 0 59 -25.5t31 -95.5q0 -65 -25 -106.5t-63.5 -60.5t-79.5 -19q-35 0 -72 15.5t-54 34.5l35 92q12 -13 41 -28t57 -15q29 0 49 20t20 57q0 31 -11 44t-23 13q-30 0 -42 -34l-72 36l39 141h78l-31 -108h-6q5 22 24 30.5t46 8.5z" />
    <glyph glyph-name="egrave" unicode="&#xe8;" 
d="M214 -16q-97 0 -140.5 71t-43.5 192v589q0 113 43.5 193.5t140.5 80.5q65 0 106.5 -38t61.5 -100.5t20 -135.5v-326h-218v-268q0 -37 5.5 -58.5t26.5 -21.5q22 0 29 22t7 59v149h150v-148q0 -121 -45 -190.5t-143 -69.5zM184 668h68v184q0 41 -5 61.5t-31 20.5
q-19 0 -25.5 -21.5t-6.5 -60.5v-184zM305 1224h-120l-144 180h161z" />
    <glyph glyph-name="eacute" unicode="&#xe9;" 
d="M214 -16q-97 0 -140.5 71t-43.5 192v589q0 113 43.5 193.5t140.5 80.5q65 0 106.5 -38t61.5 -100.5t20 -135.5v-326h-218v-268q0 -37 5.5 -58.5t26.5 -21.5q22 0 29 22t7 59v149h150v-148q0 -121 -45 -190.5t-143 -69.5zM184 668h68v184q0 41 -5 61.5t-31 20.5
q-19 0 -25.5 -21.5t-6.5 -60.5v-184zM159 1224l103 180h161l-144 -180h-120z" />
    <glyph glyph-name="ecircumflex" unicode="&#xea;" 
d="M214 -16q-97 0 -140.5 71t-43.5 192v589q0 113 43.5 193.5t140.5 80.5q65 0 106.5 -38t61.5 -100.5t20 -135.5v-326h-218v-268q0 -37 5.5 -58.5t26.5 -21.5q22 0 29 22t7 59v149h150v-148q0 -121 -45 -190.5t-143 -69.5zM184 668h68v184q0 41 -5 61.5t-31 20.5
q-19 0 -25.5 -21.5t-6.5 -60.5v-184zM49 1228l104 180h161l104 -180h-138l-47 90l-45 -90h-139z" />
    <glyph glyph-name="edieresis" unicode="&#xeb;" 
d="M214 -16q-97 0 -140.5 71t-43.5 192v589q0 113 43.5 193.5t140.5 80.5q65 0 106.5 -38t61.5 -100.5t20 -135.5v-326h-218v-268q0 -37 5.5 -58.5t26.5 -21.5q22 0 29 22t7 59v149h150v-148q0 -121 -45 -190.5t-143 -69.5zM184 668h68v184q0 41 -5 61.5t-31 20.5
q-19 0 -25.5 -21.5t-6.5 -60.5v-184zM270 1216v196h142v-196h-142zM55 1216v196h142v-196h-142z" />
    <glyph glyph-name="igrave" unicode="&#xec;" horiz-adv-x="238" 
d="M40 0v1094h158v-1094h-158zM190 1224h-120l-144 180h161z" />
    <glyph glyph-name="iacute" unicode="&#xed;" horiz-adv-x="238" 
d="M40 0v1094h158v-1094h-158zM44 1224l103 180h161l-144 -180h-120z" />
    <glyph glyph-name="icircumflex" unicode="&#xee;" horiz-adv-x="238" 
d="M40 0v1094h158v-1094h-158zM-66 1228l104 180h161l104 -180h-138l-47 90l-45 -90h-139z" />
    <glyph glyph-name="idieresis" unicode="&#xef;" horiz-adv-x="238" 
d="M40 0v1094h158v-1094h-158zM155 1216v196h142v-196h-142zM-60 1216v196h142v-196h-142z" />
    <glyph glyph-name="eth" unicode="&#xf0;" horiz-adv-x="428" 
d="M214 -16q-73 0 -113 46.5t-55.5 113.5t-15.5 128v566q0 37 4 83.5t17 89.5t39 71t70 28q17 0 35.5 -9.5t34.5 -24.5q-3 32 -9 66t-11 58l-42 -62l-44 86l64 90q-7 21 -16 35.5t-16 24.5l84 128q5 -9 15.5 -29t16.5 -37l54 80l44 -88l-56 -86q27 -72 55.5 -181t28.5 -255
v-640q0 -57 -17.5 -122.5t-57.5 -112.5t-109 -47zM214 162q14 0 24 33t10 57v590q0 38 -8.5 65t-25.5 27q-16 0 -25 -26.5t-9 -65.5v-590q0 -33 8 -61.5t26 -28.5z" />
    <glyph glyph-name="ntilde" unicode="&#xf1;" horiz-adv-x="452" 
d="M40 0v1094h158v-56q15 23 48 47.5t58 24.5q50 0 73 -39.5t29 -90.5t6 -84v-896h-156v864q0 32 -7.5 51t-22.5 19t-21.5 -20t-6.5 -52v-862h-158zM312 1205q-37 0 -69 18q-34 20 -71 20q-22 0 -45 -9.5t-40 -22.5v148q11 11 25 18.5t28 13.5t32 6q37 0 70 -16
q17 -8 34.5 -15t35.5 -7q22 0 45 9.5t40 22.5v-148q-16 -17 -41 -27.5t-44 -10.5z" />
    <glyph glyph-name="ograve" unicode="&#xf2;" horiz-adv-x="430" 
d="M215 -14q-97 0 -141 74t-44 188v600q0 114 44 188t141 74q98 0 141.5 -74t43.5 -188v-600q0 -114 -43.5 -188t-141.5 -74zM216 162q22 0 28 23.5t6 68.5v588q0 45 -6 68.5t-28 23.5t-29 -23.5t-7 -68.5v-588q0 -45 7 -68.5t29 -23.5zM305 1224h-120l-144 180h161z" />
    <glyph glyph-name="oacute" unicode="&#xf3;" horiz-adv-x="430" 
d="M215 -14q-97 0 -141 74t-44 188v600q0 114 44 188t141 74q98 0 141.5 -74t43.5 -188v-600q0 -114 -43.5 -188t-141.5 -74zM216 162q22 0 28 23.5t6 68.5v588q0 45 -6 68.5t-28 23.5t-29 -23.5t-7 -68.5v-588q0 -45 7 -68.5t29 -23.5zM159 1224l103 180h161l-144 -180
h-120z" />
    <glyph glyph-name="ocircumflex" unicode="&#xf4;" horiz-adv-x="430" 
d="M215 -14q-97 0 -141 74t-44 188v600q0 114 44 188t141 74q98 0 141.5 -74t43.5 -188v-600q0 -114 -43.5 -188t-141.5 -74zM216 162q22 0 28 23.5t6 68.5v588q0 45 -6 68.5t-28 23.5t-29 -23.5t-7 -68.5v-588q0 -45 7 -68.5t29 -23.5zM49 1228l104 180h161l104 -180h-138
l-47 90l-45 -90h-139z" />
    <glyph glyph-name="otilde" unicode="&#xf5;" horiz-adv-x="430" 
d="M215 -14q-97 0 -141 74t-44 188v600q0 114 44 188t141 74q98 0 141.5 -74t43.5 -188v-600q0 -114 -43.5 -188t-141.5 -74zM216 162q22 0 28 23.5t6 68.5v588q0 45 -6 68.5t-28 23.5t-29 -23.5t-7 -68.5v-588q0 -45 7 -68.5t29 -23.5zM304 1205q-37 0 -69 18
q-34 20 -71 20q-22 0 -45 -9.5t-40 -22.5v148q11 11 25 18.5t28 13.5t32 6q37 0 70 -16q17 -8 34.5 -15t35.5 -7q22 0 45 9.5t40 22.5v-148q-16 -17 -41 -27.5t-44 -10.5z" />
    <glyph glyph-name="odieresis" unicode="&#xf6;" horiz-adv-x="430" 
d="M215 -14q-97 0 -141 74t-44 188v600q0 114 44 188t141 74q98 0 141.5 -74t43.5 -188v-600q0 -114 -43.5 -188t-141.5 -74zM216 162q22 0 28 23.5t6 68.5v588q0 45 -6 68.5t-28 23.5t-29 -23.5t-7 -68.5v-588q0 -45 7 -68.5t29 -23.5zM270 1216v196h142v-196h-142z
M55 1216v196h142v-196h-142z" />
    <glyph glyph-name="divide" unicode="&#xf7;" horiz-adv-x="464" 
d="M30 634v168h404v-168h-404zM233 862q-36 0 -61 31t-25 75q0 43 25 73.5t61 30.5q35 0 60 -30.5t25 -73.5q0 -44 -25 -75t-60 -31zM233 364q-36 0 -61 31t-25 75q0 43 25 73.5t61 30.5q35 0 60 -30.5t25 -73.5q0 -44 -25 -75t-60 -31z" />
    <glyph glyph-name="oslash" unicode="&#xf8;" horiz-adv-x="430" 
d="M9 10l297 1114l94 -37l-292 -1114zM215 -14q-97 0 -141 74t-44 188v600q0 114 44 188t141 74q98 0 141.5 -74t43.5 -188v-600q0 -114 -43.5 -188t-141.5 -74zM216 162q22 0 28 23.5t6 68.5v588q0 45 -6 68.5t-28 23.5t-29 -23.5t-7 -68.5v-588q0 -45 7 -68.5t29 -23.5z
" />
    <glyph glyph-name="ugrave" unicode="&#xf9;" horiz-adv-x="452" 
d="M148 -16q-50 0 -73 39.5t-29 90.5t-6 84v896h156v-864q0 -31 7.5 -50.5t22.5 -19.5t21.5 20.5t6.5 51.5v862h158v-1094h-158v56q-15 -22 -47.5 -47t-58.5 -25zM321 1224h-120l-144 180h161z" />
    <glyph glyph-name="uacute" unicode="&#xfa;" horiz-adv-x="452" 
d="M148 -16q-50 0 -73 39.5t-29 90.5t-6 84v896h156v-864q0 -31 7.5 -50.5t22.5 -19.5t21.5 20.5t6.5 51.5v862h158v-1094h-158v56q-15 -22 -47.5 -47t-58.5 -25zM175 1224l103 180h161l-144 -180h-120z" />
    <glyph glyph-name="ucircumflex" unicode="&#xfb;" horiz-adv-x="452" 
d="M148 -16q-50 0 -73 39.5t-29 90.5t-6 84v896h156v-864q0 -31 7.5 -50.5t22.5 -19.5t21.5 20.5t6.5 51.5v862h158v-1094h-158v56q-15 -22 -47.5 -47t-58.5 -25zM65 1228l104 180h161l104 -180h-138l-47 90l-45 -90h-139z" />
    <glyph glyph-name="udieresis" unicode="&#xfc;" horiz-adv-x="452" 
d="M148 -16q-50 0 -73 39.5t-29 90.5t-6 84v896h156v-864q0 -31 7.5 -50.5t22.5 -19.5t21.5 20.5t6.5 51.5v862h158v-1094h-158v56q-15 -22 -47.5 -47t-58.5 -25zM286 1216v196h142v-196h-142zM71 1216v196h142v-196h-142z" />
    <glyph glyph-name="yacute" unicode="&#xfd;" horiz-adv-x="430" 
d="M84 -396q-13 0 -26 2.5t-27 7.5v178q8 -4 16 -5.5t15 -1.5q12 0 22 4t17 14q23 36 29.5 82t6.5 83l-132 1126h154l52 -602l4 -94h4l3 94l47 602h156l-136 -1176q-9 -80 -32 -152t-64.5 -117t-108.5 -45zM143 1224l103 180h161l-144 -180h-120z" />
    <glyph glyph-name="thorn" unicode="&#xfe;" horiz-adv-x="442" 
d="M40 1470h158v-401h-158v401zM40 -376v1470h158v-56q17 26 52 49t62 23q37 0 58.5 -26t31.5 -72t10 -106v-708q0 -39 -7 -89t-30.5 -87.5t-72.5 -37.5q-27 0 -58 23.5t-46 56.5v-440h-158zM233 174q15 0 19 16.5t4 49.5v620q0 29 -3 51.5t-20 22.5q-16 0 -25.5 -17.5
t-9.5 -46.5v-635q0 -34 10 -47.5t25 -13.5z" />
    <glyph glyph-name="ydieresis" unicode="&#xff;" horiz-adv-x="430" 
d="M84 -396q-13 0 -26 2.5t-27 7.5v178q8 -4 16 -5.5t15 -1.5q12 0 22 4t17 14q23 36 29.5 82t6.5 83l-132 1126h154l52 -602l4 -94h4l3 94l47 602h156l-136 -1176q-9 -80 -32 -152t-64.5 -117t-108.5 -45zM254 1216v196h142v-196h-142zM39 1216v196h142v-196h-142z" />
    <glyph glyph-name="Amacron" unicode="&#x100;" horiz-adv-x="520" 
d="M20 0l144 1470h194l142 -1470h-172l-22 300h-92l-22 -300h-172zM227 506h68l-33 575v31h-4v-31zM109 1611v148h306v-148h-306z" />
    <glyph glyph-name="amacron" unicode="&#x101;" horiz-adv-x="444" 
d="M154 -16q-64 0 -99 87t-35 213q0 114 39.5 203t122.5 161q20 17 40 39.5t24 38.5v118q0 26 -3.5 59t-22.5 33q-20 0 -24 -34.5t-4 -57.5v-72h-152v76q0 61 19 121.5t60 100.5t107 40q61 0 98 -40.5t53.5 -98.5t16.5 -109v-712q0 -55 3 -92.5t7 -57.5h-134q-3 5 -11 25.5
t-8 40.5h-5q-12 -31 -34 -56.5t-58 -25.5zM207 174q20 0 28.5 23t8.5 51v254q-27 -34 -48.5 -92t-21.5 -124q0 -46 7 -79t26 -33zM97 1235v148h306v-148h-306z" />
    <glyph glyph-name="Abreve" unicode="&#x102;" horiz-adv-x="520" 
d="M20 0l144 1470h194l142 -1470h-172l-22 300h-92l-22 -300h-172zM227 506h68l-33 575v31h-4v-31zM262 1567q-46 0 -87 28.5t-61 67.5l82 104q10 -28 28.5 -41t37.5 -13q17 0 37.5 12t32.5 40l78 -102q-27 -42 -64 -69t-84 -27z" />
    <glyph glyph-name="abreve" unicode="&#x103;" horiz-adv-x="444" 
d="M154 -16q-64 0 -99 87t-35 213q0 114 39.5 203t122.5 161q20 17 40 39.5t24 38.5v118q0 26 -3.5 59t-22.5 33q-20 0 -24 -34.5t-4 -57.5v-72h-152v76q0 61 19 121.5t60 100.5t107 40q61 0 98 -40.5t53.5 -98.5t16.5 -109v-712q0 -55 3 -92.5t7 -57.5h-134q-3 5 -11 25.5
t-8 40.5h-5q-12 -31 -34 -56.5t-58 -25.5zM207 174q20 0 28.5 23t8.5 51v254q-27 -34 -48.5 -92t-21.5 -124q0 -46 7 -79t26 -33zM250 1191q-46 0 -87 28.5t-61 67.5l82 104q10 -28 28.5 -41t37.5 -13q17 0 37.5 12t32.5 40l78 -102q-27 -42 -64 -69t-84 -27z" />
    <glyph glyph-name="Aogonek" unicode="&#x104;" horiz-adv-x="520" 
d="M20 0l144 1470h194l142 -1470h-172l-22 300h-92l-22 -300h-172zM227 506h68l-33 575v31h-4v-31zM492 -375q-60 0 -100 34.5t-40 124.5q0 51 18.5 107.5t47.5 108.5h82q-11 -31 -21.5 -87t-10.5 -90q0 -43 15.5 -54t28.5 -11q34 0 60 23v-133q-26 -23 -80 -23z" />
    <glyph glyph-name="aogonek" unicode="&#x105;" horiz-adv-x="444" 
d="M154 -16q-64 0 -99 87t-35 213q0 114 39.5 203t122.5 161q20 17 40 39.5t24 38.5v118q0 26 -3.5 59t-22.5 33q-20 0 -24 -34.5t-4 -57.5v-72h-152v76q0 61 19 121.5t60 100.5t107 40q61 0 98 -40.5t53.5 -98.5t16.5 -109v-712q0 -55 3 -92.5t7 -57.5h-134q-3 5 -11 25.5
t-8 40.5h-5q-12 -31 -34 -56.5t-58 -25.5zM207 174q20 0 28.5 23t8.5 51v254q-27 -34 -48.5 -92t-21.5 -124q0 -46 7 -79t26 -33zM396 -375q-60 0 -100 34.5t-40 124.5q0 51 18.5 107.5t47.5 108.5h82q-11 -31 -21.5 -87t-10.5 -90q0 -43 15.5 -54t28.5 -11q34 0 60 23v-133
q-26 -23 -80 -23z" />
    <glyph glyph-name="Cacute" unicode="&#x106;" horiz-adv-x="454" 
d="M226 -16q-78 0 -120.5 47.5t-59 116.5t-16.5 134v906q0 65 18 134t60.5 116.5t117.5 47.5q60 0 98.5 -31t60.5 -79t30.5 -98.5t8.5 -89.5v-222h-162v230q0 24 -4.5 52t-27.5 28q-22 0 -26 -28t-4 -52v-922q0 -24 4.5 -52t25.5 -28q23 0 27.5 28t4.5 52v230h162v-222
q0 -77 -18 -145t-61 -110.5t-119 -42.5zM151 1600l103 180h161l-144 -180h-120z" />
    <glyph glyph-name="cacute" unicode="&#x107;" 
d="M216 -15q-97 0 -141.5 76t-44.5 178v617q0 102 44.5 178t141.5 76q98 0 142 -73.5t44 -180.5v-146h-152v144q0 38 -4.5 59t-25.5 21t-26.5 -21t-5.5 -59v-613q0 -37 5.5 -58.5t26.5 -21.5t25.5 21.5t4.5 58.5v144h152v-146q0 -106 -44 -180t-142 -74zM139 1224l103 180
h161l-144 -180h-120z" />
    <glyph glyph-name="Cdotaccent" unicode="&#x10a;" horiz-adv-x="454" 
d="M226 -16q-78 0 -120.5 47.5t-59 116.5t-16.5 134v906q0 65 18 134t60.5 116.5t117.5 47.5q60 0 98.5 -31t60.5 -79t30.5 -98.5t8.5 -89.5v-222h-162v230q0 24 -4.5 52t-27.5 28q-22 0 -26 -28t-4 -52v-922q0 -24 4.5 -52t25.5 -28q23 0 27.5 28t4.5 52v230h162v-222
q0 -77 -18 -145t-61 -110.5t-119 -42.5zM147 1595v202h158v-202h-158z" />
    <glyph glyph-name="cdotaccent" unicode="&#x10b;" 
d="M216 -15q-97 0 -141.5 76t-44.5 178v617q0 102 44.5 178t141.5 76q98 0 142 -73.5t44 -180.5v-146h-152v144q0 38 -4.5 59t-25.5 21t-26.5 -21t-5.5 -59v-613q0 -37 5.5 -58.5t26.5 -21.5t25.5 21.5t4.5 58.5v144h152v-146q0 -106 -44 -180t-142 -74zM135 1219v202h158
v-202h-158z" />
    <glyph glyph-name="Ccaron" unicode="&#x10c;" horiz-adv-x="454" 
d="M226 -16q-78 0 -120.5 47.5t-59 116.5t-16.5 134v906q0 65 18 134t60.5 116.5t117.5 47.5q60 0 98.5 -31t60.5 -79t30.5 -98.5t8.5 -89.5v-222h-162v230q0 24 -4.5 52t-27.5 28q-22 0 -26 -28t-4 -52v-922q0 -24 4.5 -52t25.5 -28q23 0 27.5 28t4.5 52v230h162v-222
q0 -77 -18 -145t-61 -110.5t-119 -42.5zM141 1605l-108 180h145l47 -90l48 90h145l-108 -180h-169z" />
    <glyph glyph-name="ccaron" unicode="&#x10d;" 
d="M216 -15q-97 0 -141.5 76t-44.5 178v617q0 102 44.5 178t141.5 76q98 0 142 -73.5t44 -180.5v-146h-152v144q0 38 -4.5 59t-25.5 21t-26.5 -21t-5.5 -59v-613q0 -37 5.5 -58.5t26.5 -21.5t25.5 21.5t4.5 58.5v144h152v-146q0 -106 -44 -180t-142 -74zM129 1229l-108 180
h145l47 -90l48 90h145l-108 -180h-169z" />
    <glyph glyph-name="Dcaron" unicode="&#x10e;" horiz-adv-x="516" 
d="M40 0v1470h128q89 0 144 -50.5t84 -146.5t39.5 -232t10.5 -307q0 -178 -12.5 -314.5t-43 -230t-84 -141.5t-135.5 -48h-131zM206 216q33 0 47.5 64.5t18.5 181t4 271.5t-4 272.5t-18.5 183t-47.5 65.5v-1038zM179 1605l-108 180h145l47 -90l48 90h145l-108 -180h-169z
" />
    <glyph glyph-name="dcaron" unicode="&#x10f;" horiz-adv-x="580" 
d="M134 -16q-40 0 -62.5 37.5t-32 87.5t-9.5 89v698q0 45 8.5 95t30.5 84.5t63 34.5q29 0 59.5 -21t42.5 -41v422h158v-1470h-148l-10 70q-7 -18 -34 -52t-66 -34zM206 174q15 0 21.5 24t6.5 52v612q0 24 -6.5 48t-21.5 24q-13 0 -20.5 -21.5t-7.5 -50.5v-612q0 -30 6 -53
t22 -23zM418 988l42 260h-42v222h162v-222l-66 -260h-96z" />
    <glyph glyph-name="Dcroat" unicode="&#x110;" horiz-adv-x="516" 
d="M12 634v190h242v-190h-242zM40 0v1470h128q89 0 144 -50.5t84 -146.5t39.5 -232t10.5 -307q0 -178 -12.5 -314.5t-43 -230t-84 -141.5t-135.5 -48h-131zM206 216q33 0 47.5 64.5t18.5 181t4 271.5t-4 272.5t-18.5 183t-47.5 65.5v-1038z" />
    <glyph glyph-name="dcroat" unicode="&#x111;" 
d="M116 1220v142h315v-142h-315zM134 -16q-40 0 -62.5 37.5t-32 87.5t-9.5 89v698q0 45 8.5 95t30.5 84.5t63 34.5q29 0 59.5 -21t42.5 -41v422h158v-1470h-148l-10 70q-7 -18 -34 -52t-66 -34zM206 174q15 0 21.5 24t6.5 52v612q0 24 -6.5 48t-21.5 24q-13 0 -20.5 -21.5
t-7.5 -50.5v-612q0 -30 6 -53t22 -23z" />
    <glyph glyph-name="Emacron" unicode="&#x112;" horiz-adv-x="412" 
d="M40 0v1470h332v-222h-166v-396h130v-216h-130v-414h166v-222h-332zM71 1611v148h306v-148h-306z" />
    <glyph glyph-name="emacron" unicode="&#x113;" 
d="M214 -16q-97 0 -140.5 71t-43.5 192v589q0 113 43.5 193.5t140.5 80.5q65 0 106.5 -38t61.5 -100.5t20 -135.5v-326h-218v-268q0 -37 5.5 -58.5t26.5 -21.5q22 0 29 22t7 59v149h150v-148q0 -121 -45 -190.5t-143 -69.5zM184 668h68v184q0 41 -5 61.5t-31 20.5
q-19 0 -25.5 -21.5t-6.5 -60.5v-184zM81 1235v148h306v-148h-306z" />
    <glyph glyph-name="Edotaccent" unicode="&#x116;" horiz-adv-x="412" 
d="M40 0v1470h332v-222h-166v-396h130v-216h-130v-414h166v-222h-332zM145 1595v202h158v-202h-158z" />
    <glyph glyph-name="edotaccent" unicode="&#x117;" 
d="M214 -16q-97 0 -140.5 71t-43.5 192v589q0 113 43.5 193.5t140.5 80.5q65 0 106.5 -38t61.5 -100.5t20 -135.5v-326h-218v-268q0 -37 5.5 -58.5t26.5 -21.5q22 0 29 22t7 59v149h150v-148q0 -121 -45 -190.5t-143 -69.5zM184 668h68v184q0 41 -5 61.5t-31 20.5
q-19 0 -25.5 -21.5t-6.5 -60.5v-184zM155 1219v202h158v-202h-158z" />
    <glyph glyph-name="Eogonek" unicode="&#x118;" horiz-adv-x="412" 
d="M40 0v1470h332v-222h-166v-396h130v-216h-130v-414h166v-222h-332zM364 -375q-60 0 -100 34.5t-40 124.5q0 51 18.5 107.5t47.5 108.5h82q-11 -31 -21.5 -87t-10.5 -90q0 -43 15.5 -54t28.5 -11q34 0 60 23v-133q-26 -23 -80 -23z" />
    <glyph glyph-name="eogonek" unicode="&#x119;" 
d="M214 -16q-97 0 -140.5 71t-43.5 192v589q0 113 43.5 193.5t140.5 80.5q65 0 106.5 -38t61.5 -100.5t20 -135.5v-326h-218v-268q0 -37 5.5 -58.5t26.5 -21.5q22 0 29 22t7 59v149h150v-148q0 -121 -45 -190.5t-143 -69.5zM184 668h68v184q0 41 -5 61.5t-31 20.5
q-19 0 -25.5 -21.5t-6.5 -60.5v-184zM318 -355q-60 0 -100 34.5t-40 124.5q0 51 18.5 107.5t47.5 108.5h82q-11 -31 -21.5 -87t-10.5 -90q0 -43 15.5 -54t28.5 -11q34 0 60 23v-133q-26 -23 -80 -23z" />
    <glyph glyph-name="Ecaron" unicode="&#x11a;" horiz-adv-x="412" 
d="M40 0v1470h332v-222h-166v-396h130v-216h-130v-414h166v-222h-332zM139 1605l-108 180h145l47 -90l48 90h145l-108 -180h-169z" />
    <glyph glyph-name="ecaron" unicode="&#x11b;" 
d="M214 -16q-97 0 -140.5 71t-43.5 192v589q0 113 43.5 193.5t140.5 80.5q65 0 106.5 -38t61.5 -100.5t20 -135.5v-326h-218v-268q0 -37 5.5 -58.5t26.5 -21.5q22 0 29 22t7 59v149h150v-148q0 -121 -45 -190.5t-143 -69.5zM184 668h68v184q0 41 -5 61.5t-31 20.5
q-19 0 -25.5 -21.5t-6.5 -60.5v-184zM149 1229l-108 180h145l47 -90l48 90h145l-108 -180h-169z" />
    <glyph glyph-name="Gbreve" unicode="&#x11e;" horiz-adv-x="466" 
d="M202 -16q-74 0 -111 46.5t-49 115.5t-12 136v906q0 66 18.5 135t61.5 116t118 47q60 0 98.5 -29.5t60.5 -75.5t30.5 -97.5t8.5 -95.5v-246h-166v254q0 25 -5 52.5t-27 27.5q-21 0 -25.5 -27t-4.5 -53v-940q0 -32 6.5 -56t28.5 -24q24 0 31.5 25.5t7.5 54.5v274h-36v202
h190v-732h-86l-18 54q-13 -34 -45.5 -52t-74.5 -18zM228 1567q-46 0 -87 28.5t-61 67.5l82 104q10 -28 28.5 -41t37.5 -13q17 0 37.5 12t32.5 40l78 -102q-27 -42 -64 -69t-84 -27z" />
    <glyph glyph-name="gbreve" unicode="&#x11f;" horiz-adv-x="478" 
d="M222 -392q-69 0 -118.5 28t-76.5 74t-27 100q0 48 17.5 84.5t44 62t52.5 39.5q-40 20 -62 47t-22 79q0 45 25.5 85.5t56.5 68.5q-30 24 -53 66.5t-23 141.5v368q0 117 48.5 187.5t133.5 70.5q45 0 75.5 -17.5t48.5 -50.5q26 30 56 49t70 19v-180q-28 0 -47 -6.5
t-27 -17.5q3 -6 5.5 -22.5t2.5 -25.5v-380q0 -102 -47 -171t-127 -69q-20 0 -30 5q-4 -7 -8 -18.5t-4 -26.5q0 -37 27.5 -52t64.5 -24q80 -20 135 -68.5t55 -155.5q0 -73 -27.5 -139.5t-82 -108.5t-136.5 -42zM224 -222q33 0 53.5 23.5t20.5 60.5q0 44 -17 63.5t-37 25.5
l-48 15q-13 -15 -23.5 -44t-10.5 -68q0 -31 14.5 -53.5t47.5 -22.5zM220 406q21 0 24.5 29.5t3.5 58.5v350q0 33 -3.5 61.5t-24.5 28.5t-24.5 -28.5t-3.5 -61.5v-350q0 -28 3.5 -58t24.5 -30zM227 1191q-46 0 -87 28.5t-61 67.5l82 104q10 -28 28.5 -41t37.5 -13
q17 0 37.5 12t32.5 40l78 -102q-27 -42 -64 -69t-84 -27z" />
    <glyph glyph-name="Gdotaccent" unicode="&#x120;" horiz-adv-x="466" 
d="M202 -16q-74 0 -111 46.5t-49 115.5t-12 136v906q0 66 18.5 135t61.5 116t118 47q60 0 98.5 -29.5t60.5 -75.5t30.5 -97.5t8.5 -95.5v-246h-166v254q0 25 -5 52.5t-27 27.5q-21 0 -25.5 -27t-4.5 -53v-940q0 -32 6.5 -56t28.5 -24q24 0 31.5 25.5t7.5 54.5v274h-36v202
h190v-732h-86l-18 54q-13 -34 -45.5 -52t-74.5 -18zM149 1595v202h158v-202h-158z" />
    <glyph glyph-name="gdotaccent" unicode="&#x121;" horiz-adv-x="478" 
d="M222 -392q-69 0 -118.5 28t-76.5 74t-27 100q0 48 17.5 84.5t44 62t52.5 39.5q-40 20 -62 47t-22 79q0 45 25.5 85.5t56.5 68.5q-30 24 -53 66.5t-23 141.5v368q0 117 48.5 187.5t133.5 70.5q45 0 75.5 -17.5t48.5 -50.5q26 30 56 49t70 19v-180q-28 0 -47 -6.5
t-27 -17.5q3 -6 5.5 -22.5t2.5 -25.5v-380q0 -102 -47 -171t-127 -69q-20 0 -30 5q-4 -7 -8 -18.5t-4 -26.5q0 -37 27.5 -52t64.5 -24q80 -20 135 -68.5t55 -155.5q0 -73 -27.5 -139.5t-82 -108.5t-136.5 -42zM224 -222q33 0 53.5 23.5t20.5 60.5q0 44 -17 63.5t-37 25.5
l-48 15q-13 -15 -23.5 -44t-10.5 -68q0 -31 14.5 -53.5t47.5 -22.5zM220 406q21 0 24.5 29.5t3.5 58.5v350q0 33 -3.5 61.5t-24.5 28.5t-24.5 -28.5t-3.5 -61.5v-350q0 -28 3.5 -58t24.5 -30zM148 1219v202h158v-202h-158z" />
    <glyph glyph-name="uni0122" unicode="&#x122;" horiz-adv-x="466" 
d="M202 -16q-74 0 -111 46.5t-49 115.5t-12 136v906q0 66 18.5 135t61.5 116t118 47q60 0 98.5 -29.5t60.5 -75.5t30.5 -97.5t8.5 -95.5v-246h-166v254q0 25 -5 52.5t-27 27.5q-21 0 -25.5 -27t-4.5 -53v-940q0 -32 6.5 -56t28.5 -24q24 0 31.5 25.5t7.5 54.5v274h-36v202
h190v-732h-86l-18 54q-13 -34 -45.5 -52t-74.5 -18zM185 -458l49 166h-49v208h146v-208l-76 -166h-70z" />
    <glyph glyph-name="uni0123" unicode="&#x123;" horiz-adv-x="478" 
d="M222 -392q-69 0 -118.5 28t-76.5 74t-27 100q0 48 17.5 84.5t44 62t52.5 39.5q-40 20 -62 47t-22 79q0 45 25.5 85.5t56.5 68.5q-30 24 -53 66.5t-23 141.5v368q0 117 48.5 187.5t133.5 70.5q45 0 75.5 -17.5t48.5 -50.5q26 30 56 49t70 19v-180q-28 0 -47 -6.5
t-27 -17.5q3 -6 5.5 -22.5t2.5 -25.5v-380q0 -102 -47 -171t-127 -69q-20 0 -30 5q-4 -7 -8 -18.5t-4 -26.5q0 -37 27.5 -52t64.5 -24q80 -20 135 -68.5t55 -155.5q0 -73 -27.5 -139.5t-82 -108.5t-136.5 -42zM224 -222q33 0 53.5 23.5t20.5 60.5q0 44 -17 63.5t-37 25.5
l-48 15q-13 -15 -23.5 -44t-10.5 -68q0 -31 14.5 -53.5t47.5 -22.5zM220 406q21 0 24.5 29.5t3.5 58.5v350q0 33 -3.5 61.5t-24.5 28.5t-24.5 -28.5t-3.5 -61.5v-350q0 -28 3.5 -58t24.5 -30zM300 1571l-49 -166h49v-208h-146v208l76 166h70z" />
    <glyph glyph-name="Hbar" unicode="&#x126;" horiz-adv-x="476" 
d="M20 1136v190h445v-190h-445zM40 0v1470h166v-608h64v608h166v-1470h-166v640h-64v-640h-166z" />
    <glyph glyph-name="hbar" unicode="&#x127;" horiz-adv-x="435" 
d="M0 1220v142h315v-142h-315zM40 0v1470h158v-422q16 20 48 41t57 21q50 0 71.5 -39.5t26 -90.5t4.5 -84v-896h-150v862q0 18 -4 45t-19 27q-16 0 -25 -26t-9 -46v-862h-158z" />
    <glyph glyph-name="Itilde" unicode="&#x128;" horiz-adv-x="246" 
d="M40 0v1470h166v-1470h-166zM193 1581q-37 0 -69 18q-34 20 -71 20q-22 0 -45 -9.5t-40 -22.5v148q11 11 25 18.5t28 13.5t32 6q37 0 70 -16q17 -8 34.5 -15t35.5 -7q22 0 45 9.5t40 22.5v-148q-16 -17 -41 -27.5t-44 -10.5z" />
    <glyph glyph-name="itilde" unicode="&#x129;" horiz-adv-x="238" 
d="M40 0v1094h158v-1094h-158zM189 1205q-37 0 -69 18q-34 20 -71 20q-22 0 -45 -9.5t-40 -22.5v148q11 11 25 18.5t28 13.5t32 6q37 0 70 -16q17 -8 34.5 -15t35.5 -7q22 0 45 9.5t40 22.5v-148q-16 -17 -41 -27.5t-44 -10.5z" />
    <glyph glyph-name="Imacron" unicode="&#x12a;" horiz-adv-x="246" 
d="M40 0v1470h166v-1470h-166zM-30 1611v148h306v-148h-306z" />
    <glyph glyph-name="imacron" unicode="&#x12b;" horiz-adv-x="278" 
d="M30 0v1094h158v-1094h-158zM-24 1284v158h268v-158h-268z" />
    <glyph glyph-name="Iogonek" unicode="&#x12e;" horiz-adv-x="246" 
d="M40 0v1470h166v-1470h-166zM198 -375q-60 0 -100 34.5t-40 124.5q0 51 18.5 107.5t47.5 108.5h82q-11 -31 -21.5 -87t-10.5 -90q0 -43 15.5 -54t28.5 -11q34 0 60 23v-133q-26 -23 -80 -23z" />
    <glyph glyph-name="iogonek" unicode="&#x12f;" horiz-adv-x="238" 
d="M40 0v1094h158v-1094h-158zM40 1219v202h158v-202h-158zM190 -375q-60 0 -100 34.5t-40 124.5q0 51 18.5 107.5t47.5 108.5h82q-11 -31 -21.5 -87t-10.5 -90q0 -43 15.5 -54t28.5 -11q34 0 60 23v-133q-26 -23 -80 -23z" />
    <glyph glyph-name="Idotaccent" unicode="&#x130;" horiz-adv-x="246" 
d="M40 0v1470h166v-1470h-166zM44 1595v202h158v-202h-158z" />
    <glyph glyph-name="dotlessi" unicode="&#x131;" horiz-adv-x="238" 
d="M40 0v1094h158v-1094h-158z" />
    <glyph glyph-name="IJ" unicode="&#x132;" horiz-adv-x="534" 
d="M232 -12v216q33 -7 49 10.5t20.5 44.5t4.5 47v1164h166v-1198q0 -85 -21 -152.5t-73 -104t-146 -27.5zM30 0v1470h166v-1470h-166z" />
    <glyph glyph-name="ij" unicode="&#x133;" horiz-adv-x="490" 
d="M246 -376q-16 0 -31.5 3t-38.5 13l4 182q7 -2 12.5 -3t10.5 -1q29 0 36 40t7 70v1166h158v-1122q0 -87 -10 -167t-43.5 -130.5t-104.5 -50.5zM30 0v1094h158v-1094h-158zM30 1268v202h158v-202h-158zM246 1268v202h158v-202h-158z" />
    <glyph glyph-name="uni0136" unicode="&#x136;" horiz-adv-x="520" 
d="M40 0v1470h160v-490v-24h6l7 24l125 490h164l-140 -495l160 -975h-165l-107 660h-4l-46 -160v-500h-160zM193 -458l49 166h-49v208h146v-208l-76 -166h-70z" />
    <glyph glyph-name="uni0137" unicode="&#x137;" horiz-adv-x="458" 
d="M40 0v1470h152v-662v-36h8l9 36l74 286h144l-107 -356l128 -738h-153l-76 442l-1 16h-2l-24 -90v-368h-152zM155 -458l49 166h-49v208h146v-208l-76 -166h-70z" />
    <glyph glyph-name="Lacute" unicode="&#x139;" horiz-adv-x="424" 
d="M40 0v1470h166v-1270h172v-200h-338zM143 1600l103 180h161l-144 -180h-120z" />
    <glyph glyph-name="lacute" unicode="&#x13a;" horiz-adv-x="238" 
d="M40 0v1470h158v-1470h-158zM37 1600l103 180h161l-144 -180h-120z" />
    <glyph glyph-name="uni013B" unicode="&#x13b;" horiz-adv-x="424" 
d="M40 0v1470h166v-1270h172v-200h-338zM145 -458l49 166h-49v208h146v-208l-76 -166h-70z" />
    <glyph glyph-name="uni013C" unicode="&#x13c;" horiz-adv-x="238" 
d="M40 0v1470h158v-1470h-158zM75 -458l49 166h-49v208h146v-208l-76 -166h-70z" />
    <glyph glyph-name="Lcaron" unicode="&#x13d;" horiz-adv-x="474" 
d="M30 0v1470h166v-1270h172v-200h-338zM262 1214l42 260h-42v222h162v-222l-66 -260h-96z" />
    <glyph glyph-name="lcaron" unicode="&#x13e;" horiz-adv-x="400" 
d="M40 0v1470h158v-1470h-158zM238 988l42 260h-42v222h162v-222l-66 -260h-96z" />
    <glyph glyph-name="Ldot" unicode="&#x13f;" horiz-adv-x="446" 
d="M30 0v1470h166v-1270h172v-200h-338zM246 658v222h162v-222h-162z" />
    <glyph glyph-name="Lslash" unicode="&#x141;" horiz-adv-x="424" 
d="M-83 634l342 304l82 -101l-342 -304zM40 0v1470h166v-1270h172v-200h-338z" />
    <glyph glyph-name="lslash" unicode="&#x142;" horiz-adv-x="238" 
d="M-73 654l302 264l82 -101l-302 -264zM40 0v1470h158v-1470h-158z" />
    <glyph glyph-name="Nacute" unicode="&#x143;" horiz-adv-x="494" 
d="M40 0v1470h150l97 -636l10 -88h3v724h154v-1470h-140l-106 630l-11 114h-3v-744h-154zM203 1600l103 180h161l-144 -180h-120z" />
    <glyph glyph-name="nacute" unicode="&#x144;" horiz-adv-x="452" 
d="M40 0v1094h158v-56q15 23 48 47.5t58 24.5q50 0 73 -39.5t29 -90.5t6 -84v-896h-156v864q0 32 -7.5 51t-22.5 19t-21.5 -20t-6.5 -52v-862h-158zM167 1224l103 180h161l-144 -180h-120z" />
    <glyph glyph-name="uni0145" unicode="&#x145;" horiz-adv-x="494" 
d="M40 0v1470h150l97 -636l10 -88h3v724h154v-1470h-140l-106 630l-11 114h-3v-744h-154zM205 -458l49 166h-49v208h146v-208l-76 -166h-70z" />
    <glyph glyph-name="uni0146" unicode="&#x146;" horiz-adv-x="452" 
d="M40 0v1094h158v-56q15 23 48 47.5t58 24.5q50 0 73 -39.5t29 -90.5t6 -84v-896h-156v864q0 32 -7.5 51t-22.5 19t-21.5 -20t-6.5 -52v-862h-158zM169 -458l49 166h-49v208h146v-208l-76 -166h-70z" />
    <glyph glyph-name="Ncaron" unicode="&#x147;" horiz-adv-x="494" 
d="M40 0v1470h150l97 -636l10 -88h3v724h154v-1470h-140l-106 630l-11 114h-3v-744h-154zM193 1605l-108 180h145l47 -90l48 90h145l-108 -180h-169z" />
    <glyph glyph-name="ncaron" unicode="&#x148;" horiz-adv-x="452" 
d="M40 0v1094h158v-56q15 23 48 47.5t58 24.5q50 0 73 -39.5t29 -90.5t6 -84v-896h-156v864q0 32 -7.5 51t-22.5 19t-21.5 -20t-6.5 -52v-862h-158zM157 1229l-108 180h145l47 -90l48 90h145l-108 -180h-169z" />
    <glyph glyph-name="Eng" unicode="&#x14a;" horiz-adv-x="494" 
d="M284 -376q-48 0 -71 14v186q14 -10 45 -10q38 0 44 49.5t6 110.5v139h145v-141q0 -103 -11 -181.5t-46.5 -122.5t-111.5 -44zM39 0v1470h150l97 -636l10 -88h3v724h154v-1470h-140l-106 630l-11 114h-3v-744h-154z" />
    <glyph glyph-name="eng" unicode="&#x14b;" horiz-adv-x="452" 
d="M232 -376q-48 0 -71 14v186q14 -10 45 -10q38 0 44 49.5t6 110.5v139h156v-141q0 -103 -13.5 -181.5t-52 -122.5t-114.5 -44zM40 0v1094h158v-56q15 23 48 47.5t58 24.5q50 0 73 -39.5t29 -90.5t6 -84v-896h-156v864q0 32 -7.5 51t-22.5 19t-21.5 -20t-6.5 -52v-862h-158
z" />
    <glyph glyph-name="Omacron" unicode="&#x14c;" horiz-adv-x="462" 
d="M232 -16q-75 0 -119 43t-63.5 111t-19.5 144v906q0 73 19.5 141t63.5 112.5t119 44.5q80 0 123.5 -44.5t60 -112.5t16.5 -141v-906q0 -76 -19 -144t-62.5 -111t-118.5 -43zM234 194q23 0 27.5 27t4.5 61v906q0 35 -4.5 61.5t-27.5 26.5q-22 0 -28 -26t-6 -62v-906
q0 -40 6 -64t28 -24zM80 1611v148h306v-148h-306z" />
    <glyph glyph-name="omacron" unicode="&#x14d;" horiz-adv-x="430" 
d="M215 -14q-97 0 -141 74t-44 188v600q0 114 44 188t141 74q98 0 141.5 -74t43.5 -188v-600q0 -114 -43.5 -188t-141.5 -74zM216 162q22 0 28 23.5t6 68.5v588q0 45 -6 68.5t-28 23.5t-29 -23.5t-7 -68.5v-588q0 -45 7 -68.5t29 -23.5zM81 1235v148h306v-148h-306z" />
    <glyph glyph-name="Ohungarumlaut" unicode="&#x150;" horiz-adv-x="462" 
d="M232 -16q-75 0 -119 43t-63.5 111t-19.5 144v906q0 73 19.5 141t63.5 112.5t119 44.5q80 0 123.5 -44.5t60 -112.5t16.5 -141v-906q0 -76 -19 -144t-62.5 -111t-118.5 -43zM234 194q23 0 27.5 27t4.5 61v906q0 35 -4.5 61.5t-27.5 26.5q-22 0 -28 -26t-6 -62v-906
q0 -40 6 -64t28 -24zM211 1600l101 180h158l-134 -180h-125zM-4 1600l93 180h151l-127 -180h-117z" />
    <glyph glyph-name="ohungarumlaut" unicode="&#x151;" horiz-adv-x="430" 
d="M215 -14q-97 0 -141 74t-44 188v600q0 114 44 188t141 74q98 0 141.5 -74t43.5 -188v-600q0 -114 -43.5 -188t-141.5 -74zM216 162q22 0 28 23.5t6 68.5v588q0 45 -6 68.5t-28 23.5t-29 -23.5t-7 -68.5v-588q0 -45 7 -68.5t29 -23.5zM212 1224l101 180h158l-134 -180
h-125zM-3 1224l93 180h151l-127 -180h-117z" />
    <glyph glyph-name="OE" unicode="&#x152;" horiz-adv-x="650" 
d="M278 0v1470h332v-222h-166v-396h130v-216h-130v-414h166v-222h-332zM232 -16q-75 0 -119 43t-63.5 111t-19.5 144v906q0 73 19.5 141t63.5 112.5t119 44.5q80 0 123.5 -44.5t60 -112.5t16.5 -141v-906q0 -76 -19 -144t-62.5 -111t-118.5 -43zM234 194q23 0 27.5 27
t4.5 61v906q0 35 -4.5 61.5t-27.5 26.5q-22 0 -28 -26t-6 -62v-906q0 -40 6 -64t28 -24z" />
    <glyph glyph-name="oe" unicode="&#x153;" horiz-adv-x="653" 
d="M215 -14q-97 0 -141 74t-44 188v600q0 114 44 188t141 74q98 0 141.5 -74t43.5 -188v-600q0 -114 -43.5 -188t-141.5 -74zM216 162q22 0 28 23.5t6 68.5v588q0 45 -6 68.5t-28 23.5t-29 -23.5t-7 -68.5v-588q0 -45 7 -68.5t29 -23.5zM435 -16q-97 0 -140.5 71t-43.5 192
v589q0 113 43.5 193.5t140.5 80.5q65 0 106.5 -38t61.5 -100.5t20 -135.5v-326h-218v-268q0 -37 5.5 -58.5t26.5 -21.5q22 0 29 22t7 59v149h150v-148q0 -121 -45 -190.5t-143 -69.5zM405 668h68v184q0 41 -5 61.5t-31 20.5q-19 0 -25.5 -21.5t-6.5 -60.5v-184z" />
    <glyph glyph-name="Racute" unicode="&#x154;" horiz-adv-x="474" 
d="M40 0v1470h158q117 0 173.5 -107.5t56.5 -316.5q0 -105 -18.5 -196t-57.5 -138l102 -712h-172l-71 640h-5v-640h-166zM206 810q27 0 40.5 33.5t18.5 86t5 108.5q0 84 -12 151t-52 67v-446zM183 1600l103 180h161l-144 -180h-120z" />
    <glyph glyph-name="racute" unicode="&#x155;" horiz-adv-x="343" 
d="M40 0v1094h154v-87q11 19 29.5 43t44.5 42t60 18v-240q-9 4 -18 5.5t-19 1.5q-36 0 -66.5 -33t-30.5 -84v-760h-154zM119 1224l103 180h161l-144 -180h-120z" />
    <glyph glyph-name="uni0156" unicode="&#x156;" horiz-adv-x="474" 
d="M40 0v1470h158q117 0 173.5 -107.5t56.5 -316.5q0 -105 -18.5 -196t-57.5 -138l102 -712h-172l-71 640h-5v-640h-166zM206 810q27 0 40.5 33.5t18.5 86t5 108.5q0 84 -12 151t-52 67v-446zM185 -458l49 166h-49v208h146v-208l-76 -166h-70z" />
    <glyph glyph-name="uni0157" unicode="&#x157;" horiz-adv-x="343" 
d="M40 0v1094h154v-87q11 19 29.5 43t44.5 42t60 18v-240q-9 4 -18 5.5t-19 1.5q-36 0 -66.5 -33t-30.5 -84v-760h-154zM115 -458l49 166h-49v208h146v-208l-76 -166h-70z" />
    <glyph glyph-name="Rcaron" unicode="&#x158;" horiz-adv-x="474" 
d="M40 0v1470h158q117 0 173.5 -107.5t56.5 -316.5q0 -105 -18.5 -196t-57.5 -138l102 -712h-172l-71 640h-5v-640h-166zM206 810q27 0 40.5 33.5t18.5 86t5 108.5q0 84 -12 151t-52 67v-446zM173 1605l-108 180h145l47 -90l48 90h145l-108 -180h-169z" />
    <glyph glyph-name="rcaron" unicode="&#x159;" horiz-adv-x="343" 
d="M40 0v1094h154v-87q11 19 29.5 43t44.5 42t60 18v-240q-9 4 -18 5.5t-19 1.5q-36 0 -66.5 -33t-30.5 -84v-760h-154zM109 1229l-108 180h145l47 -90l48 90h145l-108 -180h-169z" />
    <glyph glyph-name="Sacute" unicode="&#x15a;" horiz-adv-x="472" 
d="M210 -16q-66 0 -106.5 37.5t-62 99.5t-29.5 137.5t-8 151.5l162 24q0 -17 1 -57.5t5 -85.5t13 -77t25 -32q23 0 28.5 36t5.5 106q0 86 -24 176.5t-86 213.5q-30 61 -57 137t-44 152.5t-17 138.5q0 56 8 116t28.5 111.5t58 84t97.5 32.5q72 0 112.5 -34.5t59.5 -91.5
t23.5 -125.5t4.5 -136.5l-164 -24q0 20 -0.5 55t-3.5 71.5t-9.5 62t-18.5 25.5q-18 0 -23 -40.5t-5 -105.5q0 -72 24 -155.5t74 -190.5q62 -130 96 -235.5t34 -216.5q0 -52 -7.5 -114.5t-29 -118t-61 -91.5t-104.5 -36zM161 1600l103 180h161l-144 -180h-120z" />
    <glyph glyph-name="sacute" unicode="&#x15b;" horiz-adv-x="408" 
d="M202 -16q-64 0 -100.5 31t-54 80.5t-22.5 108.5t-5 114h144q0 -67 8.5 -116.5t29.5 -49.5t26.5 33.5t5.5 88.5q0 53 -25.5 109t-61.5 116q-46 78 -79.5 161.5t-33.5 189.5q0 105 44 182.5t134 77.5q62 0 97.5 -30.5t52 -77t21.5 -97t5 -91.5h-136q0 56 -6 92t-29 36
q-18 0 -26.5 -33.5t-8.5 -80.5q0 -64 22.5 -121t49.5 -99q42 -66 86 -156t44 -204q0 -35 -7 -80t-25.5 -87t-54.5 -69.5t-95 -27.5zM157 1224l103 180h161l-144 -180h-120z" />
    <glyph glyph-name="Scedilla" unicode="&#x15e;" horiz-adv-x="472" 
d="M210 -16q-66 0 -106.5 37.5t-62 99.5t-29.5 137.5t-8 151.5l162 24q0 -17 1 -57.5t5 -85.5t13 -77t25 -32q23 0 28.5 36t5.5 106q0 86 -24 176.5t-86 213.5q-30 61 -57 137t-44 152.5t-17 138.5q0 56 8 116t28.5 111.5t58 84t97.5 32.5q72 0 112.5 -34.5t59.5 -91.5
t23.5 -125.5t4.5 -136.5l-164 -24q0 20 -0.5 55t-3.5 71.5t-9.5 62t-18.5 25.5q-18 0 -23 -40.5t-5 -105.5q0 -72 24 -155.5t74 -190.5q62 -130 96 -235.5t34 -216.5q0 -52 -7.5 -114.5t-29 -118t-61 -91.5t-104.5 -36zM308 -69q28 0 59 -25.5t31 -95.5q0 -65 -25 -106.5
t-63.5 -60.5t-79.5 -19q-35 0 -72 15.5t-54 34.5l35 92q12 -13 41 -28t57 -15q29 0 49 20t20 57q0 31 -11 44t-23 13q-30 0 -42 -34l-72 36l39 141h78l-31 -108h-6q5 22 24 30.5t46 8.5z" />
    <glyph glyph-name="scedilla" unicode="&#x15f;" horiz-adv-x="408" 
d="M202 -16q-64 0 -100.5 31t-54 80.5t-22.5 108.5t-5 114h144q0 -67 8.5 -116.5t29.5 -49.5t26.5 33.5t5.5 88.5q0 53 -25.5 109t-61.5 116q-46 78 -79.5 161.5t-33.5 189.5q0 105 44 182.5t134 77.5q62 0 97.5 -30.5t52 -77t21.5 -97t5 -91.5h-136q0 56 -6 92t-29 36
q-18 0 -26.5 -33.5t-8.5 -80.5q0 -64 22.5 -121t49.5 -99q42 -66 86 -156t44 -204q0 -35 -7 -80t-25.5 -87t-54.5 -69.5t-95 -27.5zM304 -69q28 0 59 -25.5t31 -95.5q0 -65 -25 -106.5t-63.5 -60.5t-79.5 -19q-35 0 -72 15.5t-54 34.5l35 92q12 -13 41 -28t57 -15
q29 0 49 20t20 57q0 31 -11 44t-23 13q-30 0 -42 -34l-72 36l39 141h78l-31 -108h-6q5 22 24 30.5t46 8.5z" />
    <glyph glyph-name="Scaron" unicode="&#x160;" horiz-adv-x="472" 
d="M210 -16q-66 0 -106.5 37.5t-62 99.5t-29.5 137.5t-8 151.5l162 24q0 -17 1 -57.5t5 -85.5t13 -77t25 -32q23 0 28.5 36t5.5 106q0 86 -24 176.5t-86 213.5q-30 61 -57 137t-44 152.5t-17 138.5q0 56 8 116t28.5 111.5t58 84t97.5 32.5q72 0 112.5 -34.5t59.5 -91.5
t23.5 -125.5t4.5 -136.5l-164 -24q0 20 -0.5 55t-3.5 71.5t-9.5 62t-18.5 25.5q-18 0 -23 -40.5t-5 -105.5q0 -72 24 -155.5t74 -190.5q62 -130 96 -235.5t34 -216.5q0 -52 -7.5 -114.5t-29 -118t-61 -91.5t-104.5 -36zM151 1605l-108 180h145l47 -90l48 90h145l-108 -180
h-169z" />
    <glyph glyph-name="scaron" unicode="&#x161;" horiz-adv-x="408" 
d="M202 -16q-64 0 -100.5 31t-54 80.5t-22.5 108.5t-5 114h144q0 -67 8.5 -116.5t29.5 -49.5t26.5 33.5t5.5 88.5q0 53 -25.5 109t-61.5 116q-46 78 -79.5 161.5t-33.5 189.5q0 105 44 182.5t134 77.5q62 0 97.5 -30.5t52 -77t21.5 -97t5 -91.5h-136q0 56 -6 92t-29 36
q-18 0 -26.5 -33.5t-8.5 -80.5q0 -64 22.5 -121t49.5 -99q42 -66 86 -156t44 -204q0 -35 -7 -80t-25.5 -87t-54.5 -69.5t-95 -27.5zM147 1229l-108 180h145l47 -90l48 90h145l-108 -180h-169z" />
    <glyph glyph-name="uni0162" unicode="&#x162;" horiz-adv-x="450" 
d="M142 0v1248h-122v222h410v-222h-122v-1248h-166zM297 -69q28 0 59 -25.5t31 -95.5q0 -65 -25 -106.5t-63.5 -60.5t-79.5 -19q-35 0 -72 15.5t-54 34.5l35 92q12 -13 41 -28t57 -15q29 0 49 20t20 57q0 31 -11 44t-23 13q-30 0 -42 -34l-72 36l39 141h78l-31 -108h-6
q5 22 24 30.5t46 8.5z" />
    <glyph glyph-name="uni0163" unicode="&#x163;" horiz-adv-x="384" 
d="M275 -16q-63 0 -103 37t-59 110t-19 181v600h-84v182h84v270h166v-270h114v-182h-114v-609q0 -64 10.5 -94.5t46.5 -30.5q15 0 27 3t19 7v-185q-16 -8 -35 -13.5t-53 -5.5zM339 -69q28 0 59 -25.5t31 -95.5q0 -65 -25 -106.5t-63.5 -60.5t-79.5 -19q-35 0 -72 15.5
t-54 34.5l35 92q12 -13 41 -28t57 -15q29 0 49 20t20 57q0 31 -11 44t-23 13q-30 0 -42 -34l-72 36l39 141h78l-31 -108h-6q5 22 24 30.5t46 8.5z" />
    <glyph glyph-name="Tcaron" unicode="&#x164;" horiz-adv-x="450" 
d="M142 0v1248h-122v222h410v-222h-122v-1248h-166zM140 1605l-108 180h145l47 -90l48 90h145l-108 -180h-169z" />
    <glyph glyph-name="tcaron" unicode="&#x165;" horiz-adv-x="384" 
d="M275 -16q-63 0 -103 37t-59 110t-19 181v600h-84v182h84v270h166v-270h114v-182h-114v-609q0 -64 10.5 -94.5t46.5 -30.5q15 0 27 3t19 7v-185q-16 -8 -35 -13.5t-53 -5.5zM90 1500l-108 180h145l47 -90l48 90h145l-108 -180h-169z" />
    <glyph glyph-name="Tbar" unicode="&#x166;" horiz-adv-x="450" 
d="M53 636v190h348v-190h-348zM142 0v1248h-122v222h410v-222h-122v-1248h-166z" />
    <glyph glyph-name="tbar" unicode="&#x167;" horiz-adv-x="414" 
d="M40 589v154h304v-154h-304zM275 -16q-63 0 -103 37t-59 110t-19 181v600h-84v182h84v270h166v-270h114v-182h-114v-609q0 -64 10.5 -94.5t46.5 -30.5q15 0 27 3t19 7v-185q-16 -8 -35 -13.5t-53 -5.5z" />
    <glyph glyph-name="Utilde" unicode="&#x168;" horiz-adv-x="474" 
d="M238 -16q-80 0 -123 39.5t-59 107.5t-16 151v1188h166v-1188q0 -42 6.5 -65t25.5 -23q18 0 24 23.5t6 64.5v1188h166v-1188q0 -83 -15.5 -150.5t-58 -107.5t-122.5 -40zM308 1581q-37 0 -69 18q-34 20 -71 20q-22 0 -45 -9.5t-40 -22.5v148q11 11 25 18.5t28 13.5t32 6
q37 0 70 -16q17 -8 34.5 -15t35.5 -7q22 0 45 9.5t40 22.5v-148q-16 -17 -41 -27.5t-44 -10.5z" />
    <glyph glyph-name="utilde" unicode="&#x169;" horiz-adv-x="452" 
d="M148 -16q-50 0 -73 39.5t-29 90.5t-6 84v896h156v-864q0 -31 7.5 -50.5t22.5 -19.5t21.5 20.5t6.5 51.5v862h158v-1094h-158v56q-15 -22 -47.5 -47t-58.5 -25zM320 1205q-37 0 -69 18q-34 20 -71 20q-22 0 -45 -9.5t-40 -22.5v148q11 11 25 18.5t28 13.5t32 6
q37 0 70 -16q17 -8 34.5 -15t35.5 -7q22 0 45 9.5t40 22.5v-148q-16 -17 -41 -27.5t-44 -10.5z" />
    <glyph glyph-name="Umacron" unicode="&#x16a;" horiz-adv-x="474" 
d="M238 -16q-80 0 -123 39.5t-59 107.5t-16 151v1188h166v-1188q0 -42 6.5 -65t25.5 -23q18 0 24 23.5t6 64.5v1188h166v-1188q0 -83 -15.5 -150.5t-58 -107.5t-122.5 -40zM85 1611v148h306v-148h-306z" />
    <glyph glyph-name="umacron" unicode="&#x16b;" horiz-adv-x="452" 
d="M148 -16q-50 0 -73 39.5t-29 90.5t-6 84v896h156v-864q0 -31 7.5 -50.5t22.5 -19.5t21.5 20.5t6.5 51.5v862h158v-1094h-158v56q-15 -22 -47.5 -47t-58.5 -25zM97 1235v148h306v-148h-306z" />
    <glyph glyph-name="Uring" unicode="&#x16e;" horiz-adv-x="474" 
d="M238 -16q-80 0 -123 39.5t-59 107.5t-16 151v1188h166v-1188q0 -42 6.5 -65t25.5 -23q18 0 24 23.5t6 64.5v1188h166v-1188q0 -83 -15.5 -150.5t-58 -107.5t-122.5 -40zM239 1570q-61 0 -105.5 39.5t-44.5 100.5q0 62 44.5 101t105.5 39q62 0 105 -39t43 -101
q0 -61 -43 -100.5t-105 -39.5zM239 1640q29 0 51.5 21t22.5 49q0 29 -22.5 49.5t-51.5 20.5q-28 0 -51 -20.5t-23 -49.5q0 -28 23 -49t51 -21z" />
    <glyph glyph-name="uring" unicode="&#x16f;" horiz-adv-x="452" 
d="M148 -16q-50 0 -73 39.5t-29 90.5t-6 84v896h156v-864q0 -31 7.5 -50.5t22.5 -19.5t21.5 20.5t6.5 51.5v862h158v-1094h-158v56q-15 -22 -47.5 -47t-58.5 -25zM251 1194q-61 0 -105.5 39.5t-44.5 100.5q0 62 44.5 101t105.5 39q62 0 105 -39t43 -101q0 -61 -43 -100.5
t-105 -39.5zM251 1264q29 0 51.5 21t22.5 49q0 29 -22.5 49.5t-51.5 20.5q-28 0 -51 -20.5t-23 -49.5q0 -28 23 -49t51 -21z" />
    <glyph glyph-name="Uhungarumlaut" unicode="&#x170;" horiz-adv-x="474" 
d="M238 -16q-80 0 -123 39.5t-59 107.5t-16 151v1188h166v-1188q0 -42 6.5 -65t25.5 -23q18 0 24 23.5t6 64.5v1188h166v-1188q0 -83 -15.5 -150.5t-58 -107.5t-122.5 -40zM216 1600l101 180h158l-134 -180h-125zM1 1600l93 180h151l-127 -180h-117z" />
    <glyph glyph-name="uhungarumlaut" unicode="&#x171;" horiz-adv-x="452" 
d="M148 -16q-50 0 -73 39.5t-29 90.5t-6 84v896h156v-864q0 -31 7.5 -50.5t22.5 -19.5t21.5 20.5t6.5 51.5v862h158v-1094h-158v56q-15 -22 -47.5 -47t-58.5 -25zM228 1224l101 180h158l-134 -180h-125zM13 1224l93 180h151l-127 -180h-117z" />
    <glyph glyph-name="Uogonek" unicode="&#x172;" horiz-adv-x="474" 
d="M238 -16q-80 0 -123 39.5t-59 107.5t-16 151v1188h166v-1188q0 -42 6.5 -65t25.5 -23q18 0 24 23.5t6 64.5v1188h166v-1188q0 -83 -15.5 -150.5t-58 -107.5t-122.5 -40zM376 -316q-60 0 -100 34.5t-40 124.5q0 51 18.5 107.5t47.5 108.5h82q-11 -31 -21.5 -87t-10.5 -90
q0 -43 15.5 -54t28.5 -11q34 0 60 23v-133q-26 -23 -80 -23z" />
    <glyph glyph-name="uogonek" unicode="&#x173;" horiz-adv-x="452" 
d="M148 -16q-50 0 -73 39.5t-29 90.5t-6 84v896h156v-864q0 -31 7.5 -50.5t22.5 -19.5t21.5 20.5t6.5 51.5v862h158v-1094h-158v56q-15 -22 -47.5 -47t-58.5 -25zM404 -375q-60 0 -100 34.5t-40 124.5q0 51 18.5 107.5t47.5 108.5h82q-11 -31 -21.5 -87t-10.5 -90
q0 -43 15.5 -54t28.5 -11q34 0 60 23v-133q-26 -23 -80 -23z" />
    <glyph glyph-name="Wcircumflex" unicode="&#x174;" horiz-adv-x="689" 
d="M126 0l-111 1470h163l26 -764l3 -48h11l4 48l51 764h143l51 -764l5 -48h10l2 48l27 764h163l-112 -1470h-151l-55 696l-9 86h-5l-8 -86l-57 -696h-151zM186 1604l104 180h161l104 -180h-138l-47 90l-45 -90h-139z" />
    <glyph glyph-name="wcircumflex" unicode="&#x175;" horiz-adv-x="552" 
d="M93 0l-88 1094h152l16 -468l2 -84h4l4 84l46 468h96l44 -468l4 -84h4l2 84l16 468h152l-86 -1094h-140l-41 499l-3 71h-4l-3 -71l-39 -499h-138zM95 1228l104 180h161l104 -180h-138l-47 90l-45 -90h-139z" />
    <glyph glyph-name="Ycircumflex" unicode="&#x176;" horiz-adv-x="522" 
d="M180 0v626l-165 844h178l60 -470l5 -64h5l6 64l58 470h180l-165 -844v-626h-162zM73 1604l104 180h161l104 -180h-138l-47 90l-45 -90h-139z" />
    <glyph glyph-name="ycircumflex" unicode="&#x177;" horiz-adv-x="430" 
d="M84 -396q-13 0 -26 2.5t-27 7.5v178q8 -4 16 -5.5t15 -1.5q12 0 22 4t17 14q23 36 29.5 82t6.5 83l-132 1126h154l52 -602l4 -94h4l3 94l47 602h156l-136 -1176q-9 -80 -32 -152t-64.5 -117t-108.5 -45zM33 1228l104 180h161l104 -180h-138l-47 90l-45 -90h-139z" />
    <glyph glyph-name="Ydieresis" unicode="&#x178;" horiz-adv-x="522" 
d="M180 0v626l-165 844h178l60 -470l5 -64h5l6 64l58 470h180l-165 -844v-626h-162zM294 1592v196h142v-196h-142zM79 1592v196h142v-196h-142z" />
    <glyph glyph-name="Zacute" unicode="&#x179;" horiz-adv-x="410" 
d="M15 0v232l202 1024h-174v214h352v-214l-208 -1042h208v-214h-380zM160 1600l103 180h161l-144 -180h-120z" />
    <glyph glyph-name="zacute" unicode="&#x17a;" horiz-adv-x="410" 
d="M40 0v164l166 746h-140v184h304v-164l-166 -746h166v-184h-330zM161 1224l103 180h161l-144 -180h-120z" />
    <glyph glyph-name="Zdotaccent" unicode="&#x17b;" horiz-adv-x="410" 
d="M15 0v232l202 1024h-174v214h352v-214l-208 -1042h208v-214h-380zM156 1595v202h158v-202h-158z" />
    <glyph glyph-name="zdotaccent" unicode="&#x17c;" horiz-adv-x="410" 
d="M40 0v164l166 746h-140v184h304v-164l-166 -746h166v-184h-330zM157 1219v202h158v-202h-158z" />
    <glyph glyph-name="Zcaron" unicode="&#x17d;" horiz-adv-x="410" 
d="M15 0v232l202 1024h-174v214h352v-214l-208 -1042h208v-214h-380zM150 1605l-108 180h145l47 -90l48 90h145l-108 -180h-169z" />
    <glyph glyph-name="zcaron" unicode="&#x17e;" horiz-adv-x="410" 
d="M40 0v164l166 746h-140v184h304v-164l-166 -746h166v-184h-330zM151 1229l-108 180h145l47 -90l48 90h145l-108 -180h-169z" />
    <glyph glyph-name="longs" unicode="&#x17f;" horiz-adv-x="338" 
d="M4 0v1146q0 121 21 188t59.5 93.5t89.5 26.5q23 0 48.5 -4.5t55.5 -15.5l-16 -160q-22 9 -38 12.5t-30 3.5q-34 0 -48 -32.5t-14 -127.5v-1130h-128z" />
    <glyph glyph-name="Ohorn" unicode="&#x1a0;" horiz-adv-x="462" 
d="M232 -16q-75 0 -119 43t-63.5 111t-19.5 144v906q0 73 19.5 141t63.5 112.5t119 44.5q80 0 123.5 -44.5t60 -112.5t16.5 -141v-906q0 -76 -19 -144t-62.5 -111t-118.5 -43zM234 194q23 0 27.5 27t4.5 61v906q0 35 -4.5 61.5t-27.5 26.5q-22 0 -28 -26t-6 -62v-906
q0 -40 6 -64t28 -24zM305 1470q36 0 54 21t24 67t6 120h139q0 -139 -26 -214t-76 -103t-121 -28v137z" />
    <glyph glyph-name="ohorn" unicode="&#x1a1;" horiz-adv-x="430" 
d="M215 -14q-97 0 -141 74t-44 188v600q0 114 44 188t141 74q98 0 141.5 -74t43.5 -188v-600q0 -114 -43.5 -188t-141.5 -74zM216 162q22 0 28 23.5t6 68.5v588q0 45 -6 68.5t-28 23.5t-29 -23.5t-7 -68.5v-588q0 -45 7 -68.5t29 -23.5zM276 1081q36 0 54 21t24 67t6 120
h139q0 -139 -26 -214t-76 -103t-121 -28v137z" />
    <glyph glyph-name="Uhorn" unicode="&#x1af;" horiz-adv-x="474" 
d="M238 -16q-80 0 -123 39.5t-59 107.5t-16 151v1188h166v-1188q0 -42 6.5 -65t25.5 -23q18 0 24 23.5t6 64.5v1188h166v-1188q0 -83 -15.5 -150.5t-58 -107.5t-122.5 -40zM358 1470q36 0 54 21t24 67t6 120h139q0 -139 -26 -214t-76 -103t-121 -28v137z" />
    <glyph glyph-name="uhorn" unicode="&#x1b0;" horiz-adv-x="452" 
d="M148 -16q-50 0 -73 39.5t-29 90.5t-6 84v896h156v-864q0 -31 7.5 -50.5t22.5 -19.5t21.5 20.5t6.5 51.5v862h158v-1094h-158v56q-15 -22 -47.5 -47t-58.5 -25zM369 1094q36 0 54 21t24 67t6 120h139q0 -139 -26 -214t-76 -103t-121 -28v137z" />
    <glyph glyph-name="uni01CD" unicode="&#x1cd;" horiz-adv-x="520" 
d="M20 0l144 1470h194l142 -1470h-172l-22 300h-92l-22 -300h-172zM227 506h68l-33 575v31h-4v-31zM177 1605l-108 180h145l47 -90l48 90h145l-108 -180h-169z" />
    <glyph glyph-name="uni01CE" unicode="&#x1ce;" horiz-adv-x="444" 
d="M154 -16q-64 0 -99 87t-35 213q0 114 39.5 203t122.5 161q20 17 40 39.5t24 38.5v118q0 26 -3.5 59t-22.5 33q-20 0 -24 -34.5t-4 -57.5v-72h-152v76q0 61 19 121.5t60 100.5t107 40q61 0 98 -40.5t53.5 -98.5t16.5 -109v-712q0 -55 3 -92.5t7 -57.5h-134q-3 5 -11 25.5
t-8 40.5h-5q-12 -31 -34 -56.5t-58 -25.5zM207 174q20 0 28.5 23t8.5 51v254q-27 -34 -48.5 -92t-21.5 -124q0 -46 7 -79t26 -33zM165 1229l-108 180h145l47 -90l48 90h145l-108 -180h-169z" />
    <glyph glyph-name="uni01CF" unicode="&#x1cf;" horiz-adv-x="246" 
d="M40 0v1470h166v-1470h-166zM38 1605l-108 180h145l47 -90l48 90h145l-108 -180h-169z" />
    <glyph glyph-name="uni01D0" unicode="&#x1d0;" horiz-adv-x="238" 
d="M40 0v1094h158v-1094h-158zM34 1229l-108 180h145l47 -90l48 90h145l-108 -180h-169z" />
    <glyph glyph-name="uni01D1" unicode="&#x1d1;" horiz-adv-x="462" 
d="M232 -16q-75 0 -119 43t-63.5 111t-19.5 144v906q0 73 19.5 141t63.5 112.5t119 44.5q80 0 123.5 -44.5t60 -112.5t16.5 -141v-906q0 -76 -19 -144t-62.5 -111t-118.5 -43zM234 194q23 0 27.5 27t4.5 61v906q0 35 -4.5 61.5t-27.5 26.5q-22 0 -28 -26t-6 -62v-906
q0 -40 6 -64t28 -24zM148 1605l-108 180h145l47 -90l48 90h145l-108 -180h-169z" />
    <glyph glyph-name="uni01D2" unicode="&#x1d2;" horiz-adv-x="430" 
d="M215 -14q-97 0 -141 74t-44 188v600q0 114 44 188t141 74q98 0 141.5 -74t43.5 -188v-600q0 -114 -43.5 -188t-141.5 -74zM216 162q22 0 28 23.5t6 68.5v588q0 45 -6 68.5t-28 23.5t-29 -23.5t-7 -68.5v-588q0 -45 7 -68.5t29 -23.5zM149 1229l-108 180h145l47 -90l48 90
h145l-108 -180h-169z" />
    <glyph glyph-name="uni01D3" unicode="&#x1d3;" horiz-adv-x="474" 
d="M238 -16q-80 0 -123 39.5t-59 107.5t-16 151v1188h166v-1188q0 -42 6.5 -65t25.5 -23q18 0 24 23.5t6 64.5v1188h166v-1188q0 -83 -15.5 -150.5t-58 -107.5t-122.5 -40zM153 1605l-108 180h145l47 -90l48 90h145l-108 -180h-169z" />
    <glyph glyph-name="uni01D4" unicode="&#x1d4;" horiz-adv-x="452" 
d="M148 -16q-50 0 -73 39.5t-29 90.5t-6 84v896h156v-864q0 -31 7.5 -50.5t22.5 -19.5t21.5 20.5t6.5 51.5v862h158v-1094h-158v56q-15 -22 -47.5 -47t-58.5 -25zM165 1229l-108 180h145l47 -90l48 90h145l-108 -180h-169z" />
    <glyph glyph-name="uni01D5" unicode="&#x1d5;" horiz-adv-x="474" 
d="M238 -16q-80 0 -123 39.5t-59 107.5t-16 151v1188h166v-1188q0 -42 6.5 -65t25.5 -23q18 0 24 23.5t6 64.5v1188h166v-1188q0 -83 -15.5 -150.5t-58 -107.5t-122.5 -40zM274 1592v196h142v-196h-142zM59 1592v196h142v-196h-142zM85 1929v148h306v-148h-306z" />
    <glyph glyph-name="uni01D6" unicode="&#x1d6;" horiz-adv-x="452" 
d="M148 -16q-50 0 -73 39.5t-29 90.5t-6 84v896h156v-864q0 -31 7.5 -50.5t22.5 -19.5t21.5 20.5t6.5 51.5v862h158v-1094h-158v56q-15 -22 -47.5 -47t-58.5 -25zM286 1216v196h142v-196h-142zM71 1216v196h142v-196h-142zM97 1553v148h306v-148h-306z" />
    <glyph glyph-name="uni01D7" unicode="&#x1d7;" horiz-adv-x="474" 
d="M238 -16q-80 0 -123 39.5t-59 107.5t-16 151v1188h166v-1188q0 -42 6.5 -65t25.5 -23q18 0 24 23.5t6 64.5v1188h166v-1188q0 -83 -15.5 -150.5t-58 -107.5t-122.5 -40zM274 1592v196h142v-196h-142zM59 1592v196h142v-196h-142zM163 1918l103 180h161l-144 -180h-120z
" />
    <glyph glyph-name="uni01D8" unicode="&#x1d8;" horiz-adv-x="452" 
d="M148 -16q-50 0 -73 39.5t-29 90.5t-6 84v896h156v-864q0 -31 7.5 -50.5t22.5 -19.5t21.5 20.5t6.5 51.5v862h158v-1094h-158v56q-15 -22 -47.5 -47t-58.5 -25zM286 1216v196h142v-196h-142zM71 1216v196h142v-196h-142zM175 1542l103 180h161l-144 -180h-120z" />
    <glyph glyph-name="uni01D9" unicode="&#x1d9;" horiz-adv-x="474" 
d="M238 -16q-80 0 -123 39.5t-59 107.5t-16 151v1188h166v-1188q0 -42 6.5 -65t25.5 -23q18 0 24 23.5t6 64.5v1188h166v-1188q0 -83 -15.5 -150.5t-58 -107.5t-122.5 -40zM274 1592v196h142v-196h-142zM59 1592v196h142v-196h-142zM153 1923l-108 180h145l47 -90l48 90h145
l-108 -180h-169z" />
    <glyph glyph-name="uni01DA" unicode="&#x1da;" horiz-adv-x="452" 
d="M148 -16q-50 0 -73 39.5t-29 90.5t-6 84v896h156v-864q0 -31 7.5 -50.5t22.5 -19.5t21.5 20.5t6.5 51.5v862h158v-1094h-158v56q-15 -22 -47.5 -47t-58.5 -25zM286 1216v196h142v-196h-142zM71 1216v196h142v-196h-142zM165 1547l-108 180h145l47 -90l48 90h145
l-108 -180h-169z" />
    <glyph glyph-name="uni01DB" unicode="&#x1db;" horiz-adv-x="474" 
d="M238 -16q-80 0 -123 39.5t-59 107.5t-16 151v1188h166v-1188q0 -42 6.5 -65t25.5 -23q18 0 24 23.5t6 64.5v1188h166v-1188q0 -83 -15.5 -150.5t-58 -107.5t-122.5 -40zM274 1592v196h142v-196h-142zM59 1592v196h142v-196h-142zM309 1918h-120l-144 180h161z" />
    <glyph glyph-name="uni01DC" unicode="&#x1dc;" horiz-adv-x="452" 
d="M148 -16q-50 0 -73 39.5t-29 90.5t-6 84v896h156v-864q0 -31 7.5 -50.5t22.5 -19.5t21.5 20.5t6.5 51.5v862h158v-1094h-158v56q-15 -22 -47.5 -47t-58.5 -25zM286 1216v196h142v-196h-142zM71 1216v196h142v-196h-142zM321 1542h-120l-144 180h161z" />
    <glyph glyph-name="uni0218" unicode="&#x218;" horiz-adv-x="472" 
d="M210 -16q-66 0 -106.5 37.5t-62 99.5t-29.5 137.5t-8 151.5l162 24q0 -17 1 -57.5t5 -85.5t13 -77t25 -32q23 0 28.5 36t5.5 106q0 86 -24 176.5t-86 213.5q-30 61 -57 137t-44 152.5t-17 138.5q0 56 8 116t28.5 111.5t58 84t97.5 32.5q72 0 112.5 -34.5t59.5 -91.5
t23.5 -125.5t4.5 -136.5l-164 -24q0 20 -0.5 55t-3.5 71.5t-9.5 62t-18.5 25.5q-18 0 -23 -40.5t-5 -105.5q0 -72 24 -155.5t74 -190.5q62 -130 96 -235.5t34 -216.5q0 -52 -7.5 -114.5t-29 -118t-61 -91.5t-104.5 -36zM163 -458l49 166h-49v208h146v-208l-76 -166h-70z" />
    <glyph glyph-name="uni0219" unicode="&#x219;" horiz-adv-x="408" 
d="M202 -16q-64 0 -100.5 31t-54 80.5t-22.5 108.5t-5 114h144q0 -67 8.5 -116.5t29.5 -49.5t26.5 33.5t5.5 88.5q0 53 -25.5 109t-61.5 116q-46 78 -79.5 161.5t-33.5 189.5q0 105 44 182.5t134 77.5q62 0 97.5 -30.5t52 -77t21.5 -97t5 -91.5h-136q0 56 -6 92t-29 36
q-18 0 -26.5 -33.5t-8.5 -80.5q0 -64 22.5 -121t49.5 -99q42 -66 86 -156t44 -204q0 -35 -7 -80t-25.5 -87t-54.5 -69.5t-95 -27.5zM159 -458l49 166h-49v208h146v-208l-76 -166h-70z" />
    <glyph glyph-name="uni021A" unicode="&#x21a;" horiz-adv-x="450" 
d="M142 0v1248h-122v222h410v-222h-122v-1248h-166zM152 -458l49 166h-49v208h146v-208l-76 -166h-70z" />
    <glyph glyph-name="uni021B" unicode="&#x21b;" horiz-adv-x="384" 
d="M275 -16q-63 0 -103 37t-59 110t-19 181v600h-84v182h84v270h166v-270h114v-182h-114v-609q0 -64 10.5 -94.5t46.5 -30.5q15 0 27 3t19 7v-185q-16 -8 -35 -13.5t-53 -5.5zM194 -458l49 166h-49v208h146v-208l-76 -166h-70z" />
    <glyph glyph-name="circumflex" unicode="&#x2c6;" horiz-adv-x="658" 
d="M134 1228l104 180h161l104 -180h-138l-47 90l-45 -90h-139z" />
    <glyph glyph-name="caron" unicode="&#x2c7;" horiz-adv-x="658" 
d="M262 1229l-108 180h145l47 -90l48 90h145l-108 -180h-169z" />
    <glyph glyph-name="breve" unicode="&#x2d8;" horiz-adv-x="660" 
d="M300 1191q-46 0 -87 28.5t-61 67.5l82 104q10 -28 28.5 -41t37.5 -13q17 0 37.5 12t32.5 40l78 -102q-27 -42 -64 -69t-84 -27z" />
    <glyph glyph-name="dotaccent" unicode="&#x2d9;" horiz-adv-x="658" 
d="M220 1219v202h158v-202h-158z" />
    <glyph glyph-name="ring" unicode="&#x2da;" horiz-adv-x="658" 
d="M337 1194q-61 0 -105.5 39.5t-44.5 100.5q0 62 44.5 101t105.5 39q62 0 105 -39t43 -101q0 -61 -43 -100.5t-105 -39.5zM337 1264q29 0 51.5 21t22.5 49q0 29 -22.5 49.5t-51.5 20.5q-28 0 -51 -20.5t-23 -49.5q0 -28 23 -49t51 -21z" />
    <glyph glyph-name="ogonek" unicode="&#x2db;" horiz-adv-x="660" 
d="M346 -375q-60 0 -100 34.5t-40 124.5q0 51 18.5 107.5t47.5 108.5h82q-11 -31 -21.5 -87t-10.5 -90q0 -43 15.5 -54t28.5 -11q34 0 60 23v-133q-26 -23 -80 -23z" />
    <glyph glyph-name="tilde" unicode="&#x2dc;" horiz-adv-x="660" 
d="M421 1205q-37 0 -69 18q-34 20 -71 20q-22 0 -45 -9.5t-40 -22.5v148q11 11 25 18.5t28 13.5t32 6q37 0 70 -16q17 -8 34.5 -15t35.5 -7q22 0 45 9.5t40 22.5v-148q-16 -17 -41 -27.5t-44 -10.5z" />
    <glyph glyph-name="hungarumlaut" unicode="&#x2dd;" horiz-adv-x="660" 
d="M307 1224l101 180h158l-134 -180h-125zM92 1224l93 180h151l-127 -180h-117z" />
    <glyph glyph-name="gravecomb" unicode="&#x300;" horiz-adv-x="0" 
d="M439 1224h-120l-144 180h161z" />
    <glyph glyph-name="acutecomb" unicode="&#x301;" horiz-adv-x="0" 
d="M242 1224l103 180h161l-144 -180h-120z" />
    <glyph glyph-name="uni0302" unicode="&#x302;" horiz-adv-x="0" 
d="M134 1228l104 180h161l104 -180h-138l-47 90l-45 -90h-139z" />
    <glyph glyph-name="tildecomb" unicode="&#x303;" horiz-adv-x="0" 
d="M421 1205q-37 0 -69 18q-34 20 -71 20q-22 0 -45 -9.5t-40 -22.5v148q11 11 25 18.5t28 13.5t32 6q37 0 70 -16q17 -8 34.5 -15t35.5 -7q22 0 45 9.5t40 22.5v-148q-16 -17 -41 -27.5t-44 -10.5z" />
    <glyph glyph-name="uni0304" unicode="&#x304;" horiz-adv-x="0" 
d="M197 1235v148h306v-148h-306z" />
    <glyph glyph-name="uni0306" unicode="&#x306;" horiz-adv-x="0" 
d="M300 1191q-46 0 -87 28.5t-61 67.5l82 104q10 -28 28.5 -41t37.5 -13q17 0 37.5 12t32.5 40l78 -102q-27 -42 -64 -69t-84 -27z" />
    <glyph glyph-name="uni0307" unicode="&#x307;" horiz-adv-x="0" 
d="M220 1219v202h158v-202h-158z" />
    <glyph glyph-name="uni0308" unicode="&#x308;" horiz-adv-x="0" 
d="M381 1216v196h142v-196h-142zM166 1216v196h142v-196h-142z" />
    <glyph glyph-name="hookabovecomb" unicode="&#x309;" horiz-adv-x="0" 
d="M181 1437q58 0 109 -6.5t83.5 -30t32.5 -73.5q0 -64 -44.5 -95t-114.5 -31l-19 74q22 2 43 10t21 30q0 20 -23.5 27t-87.5 7v88z" />
    <glyph glyph-name="uni030A" unicode="&#x30a;" horiz-adv-x="0" 
d="M337 1194q-61 0 -105.5 39.5t-44.5 100.5q0 62 44.5 101t105.5 39q62 0 105 -39t43 -101q0 -61 -43 -100.5t-105 -39.5zM337 1264q29 0 51.5 21t22.5 49q0 29 -22.5 49.5t-51.5 20.5q-28 0 -51 -20.5t-23 -49.5q0 -28 23 -49t51 -21z" />
    <glyph glyph-name="uni030B" unicode="&#x30b;" horiz-adv-x="0" 
d="M307 1224l101 180h158l-134 -180h-125zM92 1224l93 180h151l-127 -180h-117z" />
    <glyph glyph-name="uni030C" unicode="&#x30c;" horiz-adv-x="0" 
d="M262 1229l-108 180h145l47 -90l48 90h145l-108 -180h-169z" />
    <glyph glyph-name="uni0312" unicode="&#x312;" horiz-adv-x="0" 
d="M357 1571l-49 -166h49v-208h-146v208l76 166h70z" />
    <glyph glyph-name="uni031B" unicode="&#x31b;" horiz-adv-x="0" 
d="M192 1094q36 0 54 21t24 67t6 120h139q0 -139 -26 -214t-76 -103t-121 -28v137z" />
    <glyph glyph-name="dotbelowcomb" unicode="&#x323;" horiz-adv-x="0" 
d="M250 -287v202h158v-202h-158z" />
    <glyph glyph-name="uni0326" unicode="&#x326;" horiz-adv-x="0" 
d="M214 -458l49 166h-49v208h146v-208l-76 -166h-70z" />
    <glyph glyph-name="uni0327" unicode="&#x327;" horiz-adv-x="0" 
d="M403 -69q28 0 59 -25.5t31 -95.5q0 -65 -25 -106.5t-63.5 -60.5t-79.5 -19q-35 0 -72 15.5t-54 34.5l35 92q12 -13 41 -28t57 -15q29 0 49 20t20 57q0 31 -11 44t-23 13q-30 0 -42 -34l-72 36l39 141h78l-31 -108h-6q5 22 24 30.5t46 8.5z" />
    <glyph glyph-name="uni0328" unicode="&#x328;" horiz-adv-x="0" 
d="M346 -375q-60 0 -100 34.5t-40 124.5q0 51 18.5 107.5t47.5 108.5h82q-11 -31 -21.5 -87t-10.5 -90q0 -43 15.5 -54t28.5 -11q34 0 60 23v-133q-26 -23 -80 -23z" />
    <glyph glyph-name="Wgrave" unicode="&#x1e80;" horiz-adv-x="689" 
d="M126 0l-111 1470h163l26 -764l3 -48h11l4 48l51 764h143l51 -764l5 -48h10l2 48l27 764h163l-112 -1470h-151l-55 696l-9 86h-5l-8 -86l-57 -696h-151zM442 1600h-120l-144 180h161z" />
    <glyph glyph-name="wgrave" unicode="&#x1e81;" horiz-adv-x="552" 
d="M93 0l-88 1094h152l16 -468l2 -84h4l4 84l46 468h96l44 -468l4 -84h4l2 84l16 468h152l-86 -1094h-140l-41 499l-3 71h-4l-3 -71l-39 -499h-138zM351 1224h-120l-144 180h161z" />
    <glyph glyph-name="Wacute" unicode="&#x1e82;" horiz-adv-x="689" 
d="M126 0l-111 1470h163l26 -764l3 -48h11l4 48l51 764h143l51 -764l5 -48h10l2 48l27 764h163l-112 -1470h-151l-55 696l-9 86h-5l-8 -86l-57 -696h-151zM296 1600l103 180h161l-144 -180h-120z" />
    <glyph glyph-name="wacute" unicode="&#x1e83;" horiz-adv-x="552" 
d="M93 0l-88 1094h152l16 -468l2 -84h4l4 84l46 468h96l44 -468l4 -84h4l2 84l16 468h152l-86 -1094h-140l-41 499l-3 71h-4l-3 -71l-39 -499h-138zM205 1224l103 180h161l-144 -180h-120z" />
    <glyph glyph-name="Wdieresis" unicode="&#x1e84;" horiz-adv-x="689" 
d="M126 0l-111 1470h163l26 -764l3 -48h11l4 48l51 764h143l51 -764l5 -48h10l2 48l27 764h163l-112 -1470h-151l-55 696l-9 86h-5l-8 -86l-57 -696h-151zM407 1592v196h142v-196h-142zM192 1592v196h142v-196h-142z" />
    <glyph glyph-name="wdieresis" unicode="&#x1e85;" horiz-adv-x="552" 
d="M93 0l-88 1094h152l16 -468l2 -84h4l4 84l46 468h96l44 -468l4 -84h4l2 84l16 468h152l-86 -1094h-140l-41 499l-3 71h-4l-3 -71l-39 -499h-138zM316 1216v196h142v-196h-142zM101 1216v196h142v-196h-142z" />
    <glyph glyph-name="uni1E9E" unicode="&#x1e9e;" horiz-adv-x="506" 
d="M40 0v1206q0 71 21 135t65.5 104.5t115.5 40.5q78 0 121 -43t60 -107.5t17 -127.5q0 -49 -15.5 -93t-42.5 -77q23 -24 41.5 -61t28.5 -85q13 -57 18.5 -138.5t5.5 -191.5q0 -181 -12 -292.5t-38 -171.5q-25 -60 -71 -79t-111 -19v188q18 0 33.5 13t24.5 53
q9 41 13.5 114.5t4.5 193.5q0 128 -4.5 205t-13.5 119t-24.5 56t-33.5 14v138q21 0 36.5 31t15.5 83q0 41 -14 69.5t-40 28.5q-22 0 -33 -27.5t-11 -72.5v-1206h-158z" />
    <glyph glyph-name="uni1EA0" unicode="&#x1ea0;" horiz-adv-x="520" 
d="M20 0l144 1470h194l142 -1470h-172l-22 300h-92l-22 -300h-172zM227 506h68l-33 575v31h-4v-31zM181 -287v202h158v-202h-158z" />
    <glyph glyph-name="uni1EA1" unicode="&#x1ea1;" horiz-adv-x="444" 
d="M154 -16q-64 0 -99 87t-35 213q0 114 39.5 203t122.5 161q20 17 40 39.5t24 38.5v118q0 26 -3.5 59t-22.5 33q-20 0 -24 -34.5t-4 -57.5v-72h-152v76q0 61 19 121.5t60 100.5t107 40q61 0 98 -40.5t53.5 -98.5t16.5 -109v-712q0 -55 3 -92.5t7 -57.5h-134q-3 5 -11 25.5
t-8 40.5h-5q-12 -31 -34 -56.5t-58 -25.5zM207 174q20 0 28.5 23t8.5 51v254q-27 -34 -48.5 -92t-21.5 -124q0 -46 7 -79t26 -33zM145 -287v202h158v-202h-158z" />
    <glyph glyph-name="uni1EA2" unicode="&#x1ea2;" horiz-adv-x="520" 
d="M20 0l144 1470h194l142 -1470h-172l-22 300h-92l-22 -300h-172zM227 506h68l-33 575v31h-4v-31zM164 1813q58 0 109 -6.5t83.5 -30t32.5 -73.5q0 -64 -44.5 -95t-114.5 -31l-19 74q22 2 43 10t21 30q0 20 -23.5 27t-87.5 7v88z" />
    <glyph glyph-name="uni1EA3" unicode="&#x1ea3;" horiz-adv-x="444" 
d="M154 -16q-64 0 -99 87t-35 213q0 114 39.5 203t122.5 161q20 17 40 39.5t24 38.5v118q0 26 -3.5 59t-22.5 33q-20 0 -24 -34.5t-4 -57.5v-72h-152v76q0 61 19 121.5t60 100.5t107 40q61 0 98 -40.5t53.5 -98.5t16.5 -109v-712q0 -55 3 -92.5t7 -57.5h-134q-3 5 -11 25.5
t-8 40.5h-5q-12 -31 -34 -56.5t-58 -25.5zM207 174q20 0 28.5 23t8.5 51v254q-27 -34 -48.5 -92t-21.5 -124q0 -46 7 -79t26 -33zM152 1437q58 0 109 -6.5t83.5 -30t32.5 -73.5q0 -64 -44.5 -95t-114.5 -31l-19 74q22 2 43 10t21 30q0 20 -23.5 27t-87.5 7v88z" />
    <glyph glyph-name="uni1EA4" unicode="&#x1ea4;" horiz-adv-x="520" 
d="M20 0l144 1470h194l142 -1470h-172l-22 300h-92l-22 -300h-172zM227 506h68l-33 575v31h-4v-31zM77 1604l104 180h161l104 -180h-138l-47 90l-45 -90h-139zM398 1747l103 180h161l-144 -180h-120z" />
    <glyph glyph-name="uni1EA5" unicode="&#x1ea5;" horiz-adv-x="444" 
d="M154 -16q-64 0 -99 87t-35 213q0 114 39.5 203t122.5 161q20 17 40 39.5t24 38.5v118q0 26 -3.5 59t-22.5 33q-20 0 -24 -34.5t-4 -57.5v-72h-152v76q0 61 19 121.5t60 100.5t107 40q61 0 98 -40.5t53.5 -98.5t16.5 -109v-712q0 -55 3 -92.5t7 -57.5h-134q-3 5 -11 25.5
t-8 40.5h-5q-12 -31 -34 -56.5t-58 -25.5zM207 174q20 0 28.5 23t8.5 51v254q-27 -34 -48.5 -92t-21.5 -124q0 -46 7 -79t26 -33zM65 1228l104 180h161l104 -180h-138l-47 90l-45 -90h-139zM386 1371l103 180h161l-144 -180h-120z" />
    <glyph glyph-name="uni1EA6" unicode="&#x1ea6;" horiz-adv-x="520" 
d="M20 0l144 1470h194l142 -1470h-172l-22 300h-92l-22 -300h-172zM227 506h68l-33 575v31h-4v-31zM77 1604l104 180h161l104 -180h-138l-47 90l-45 -90h-139zM556 1749h-120l-144 180h161z" />
    <glyph glyph-name="uni1EA7" unicode="&#x1ea7;" horiz-adv-x="444" 
d="M154 -16q-64 0 -99 87t-35 213q0 114 39.5 203t122.5 161q20 17 40 39.5t24 38.5v118q0 26 -3.5 59t-22.5 33q-20 0 -24 -34.5t-4 -57.5v-72h-152v76q0 61 19 121.5t60 100.5t107 40q61 0 98 -40.5t53.5 -98.5t16.5 -109v-712q0 -55 3 -92.5t7 -57.5h-134q-3 5 -11 25.5
t-8 40.5h-5q-12 -31 -34 -56.5t-58 -25.5zM207 174q20 0 28.5 23t8.5 51v254q-27 -34 -48.5 -92t-21.5 -124q0 -46 7 -79t26 -33zM65 1228l104 180h161l104 -180h-138l-47 90l-45 -90h-139zM544 1373h-120l-144 180h161z" />
    <glyph glyph-name="uni1EA8" unicode="&#x1ea8;" horiz-adv-x="520" 
d="M20 0l144 1470h194l142 -1470h-172l-22 300h-92l-22 -300h-172zM227 506h68l-33 575v31h-4v-31zM77 1604l104 180h161l104 -180h-138l-47 90l-45 -90h-139zM340 1980q58 0 109 -6.5t83.5 -30t32.5 -73.5q0 -64 -44.5 -95t-114.5 -31l-19 74q22 2 43 10t21 30
q0 20 -23.5 27t-87.5 7v88z" />
    <glyph glyph-name="uni1EA9" unicode="&#x1ea9;" horiz-adv-x="444" 
d="M154 -16q-64 0 -99 87t-35 213q0 114 39.5 203t122.5 161q20 17 40 39.5t24 38.5v118q0 26 -3.5 59t-22.5 33q-20 0 -24 -34.5t-4 -57.5v-72h-152v76q0 61 19 121.5t60 100.5t107 40q61 0 98 -40.5t53.5 -98.5t16.5 -109v-712q0 -55 3 -92.5t7 -57.5h-134q-3 5 -11 25.5
t-8 40.5h-5q-12 -31 -34 -56.5t-58 -25.5zM207 174q20 0 28.5 23t8.5 51v254q-27 -34 -48.5 -92t-21.5 -124q0 -46 7 -79t26 -33zM65 1228l104 180h161l104 -180h-138l-47 90l-45 -90h-139zM328 1604q58 0 109 -6.5t83.5 -30t32.5 -73.5q0 -64 -44.5 -95t-114.5 -31l-19 74
q22 2 43 10t21 30q0 20 -23.5 27t-87.5 7v88z" />
    <glyph glyph-name="uni1EAA" unicode="&#x1eaa;" horiz-adv-x="520" 
d="M20 0l144 1470h194l142 -1470h-172l-22 300h-92l-22 -300h-172zM227 506h68l-33 575v31h-4v-31zM77 1604l104 180h161l104 -180h-138l-47 90l-45 -90h-139zM332 1834q-37 0 -69 18q-34 20 -71 20q-22 0 -45 -9.5t-40 -22.5v148q11 11 25 18.5t28 13.5t32 6q37 0 70 -16
q17 -8 34.5 -15t35.5 -7q22 0 45 9.5t40 22.5v-148q-16 -17 -41 -27.5t-44 -10.5z" />
    <glyph glyph-name="uni1EAB" unicode="&#x1eab;" horiz-adv-x="444" 
d="M154 -16q-64 0 -99 87t-35 213q0 114 39.5 203t122.5 161q20 17 40 39.5t24 38.5v118q0 26 -3.5 59t-22.5 33q-20 0 -24 -34.5t-4 -57.5v-72h-152v76q0 61 19 121.5t60 100.5t107 40q61 0 98 -40.5t53.5 -98.5t16.5 -109v-712q0 -55 3 -92.5t7 -57.5h-134q-3 5 -11 25.5
t-8 40.5h-5q-12 -31 -34 -56.5t-58 -25.5zM207 174q20 0 28.5 23t8.5 51v254q-27 -34 -48.5 -92t-21.5 -124q0 -46 7 -79t26 -33zM65 1228l104 180h161l104 -180h-138l-47 90l-45 -90h-139zM320 1458q-37 0 -69 18q-34 20 -71 20q-22 0 -45 -9.5t-40 -22.5v148
q11 11 25 18.5t28 13.5t32 6q37 0 70 -16q17 -8 34.5 -15t35.5 -7q22 0 45 9.5t40 22.5v-148q-16 -17 -41 -27.5t-44 -10.5z" />
    <glyph glyph-name="uni1EAC" unicode="&#x1eac;" horiz-adv-x="520" 
d="M20 0l144 1470h194l142 -1470h-172l-22 300h-92l-22 -300h-172zM227 506h68l-33 575v31h-4v-31zM181 -287v202h158v-202h-158zM77 1604l104 180h161l104 -180h-138l-47 90l-45 -90h-139z" />
    <glyph glyph-name="uni1EAD" unicode="&#x1ead;" horiz-adv-x="444" 
d="M154 -16q-64 0 -99 87t-35 213q0 114 39.5 203t122.5 161q20 17 40 39.5t24 38.5v118q0 26 -3.5 59t-22.5 33q-20 0 -24 -34.5t-4 -57.5v-72h-152v76q0 61 19 121.5t60 100.5t107 40q61 0 98 -40.5t53.5 -98.5t16.5 -109v-712q0 -55 3 -92.5t7 -57.5h-134q-3 5 -11 25.5
t-8 40.5h-5q-12 -31 -34 -56.5t-58 -25.5zM207 174q20 0 28.5 23t8.5 51v254q-27 -34 -48.5 -92t-21.5 -124q0 -46 7 -79t26 -33zM145 -287v202h158v-202h-158zM65 1228l104 180h161l104 -180h-138l-47 90l-45 -90h-139z" />
    <glyph glyph-name="uni1EAE" unicode="&#x1eae;" horiz-adv-x="520" 
d="M20 0l144 1470h194l142 -1470h-172l-22 300h-92l-22 -300h-172zM227 506h68l-33 575v31h-4v-31zM262 1567q-46 0 -87 28.5t-61 67.5l82 104q10 -28 28.5 -41t37.5 -13q17 0 37.5 12t32.5 40l78 -102q-27 -42 -64 -69t-84 -27zM187 1832l103 180h161l-144 -180h-120z" />
    <glyph glyph-name="uni1EAF" unicode="&#x1eaf;" horiz-adv-x="444" 
d="M154 -16q-64 0 -99 87t-35 213q0 114 39.5 203t122.5 161q20 17 40 39.5t24 38.5v118q0 26 -3.5 59t-22.5 33q-20 0 -24 -34.5t-4 -57.5v-72h-152v76q0 61 19 121.5t60 100.5t107 40q61 0 98 -40.5t53.5 -98.5t16.5 -109v-712q0 -55 3 -92.5t7 -57.5h-134q-3 5 -11 25.5
t-8 40.5h-5q-12 -31 -34 -56.5t-58 -25.5zM207 174q20 0 28.5 23t8.5 51v254q-27 -34 -48.5 -92t-21.5 -124q0 -46 7 -79t26 -33zM250 1191q-46 0 -87 28.5t-61 67.5l82 104q10 -28 28.5 -41t37.5 -13q17 0 37.5 12t32.5 40l78 -102q-27 -42 -64 -69t-84 -27zM175 1456
l103 180h161l-144 -180h-120z" />
    <glyph glyph-name="uni1EB0" unicode="&#x1eb0;" horiz-adv-x="520" 
d="M20 0l144 1470h194l142 -1470h-172l-22 300h-92l-22 -300h-172zM227 506h68l-33 575v31h-4v-31zM262 1567q-46 0 -87 28.5t-61 67.5l82 104q10 -28 28.5 -41t37.5 -13q17 0 37.5 12t32.5 40l78 -102q-27 -42 -64 -69t-84 -27zM357 1836h-120l-144 180h161z" />
    <glyph glyph-name="uni1EB1" unicode="&#x1eb1;" horiz-adv-x="444" 
d="M154 -16q-64 0 -99 87t-35 213q0 114 39.5 203t122.5 161q20 17 40 39.5t24 38.5v118q0 26 -3.5 59t-22.5 33q-20 0 -24 -34.5t-4 -57.5v-72h-152v76q0 61 19 121.5t60 100.5t107 40q61 0 98 -40.5t53.5 -98.5t16.5 -109v-712q0 -55 3 -92.5t7 -57.5h-134q-3 5 -11 25.5
t-8 40.5h-5q-12 -31 -34 -56.5t-58 -25.5zM207 174q20 0 28.5 23t8.5 51v254q-27 -34 -48.5 -92t-21.5 -124q0 -46 7 -79t26 -33zM250 1191q-46 0 -87 28.5t-61 67.5l82 104q10 -28 28.5 -41t37.5 -13q17 0 37.5 12t32.5 40l78 -102q-27 -42 -64 -69t-84 -27zM345 1460h-120
l-144 180h161z" />
    <glyph glyph-name="uni1EB2" unicode="&#x1eb2;" horiz-adv-x="520" 
d="M20 0l144 1470h194l142 -1470h-172l-22 300h-92l-22 -300h-172zM227 506h68l-33 575v31h-4v-31zM262 1567q-46 0 -87 28.5t-61 67.5l82 104q10 -28 28.5 -41t37.5 -13q17 0 37.5 12t32.5 40l78 -102q-27 -42 -64 -69t-84 -27zM164 2043q58 0 109 -6.5t83.5 -30
t32.5 -73.5q0 -64 -44.5 -95t-114.5 -31l-19 74q22 2 43 10t21 30q0 20 -23.5 27t-87.5 7v88z" />
    <glyph glyph-name="uni1EB3" unicode="&#x1eb3;" horiz-adv-x="444" 
d="M154 -16q-64 0 -99 87t-35 213q0 114 39.5 203t122.5 161q20 17 40 39.5t24 38.5v118q0 26 -3.5 59t-22.5 33q-20 0 -24 -34.5t-4 -57.5v-72h-152v76q0 61 19 121.5t60 100.5t107 40q61 0 98 -40.5t53.5 -98.5t16.5 -109v-712q0 -55 3 -92.5t7 -57.5h-134q-3 5 -11 25.5
t-8 40.5h-5q-12 -31 -34 -56.5t-58 -25.5zM207 174q20 0 28.5 23t8.5 51v254q-27 -34 -48.5 -92t-21.5 -124q0 -46 7 -79t26 -33zM250 1191q-46 0 -87 28.5t-61 67.5l82 104q10 -28 28.5 -41t37.5 -13q17 0 37.5 12t32.5 40l78 -102q-27 -42 -64 -69t-84 -27zM152 1667
q58 0 109 -6.5t83.5 -30t32.5 -73.5q0 -64 -44.5 -95t-114.5 -31l-19 74q22 2 43 10t21 30q0 20 -23.5 27t-87.5 7v88z" />
    <glyph glyph-name="uni1EB4" unicode="&#x1eb4;" horiz-adv-x="520" 
d="M20 0l144 1470h194l142 -1470h-172l-22 300h-92l-22 -300h-172zM227 506h68l-33 575v31h-4v-31zM262 1567q-46 0 -87 28.5t-61 67.5l82 104q10 -28 28.5 -41t37.5 -13q17 0 37.5 12t32.5 40l78 -102q-27 -42 -64 -69t-84 -27zM334 1810q-37 0 -69 18q-34 20 -71 20
q-22 0 -45 -9.5t-40 -22.5v148q11 11 25 18.5t28 13.5t32 6q37 0 70 -16q17 -8 34.5 -15t35.5 -7q22 0 45 9.5t40 22.5v-148q-16 -17 -41 -27.5t-44 -10.5z" />
    <glyph glyph-name="uni1EB5" unicode="&#x1eb5;" horiz-adv-x="444" 
d="M154 -16q-64 0 -99 87t-35 213q0 114 39.5 203t122.5 161q20 17 40 39.5t24 38.5v118q0 26 -3.5 59t-22.5 33q-20 0 -24 -34.5t-4 -57.5v-72h-152v76q0 61 19 121.5t60 100.5t107 40q61 0 98 -40.5t53.5 -98.5t16.5 -109v-712q0 -55 3 -92.5t7 -57.5h-134q-3 5 -11 25.5
t-8 40.5h-5q-12 -31 -34 -56.5t-58 -25.5zM207 174q20 0 28.5 23t8.5 51v254q-27 -34 -48.5 -92t-21.5 -124q0 -46 7 -79t26 -33zM250 1191q-46 0 -87 28.5t-61 67.5l82 104q10 -28 28.5 -41t37.5 -13q17 0 37.5 12t32.5 40l78 -102q-27 -42 -64 -69t-84 -27zM322 1434
q-37 0 -69 18q-34 20 -71 20q-22 0 -45 -9.5t-40 -22.5v148q11 11 25 18.5t28 13.5t32 6q37 0 70 -16q17 -8 34.5 -15t35.5 -7q22 0 45 9.5t40 22.5v-148q-16 -17 -41 -27.5t-44 -10.5z" />
    <glyph glyph-name="uni1EB6" unicode="&#x1eb6;" horiz-adv-x="520" 
d="M20 0l144 1470h194l142 -1470h-172l-22 300h-92l-22 -300h-172zM227 506h68l-33 575v31h-4v-31zM181 -287v202h158v-202h-158zM262 1567q-46 0 -87 28.5t-61 67.5l82 104q10 -28 28.5 -41t37.5 -13q17 0 37.5 12t32.5 40l78 -102q-27 -42 -64 -69t-84 -27z" />
    <glyph glyph-name="uni1EB7" unicode="&#x1eb7;" horiz-adv-x="444" 
d="M154 -16q-64 0 -99 87t-35 213q0 114 39.5 203t122.5 161q20 17 40 39.5t24 38.5v118q0 26 -3.5 59t-22.5 33q-20 0 -24 -34.5t-4 -57.5v-72h-152v76q0 61 19 121.5t60 100.5t107 40q61 0 98 -40.5t53.5 -98.5t16.5 -109v-712q0 -55 3 -92.5t7 -57.5h-134q-3 5 -11 25.5
t-8 40.5h-5q-12 -31 -34 -56.5t-58 -25.5zM207 174q20 0 28.5 23t8.5 51v254q-27 -34 -48.5 -92t-21.5 -124q0 -46 7 -79t26 -33zM145 -287v202h158v-202h-158zM250 1191q-46 0 -87 28.5t-61 67.5l82 104q10 -28 28.5 -41t37.5 -13q17 0 37.5 12t32.5 40l78 -102
q-27 -42 -64 -69t-84 -27z" />
    <glyph glyph-name="uni1EB8" unicode="&#x1eb8;" horiz-adv-x="412" 
d="M40 0v1470h332v-222h-166v-396h130v-216h-130v-414h166v-222h-332zM145 -287v202h158v-202h-158z" />
    <glyph glyph-name="uni1EB9" unicode="&#x1eb9;" 
d="M214 -16q-97 0 -140.5 71t-43.5 192v589q0 113 43.5 193.5t140.5 80.5q65 0 106.5 -38t61.5 -100.5t20 -135.5v-326h-218v-268q0 -37 5.5 -58.5t26.5 -21.5q22 0 29 22t7 59v149h150v-148q0 -121 -45 -190.5t-143 -69.5zM184 668h68v184q0 41 -5 61.5t-31 20.5
q-19 0 -25.5 -21.5t-6.5 -60.5v-184zM155 -287v202h158v-202h-158z" />
    <glyph glyph-name="uni1EBA" unicode="&#x1eba;" horiz-adv-x="412" 
d="M40 0v1470h332v-222h-166v-396h130v-216h-130v-414h166v-222h-332zM126 1813q58 0 109 -6.5t83.5 -30t32.5 -73.5q0 -64 -44.5 -95t-114.5 -31l-19 74q22 2 43 10t21 30q0 20 -23.5 27t-87.5 7v88z" />
    <glyph glyph-name="uni1EBB" unicode="&#x1ebb;" 
d="M214 -16q-97 0 -140.5 71t-43.5 192v589q0 113 43.5 193.5t140.5 80.5q65 0 106.5 -38t61.5 -100.5t20 -135.5v-326h-218v-268q0 -37 5.5 -58.5t26.5 -21.5q22 0 29 22t7 59v149h150v-148q0 -121 -45 -190.5t-143 -69.5zM184 668h68v184q0 41 -5 61.5t-31 20.5
q-19 0 -25.5 -21.5t-6.5 -60.5v-184zM136 1437q58 0 109 -6.5t83.5 -30t32.5 -73.5q0 -64 -44.5 -95t-114.5 -31l-19 74q22 2 43 10t21 30q0 20 -23.5 27t-87.5 7v88z" />
    <glyph glyph-name="uni1EBC" unicode="&#x1ebc;" horiz-adv-x="412" 
d="M40 0v1470h332v-222h-166v-396h130v-216h-130v-414h166v-222h-332zM294 1581q-37 0 -69 18q-34 20 -71 20q-22 0 -45 -9.5t-40 -22.5v148q11 11 25 18.5t28 13.5t32 6q37 0 70 -16q17 -8 34.5 -15t35.5 -7q22 0 45 9.5t40 22.5v-148q-16 -17 -41 -27.5t-44 -10.5z" />
    <glyph glyph-name="uni1EBD" unicode="&#x1ebd;" 
d="M214 -16q-97 0 -140.5 71t-43.5 192v589q0 113 43.5 193.5t140.5 80.5q65 0 106.5 -38t61.5 -100.5t20 -135.5v-326h-218v-268q0 -37 5.5 -58.5t26.5 -21.5q22 0 29 22t7 59v149h150v-148q0 -121 -45 -190.5t-143 -69.5zM184 668h68v184q0 41 -5 61.5t-31 20.5
q-19 0 -25.5 -21.5t-6.5 -60.5v-184zM304 1205q-37 0 -69 18q-34 20 -71 20q-22 0 -45 -9.5t-40 -22.5v148q11 11 25 18.5t28 13.5t32 6q37 0 70 -16q17 -8 34.5 -15t35.5 -7q22 0 45 9.5t40 22.5v-148q-16 -17 -41 -27.5t-44 -10.5z" />
    <glyph glyph-name="uni1EBE" unicode="&#x1ebe;" horiz-adv-x="412" 
d="M40 0v1470h332v-222h-166v-396h130v-216h-130v-414h166v-222h-332zM39 1604l104 180h161l104 -180h-138l-47 90l-45 -90h-139zM360 1747l103 180h161l-144 -180h-120z" />
    <glyph glyph-name="uni1EBF" unicode="&#x1ebf;" 
d="M214 -16q-97 0 -140.5 71t-43.5 192v589q0 113 43.5 193.5t140.5 80.5q65 0 106.5 -38t61.5 -100.5t20 -135.5v-326h-218v-268q0 -37 5.5 -58.5t26.5 -21.5q22 0 29 22t7 59v149h150v-148q0 -121 -45 -190.5t-143 -69.5zM184 668h68v184q0 41 -5 61.5t-31 20.5
q-19 0 -25.5 -21.5t-6.5 -60.5v-184zM49 1228l104 180h161l104 -180h-138l-47 90l-45 -90h-139zM370 1371l103 180h161l-144 -180h-120z" />
    <glyph glyph-name="uni1EC0" unicode="&#x1ec0;" horiz-adv-x="412" 
d="M40 0v1470h332v-222h-166v-396h130v-216h-130v-414h166v-222h-332zM39 1604l104 180h161l104 -180h-138l-47 90l-45 -90h-139zM518 1749h-120l-144 180h161z" />
    <glyph glyph-name="uni1EC1" unicode="&#x1ec1;" 
d="M214 -16q-97 0 -140.5 71t-43.5 192v589q0 113 43.5 193.5t140.5 80.5q65 0 106.5 -38t61.5 -100.5t20 -135.5v-326h-218v-268q0 -37 5.5 -58.5t26.5 -21.5q22 0 29 22t7 59v149h150v-148q0 -121 -45 -190.5t-143 -69.5zM184 668h68v184q0 41 -5 61.5t-31 20.5
q-19 0 -25.5 -21.5t-6.5 -60.5v-184zM49 1228l104 180h161l104 -180h-138l-47 90l-45 -90h-139zM528 1373h-120l-144 180h161z" />
    <glyph glyph-name="uni1EC2" unicode="&#x1ec2;" horiz-adv-x="412" 
d="M40 0v1470h332v-222h-166v-396h130v-216h-130v-414h166v-222h-332zM39 1604l104 180h161l104 -180h-138l-47 90l-45 -90h-139zM302 1980q58 0 109 -6.5t83.5 -30t32.5 -73.5q0 -64 -44.5 -95t-114.5 -31l-19 74q22 2 43 10t21 30q0 20 -23.5 27t-87.5 7v88z" />
    <glyph glyph-name="uni1EC3" unicode="&#x1ec3;" 
d="M214 -16q-97 0 -140.5 71t-43.5 192v589q0 113 43.5 193.5t140.5 80.5q65 0 106.5 -38t61.5 -100.5t20 -135.5v-326h-218v-268q0 -37 5.5 -58.5t26.5 -21.5q22 0 29 22t7 59v149h150v-148q0 -121 -45 -190.5t-143 -69.5zM184 668h68v184q0 41 -5 61.5t-31 20.5
q-19 0 -25.5 -21.5t-6.5 -60.5v-184zM49 1228l104 180h161l104 -180h-138l-47 90l-45 -90h-139zM312 1604q58 0 109 -6.5t83.5 -30t32.5 -73.5q0 -64 -44.5 -95t-114.5 -31l-19 74q22 2 43 10t21 30q0 20 -23.5 27t-87.5 7v88z" />
    <glyph glyph-name="uni1EC4" unicode="&#x1ec4;" horiz-adv-x="412" 
d="M40 0v1470h332v-222h-166v-396h130v-216h-130v-414h166v-222h-332zM39 1604l104 180h161l104 -180h-138l-47 90l-45 -90h-139zM294 1834q-37 0 -69 18q-34 20 -71 20q-22 0 -45 -9.5t-40 -22.5v148q11 11 25 18.5t28 13.5t32 6q37 0 70 -16q17 -8 34.5 -15t35.5 -7
q22 0 45 9.5t40 22.5v-148q-16 -17 -41 -27.5t-44 -10.5z" />
    <glyph glyph-name="uni1EC5" unicode="&#x1ec5;" 
d="M214 -16q-97 0 -140.5 71t-43.5 192v589q0 113 43.5 193.5t140.5 80.5q65 0 106.5 -38t61.5 -100.5t20 -135.5v-326h-218v-268q0 -37 5.5 -58.5t26.5 -21.5q22 0 29 22t7 59v149h150v-148q0 -121 -45 -190.5t-143 -69.5zM184 668h68v184q0 41 -5 61.5t-31 20.5
q-19 0 -25.5 -21.5t-6.5 -60.5v-184zM49 1228l104 180h161l104 -180h-138l-47 90l-45 -90h-139zM304 1458q-37 0 -69 18q-34 20 -71 20q-22 0 -45 -9.5t-40 -22.5v148q11 11 25 18.5t28 13.5t32 6q37 0 70 -16q17 -8 34.5 -15t35.5 -7q22 0 45 9.5t40 22.5v-148
q-16 -17 -41 -27.5t-44 -10.5z" />
    <glyph glyph-name="uni1EC6" unicode="&#x1ec6;" horiz-adv-x="412" 
d="M40 0v1470h332v-222h-166v-396h130v-216h-130v-414h166v-222h-332zM145 -287v202h158v-202h-158zM39 1604l104 180h161l104 -180h-138l-47 90l-45 -90h-139z" />
    <glyph glyph-name="uni1EC7" unicode="&#x1ec7;" 
d="M214 -16q-97 0 -140.5 71t-43.5 192v589q0 113 43.5 193.5t140.5 80.5q65 0 106.5 -38t61.5 -100.5t20 -135.5v-326h-218v-268q0 -37 5.5 -58.5t26.5 -21.5q22 0 29 22t7 59v149h150v-148q0 -121 -45 -190.5t-143 -69.5zM184 668h68v184q0 41 -5 61.5t-31 20.5
q-19 0 -25.5 -21.5t-6.5 -60.5v-184zM155 -287v202h158v-202h-158zM49 1228l104 180h161l104 -180h-138l-47 90l-45 -90h-139z" />
    <glyph glyph-name="uni1EC8" unicode="&#x1ec8;" horiz-adv-x="246" 
d="M40 0v1470h166v-1470h-166zM25 1813q58 0 109 -6.5t83.5 -30t32.5 -73.5q0 -64 -44.5 -95t-114.5 -31l-19 74q22 2 43 10t21 30q0 20 -23.5 27t-87.5 7v88z" />
    <glyph glyph-name="uni1EC9" unicode="&#x1ec9;" horiz-adv-x="238" 
d="M40 0v1094h158v-1094h-158zM21 1437q58 0 109 -6.5t83.5 -30t32.5 -73.5q0 -64 -44.5 -95t-114.5 -31l-19 74q22 2 43 10t21 30q0 20 -23.5 27t-87.5 7v88z" />
    <glyph glyph-name="uni1ECA" unicode="&#x1eca;" horiz-adv-x="246" 
d="M40 0v1470h166v-1470h-166zM44 -287v202h158v-202h-158z" />
    <glyph glyph-name="uni1ECB" unicode="&#x1ecb;" horiz-adv-x="238" 
d="M40 0v1094h158v-1094h-158zM40 1268v202h158v-202h-158zM40 -287v202h158v-202h-158z" />
    <glyph glyph-name="uni1ECC" unicode="&#x1ecc;" horiz-adv-x="462" 
d="M232 -16q-75 0 -119 43t-63.5 111t-19.5 144v906q0 73 19.5 141t63.5 112.5t119 44.5q80 0 123.5 -44.5t60 -112.5t16.5 -141v-906q0 -76 -19 -144t-62.5 -111t-118.5 -43zM234 194q23 0 27.5 27t4.5 61v906q0 35 -4.5 61.5t-27.5 26.5q-22 0 -28 -26t-6 -62v-906
q0 -40 6 -64t28 -24zM152 -287v202h158v-202h-158z" />
    <glyph glyph-name="uni1ECD" unicode="&#x1ecd;" horiz-adv-x="430" 
d="M215 -14q-97 0 -141 74t-44 188v600q0 114 44 188t141 74q98 0 141.5 -74t43.5 -188v-600q0 -114 -43.5 -188t-141.5 -74zM216 162q22 0 28 23.5t6 68.5v588q0 45 -6 68.5t-28 23.5t-29 -23.5t-7 -68.5v-588q0 -45 7 -68.5t29 -23.5zM136 -287v202h158v-202h-158z" />
    <glyph glyph-name="uni1ECE" unicode="&#x1ece;" horiz-adv-x="462" 
d="M232 -16q-75 0 -119 43t-63.5 111t-19.5 144v906q0 73 19.5 141t63.5 112.5t119 44.5q80 0 123.5 -44.5t60 -112.5t16.5 -141v-906q0 -76 -19 -144t-62.5 -111t-118.5 -43zM234 194q23 0 27.5 27t4.5 61v906q0 35 -4.5 61.5t-27.5 26.5q-22 0 -28 -26t-6 -62v-906
q0 -40 6 -64t28 -24zM135 1813q58 0 109 -6.5t83.5 -30t32.5 -73.5q0 -64 -44.5 -95t-114.5 -31l-19 74q22 2 43 10t21 30q0 20 -23.5 27t-87.5 7v88z" />
    <glyph glyph-name="uni1ECF" unicode="&#x1ecf;" horiz-adv-x="430" 
d="M215 -14q-97 0 -141 74t-44 188v600q0 114 44 188t141 74q98 0 141.5 -74t43.5 -188v-600q0 -114 -43.5 -188t-141.5 -74zM216 162q22 0 28 23.5t6 68.5v588q0 45 -6 68.5t-28 23.5t-29 -23.5t-7 -68.5v-588q0 -45 7 -68.5t29 -23.5zM136 1437q58 0 109 -6.5t83.5 -30
t32.5 -73.5q0 -64 -44.5 -95t-114.5 -31l-19 74q22 2 43 10t21 30q0 20 -23.5 27t-87.5 7v88z" />
    <glyph glyph-name="uni1ED0" unicode="&#x1ed0;" horiz-adv-x="462" 
d="M232 -16q-75 0 -119 43t-63.5 111t-19.5 144v906q0 73 19.5 141t63.5 112.5t119 44.5q80 0 123.5 -44.5t60 -112.5t16.5 -141v-906q0 -76 -19 -144t-62.5 -111t-118.5 -43zM234 194q23 0 27.5 27t4.5 61v906q0 35 -4.5 61.5t-27.5 26.5q-22 0 -28 -26t-6 -62v-906
q0 -40 6 -64t28 -24zM48 1604l104 180h161l104 -180h-138l-47 90l-45 -90h-139zM369 1747l103 180h161l-144 -180h-120z" />
    <glyph glyph-name="uni1ED1" unicode="&#x1ed1;" horiz-adv-x="430" 
d="M215 -14q-97 0 -141 74t-44 188v600q0 114 44 188t141 74q98 0 141.5 -74t43.5 -188v-600q0 -114 -43.5 -188t-141.5 -74zM216 162q22 0 28 23.5t6 68.5v588q0 45 -6 68.5t-28 23.5t-29 -23.5t-7 -68.5v-588q0 -45 7 -68.5t29 -23.5zM49 1228l104 180h161l104 -180h-138
l-47 90l-45 -90h-139zM370 1371l103 180h161l-144 -180h-120z" />
    <glyph glyph-name="uni1ED2" unicode="&#x1ed2;" horiz-adv-x="462" 
d="M232 -16q-75 0 -119 43t-63.5 111t-19.5 144v906q0 73 19.5 141t63.5 112.5t119 44.5q80 0 123.5 -44.5t60 -112.5t16.5 -141v-906q0 -76 -19 -144t-62.5 -111t-118.5 -43zM234 194q23 0 27.5 27t4.5 61v906q0 35 -4.5 61.5t-27.5 26.5q-22 0 -28 -26t-6 -62v-906
q0 -40 6 -64t28 -24zM48 1604l104 180h161l104 -180h-138l-47 90l-45 -90h-139zM527 1749h-120l-144 180h161z" />
    <glyph glyph-name="uni1ED3" unicode="&#x1ed3;" horiz-adv-x="430" 
d="M215 -14q-97 0 -141 74t-44 188v600q0 114 44 188t141 74q98 0 141.5 -74t43.5 -188v-600q0 -114 -43.5 -188t-141.5 -74zM216 162q22 0 28 23.5t6 68.5v588q0 45 -6 68.5t-28 23.5t-29 -23.5t-7 -68.5v-588q0 -45 7 -68.5t29 -23.5zM49 1228l104 180h161l104 -180h-138
l-47 90l-45 -90h-139zM528 1373h-120l-144 180h161z" />
    <glyph glyph-name="uni1ED4" unicode="&#x1ed4;" horiz-adv-x="462" 
d="M232 -16q-75 0 -119 43t-63.5 111t-19.5 144v906q0 73 19.5 141t63.5 112.5t119 44.5q80 0 123.5 -44.5t60 -112.5t16.5 -141v-906q0 -76 -19 -144t-62.5 -111t-118.5 -43zM234 194q23 0 27.5 27t4.5 61v906q0 35 -4.5 61.5t-27.5 26.5q-22 0 -28 -26t-6 -62v-906
q0 -40 6 -64t28 -24zM48 1604l104 180h161l104 -180h-138l-47 90l-45 -90h-139zM311 1980q58 0 109 -6.5t83.5 -30t32.5 -73.5q0 -64 -44.5 -95t-114.5 -31l-19 74q22 2 43 10t21 30q0 20 -23.5 27t-87.5 7v88z" />
    <glyph glyph-name="uni1ED5" unicode="&#x1ed5;" horiz-adv-x="430" 
d="M215 -14q-97 0 -141 74t-44 188v600q0 114 44 188t141 74q98 0 141.5 -74t43.5 -188v-600q0 -114 -43.5 -188t-141.5 -74zM216 162q22 0 28 23.5t6 68.5v588q0 45 -6 68.5t-28 23.5t-29 -23.5t-7 -68.5v-588q0 -45 7 -68.5t29 -23.5zM49 1228l104 180h161l104 -180h-138
l-47 90l-45 -90h-139zM312 1604q58 0 109 -6.5t83.5 -30t32.5 -73.5q0 -64 -44.5 -95t-114.5 -31l-19 74q22 2 43 10t21 30q0 20 -23.5 27t-87.5 7v88z" />
    <glyph glyph-name="uni1ED6" unicode="&#x1ed6;" horiz-adv-x="462" 
d="M232 -16q-75 0 -119 43t-63.5 111t-19.5 144v906q0 73 19.5 141t63.5 112.5t119 44.5q80 0 123.5 -44.5t60 -112.5t16.5 -141v-906q0 -76 -19 -144t-62.5 -111t-118.5 -43zM234 194q23 0 27.5 27t4.5 61v906q0 35 -4.5 61.5t-27.5 26.5q-22 0 -28 -26t-6 -62v-906
q0 -40 6 -64t28 -24zM48 1604l104 180h161l104 -180h-138l-47 90l-45 -90h-139zM303 1834q-37 0 -69 18q-34 20 -71 20q-22 0 -45 -9.5t-40 -22.5v148q11 11 25 18.5t28 13.5t32 6q37 0 70 -16q17 -8 34.5 -15t35.5 -7q22 0 45 9.5t40 22.5v-148q-16 -17 -41 -27.5
t-44 -10.5z" />
    <glyph glyph-name="uni1ED7" unicode="&#x1ed7;" horiz-adv-x="430" 
d="M215 -14q-97 0 -141 74t-44 188v600q0 114 44 188t141 74q98 0 141.5 -74t43.5 -188v-600q0 -114 -43.5 -188t-141.5 -74zM216 162q22 0 28 23.5t6 68.5v588q0 45 -6 68.5t-28 23.5t-29 -23.5t-7 -68.5v-588q0 -45 7 -68.5t29 -23.5zM49 1228l104 180h161l104 -180h-138
l-47 90l-45 -90h-139zM304 1458q-37 0 -69 18q-34 20 -71 20q-22 0 -45 -9.5t-40 -22.5v148q11 11 25 18.5t28 13.5t32 6q37 0 70 -16q17 -8 34.5 -15t35.5 -7q22 0 45 9.5t40 22.5v-148q-16 -17 -41 -27.5t-44 -10.5z" />
    <glyph glyph-name="uni1ED8" unicode="&#x1ed8;" horiz-adv-x="462" 
d="M232 -16q-75 0 -119 43t-63.5 111t-19.5 144v906q0 73 19.5 141t63.5 112.5t119 44.5q80 0 123.5 -44.5t60 -112.5t16.5 -141v-906q0 -76 -19 -144t-62.5 -111t-118.5 -43zM234 194q23 0 27.5 27t4.5 61v906q0 35 -4.5 61.5t-27.5 26.5q-22 0 -28 -26t-6 -62v-906
q0 -40 6 -64t28 -24zM152 -287v202h158v-202h-158zM48 1604l104 180h161l104 -180h-138l-47 90l-45 -90h-139z" />
    <glyph glyph-name="uni1ED9" unicode="&#x1ed9;" horiz-adv-x="430" 
d="M215 -14q-97 0 -141 74t-44 188v600q0 114 44 188t141 74q98 0 141.5 -74t43.5 -188v-600q0 -114 -43.5 -188t-141.5 -74zM216 162q22 0 28 23.5t6 68.5v588q0 45 -6 68.5t-28 23.5t-29 -23.5t-7 -68.5v-588q0 -45 7 -68.5t29 -23.5zM136 -287v202h158v-202h-158z
M49 1228l104 180h161l104 -180h-138l-47 90l-45 -90h-139z" />
    <glyph glyph-name="uni1EDA" unicode="&#x1eda;" horiz-adv-x="462" 
d="M232 -16q-75 0 -119 43t-63.5 111t-19.5 144v906q0 73 19.5 141t63.5 112.5t119 44.5q80 0 123.5 -44.5t60 -112.5t16.5 -141v-906q0 -76 -19 -144t-62.5 -111t-118.5 -43zM234 194q23 0 27.5 27t4.5 61v906q0 35 -4.5 61.5t-27.5 26.5q-22 0 -28 -26t-6 -62v-906
q0 -40 6 -64t28 -24zM305 1470q36 0 54 21t24 67t6 120h139q0 -139 -26 -214t-76 -103t-121 -28v137zM158 1600l103 180h161l-144 -180h-120z" />
    <glyph glyph-name="uni1EDB" unicode="&#x1edb;" horiz-adv-x="430" 
d="M215 -14q-97 0 -141 74t-44 188v600q0 114 44 188t141 74q98 0 141.5 -74t43.5 -188v-600q0 -114 -43.5 -188t-141.5 -74zM216 162q22 0 28 23.5t6 68.5v588q0 45 -6 68.5t-28 23.5t-29 -23.5t-7 -68.5v-588q0 -45 7 -68.5t29 -23.5zM276 1081q36 0 54 21t24 67t6 120
h139q0 -139 -26 -214t-76 -103t-121 -28v137zM159 1224l103 180h161l-144 -180h-120z" />
    <glyph glyph-name="uni1EDC" unicode="&#x1edc;" horiz-adv-x="462" 
d="M232 -16q-75 0 -119 43t-63.5 111t-19.5 144v906q0 73 19.5 141t63.5 112.5t119 44.5q80 0 123.5 -44.5t60 -112.5t16.5 -141v-906q0 -76 -19 -144t-62.5 -111t-118.5 -43zM234 194q23 0 27.5 27t4.5 61v906q0 35 -4.5 61.5t-27.5 26.5q-22 0 -28 -26t-6 -62v-906
q0 -40 6 -64t28 -24zM305 1470q36 0 54 21t24 67t6 120h139q0 -139 -26 -214t-76 -103t-121 -28v137zM304 1600h-120l-144 180h161z" />
    <glyph glyph-name="uni1EDD" unicode="&#x1edd;" horiz-adv-x="430" 
d="M215 -14q-97 0 -141 74t-44 188v600q0 114 44 188t141 74q98 0 141.5 -74t43.5 -188v-600q0 -114 -43.5 -188t-141.5 -74zM216 162q22 0 28 23.5t6 68.5v588q0 45 -6 68.5t-28 23.5t-29 -23.5t-7 -68.5v-588q0 -45 7 -68.5t29 -23.5zM276 1081q36 0 54 21t24 67t6 120
h139q0 -139 -26 -214t-76 -103t-121 -28v137zM305 1224h-120l-144 180h161z" />
    <glyph glyph-name="uni1EDE" unicode="&#x1ede;" horiz-adv-x="462" 
d="M232 -16q-75 0 -119 43t-63.5 111t-19.5 144v906q0 73 19.5 141t63.5 112.5t119 44.5q80 0 123.5 -44.5t60 -112.5t16.5 -141v-906q0 -76 -19 -144t-62.5 -111t-118.5 -43zM234 194q23 0 27.5 27t4.5 61v906q0 35 -4.5 61.5t-27.5 26.5q-22 0 -28 -26t-6 -62v-906
q0 -40 6 -64t28 -24zM305 1470q36 0 54 21t24 67t6 120h139q0 -139 -26 -214t-76 -103t-121 -28v137zM135 1813q58 0 109 -6.5t83.5 -30t32.5 -73.5q0 -64 -44.5 -95t-114.5 -31l-19 74q22 2 43 10t21 30q0 20 -23.5 27t-87.5 7v88z" />
    <glyph glyph-name="uni1EDF" unicode="&#x1edf;" horiz-adv-x="430" 
d="M215 -14q-97 0 -141 74t-44 188v600q0 114 44 188t141 74q98 0 141.5 -74t43.5 -188v-600q0 -114 -43.5 -188t-141.5 -74zM216 162q22 0 28 23.5t6 68.5v588q0 45 -6 68.5t-28 23.5t-29 -23.5t-7 -68.5v-588q0 -45 7 -68.5t29 -23.5zM276 1081q36 0 54 21t24 67t6 120
h139q0 -139 -26 -214t-76 -103t-121 -28v137zM136 1437q58 0 109 -6.5t83.5 -30t32.5 -73.5q0 -64 -44.5 -95t-114.5 -31l-19 74q22 2 43 10t21 30q0 20 -23.5 27t-87.5 7v88z" />
    <glyph glyph-name="uni1EE0" unicode="&#x1ee0;" horiz-adv-x="462" 
d="M232 -16q-75 0 -119 43t-63.5 111t-19.5 144v906q0 73 19.5 141t63.5 112.5t119 44.5q80 0 123.5 -44.5t60 -112.5t16.5 -141v-906q0 -76 -19 -144t-62.5 -111t-118.5 -43zM234 194q23 0 27.5 27t4.5 61v906q0 35 -4.5 61.5t-27.5 26.5q-22 0 -28 -26t-6 -62v-906
q0 -40 6 -64t28 -24zM305 1470q36 0 54 21t24 67t6 120h139q0 -139 -26 -214t-76 -103t-121 -28v137zM303 1581q-37 0 -69 18q-34 20 -71 20q-22 0 -45 -9.5t-40 -22.5v148q11 11 25 18.5t28 13.5t32 6q37 0 70 -16q17 -8 34.5 -15t35.5 -7q22 0 45 9.5t40 22.5v-148
q-16 -17 -41 -27.5t-44 -10.5z" />
    <glyph glyph-name="uni1EE1" unicode="&#x1ee1;" horiz-adv-x="430" 
d="M215 -14q-97 0 -141 74t-44 188v600q0 114 44 188t141 74q98 0 141.5 -74t43.5 -188v-600q0 -114 -43.5 -188t-141.5 -74zM216 162q22 0 28 23.5t6 68.5v588q0 45 -6 68.5t-28 23.5t-29 -23.5t-7 -68.5v-588q0 -45 7 -68.5t29 -23.5zM276 1081q36 0 54 21t24 67t6 120
h139q0 -139 -26 -214t-76 -103t-121 -28v137zM304 1205q-37 0 -69 18q-34 20 -71 20q-22 0 -45 -9.5t-40 -22.5v148q11 11 25 18.5t28 13.5t32 6q37 0 70 -16q17 -8 34.5 -15t35.5 -7q22 0 45 9.5t40 22.5v-148q-16 -17 -41 -27.5t-44 -10.5z" />
    <glyph glyph-name="uni1EE2" unicode="&#x1ee2;" horiz-adv-x="462" 
d="M232 -16q-75 0 -119 43t-63.5 111t-19.5 144v906q0 73 19.5 141t63.5 112.5t119 44.5q80 0 123.5 -44.5t60 -112.5t16.5 -141v-906q0 -76 -19 -144t-62.5 -111t-118.5 -43zM234 194q23 0 27.5 27t4.5 61v906q0 35 -4.5 61.5t-27.5 26.5q-22 0 -28 -26t-6 -62v-906
q0 -40 6 -64t28 -24zM305 1470q36 0 54 21t24 67t6 120h139q0 -139 -26 -214t-76 -103t-121 -28v137zM152 -287v202h158v-202h-158z" />
    <glyph glyph-name="uni1EE3" unicode="&#x1ee3;" horiz-adv-x="430" 
d="M215 -14q-97 0 -141 74t-44 188v600q0 114 44 188t141 74q98 0 141.5 -74t43.5 -188v-600q0 -114 -43.5 -188t-141.5 -74zM216 162q22 0 28 23.5t6 68.5v588q0 45 -6 68.5t-28 23.5t-29 -23.5t-7 -68.5v-588q0 -45 7 -68.5t29 -23.5zM276 1081q36 0 54 21t24 67t6 120
h139q0 -139 -26 -214t-76 -103t-121 -28v137zM136 -287v202h158v-202h-158z" />
    <glyph glyph-name="uni1EE4" unicode="&#x1ee4;" horiz-adv-x="474" 
d="M238 -16q-80 0 -123 39.5t-59 107.5t-16 151v1188h166v-1188q0 -42 6.5 -65t25.5 -23q18 0 24 23.5t6 64.5v1188h166v-1188q0 -83 -15.5 -150.5t-58 -107.5t-122.5 -40zM158 -287v202h158v-202h-158z" />
    <glyph glyph-name="uni1EE5" unicode="&#x1ee5;" horiz-adv-x="452" 
d="M148 -16q-50 0 -73 39.5t-29 90.5t-6 84v896h156v-864q0 -31 7.5 -50.5t22.5 -19.5t21.5 20.5t6.5 51.5v862h158v-1094h-158v56q-15 -22 -47.5 -47t-58.5 -25zM171 -287v202h158v-202h-158z" />
    <glyph glyph-name="uni1EE6" unicode="&#x1ee6;" horiz-adv-x="474" 
d="M238 -16q-80 0 -123 39.5t-59 107.5t-16 151v1188h166v-1188q0 -42 6.5 -65t25.5 -23q18 0 24 23.5t6 64.5v1188h166v-1188q0 -83 -15.5 -150.5t-58 -107.5t-122.5 -40zM140 1813q58 0 109 -6.5t83.5 -30t32.5 -73.5q0 -64 -44.5 -95t-114.5 -31l-19 74q22 2 43 10t21 30
q0 20 -23.5 27t-87.5 7v88z" />
    <glyph glyph-name="uni1EE7" unicode="&#x1ee7;" horiz-adv-x="452" 
d="M148 -16q-50 0 -73 39.5t-29 90.5t-6 84v896h156v-864q0 -31 7.5 -50.5t22.5 -19.5t21.5 20.5t6.5 51.5v862h158v-1094h-158v56q-15 -22 -47.5 -47t-58.5 -25zM152 1437q58 0 109 -6.5t83.5 -30t32.5 -73.5q0 -64 -44.5 -95t-114.5 -31l-19 74q22 2 43 10t21 30
q0 20 -23.5 27t-87.5 7v88z" />
    <glyph glyph-name="uni1EE8" unicode="&#x1ee8;" horiz-adv-x="474" 
d="M238 -16q-80 0 -123 39.5t-59 107.5t-16 151v1188h166v-1188q0 -42 6.5 -65t25.5 -23q18 0 24 23.5t6 64.5v1188h166v-1188q0 -83 -15.5 -150.5t-58 -107.5t-122.5 -40zM358 1470q36 0 54 21t24 67t6 120h139q0 -139 -26 -214t-76 -103t-121 -28v137zM163 1600l103 180
h161l-144 -180h-120z" />
    <glyph glyph-name="uni1EE9" unicode="&#x1ee9;" horiz-adv-x="452" 
d="M148 -16q-50 0 -73 39.5t-29 90.5t-6 84v896h156v-864q0 -31 7.5 -50.5t22.5 -19.5t21.5 20.5t6.5 51.5v862h158v-1094h-158v56q-15 -22 -47.5 -47t-58.5 -25zM369 1094q36 0 54 21t24 67t6 120h139q0 -139 -26 -214t-76 -103t-121 -28v137zM175 1224l103 180h161
l-144 -180h-120z" />
    <glyph glyph-name="uni1EEA" unicode="&#x1eea;" horiz-adv-x="474" 
d="M238 -16q-80 0 -123 39.5t-59 107.5t-16 151v1188h166v-1188q0 -42 6.5 -65t25.5 -23q18 0 24 23.5t6 64.5v1188h166v-1188q0 -83 -15.5 -150.5t-58 -107.5t-122.5 -40zM358 1470q36 0 54 21t24 67t6 120h139q0 -139 -26 -214t-76 -103t-121 -28v137zM309 1600h-120
l-144 180h161z" />
    <glyph glyph-name="uni1EEB" unicode="&#x1eeb;" horiz-adv-x="452" 
d="M148 -16q-50 0 -73 39.5t-29 90.5t-6 84v896h156v-864q0 -31 7.5 -50.5t22.5 -19.5t21.5 20.5t6.5 51.5v862h158v-1094h-158v56q-15 -22 -47.5 -47t-58.5 -25zM369 1094q36 0 54 21t24 67t6 120h139q0 -139 -26 -214t-76 -103t-121 -28v137zM321 1224h-120l-144 180h161z
" />
    <glyph glyph-name="uni1EEC" unicode="&#x1eec;" horiz-adv-x="474" 
d="M238 -16q-80 0 -123 39.5t-59 107.5t-16 151v1188h166v-1188q0 -42 6.5 -65t25.5 -23q18 0 24 23.5t6 64.5v1188h166v-1188q0 -83 -15.5 -150.5t-58 -107.5t-122.5 -40zM358 1470q36 0 54 21t24 67t6 120h139q0 -139 -26 -214t-76 -103t-121 -28v137zM140 1813
q58 0 109 -6.5t83.5 -30t32.5 -73.5q0 -64 -44.5 -95t-114.5 -31l-19 74q22 2 43 10t21 30q0 20 -23.5 27t-87.5 7v88z" />
    <glyph glyph-name="uni1EED" unicode="&#x1eed;" horiz-adv-x="452" 
d="M148 -16q-50 0 -73 39.5t-29 90.5t-6 84v896h156v-864q0 -31 7.5 -50.5t22.5 -19.5t21.5 20.5t6.5 51.5v862h158v-1094h-158v56q-15 -22 -47.5 -47t-58.5 -25zM369 1094q36 0 54 21t24 67t6 120h139q0 -139 -26 -214t-76 -103t-121 -28v137zM152 1437q58 0 109 -6.5
t83.5 -30t32.5 -73.5q0 -64 -44.5 -95t-114.5 -31l-19 74q22 2 43 10t21 30q0 20 -23.5 27t-87.5 7v88z" />
    <glyph glyph-name="uni1EEE" unicode="&#x1eee;" horiz-adv-x="474" 
d="M238 -16q-80 0 -123 39.5t-59 107.5t-16 151v1188h166v-1188q0 -42 6.5 -65t25.5 -23q18 0 24 23.5t6 64.5v1188h166v-1188q0 -83 -15.5 -150.5t-58 -107.5t-122.5 -40zM358 1470q36 0 54 21t24 67t6 120h139q0 -139 -26 -214t-76 -103t-121 -28v137zM308 1581
q-37 0 -69 18q-34 20 -71 20q-22 0 -45 -9.5t-40 -22.5v148q11 11 25 18.5t28 13.5t32 6q37 0 70 -16q17 -8 34.5 -15t35.5 -7q22 0 45 9.5t40 22.5v-148q-16 -17 -41 -27.5t-44 -10.5z" />
    <glyph glyph-name="uni1EEF" unicode="&#x1eef;" horiz-adv-x="452" 
d="M148 -16q-50 0 -73 39.5t-29 90.5t-6 84v896h156v-864q0 -31 7.5 -50.5t22.5 -19.5t21.5 20.5t6.5 51.5v862h158v-1094h-158v56q-15 -22 -47.5 -47t-58.5 -25zM369 1094q36 0 54 21t24 67t6 120h139q0 -139 -26 -214t-76 -103t-121 -28v137zM320 1205q-37 0 -69 18
q-34 20 -71 20q-22 0 -45 -9.5t-40 -22.5v148q11 11 25 18.5t28 13.5t32 6q37 0 70 -16q17 -8 34.5 -15t35.5 -7q22 0 45 9.5t40 22.5v-148q-16 -17 -41 -27.5t-44 -10.5z" />
    <glyph glyph-name="uni1EF0" unicode="&#x1ef0;" horiz-adv-x="474" 
d="M238 -16q-80 0 -123 39.5t-59 107.5t-16 151v1188h166v-1188q0 -42 6.5 -65t25.5 -23q18 0 24 23.5t6 64.5v1188h166v-1188q0 -83 -15.5 -150.5t-58 -107.5t-122.5 -40zM358 1470q36 0 54 21t24 67t6 120h139q0 -139 -26 -214t-76 -103t-121 -28v137zM158 -287v202h158
v-202h-158z" />
    <glyph glyph-name="uni1EF1" unicode="&#x1ef1;" horiz-adv-x="452" 
d="M148 -16q-50 0 -73 39.5t-29 90.5t-6 84v896h156v-864q0 -31 7.5 -50.5t22.5 -19.5t21.5 20.5t6.5 51.5v862h158v-1094h-158v56q-15 -22 -47.5 -47t-58.5 -25zM369 1094q36 0 54 21t24 67t6 120h139q0 -139 -26 -214t-76 -103t-121 -28v137zM171 -287v202h158v-202h-158z
" />
    <glyph glyph-name="Ygrave" unicode="&#x1ef2;" horiz-adv-x="522" 
d="M180 0v626l-165 844h178l60 -470l5 -64h5l6 64l58 470h180l-165 -844v-626h-162zM329 1600h-120l-144 180h161z" />
    <glyph glyph-name="ygrave" unicode="&#x1ef3;" horiz-adv-x="430" 
d="M84 -396q-13 0 -26 2.5t-27 7.5v178q8 -4 16 -5.5t15 -1.5q12 0 22 4t17 14q23 36 29.5 82t6.5 83l-132 1126h154l52 -602l4 -94h4l3 94l47 602h156l-136 -1176q-9 -80 -32 -152t-64.5 -117t-108.5 -45zM289 1224h-120l-144 180h161z" />
    <glyph glyph-name="uni1EF4" unicode="&#x1ef4;" horiz-adv-x="522" 
d="M180 0v626l-165 844h178l60 -470l5 -64h5l6 64l58 470h180l-165 -844v-626h-162zM182 -287v202h158v-202h-158z" />
    <glyph glyph-name="uni1EF5" unicode="&#x1ef5;" horiz-adv-x="430" 
d="M84 -396q-13 0 -26 2.5t-27 7.5v178q8 -4 16 -5.5t15 -1.5q12 0 22 4t17 14q23 36 29.5 82t6.5 83l-132 1126h154l52 -602l4 -94h4l3 94l47 602h156l-136 -1176q-9 -80 -32 -152t-64.5 -117t-108.5 -45zM334 -287v202h158v-202h-158z" />
    <glyph glyph-name="uni1EF6" unicode="&#x1ef6;" horiz-adv-x="522" 
d="M180 0v626l-165 844h178l60 -470l5 -64h5l6 64l58 470h180l-165 -844v-626h-162zM160 1813q58 0 109 -6.5t83.5 -30t32.5 -73.5q0 -64 -44.5 -95t-114.5 -31l-19 74q22 2 43 10t21 30q0 20 -23.5 27t-87.5 7v88z" />
    <glyph glyph-name="uni1EF7" unicode="&#x1ef7;" horiz-adv-x="430" 
d="M84 -396q-13 0 -26 2.5t-27 7.5v178q8 -4 16 -5.5t15 -1.5q12 0 22 4t17 14q23 36 29.5 82t6.5 83l-132 1126h154l52 -602l4 -94h4l3 94l47 602h156l-136 -1176q-9 -80 -32 -152t-64.5 -117t-108.5 -45zM120 1437q58 0 109 -6.5t83.5 -30t32.5 -73.5q0 -64 -44.5 -95
t-114.5 -31l-19 74q22 2 43 10t21 30q0 20 -23.5 27t-87.5 7v88z" />
    <glyph glyph-name="uni1EF8" unicode="&#x1ef8;" horiz-adv-x="522" 
d="M180 0v626l-165 844h178l60 -470l5 -64h5l6 64l58 470h180l-165 -844v-626h-162zM328 1581q-37 0 -69 18q-34 20 -71 20q-22 0 -45 -9.5t-40 -22.5v148q11 11 25 18.5t28 13.5t32 6q37 0 70 -16q17 -8 34.5 -15t35.5 -7q22 0 45 9.5t40 22.5v-148q-16 -17 -41 -27.5
t-44 -10.5z" />
    <glyph glyph-name="uni1EF9" unicode="&#x1ef9;" horiz-adv-x="430" 
d="M84 -396q-13 0 -26 2.5t-27 7.5v178q8 -4 16 -5.5t15 -1.5q12 0 22 4t17 14q23 36 29.5 82t6.5 83l-132 1126h154l52 -602l4 -94h4l3 94l47 602h156l-136 -1176q-9 -80 -32 -152t-64.5 -117t-108.5 -45zM288 1205q-37 0 -69 18q-34 20 -71 20q-22 0 -45 -9.5t-40 -22.5
v148q11 11 25 18.5t28 13.5t32 6q37 0 70 -16q17 -8 34.5 -15t35.5 -7q22 0 45 9.5t40 22.5v-148q-16 -17 -41 -27.5t-44 -10.5z" />
    <glyph glyph-name="endash" unicode="&#x2013;" horiz-adv-x="532" 
d="M26 634v190h422v-190h-422z" />
    <glyph glyph-name="emdash" unicode="&#x2014;" horiz-adv-x="630" 
d="M26 634v190h518v-190h-518z" />
    <glyph glyph-name="quoteleft" unicode="&#x2018;" horiz-adv-x="242" 
d="M10 988v222l66 260h96l-42 -260h42v-222h-162z" />
    <glyph glyph-name="quoteright" unicode="&#x2019;" horiz-adv-x="242" 
d="M8 988l42 260h-42v222h162v-222l-66 -260h-96z" />
    <glyph glyph-name="quotesinglbase" unicode="&#x201a;" horiz-adv-x="242" 
d="M8 -260l42 260h-42v222h162v-222l-66 -260h-96z" />
    <glyph glyph-name="quotedblleft" unicode="&#x201c;" horiz-adv-x="464" 
d="M230 988v222l66 260h96l-42 -260h42v-222h-162zM14 988v222l66 260h96l-42 -260h42v-222h-162z" />
    <glyph glyph-name="quotedblright" unicode="&#x201d;" horiz-adv-x="456" 
d="M230 988l42 260h-42v222h162v-222l-66 -260h-96zM14 988l42 260h-42v222h162v-222l-66 -260h-96z" />
    <glyph glyph-name="quotedblbase" unicode="&#x201e;" horiz-adv-x="426" 
d="M190 -260l42 260h-42v222h162v-222l-66 -260h-96zM14 -260l42 260h-42v222h162v-222l-66 -260h-96z" />
    <glyph glyph-name="uni201F" unicode="&#x201f;" horiz-adv-x="456" 
d="M316 988l-66 260v222h162v-222h-50l50 -260h-96zM80 988l-66 260v222h162v-222h-50l50 -260h-96z" />
    <glyph glyph-name="bullet" unicode="&#x2022;" horiz-adv-x="448" 
d="M194 634q-46 0 -84 23t-61 61t-23 84t23 84t61 61t84 23q69 0 118.5 -49.5t49.5 -118.5q0 -46 -23 -84t-61 -61t-84 -23z" />
    <glyph glyph-name="ellipsis" unicode="&#x2026;" horiz-adv-x="636" 
d="M430 0v222h162v-222h-162zM14 0v222h162v-222h-162zM222 0v222h162v-222h-162z" />
    <glyph glyph-name="guilsinglleft" unicode="&#x2039;" horiz-adv-x="283" 
d="M223 204l-163 265v152l163 265v-201l-119 -200v120l119 -200v-201z" />
    <glyph glyph-name="guilsinglright" unicode="&#x203a;" horiz-adv-x="283" 
d="M60 204v201l119 200v-120l-119 200v201l163 -265v-152z" />
    <glyph glyph-name="fraction" unicode="&#x2044;" horiz-adv-x="626" 
d="M-200 0l894 1470h132l-889 -1470h-137z" />
    <glyph glyph-name="uni2074" unicode="&#x2074;" horiz-adv-x="471" 
d="M219 600v175h-169v103l154 525h122v-525h45v-103h-45v-175h-107zM155 878h67v285h-1l-1 -28z" />
    <glyph glyph-name="Euro" unicode="&#x20ac;" horiz-adv-x="588" 
d="M327 -16q-103 0 -160 92.5t-57 225.5v232h-78v134h78v134h-78v134h78v232q0 89 26.5 161t75.5 114.5t115 42.5q103 0 159.5 -91.5t56.5 -226.5v-82h-161v82q0 46 -9.5 77t-42.5 31q-30 0 -38.5 -32t-8.5 -76v-232h161v-134h-161v-134h161v-134h-161v-232q0 -40 9.5 -74
t37.5 -34q34 0 43 31t9 77v82h161v-82q0 -134 -57.5 -226t-158.5 -92z" />
    <glyph glyph-name="trademark" unicode="&#x2122;" horiz-adv-x="660" 
d="M314 802v668h91l45 -312h4l45 312h91v-668h-69v438l-52 -438h-34l-53 438v-438h-68zM139 802v566h-69v102h214v-102h-70v-566h-75z" />
    <glyph glyph-name="minus" unicode="&#x2212;" horiz-adv-x="514" 
d="M26 634v168h404v-168h-404z" />
    <glyph glyph-name="uni2215" unicode="&#x2215;" horiz-adv-x="482" 
d="M-14 -144l318 1614h132l-314 -1614h-136z" />
    <glyph glyph-name="a.ss01" 
d="M134 -16q-40 0 -62.5 37.5t-32 87.5t-9.5 89v698q0 45 8.5 95t30.5 84.5t63 34.5q29 0 59.5 -21t42.5 -41v46h158v-1094h-148l-10 70q-7 -18 -34 -52t-66 -34zM206 174q15 0 21.5 24t6.5 52v612q0 24 -6.5 48t-21.5 24q-13 0 -20.5 -21.5t-7.5 -50.5v-612q0 -30 6 -53
t22 -23z" />
    <glyph glyph-name="aacute.ss01" 
d="M134 -16q-40 0 -62.5 37.5t-32 87.5t-9.5 89v698q0 45 8.5 95t30.5 84.5t63 34.5q29 0 59.5 -21t42.5 -41v46h158v-1094h-148l-10 70q-7 -18 -34 -52t-66 -34zM206 174q15 0 21.5 24t6.5 52v612q0 24 -6.5 48t-21.5 24q-13 0 -20.5 -21.5t-7.5 -50.5v-612q0 -30 6 -53
t22 -23zM141 1224l103 180h161l-144 -180h-120z" />
    <glyph glyph-name="abreve.ss01" 
d="M134 -16q-40 0 -62.5 37.5t-32 87.5t-9.5 89v698q0 45 8.5 95t30.5 84.5t63 34.5q29 0 59.5 -21t42.5 -41v46h158v-1094h-148l-10 70q-7 -18 -34 -52t-66 -34zM206 174q15 0 21.5 24t6.5 52v612q0 24 -6.5 48t-21.5 24q-13 0 -20.5 -21.5t-7.5 -50.5v-612q0 -30 6 -53
t22 -23zM216 1191q-46 0 -87 28.5t-61 67.5l82 104q10 -28 28.5 -41t37.5 -13q17 0 37.5 12t32.5 40l78 -102q-27 -42 -64 -69t-84 -27z" />
    <glyph glyph-name="uni1EAF.ss01" 
d="M134 -16q-40 0 -62.5 37.5t-32 87.5t-9.5 89v698q0 45 8.5 95t30.5 84.5t63 34.5q29 0 59.5 -21t42.5 -41v46h158v-1094h-148l-10 70q-7 -18 -34 -52t-66 -34zM206 174q15 0 21.5 24t6.5 52v612q0 24 -6.5 48t-21.5 24q-13 0 -20.5 -21.5t-7.5 -50.5v-612q0 -30 6 -53
t22 -23zM216 1191q-46 0 -87 28.5t-61 67.5l82 104q10 -28 28.5 -41t37.5 -13q17 0 37.5 12t32.5 40l78 -102q-27 -42 -64 -69t-84 -27zM141 1456l103 180h161l-144 -180h-120z" />
    <glyph glyph-name="uni1EB7.ss01" 
d="M134 -16q-40 0 -62.5 37.5t-32 87.5t-9.5 89v698q0 45 8.5 95t30.5 84.5t63 34.5q29 0 59.5 -21t42.5 -41v46h158v-1094h-148l-10 70q-7 -18 -34 -52t-66 -34zM206 174q15 0 21.5 24t6.5 52v612q0 24 -6.5 48t-21.5 24q-13 0 -20.5 -21.5t-7.5 -50.5v-612q0 -30 6 -53
t22 -23zM140 -287v202h158v-202h-158zM216 1191q-46 0 -87 28.5t-61 67.5l82 104q10 -28 28.5 -41t37.5 -13q17 0 37.5 12t32.5 40l78 -102q-27 -42 -64 -69t-84 -27z" />
    <glyph glyph-name="uni1EB1.ss01" 
d="M134 -16q-40 0 -62.5 37.5t-32 87.5t-9.5 89v698q0 45 8.5 95t30.5 84.5t63 34.5q29 0 59.5 -21t42.5 -41v46h158v-1094h-148l-10 70q-7 -18 -34 -52t-66 -34zM206 174q15 0 21.5 24t6.5 52v612q0 24 -6.5 48t-21.5 24q-13 0 -20.5 -21.5t-7.5 -50.5v-612q0 -30 6 -53
t22 -23zM216 1191q-46 0 -87 28.5t-61 67.5l82 104q10 -28 28.5 -41t37.5 -13q17 0 37.5 12t32.5 40l78 -102q-27 -42 -64 -69t-84 -27zM311 1460h-120l-144 180h161z" />
    <glyph glyph-name="uni1EB3.ss01" 
d="M134 -16q-40 0 -62.5 37.5t-32 87.5t-9.5 89v698q0 45 8.5 95t30.5 84.5t63 34.5q29 0 59.5 -21t42.5 -41v46h158v-1094h-148l-10 70q-7 -18 -34 -52t-66 -34zM206 174q15 0 21.5 24t6.5 52v612q0 24 -6.5 48t-21.5 24q-13 0 -20.5 -21.5t-7.5 -50.5v-612q0 -30 6 -53
t22 -23zM216 1191q-46 0 -87 28.5t-61 67.5l82 104q10 -28 28.5 -41t37.5 -13q17 0 37.5 12t32.5 40l78 -102q-27 -42 -64 -69t-84 -27zM118 1667q58 0 109 -6.5t83.5 -30t32.5 -73.5q0 -64 -44.5 -95t-114.5 -31l-19 74q22 2 43 10t21 30q0 20 -23.5 27t-87.5 7v88z" />
    <glyph glyph-name="uni1EB5.ss01" 
d="M134 -16q-40 0 -62.5 37.5t-32 87.5t-9.5 89v698q0 45 8.5 95t30.5 84.5t63 34.5q29 0 59.5 -21t42.5 -41v46h158v-1094h-148l-10 70q-7 -18 -34 -52t-66 -34zM206 174q15 0 21.5 24t6.5 52v612q0 24 -6.5 48t-21.5 24q-13 0 -20.5 -21.5t-7.5 -50.5v-612q0 -30 6 -53
t22 -23zM216 1191q-46 0 -87 28.5t-61 67.5l82 104q10 -28 28.5 -41t37.5 -13q17 0 37.5 12t32.5 40l78 -102q-27 -42 -64 -69t-84 -27zM288 1434q-37 0 -69 18q-34 20 -71 20q-22 0 -45 -9.5t-40 -22.5v148q11 11 25 18.5t28 13.5t32 6q37 0 70 -16q17 -8 34.5 -15t35.5 -7
q22 0 45 9.5t40 22.5v-148q-16 -17 -41 -27.5t-44 -10.5z" />
    <glyph glyph-name="uni01CE.ss01" 
d="M134 -16q-40 0 -62.5 37.5t-32 87.5t-9.5 89v698q0 45 8.5 95t30.5 84.5t63 34.5q29 0 59.5 -21t42.5 -41v46h158v-1094h-148l-10 70q-7 -18 -34 -52t-66 -34zM206 174q15 0 21.5 24t6.5 52v612q0 24 -6.5 48t-21.5 24q-13 0 -20.5 -21.5t-7.5 -50.5v-612q0 -30 6 -53
t22 -23zM131 1229l-108 180h145l47 -90l48 90h145l-108 -180h-169z" />
    <glyph glyph-name="acircumflex.ss01" 
d="M134 -16q-40 0 -62.5 37.5t-32 87.5t-9.5 89v698q0 45 8.5 95t30.5 84.5t63 34.5q29 0 59.5 -21t42.5 -41v46h158v-1094h-148l-10 70q-7 -18 -34 -52t-66 -34zM206 174q15 0 21.5 24t6.5 52v612q0 24 -6.5 48t-21.5 24q-13 0 -20.5 -21.5t-7.5 -50.5v-612q0 -30 6 -53
t22 -23zM31 1228l104 180h161l104 -180h-138l-47 90l-45 -90h-139z" />
    <glyph glyph-name="uni1EA5.ss01" 
d="M134 -16q-40 0 -62.5 37.5t-32 87.5t-9.5 89v698q0 45 8.5 95t30.5 84.5t63 34.5q29 0 59.5 -21t42.5 -41v46h158v-1094h-148l-10 70q-7 -18 -34 -52t-66 -34zM206 174q15 0 21.5 24t6.5 52v612q0 24 -6.5 48t-21.5 24q-13 0 -20.5 -21.5t-7.5 -50.5v-612q0 -30 6 -53
t22 -23zM31 1228l104 180h161l104 -180h-138l-47 90l-45 -90h-139zM352 1371l103 180h161l-144 -180h-120z" />
    <glyph glyph-name="uni1EAD.ss01" 
d="M134 -16q-40 0 -62.5 37.5t-32 87.5t-9.5 89v698q0 45 8.5 95t30.5 84.5t63 34.5q29 0 59.5 -21t42.5 -41v46h158v-1094h-148l-10 70q-7 -18 -34 -52t-66 -34zM206 174q15 0 21.5 24t6.5 52v612q0 24 -6.5 48t-21.5 24q-13 0 -20.5 -21.5t-7.5 -50.5v-612q0 -30 6 -53
t22 -23zM140 -287v202h158v-202h-158zM31 1228l104 180h161l104 -180h-138l-47 90l-45 -90h-139z" />
    <glyph glyph-name="uni1EA7.ss01" 
d="M134 -16q-40 0 -62.5 37.5t-32 87.5t-9.5 89v698q0 45 8.5 95t30.5 84.5t63 34.5q29 0 59.5 -21t42.5 -41v46h158v-1094h-148l-10 70q-7 -18 -34 -52t-66 -34zM206 174q15 0 21.5 24t6.5 52v612q0 24 -6.5 48t-21.5 24q-13 0 -20.5 -21.5t-7.5 -50.5v-612q0 -30 6 -53
t22 -23zM31 1228l104 180h161l104 -180h-138l-47 90l-45 -90h-139zM510 1373h-120l-144 180h161z" />
    <glyph glyph-name="uni1EA9.ss01" 
d="M134 -16q-40 0 -62.5 37.5t-32 87.5t-9.5 89v698q0 45 8.5 95t30.5 84.5t63 34.5q29 0 59.5 -21t42.5 -41v46h158v-1094h-148l-10 70q-7 -18 -34 -52t-66 -34zM206 174q15 0 21.5 24t6.5 52v612q0 24 -6.5 48t-21.5 24q-13 0 -20.5 -21.5t-7.5 -50.5v-612q0 -30 6 -53
t22 -23zM31 1228l104 180h161l104 -180h-138l-47 90l-45 -90h-139zM294 1604q58 0 109 -6.5t83.5 -30t32.5 -73.5q0 -64 -44.5 -95t-114.5 -31l-19 74q22 2 43 10t21 30q0 20 -23.5 27t-87.5 7v88z" />
    <glyph glyph-name="uni1EAB.ss01" 
d="M134 -16q-40 0 -62.5 37.5t-32 87.5t-9.5 89v698q0 45 8.5 95t30.5 84.5t63 34.5q29 0 59.5 -21t42.5 -41v46h158v-1094h-148l-10 70q-7 -18 -34 -52t-66 -34zM206 174q15 0 21.5 24t6.5 52v612q0 24 -6.5 48t-21.5 24q-13 0 -20.5 -21.5t-7.5 -50.5v-612q0 -30 6 -53
t22 -23zM31 1228l104 180h161l104 -180h-138l-47 90l-45 -90h-139zM286 1458q-37 0 -69 18q-34 20 -71 20q-22 0 -45 -9.5t-40 -22.5v148q11 11 25 18.5t28 13.5t32 6q37 0 70 -16q17 -8 34.5 -15t35.5 -7q22 0 45 9.5t40 22.5v-148q-16 -17 -41 -27.5t-44 -10.5z" />
    <glyph glyph-name="adieresis.ss01" 
d="M134 -16q-40 0 -62.5 37.5t-32 87.5t-9.5 89v698q0 45 8.5 95t30.5 84.5t63 34.5q29 0 59.5 -21t42.5 -41v46h158v-1094h-148l-10 70q-7 -18 -34 -52t-66 -34zM206 174q15 0 21.5 24t6.5 52v612q0 24 -6.5 48t-21.5 24q-13 0 -20.5 -21.5t-7.5 -50.5v-612q0 -30 6 -53
t22 -23zM252 1216v196h142v-196h-142zM37 1216v196h142v-196h-142z" />
    <glyph glyph-name="uni1EA1.ss01" 
d="M134 -16q-40 0 -62.5 37.5t-32 87.5t-9.5 89v698q0 45 8.5 95t30.5 84.5t63 34.5q29 0 59.5 -21t42.5 -41v46h158v-1094h-148l-10 70q-7 -18 -34 -52t-66 -34zM206 174q15 0 21.5 24t6.5 52v612q0 24 -6.5 48t-21.5 24q-13 0 -20.5 -21.5t-7.5 -50.5v-612q0 -30 6 -53
t22 -23zM140 -287v202h158v-202h-158z" />
    <glyph glyph-name="agrave.ss01" 
d="M134 -16q-40 0 -62.5 37.5t-32 87.5t-9.5 89v698q0 45 8.5 95t30.5 84.5t63 34.5q29 0 59.5 -21t42.5 -41v46h158v-1094h-148l-10 70q-7 -18 -34 -52t-66 -34zM206 174q15 0 21.5 24t6.5 52v612q0 24 -6.5 48t-21.5 24q-13 0 -20.5 -21.5t-7.5 -50.5v-612q0 -30 6 -53
t22 -23zM287 1224h-120l-144 180h161z" />
    <glyph glyph-name="uni1EA3.ss01" 
d="M134 -16q-40 0 -62.5 37.5t-32 87.5t-9.5 89v698q0 45 8.5 95t30.5 84.5t63 34.5q29 0 59.5 -21t42.5 -41v46h158v-1094h-148l-10 70q-7 -18 -34 -52t-66 -34zM206 174q15 0 21.5 24t6.5 52v612q0 24 -6.5 48t-21.5 24q-13 0 -20.5 -21.5t-7.5 -50.5v-612q0 -30 6 -53
t22 -23zM118 1437q58 0 109 -6.5t83.5 -30t32.5 -73.5q0 -64 -44.5 -95t-114.5 -31l-19 74q22 2 43 10t21 30q0 20 -23.5 27t-87.5 7v88z" />
    <glyph glyph-name="amacron.ss01" 
d="M134 -16q-40 0 -62.5 37.5t-32 87.5t-9.5 89v698q0 45 8.5 95t30.5 84.5t63 34.5q29 0 59.5 -21t42.5 -41v46h158v-1094h-148l-10 70q-7 -18 -34 -52t-66 -34zM206 174q15 0 21.5 24t6.5 52v612q0 24 -6.5 48t-21.5 24q-13 0 -20.5 -21.5t-7.5 -50.5v-612q0 -30 6 -53
t22 -23zM63 1235v148h306v-148h-306z" />
    <glyph glyph-name="aogonek.ss01" 
d="M134 -16q-40 0 -62.5 37.5t-32 87.5t-9.5 89v698q0 45 8.5 95t30.5 84.5t63 34.5q29 0 59.5 -21t42.5 -41v46h158v-1094h-148l-10 70q-7 -18 -34 -52t-66 -34zM206 174q15 0 21.5 24t6.5 52v612q0 24 -6.5 48t-21.5 24q-13 0 -20.5 -21.5t-7.5 -50.5v-612q0 -30 6 -53
t22 -23zM384 -375q-60 0 -100 34.5t-40 124.5q0 51 18.5 107.5t47.5 108.5h82q-11 -31 -21.5 -87t-10.5 -90q0 -43 15.5 -54t28.5 -11q34 0 60 23v-133q-26 -23 -80 -23z" />
    <glyph glyph-name="aring.ss01" 
d="M134 -16q-40 0 -62.5 37.5t-32 87.5t-9.5 89v698q0 45 8.5 95t30.5 84.5t63 34.5q29 0 59.5 -21t42.5 -41v46h158v-1094h-148l-10 70q-7 -18 -34 -52t-66 -34zM206 174q15 0 21.5 24t6.5 52v612q0 24 -6.5 48t-21.5 24q-13 0 -20.5 -21.5t-7.5 -50.5v-612q0 -30 6 -53
t22 -23zM217 1194q-61 0 -105.5 39.5t-44.5 100.5q0 62 44.5 101t105.5 39q62 0 105 -39t43 -101q0 -61 -43 -100.5t-105 -39.5zM217 1264q29 0 51.5 21t22.5 49q0 29 -22.5 49.5t-51.5 20.5q-28 0 -51 -20.5t-23 -49.5q0 -28 23 -49t51 -21z" />
    <glyph glyph-name="atilde.ss01" 
d="M134 -16q-40 0 -62.5 37.5t-32 87.5t-9.5 89v698q0 45 8.5 95t30.5 84.5t63 34.5q29 0 59.5 -21t42.5 -41v46h158v-1094h-148l-10 70q-7 -18 -34 -52t-66 -34zM206 174q15 0 21.5 24t6.5 52v612q0 24 -6.5 48t-21.5 24q-13 0 -20.5 -21.5t-7.5 -50.5v-612q0 -30 6 -53
t22 -23zM286 1205q-37 0 -69 18q-34 20 -71 20q-22 0 -45 -9.5t-40 -22.5v148q11 11 25 18.5t28 13.5t32 6q37 0 70 -16q17 -8 34.5 -15t35.5 -7q22 0 45 9.5t40 22.5v-148q-16 -17 -41 -27.5t-44 -10.5z" />
    <glyph glyph-name="g.ss01" 
d="M184 -376q-40 0 -68 8t-42 15v180q22 -11 47 -17.5t56 -6.5q27 0 42 23.5t15 81.5v221h158v-203q0 -131 -51 -216.5t-157 -85.5zM134 -16q-40 0 -62.5 37.5t-32 87.5t-9.5 89v698q0 45 8.5 95t30.5 84.5t63 34.5q29 0 59.5 -21t42.5 -41v46h158v-1094h-148l-10 70
q-7 -18 -34 -52t-66 -34zM206 174q15 0 21.5 24t6.5 52v612q0 24 -6.5 48t-21.5 24q-13 0 -20.5 -21.5t-7.5 -50.5v-612q0 -30 6 -53t22 -23z" />
    <glyph glyph-name="gbreve.ss01" 
d="M184 -376q-40 0 -68 8t-42 15v180q22 -11 47 -17.5t56 -6.5q27 0 42 23.5t15 81.5v221h158v-203q0 -131 -51 -216.5t-157 -85.5zM134 -16q-40 0 -62.5 37.5t-32 87.5t-9.5 89v698q0 45 8.5 95t30.5 84.5t63 34.5q29 0 59.5 -21t42.5 -41v46h158v-1094h-148l-10 70
q-7 -18 -34 -52t-66 -34zM206 174q15 0 21.5 24t6.5 52v612q0 24 -6.5 48t-21.5 24q-13 0 -20.5 -21.5t-7.5 -50.5v-612q0 -30 6 -53t22 -23zM216 1191q-46 0 -87 28.5t-61 67.5l82 104q10 -28 28.5 -41t37.5 -13q17 0 37.5 12t32.5 40l78 -102q-27 -42 -64 -69t-84 -27z
" />
    <glyph glyph-name="uni0123.ss01" 
d="M184 -376q-40 0 -68 8t-42 15v180q22 -11 47 -17.5t56 -6.5q27 0 42 23.5t15 81.5v221h158v-203q0 -131 -51 -216.5t-157 -85.5zM134 -16q-40 0 -62.5 37.5t-32 87.5t-9.5 89v698q0 45 8.5 95t30.5 84.5t63 34.5q29 0 59.5 -21t42.5 -41v46h158v-1094h-148l-10 70
q-7 -18 -34 -52t-66 -34zM206 174q15 0 21.5 24t6.5 52v612q0 24 -6.5 48t-21.5 24q-13 0 -20.5 -21.5t-7.5 -50.5v-612q0 -30 6 -53t22 -23zM289 1571l-49 -166h49v-208h-146v208l76 166h70z" />
    <glyph glyph-name="gdotaccent.ss01" 
d="M184 -376q-40 0 -68 8t-42 15v180q22 -11 47 -17.5t56 -6.5q27 0 42 23.5t15 81.5v221h158v-203q0 -131 -51 -216.5t-157 -85.5zM134 -16q-40 0 -62.5 37.5t-32 87.5t-9.5 89v698q0 45 8.5 95t30.5 84.5t63 34.5q29 0 59.5 -21t42.5 -41v46h158v-1094h-148l-10 70
q-7 -18 -34 -52t-66 -34zM206 174q15 0 21.5 24t6.5 52v612q0 24 -6.5 48t-21.5 24q-13 0 -20.5 -21.5t-7.5 -50.5v-612q0 -30 6 -53t22 -23zM137 1219v202h158v-202h-158z" />
    <glyph glyph-name="i.loclTRK" horiz-adv-x="238" 
d="M40 0v1094h158v-1094h-158zM40 1219v202h158v-202h-158z" />
    <glyph glyph-name="one.dnom" horiz-adv-x="389" 
d="M165 0v629h-65v76q24 7 47 22t36 34q11 15 21 42h85v-803h-124z" />
    <glyph glyph-name="two.dnom" horiz-adv-x="498" 
d="M100 0v117q60 92 99.5 195t59 193t19.5 139q0 32 -6.5 46.5t-17.5 14.5q-20 0 -23.5 -37.5t-3.5 -61.5v-55h-123v55q0 98 39 153.5t115 55.5q66 0 103 -44t37 -130q0 -62 -20 -139t-56 -172t-86 -213h155v-117h-291z" />
    <glyph glyph-name="three.dnom" horiz-adv-x="500" 
d="M247 -9q-142 0 -142 242h121q0 -73 7 -105.5t22 -32.5q14 0 19 24t5 84q0 68 -6 101.5t-25 45.5t-58 14v99q37 7 54.5 19t23 42t5.5 90q0 56 -4.5 77t-16.5 21q-16 0 -22.5 -31t-6.5 -108h-123q0 242 154 242q71 0 107 -46.5t36 -136.5q0 -61 -17.5 -109t-57.5 -90
q39 -32 58.5 -85t19.5 -127q0 -108 -40.5 -169t-112.5 -61z" />
    <glyph glyph-name="four.dnom" horiz-adv-x="471" 
d="M219 0v175h-169v103l154 525h122v-525h45v-103h-45v-175h-107zM155 278h67v285h-1l-1 -28z" />
    <glyph glyph-name="exclamdown.case" horiz-adv-x="256" 
d="M40 0l32 1074h112l32 -1074h-176zM46 1248v222h162v-222h-162z" />
    <glyph glyph-name="questiondown.case" horiz-adv-x="474" 
d="M322 1074v-250q0 -72 -20 -148.5t-46.5 -153t-46.5 -148.5t-20 -135q0 -25 9 -42t32 -17q32 0 49.5 39t30.5 103l124 -82q-10 -71 -37 -127.5t-70 -88.5t-101 -32q-74 0 -114.5 42.5t-56 103t-15.5 114.5q0 78 21 142t49 127t49 136t21 167v250h142zM330 1470v-222h-162
v222h162z" />
    <glyph glyph-name="uni03060301" horiz-adv-x="0" 
d="M300 1191q-46 0 -87 28.5t-61 67.5l82 104q10 -28 28.5 -41t37.5 -13q17 0 37.5 12t32.5 40l78 -102q-27 -42 -64 -69t-84 -27zM225 1456l103 180h161l-144 -180h-120z" />
    <glyph glyph-name="uni03060300" horiz-adv-x="0" 
d="M300 1191q-46 0 -87 28.5t-61 67.5l82 104q10 -28 28.5 -41t37.5 -13q17 0 37.5 12t32.5 40l78 -102q-27 -42 -64 -69t-84 -27zM395 1460h-120l-144 180h161z" />
    <glyph glyph-name="uni03060309" horiz-adv-x="0" 
d="M300 1191q-46 0 -87 28.5t-61 67.5l82 104q10 -28 28.5 -41t37.5 -13q17 0 37.5 12t32.5 40l78 -102q-27 -42 -64 -69t-84 -27zM202 1667q58 0 109 -6.5t83.5 -30t32.5 -73.5q0 -64 -44.5 -95t-114.5 -31l-19 74q22 2 43 10t21 30q0 20 -23.5 27t-87.5 7v88z" />
    <glyph glyph-name="uni03060303" horiz-adv-x="0" 
d="M300 1191q-46 0 -87 28.5t-61 67.5l82 104q10 -28 28.5 -41t37.5 -13q17 0 37.5 12t32.5 40l78 -102q-27 -42 -64 -69t-84 -27zM372 1434q-37 0 -69 18q-34 20 -71 20q-22 0 -45 -9.5t-40 -22.5v148q11 11 25 18.5t28 13.5t32 6q37 0 70 -16q17 -8 34.5 -15t35.5 -7
q22 0 45 9.5t40 22.5v-148q-16 -17 -41 -27.5t-44 -10.5z" />
    <glyph glyph-name="uni03020301" horiz-adv-x="0" 
d="M134 1228l104 180h161l104 -180h-138l-47 90l-45 -90h-139zM455 1371l103 180h161l-144 -180h-120z" />
    <glyph glyph-name="uni03020300" horiz-adv-x="0" 
d="M134 1228l104 180h161l104 -180h-138l-47 90l-45 -90h-139zM613 1373h-120l-144 180h161z" />
    <glyph glyph-name="uni03020309" horiz-adv-x="0" 
d="M134 1228l104 180h161l104 -180h-138l-47 90l-45 -90h-139zM397 1604q58 0 109 -6.5t83.5 -30t32.5 -73.5q0 -64 -44.5 -95t-114.5 -31l-19 74q22 2 43 10t21 30q0 20 -23.5 27t-87.5 7v88z" />
    <glyph glyph-name="uni03020303" horiz-adv-x="0" 
d="M134 1228l104 180h161l104 -180h-138l-47 90l-45 -90h-139zM389 1458q-37 0 -69 18q-34 20 -71 20q-22 0 -45 -9.5t-40 -22.5v148q11 11 25 18.5t28 13.5t32 6q37 0 70 -16q17 -8 34.5 -15t35.5 -7q22 0 45 9.5t40 22.5v-148q-16 -17 -41 -27.5t-44 -10.5z" />
    </font>
</defs>
</svg>
