<?xml version="1.0" standalone="no"?>
<!DOCTYPE svg PUBLIC "-//W3C//DTD SVG 1.1//EN" "http://www.w3.org/Graphics/SVG/1.1/DTD/svg11.dtd" >
<svg xmlns="http://www.w3.org/2000/svg" xmlns:xlink="http://www.w3.org/1999/xlink" version="1.1">
<metadata>
Created by FontForge 20170731 at Fri Dec  3 13:18:30 2021
 By Aleksey,,,
Copyright 2020 The League Gothic Project Authors (https://github.com/theleagueof/league-gothic)
</metadata>
<defs>
<font id="LeagueGothicSemiCondensed-Regular" horiz-adv-x="535" >
  <font-face 
    font-family="League Gothic SemiCondensed"
    font-weight="400"
    font-stretch="semi-condensed"
    units-per-em="2000"
    panose-1="0 0 0 0 0 0 0 0 0 0"
    ascent="1600"
    descent="-400"
    x-height="1094"
    cap-height="1470"
    bbox="-250 -500 1610 2103"
    underline-thickness="50"
    underline-position="-175"
    unicode-range="U+000D-FB02"
  />
<missing-glyph horiz-adv-x="647" 
d="M65 0v1470h517v-1470h-517zM164 100h288l-288 1047v-1047zM484 348v1022h-281z" />
    <glyph glyph-name="fi" unicode="fi" horiz-adv-x="602" 
d="M552 1094v-1094h-179v912h-45v182h224zM90 0v912h-80v182h80v87q0 147 57 222t152 75q23 0 45.5 -4.5t38.5 -14.5v-171q-18 13 -47 13t-48 -29t-19 -82v-96h97v-182h-97v-912h-179z" />
    <glyph glyph-name="fl" unicode="fl" horiz-adv-x="606" 
d="M92 0v912h-82v182h82v65q0 88 18 161.5t63 117t126 43.5q29 0 57 -3.5t41 -7.5h159v-1470h-180v1298q-9 2 -19 3t-24 1q-36 0 -49 -38.5t-13 -87.5v-82h89v-182h-89v-912h-179z" />
    <glyph glyph-name=".notdef" horiz-adv-x="647" 
d="M65 0v1470h517v-1470h-517zM164 100h288l-288 1047v-1047zM484 348v1022h-281z" />
    <glyph glyph-name=".null" horiz-adv-x="0" 
 />
    <glyph glyph-name="nonmarkingreturn" horiz-adv-x="666" 
 />
    <glyph glyph-name="CR" unicode="&#xd;" horiz-adv-x="1200" 
 />
    <glyph glyph-name="space" unicode=" " horiz-adv-x="262" 
 />
    <glyph glyph-name="exclam" unicode="!" horiz-adv-x="305" 
d="M93 396l-43 1074h205l-43 -1074h-119zM59 0v222h186v-222h-186z" />
    <glyph glyph-name="quotedbl" unicode="&#x22;" horiz-adv-x="464" 
d="M297 932l-24 538h186l-24 -538h-138zM72 932l-24 538h186l-24 -538h-138z" />
    <glyph glyph-name="numbersign" unicode="#" horiz-adv-x="1078" 
d="M161 0l58 428h-169l26 190h169l36 252h-167l26 190h167l56 410h182l-56 -410h194l56 410h182l-56 -410h163l-26 -190h-163l-36 -252h161l-26 -190h-161l-58 -428h-182l58 428h-194l-58 -428h-182zM427 618h194l36 252h-194z" />
    <glyph glyph-name="dollar" unicode="$" horiz-adv-x="522" 
d="M196 1525h113v-307h-113v307zM196 281h113v-401h-113v401zM252 168q-67 0 -112 27.5t-71 74.5t-37.5 107t-11.5 125h166q0 -67 15 -116.5t51 -49.5q33 0 42 35.5t9 86.5q0 55 -34.5 112t-75.5 110q-64 79 -107.5 160t-43.5 186q0 115 54.5 191.5t159.5 76.5
q67 0 109.5 -24.5t66 -67t32.5 -95t9 -109.5h-162q0 54 -8.5 91t-41.5 37q-27 0 -39 -32t-12 -79q0 -59 24.5 -109t69.5 -101q60 -71 114 -159t54 -196q0 -50 -12 -100t-38 -91t-68 -66t-102 -25z" />
    <glyph glyph-name="percent" unicode="%" horiz-adv-x="923" 
d="M156 0l480 1470h128l-474 -1470h-134zM203 713q-76 0 -114.5 54.5t-38.5 138.5v387q0 85 38.5 139t114.5 54t114.5 -54t38.5 -139v-387q0 -84 -38.5 -138.5t-114.5 -54.5zM204 837q20 0 27 19t7 52v383q0 33 -7 52t-27 19q-21 0 -28.5 -18.5t-7.5 -52.5v-383
q0 -33 7.5 -52t28.5 -19zM720 -16q-76 0 -114.5 54.5t-38.5 138.5v387q0 85 38.5 139t114.5 54t114.5 -54t38.5 -139v-387q0 -84 -38.5 -138.5t-114.5 -54.5zM721 108q20 0 27 19t7 52v383q0 33 -7 52t-27 19q-21 0 -28.5 -18.5t-7.5 -52.5v-383q0 -33 7.5 -52t28.5 -19z
" />
    <glyph glyph-name="ampersand" unicode="&#x26;" horiz-adv-x="740" 
d="M303 -16q-113 0 -185.5 83.5t-72.5 240.5q0 98 23 175.5t56.5 139.5t64.5 111q-45 108 -67.5 212.5t-22.5 219.5q0 137 58.5 228.5t171.5 91.5q111 0 167.5 -90t56.5 -221q0 -108 -50 -215t-123 -218q41 -109 71 -172.5t54 -105.5q17 52 25.5 114.5t9.5 91.5l155 -27
q-3 -95 -29 -190.5t-58 -164.5q17 -22 42.5 -43.5t44.5 -30.5v-230q-24 0 -60 24t-68.5 56t-49.5 56q-40 -61 -88 -98.5t-126 -37.5zM312 172q35 0 59 24t42 60q-35 65 -70.5 134t-72.5 154q-15 -37 -27 -96.5t-12 -106.5q0 -64 20.5 -116.5t60.5 -52.5zM310 926
q31 56 56 122t25 124q0 59 -13.5 100.5t-48.5 41.5q-34 0 -48 -43t-14 -102q0 -62 11 -123t32 -120z" />
    <glyph glyph-name="quotesingle" unicode="'" horiz-adv-x="272" 
d="M60 932l-24 538h186l-24 -538h-138z" />
    <glyph glyph-name="parenleft" unicode="(" horiz-adv-x="468" 
d="M275 -299q-65 130 -113.5 270t-84.5 305q-17 82 -26 171.5t-9 182.5q0 185 35.5 353.5t78.5 294.5q26 74 56.5 148t61.5 136l140 -94q-56 -101 -96.5 -222t-71.5 -274q-32 -155 -32 -342t31 -340t70 -266q22 -65 47 -122t52 -108z" />
    <glyph glyph-name="parenright" unicode=")" horiz-adv-x="468" 
d="M163 -299l-139 93q56 99 96.5 222.5t72.5 273.5q16 76 24 162t8 178q0 184 -32 339.5t-69 266.5q-22 63 -47.5 124t-52.5 108l140 94q64 -129 112.5 -269t84.5 -307q19 -83 27 -172.5t8 -183.5q0 -187 -35.5 -354.5t-79.5 -293.5q-24 -71 -54 -141t-64 -140z" />
    <glyph glyph-name="asterisk" unicode="*" horiz-adv-x="560" 
d="M197 968l-113 88l103 132l-140 36l35 141l128 -57l-14 162h138l-14 -163l127 58l36 -141l-137 -36l99 -132l-112 -88l-69 135z" />
    <glyph glyph-name="plus" unicode="+" horiz-adv-x="859" 
d="M333 296v338h-284v168h284v338h163v-338h284v-168h-284v-338h-163z" />
    <glyph glyph-name="comma" unicode="," horiz-adv-x="272" 
d="M26 -260l60 260h-60v222h186v-222l-88 -260h-98z" />
    <glyph glyph-name="hyphen" unicode="-" horiz-adv-x="377" 
d="M49 444v190h250v-190h-250z" />
    <glyph glyph-name="period" unicode="." horiz-adv-x="281" 
d="M33 0v222h186v-222h-186z" />
    <glyph glyph-name="slash" unicode="/" horiz-adv-x="593" 
d="M-3 -144l424 1614h145l-419 -1614h-150z" />
    <glyph glyph-name="zero" unicode="0" horiz-adv-x="585" 
d="M293 -16q-85 0 -139 44t-80 114.5t-26 149.5v886q0 83 27 153t81.5 112.5t136.5 42.5q85 0 139 -46t79.5 -116.5t25.5 -145.5v-886q0 -82 -26.5 -152.5t-80.5 -113t-137 -42.5zM294 194q27 0 39.5 30t12.5 68v886q0 40 -12 69t-40 29q-27 0 -40 -29.5t-13 -68.5v-886
q0 -41 14 -69.5t39 -28.5z" />
    <glyph glyph-name="one" unicode="1" horiz-adv-x="396" 
d="M145 0v1152h-115v136q64 17 112 66t72 116h122v-1470h-191z" />
    <glyph glyph-name="two" unicode="2" horiz-adv-x="602" 
d="M55 0v214q57 112 111 228t97 231.5t68.5 225t25.5 207.5q0 69 -9.5 124.5t-43.5 55.5q-35 0 -44 -55.5t-9 -124.5v-102h-191v102q0 72 11 140t38 122t74.5 86t120.5 32q75 0 122 -32t73 -85t36 -118t10 -131q0 -99 -25 -216t-65.5 -239t-89.5 -237.5t-97 -213.5h274v-214
h-487z" />
    <glyph glyph-name="three" unicode="3" horiz-adv-x="582" 
d="M294 -16q-63 0 -106.5 27.5t-70 73.5t-41 103.5t-19.5 118.5t-5 117h187q0 -54 3 -112t15 -98t37 -40t37 32t15.5 77t3.5 84q0 116 -13 178.5t-46.5 88.5t-95.5 30v179q62 3 92.5 34t40.5 87.5t10 136.5q0 39 -2.5 84t-13 76.5t-34.5 31.5q-23 0 -35 -39.5t-16 -96.5
t-4 -111h-188q0 76 9.5 153.5t35 142.5t73 104.5t124.5 39.5q65 0 110.5 -30t74 -78.5t41.5 -106t13 -112.5q0 -103 -11 -180t-36 -131.5t-66 -92.5q61 -44 92.5 -139t31.5 -240q0 -98 -23 -188t-76 -147t-144 -57z" />
    <glyph glyph-name="four" unicode="4" horiz-adv-x="604" 
d="M310 0v320h-282v180l262 970h199v-960h87v-190h-87v-320h-179zM191 510h119v460v44v0l-11 -44z" />
    <glyph glyph-name="five" unicode="5" horiz-adv-x="573" 
d="M287 -16q-77 0 -124.5 37.5t-72.5 101.5t-33.5 143t-8.5 162h190v-78q0 -76 7 -127t41 -51q22 0 33 24t14.5 64t3.5 88v348q0 47 -8.5 77.5t-36.5 30.5q-29 0 -44.5 -32.5t-18.5 -75.5h-174v774h439v-214h-266v-318q13 25 38 43.5t69 18.5q69 0 110.5 -40.5t61 -109.5
t19.5 -154v-338q0 -66 -9 -132.5t-34.5 -121t-72.5 -87.5t-123 -33z" />
    <glyph glyph-name="six" unicode="6" horiz-adv-x="577" 
d="M290 -16q-86 0 -139.5 44.5t-78 115t-24.5 148.5v847q0 67 11.5 129t38.5 111.5t73.5 78t116.5 28.5q71 0 117.5 -29.5t73 -79t37.5 -110.5t11 -123v-68h-188q0 52 -3 103.5t-13.5 85t-34.5 33.5q-23 0 -33.5 -28.5t-13 -66t-2.5 -64.5v-234q9 15 33.5 31t60.5 16
q55 0 93 -23t60.5 -62t33 -89.5t10.5 -105.5v-380q0 -79 -24.5 -149.5t-77.5 -114.5t-138 -44zM290 172q29 0 40.5 31.5t11.5 65.5v419q0 33 -11 62t-40 29q-28 0 -40 -28.5t-12 -63.5v-419q0 -34 10.5 -65t40.5 -31z" />
    <glyph glyph-name="seven" unicode="7" horiz-adv-x="509" 
d="M112 0l176 1256h-260v214h454v-216l-173 -1254h-197z" />
    <glyph glyph-name="eight" unicode="8" horiz-adv-x="574" 
d="M282 -16q-82 0 -135.5 40.5t-80 106.5t-26.5 143v287q0 81 27 130.5t71 84.5q-41 35 -65 78t-24 117v259q0 74 25.5 132t77 91t130.5 33q81 0 132.5 -33t76 -91t24.5 -132v-259q0 -74 -22 -117.5t-67 -77.5q48 -29 73 -81.5t25 -133.5v-287q0 -78 -26 -144t-79.5 -106
t-136.5 -40zM282 180q21 0 35 17t16 45q3 34 4 78.5t1 89.5q0 46 -1 93t-4 85q-3 32 -15 53t-36 21q-23 0 -35 -21t-15 -53q-2 -36 -3.5 -84t-1.5 -94q0 -44 1 -89t3 -79q2 -28 18 -45t33 -17zM282 865q17 0 29 16.5t15 43.5q3 30 4 68t1 84t-1 85t-4 71q-3 29 -13.5 47.5
t-30.5 18.5q-18 0 -28 -17.5t-13 -45.5q-3 -32 -5 -76.5t-2 -91.5q0 -39 1.5 -76.5t3.5 -66.5q3 -27 15 -43.5t28 -16.5z" />
    <glyph glyph-name="nine" unicode="9" horiz-adv-x="582" 
d="M290 1486q87 0 140 -44t77.5 -114.5t24.5 -149.5v-847q0 -67 -11.5 -129t-38.5 -111t-73.5 -78t-116.5 -29q-71 0 -117.5 30t-73 79.5t-37.5 110t-11 122.5v68h188q0 -51 3 -102.5t13.5 -85.5t34.5 -34q23 0 33.5 29t13 66.5t2.5 63.5v234q-9 -14 -33 -30.5t-61 -16.5
q-55 0 -93 23t-60.5 62.5t-33 90t-10.5 104.5v380q0 80 24.5 150.5t77.5 114t138 43.5zM290 1298q-28 0 -40 -31t-12 -65v-420q0 -32 11 -61.5t40 -29.5t40.5 28.5t11.5 63.5v419q0 35 -10 65.5t-41 30.5z" />
    <glyph glyph-name="colon" unicode=":" horiz-adv-x="313" 
d="M49 872v222h186v-222h-186zM49 0v222h186v-222h-186z" />
    <glyph glyph-name="semicolon" unicode=";" horiz-adv-x="313" 
d="M49 -260l60 260h-60v222h186v-222l-88 -260h-98zM49 872v222h186v-222h-186z" />
    <glyph glyph-name="less" unicode="&#x3c;" horiz-adv-x="857" 
d="M779 157l-730 480v150l730 480v-204l-549 -351l549 -351v-204z" />
    <glyph glyph-name="equal" unicode="=" horiz-adv-x="857" 
d="M49 844v168h730v-168h-730zM49 466v168h730v-168h-730z" />
    <glyph glyph-name="greater" unicode="&#x3e;" horiz-adv-x="857" 
d="M49 157v204l548 351l-548 351v204l730 -480v-150z" />
    <glyph glyph-name="question" unicode="?" horiz-adv-x="580" 
d="M197 396v250q0 82 24 160t56 151t56 140t24 125q0 28 -13 48t-41 20q-40 0 -64.5 -40t-39.5 -102l-149 82q16 71 52 127t88.5 88.5t114.5 32.5q80 0 129.5 -39t72.5 -101t23 -130q0 -75 -25.5 -139t-59 -127t-59 -134.5t-25.5 -161.5v-250h-164zM187 0v222h186v-222h-186
z" />
    <glyph glyph-name="at" unicode="@" horiz-adv-x="774" 
d="M387 -16q-92 0 -168.5 40t-122.5 110.5t-46 161.5v868q0 96 45.5 168.5t122 113t169.5 40.5q95 0 171 -41t121 -113.5t45 -167.5v-774h-152l-19 54q-33 -66 -101 -66q-73 0 -104.5 49t-31.5 119v474q0 68 31.5 117t103.5 49q40 0 65.5 -20.5t36.5 -45.5v44
q0 70 -47.5 112t-118.5 42q-70 0 -118 -44t-48 -110v-868q0 -67 49 -108.5t117 -41.5q60 0 94.5 16t56.5 46l136 -84q-37 -54 -104 -97t-183 -43zM509 508q44 0 44 52v444q0 52 -44 52q-42 0 -42 -52v-444q0 -52 42 -52z" />
    <glyph glyph-name="A" unicode="A" horiz-adv-x="649" 
d="M28 0l183 1470h229l182 -1470h-191l-31 300h-150l-31 -300h-191zM271 517h108l-47 535l-3 54h-8l-3 -54z" />
    <glyph glyph-name="B" unicode="B" horiz-adv-x="617" 
d="M60 0v1470h183q102 0 169.5 -44t101.5 -129t34 -207q0 -101 -22 -184t-91 -130q68 -41 95.5 -136t27.5 -224q0 -121 -32.5 -215t-96 -147.5t-157.5 -53.5h-212zM251 214q67 0 89 61t22 165q0 105 -21.5 165.5t-89.5 60.5v-452zM251 864q64 0 86.5 55t22.5 142
q0 91 -22.5 143t-86.5 52v-392z" />
    <glyph glyph-name="C" unicode="C" horiz-adv-x="585" 
d="M292 -16q-85 0 -138.5 44.5t-78.5 115t-25 148.5v886q0 78 26.5 148.5t80 115t135.5 44.5q64 0 109.5 -28t75.5 -73.5t44 -99.5t14 -107v-212h-182v216q0 35 -11.5 64.5t-45.5 29.5q-31 0 -42 -30t-11 -64v-894q0 -34 12 -64t41 -30q34 0 45.5 29.5t11.5 64.5v216h182
v-212q0 -83 -26.5 -153t-80 -112.5t-136.5 -42.5z" />
    <glyph glyph-name="D" unicode="D" horiz-adv-x="630" 
d="M60 0v1470h174q97 0 160.5 -42t100 -131t51.5 -228.5t15 -334.5q0 -198 -16 -337.5t-53.5 -227t-100 -128.5t-155.5 -41h-176zM251 216q57 0 80.5 64t29 180.5t5.5 274.5q0 159 -5.5 275.5t-29.5 180t-80 63.5v-1038z" />
    <glyph glyph-name="E" unicode="E" horiz-adv-x="533" 
d="M60 0v1470h413v-222h-222v-396h165v-216h-165v-414h222v-222h-413z" />
    <glyph glyph-name="F" unicode="F" horiz-adv-x="517" 
d="M60 0v1470h429v-222h-238v-386h160v-222h-160v-640h-191z" />
    <glyph glyph-name="G" unicode="G" horiz-adv-x="596" 
d="M263 -16q-81 0 -127.5 44.5t-66 115t-19.5 148.5v886q0 78 27 148.5t81 115t135 44.5q64 0 110 -27t75.5 -72t43.5 -99.5t14 -109.5v-236h-191v240q0 35 -10.5 64.5t-41.5 29.5q-30 0 -40.5 -30t-10.5 -64v-912q0 -37 12 -65.5t42 -28.5q32 0 43.5 29t11.5 65v260h-61
v202h246v-732h-107l-22 67q-20 -39 -58 -61t-86 -22z" />
    <glyph glyph-name="H" unicode="H" horiz-adv-x="618" 
d="M60 0v1470h191v-608h116v608h191v-1470h-191v640h-116v-640h-191z" />
    <glyph glyph-name="I" unicode="I" horiz-adv-x="311" 
d="M60 0v1470h191v-1470h-191z" />
    <glyph glyph-name="J" unicode="J" horiz-adv-x="352" 
d="M6 -13v214q12 -2 18 -2q42 0 59.5 33.5t17.5 73.5v1164h191v-1198q0 -87 -26 -152t-81 -100t-143 -35h-17t-19 2z" />
    <glyph glyph-name="K" unicode="K" horiz-adv-x="635" 
d="M60 0v1470h188v-490v-24h7l9 24l146 490h193l-169 -489l192 -981h-193l-126 665h-5l-54 -155v-510h-188z" />
    <glyph glyph-name="L" unicode="L" horiz-adv-x="507" 
d="M60 0v1470h191v-1270h229v-200h-420z" />
    <glyph glyph-name="M" unicode="M" horiz-adv-x="789" 
d="M60 0v1470h237l89 -719l7 -83h4l6 83l90 719h236v-1470h-179v865h-8l-4 -48l-92 -817h-101l-93 817l-5 48h-7v-865h-180z" />
    <glyph glyph-name="N" unicode="N" horiz-adv-x="642" 
d="M60 0v1470h176l149 -701l14 -78h7v779h176v-1470h-161l-163 698l-14 91h-8v-789h-176z" />
    <glyph glyph-name="O" unicode="O" horiz-adv-x="589" 
d="M295 -16q-82 0 -136.5 42.5t-81.5 112.5t-27 153v886q0 82 27 152t81.5 113t136.5 43q85 0 139 -43t79.5 -113t25.5 -152v-886q0 -83 -26.5 -153t-80.5 -112.5t-137 -42.5zM296 194q32 0 42 30.5t10 67.5v886q0 38 -10.5 68t-41.5 30q-29 0 -41 -29.5t-12 -68.5v-886
q0 -40 11.5 -69t41.5 -29z" />
    <glyph glyph-name="P" unicode="P" horiz-adv-x="598" 
d="M60 0v1470h187q107 0 175 -58t100.5 -157.5t32.5 -224.5q0 -126 -31.5 -224t-98.5 -156t-174 -62v-588h-191zM251 808q45 0 68.5 27t32.5 77t9 117q0 68 -9 118t-33 77.5t-68 27.5v-444z" />
    <glyph glyph-name="Q" unicode="Q" horiz-adv-x="593" 
d="M564 -112q-80 0 -128 36.5t-71 80.5q-15 -9 -39 -15t-48 -6q-81 0 -131 43t-73.5 113.5t-23.5 151.5v886q0 83 26 153t79.5 112.5t135.5 42.5q83 0 137 -42.5t80.5 -112.5t26.5 -153v-886q0 -53 -12 -100t-29 -80q9 -21 27.5 -30.5t42.5 -11.5v-182zM292 194
q29 0 39.5 29.5t10.5 68.5v886q0 39 -10.5 68.5t-39.5 29.5q-27 0 -38 -29.5t-11 -68.5v-886q0 -39 11 -68.5t38 -29.5z" />
    <glyph glyph-name="R" unicode="R" horiz-adv-x="594" 
d="M60 0v1470h187q156 0 230 -107.5t74 -316.5q0 -114 -31 -205t-81 -135l124 -706h-194l-96 630h-22v-630h-191zM251 815q44 0 68 30t34 81t10 112q0 95 -23 156.5t-89 61.5v-441z" />
    <glyph glyph-name="S" unicode="S" horiz-adv-x="574" 
d="M275 -16q-77 0 -127 33.5t-77.5 92.5t-39 136.5t-11.5 164.5l187 22q0 -32 2.5 -74.5t9 -83t20.5 -67t36 -26.5q36 0 48.5 40.5t12.5 106.5q0 75 -28.5 154t-82.5 171q-54 83 -96.5 165.5t-67.5 163.5t-25 159q0 65 13.5 126.5t42 110.5t73.5 78t108 29q78 0 127 -31
t76 -85.5t37.5 -124.5t10.5 -148l-188 -22q0 29 -2 65t-8 70t-17.5 56t-31.5 22q-30 0 -40.5 -38t-10.5 -103q0 -78 34.5 -158.5t97.5 -186.5q77 -126 122.5 -230.5t45.5 -222.5q0 -65 -12 -130t-41 -118t-77 -85t-121 -32z" />
    <glyph glyph-name="T" unicode="T" horiz-adv-x="557" 
d="M183 0v1248h-163v222h517v-222h-163v-1248h-191z" />
    <glyph glyph-name="U" unicode="U" horiz-adv-x="605" 
d="M303 -16q-85 0 -139 41t-79 111t-25 156v1178h191v-1178q0 -42 12 -70t40 -28q29 0 40 28t11 70v1178h191v-1178q0 -86 -25 -156t-78.5 -111t-138.5 -41z" />
    <glyph glyph-name="V" unicode="V" horiz-adv-x="595" 
d="M203 0l-180 1470h186l79 -801l5 -120h10l4 119l80 802h186l-180 -1470h-190z" />
    <glyph glyph-name="W" unicode="W" horiz-adv-x="857" 
d="M177 0l-154 1470h181l56 -764l4 -48h13l5 48l72 764h149l72 -764l5 -48h13l3 48l57 764h181l-155 -1470h-159l-78 696l-10 86h-7l-10 -86l-78 -696h-160z" />
    <glyph glyph-name="X" unicode="X" horiz-adv-x="624" 
d="M23 0l190 772l-187 698h188l90 -387l5 -48h6l5 48l90 387h188l-187 -698l190 -772h-188l-94 453l-4 48h-6l-4 -48l-94 -453h-188z" />
    <glyph glyph-name="Y" unicode="Y" horiz-adv-x="619" 
d="M215 0v626l-192 844h195l83 -470l6 -64h5l7 64l82 470h196l-193 -844v-626h-189z" />
    <glyph glyph-name="Z" unicode="Z" horiz-adv-x="521" 
d="M23 0v232l270 1024h-232v214h438v-214l-276 -1042h276v-214h-476z" />
    <glyph glyph-name="bracketleft" unicode="[" horiz-adv-x="451" 
d="M55 -376v1846h330v-192h-158v-1462h158v-192h-330z" />
    <glyph glyph-name="backslash" unicode="\" horiz-adv-x="649" 
d="M473 -176l-476 1828h145l480 -1828h-149z" />
    <glyph glyph-name="bracketright" unicode="]" horiz-adv-x="451" 
d="M36 -376v192h158v1462h-158v192h330v-1846h-330z" />
    <glyph glyph-name="asciicircum" unicode="^" horiz-adv-x="891" 
d="M33 790l297 680h201l297 -680h-173l-225 503l-224 -503h-173z" />
    <glyph glyph-name="underscore" unicode="_" horiz-adv-x="945" 
d="M49 -318v168h818v-168h-818z" />
    <glyph glyph-name="grave" unicode="`" horiz-adv-x="830" 
d="M537 1224h-138l-166 180h185z" />
    <glyph glyph-name="a" unicode="a" horiz-adv-x="542" 
d="M181 -16q-67 0 -110 79t-43 215q0 128 50 215.5t152 154.5q29 19 52 38t28 34v119q0 34 -6.5 65t-34.5 31q-27 0 -35 -33t-8 -68v-62h-177v61q0 76 27 139t78.5 100.5t123.5 37.5q68 0 114 -37.5t69.5 -96.5t23.5 -124v-682q0 -64 3.5 -103t8.5 -67h-166
q-8 11 -13.5 36.5t-5.5 40.5h-9q-19 -38 -49 -65.5t-73 -27.5zM248 178q28 0 44.5 23.5t16.5 51.5v257q-50 -32 -77.5 -92.5t-27.5 -132.5q0 -40 10 -73.5t34 -33.5z" />
    <glyph glyph-name="b" unicode="b" horiz-adv-x="520" 
d="M355 -16q-40 0 -73 30.5t-57 56.5l-5 -71h-175v1470h180v-435q25 28 59 51.5t67 23.5q49 0 78.5 -33t42.5 -82.5t13 -98.5v-698q0 -46 -13.5 -95.5t-42.5 -84t-74 -34.5zM271 174q20 0 29.5 21t9.5 50v613q0 29 -10 49t-29 20q-18 0 -32 -22.5t-14 -46.5v-613
q0 -28 14 -49.5t32 -21.5z" />
    <glyph glyph-name="c" unicode="c" horiz-adv-x="515" 
d="M257 -15q-115 0 -168.5 79.5t-53.5 204.5v557q0 126 53.5 205t168.5 79q116 0 169.5 -78t53.5 -206v-116h-177v128q0 42 -8 68t-36 26q-27 0 -35.5 -26t-8.5 -68v-581q0 -41 8.5 -67.5t35.5 -26.5q28 0 36 26.5t8 67.5v128h177v-116q0 -127 -53.5 -205.5t-169.5 -78.5z
" />
    <glyph glyph-name="d" unicode="d" horiz-adv-x="536" 
d="M165 -16q-45 0 -73.5 34.5t-42.5 84t-14 95.5v698q0 49 13 98.5t41.5 82.5t74.5 33q34 0 70 -23.5t61 -51.5v435h180v-1470h-175l-5 71q-23 -26 -56 -56.5t-74 -30.5zM249 174q19 0 32.5 21.5t13.5 49.5v613q0 24 -13.5 46.5t-32.5 22.5q-17 0 -28 -20t-11 -49v-613
q0 -29 10 -50t29 -21z" />
    <glyph glyph-name="e" unicode="e" horiz-adv-x="517" 
d="M257 -16q-109 0 -165.5 77.5t-56.5 198.5v569q0 121 56.5 201t166.5 80q73 0 123 -37.5t75.5 -100.5t25.5 -140v-322h-276v-253q0 -39 12 -67t41 -28q31 0 42.5 27t11.5 69v134h169v-137q0 -124 -56.5 -197.5t-168.5 -73.5zM206 668h107v169q0 43 -10 70t-44 27
q-28 0 -40.5 -28t-12.5 -69v-169z" />
    <glyph glyph-name="f" unicode="f" horiz-adv-x="393" 
d="M90 0v912h-80v182h80v87q0 147 57 222t152 75q23 0 45.5 -4.5t38.5 -14.5v-171q-18 13 -47 13t-48 -29t-19 -82v-96h97v-182h-97v-912h-179z" />
    <glyph glyph-name="g" unicode="g" horiz-adv-x="584" 
d="M281 -392q-77 0 -139 23.5t-98 68t-36 105.5q0 51 23.5 88.5t55.5 62.5t57 35q-45 17 -74 47.5t-29 88.5q0 54 32.5 93.5t71.5 65.5q-43 30 -69.5 80.5t-26.5 142.5v333q0 120 58.5 194t160.5 74q61 0 100.5 -23.5t62.5 -60.5q27 40 66.5 62t79.5 22v-180
q-34 0 -58.5 -6.5t-37.5 -17.5q3 -6 6 -25.5t3 -32.5v-345q0 -109 -59 -182t-158 -73q-24 0 -34 4q-9 -10 -14.5 -21.5t-5.5 -26.5q0 -34 32 -48.5t81 -23.5q104 -19 172 -71.5t68 -167.5q0 -84 -38 -148.5t-104 -100.5t-149 -36zM284 -222q41 0 70 21t29 58q0 41 -20 57.5
t-56 26.5l-66 17q-22 -16 -38 -42t-16 -62q0 -31 22.5 -53.5t74.5 -22.5zM270 416q26 0 35 26t9 62v335q0 37 -8.5 63.5t-35.5 26.5q-28 0 -36 -27t-8 -63v-335q0 -36 8.5 -62t35.5 -26z" />
    <glyph glyph-name="h" unicode="h" horiz-adv-x="532" 
d="M45 0v1470h180v-436q21 23 62.5 49.5t77.5 26.5q50 0 77.5 -34t38.5 -84t11 -96v-896h-176v858q0 24 -9 47t-25 23q-19 0 -38 -25t-19 -49v-854h-180z" />
    <glyph glyph-name="i" unicode="i" horiz-adv-x="280" 
d="M50 0v1094h180v-1094h-180zM50 1268v202h180v-202h-180z" />
    <glyph glyph-name="j" unicode="j" horiz-adv-x="280" 
d="M35 -376q-22 0 -41 3.5t-38 11.5v184q5 -3 18.5 -7t26.5 -4q24 0 34.5 22t12.5 54.5t2 62.5v1143h180v-1122q0 -95 -14 -174t-56 -126.5t-125 -47.5zM50 1268v202h180v-202h-180z" />
    <glyph glyph-name="k" unicode="k" horiz-adv-x="533" 
d="M45 0v1470h177v-662v-36h9l11 36l86 286h168l-132 -356l156 -738h-178l-88 442l-2 16h-2l-28 -85v-373h-177z" />
    <glyph glyph-name="l" unicode="l" horiz-adv-x="280" 
d="M50 0v1470h180v-1470h-180z" />
    <glyph glyph-name="m" unicode="m" horiz-adv-x="794" 
d="M45 0v1094h180v-75q34 38 69.5 64.5t68.5 26.5q44 0 70.5 -31t35.5 -70q29 39 71.5 70t82.5 31q50 0 77.5 -35.5t38 -85.5t10.5 -93v-896h-168v859q0 32 -11 48.5t-31 16.5q-19 0 -33 -22t-20 -40v-862h-167v861q0 32 -11.5 47.5t-30.5 15.5q-18 0 -32 -19.5t-20 -42.5
v-862h-180z" />
    <glyph glyph-name="n" unicode="n" 
d="M45 0v1094h180v-74q26 29 65 59.5t70 30.5q50 0 78.5 -35.5t40 -85.5t11.5 -93v-896h-179v860q0 32 -9 48t-30 16q-18 0 -29 -17.5t-18 -44.5v-862h-180z" />
    <glyph glyph-name="o" unicode="o" horiz-adv-x="514" 
d="M257 -14q-109 0 -165.5 78t-56.5 197v574q0 120 56.5 197.5t165.5 77.5t165.5 -77.5t56.5 -197.5v-574q0 -119 -56.5 -197t-165.5 -78zM258 162q30 0 40.5 27.5t10.5 74.5v568q0 48 -10.5 75t-40.5 27q-31 0 -42 -27t-11 -75v-568q0 -47 11 -74.5t42 -27.5z" />
    <glyph glyph-name="p" unicode="p" horiz-adv-x="525" 
d="M45 -376v1470h180v-64q28 31 66.5 55.5t70.5 24.5q45 0 73 -28.5t41.5 -76t13.5 -104.5v-703q0 -46 -12.5 -95.5t-41.5 -84t-79 -34.5q-34 0 -69.5 25t-62.5 59v-444h-180zM278 174q19 0 26 15.5t7 45.5v617q0 34 -6.5 54.5t-26.5 20.5q-19 0 -36 -18t-17 -47v-624
q0 -29 17 -46.5t36 -17.5z" />
    <glyph glyph-name="q" unicode="q" horiz-adv-x="525" 
d="M300 -376v444q-26 -34 -61.5 -59t-70.5 -25q-49 0 -78.5 34.5t-42 84t-12.5 95.5v703q0 57 14 104.5t42.5 76t71.5 28.5q33 0 71.5 -24.5t65.5 -55.5v64h180v-1470h-180zM248 174q19 0 35.5 17.5t16.5 46.5v624q0 29 -16 47t-36 18q-19 0 -26.5 -20.5t-7.5 -54.5v-617
q0 -30 7.5 -45.5t26.5 -15.5z" />
    <glyph glyph-name="r" unicode="r" horiz-adv-x="409" 
d="M45 0v1094h178v-104q9 29 33.5 56.5t60 45.5t74.5 18v-232q-11 5 -22.5 6.5t-23.5 1.5q-51 0 -86.5 -34.5t-35.5 -91.5v-760h-178z" />
    <glyph glyph-name="s" unicode="s" horiz-adv-x="504" 
d="M257 -16q-67 0 -112 27.5t-71 74.5t-37.5 107t-11.5 125h166q0 -67 15 -116.5t51 -49.5q33 0 42 35.5t9 86.5q0 55 -34.5 112t-75.5 110q-64 79 -107.5 160t-43.5 186q0 115 54.5 191.5t159.5 76.5q67 0 109.5 -24.5t66 -67t32.5 -95t9 -109.5h-162q0 54 -8.5 91
t-41.5 37q-27 0 -39 -32t-12 -79q0 -59 24.5 -109t69.5 -101q60 -71 114 -159t54 -196q0 -50 -12 -100t-38 -91t-68 -66t-102 -25z" />
    <glyph glyph-name="t" unicode="t" horiz-adv-x="424" 
d="M310 -16q-79 0 -124 39.5t-64 115t-19 183.5v590h-93v182h93v270h184v-270h127v-182h-127v-609q0 -64 15 -94.5t54 -30.5q17 0 30 3t22 7v-185q-19 -8 -40 -13.5t-58 -5.5z" />
    <glyph glyph-name="u" unicode="u" 
d="M175 -16q-50 0 -78.5 36t-40 86t-11.5 92v896h179v-860q0 -31 9.5 -47.5t29.5 -16.5q19 0 30 18t17 44v862h180v-1094h-180v74q-25 -28 -64 -59t-71 -31z" />
    <glyph glyph-name="v" unicode="v" horiz-adv-x="493" 
d="M157 0l-147 1094h172l55 -627l4 -86h10l4 86l56 627h172l-148 -1094h-178z" />
    <glyph glyph-name="w" unicode="w" horiz-adv-x="713" 
d="M135 0l-125 1094h173l35 -520l5 -98h8l7 98l65 520h108l64 -520l7 -98h8l5 98l35 520h173l-124 -1094h-154l-59 511l-7 86h-6l-6 -86l-59 -511h-153z" />
    <glyph glyph-name="x" unicode="x" horiz-adv-x="506" 
d="M15 0l145 564l-142 530h174l51 -248l7 -62h4l7 62l53 248h174l-143 -530l145 -564h-176l-53 265l-7 66h-4l-6 -66l-52 -265h-177z" />
    <glyph glyph-name="y" unicode="y" horiz-adv-x="516" 
d="M87 -394q-13 0 -28.5 2t-31.5 6v178q6 -2 16.5 -3.5t15.5 -1.5q34 0 56.5 17t32.5 47q14 25 17.5 58t3.5 59l-159 1126h176l66 -642l4 -85h6l4 85l63 642h177l-165 -1176q-10 -84 -40.5 -155t-83.5 -114t-130 -43z" />
    <glyph glyph-name="z" unicode="z" horiz-adv-x="501" 
d="M45 0v164l222 746h-187v184h376v-164l-222 -746h222v-184h-411z" />
    <glyph glyph-name="braceleft" unicode="{" horiz-adv-x="568" 
d="M502 -442q-143 0 -221.5 34.5t-109 114t-30.5 211.5v388q0 56 -27 96t-75 40v160q50 0 76 44.5t26 91.5v388q0 137 31.5 215.5t110.5 111.5t219 33v-168q-75 0 -116 -19.5t-57 -62t-16 -110.5v-388q0 -75 -30.5 -133t-81.5 -83q52 -32 82 -86.5t30 -129.5v-388
q0 -72 17 -114t58 -60t114 -18v-168z" />
    <glyph glyph-name="bar" unicode="|" horiz-adv-x="308" 
d="M55 -500v2152h168v-2152h-168z" />
    <glyph glyph-name="braceright" unicode="}" horiz-adv-x="568" 
d="M68 -442v168q74 0 115 18t57.5 60t16.5 114v388q0 75 31 129.5t81 86.5q-50 25 -81 83t-31 133v388q0 68 -15.5 110.5t-56.5 62t-117 19.5v168q141 0 219.5 -33t110 -111.5t31.5 -215.5v-388q0 -47 26.5 -91.5t75.5 -44.5v-160q-47 0 -74.5 -40t-27.5 -96v-388
q0 -132 -30.5 -211.5t-108.5 -114t-222 -34.5z" />
    <glyph glyph-name="asciitilde" unicode="~" horiz-adv-x="997" 
d="M177 1255l-122 68q21 76 58.5 144t91 110.5t121.5 42.5q67 0 118.5 -27t103.5 -73q34 -28 66 -49t64 -21t58.5 29.5t47.5 73t35 83.5l123 -67q-23 -77 -60 -145.5t-87.5 -111t-116.5 -42.5q-71 0 -122 30t-96 68q-33 29 -66.5 50.5t-67.5 21.5q-33 0 -63 -28t-52 -70.5
t-34 -86.5z" />
    <glyph glyph-name="uni0093" horiz-adv-x="537" 
d="M289 988v222l88 260h98l-56 -260h56v-222h-186zM33 988v222l88 260h98l-56 -260h56v-222h-186z" />
    <glyph glyph-name="uni0094" horiz-adv-x="533" 
d="M289 988l56 260h-56v222h186v-222l-88 -260h-98zM33 988l56 260h-56v222h186v-222l-88 -260h-98z" />
    <glyph glyph-name="uni00A0" unicode="&#xa0;" horiz-adv-x="262" 
 />
    <glyph glyph-name="exclamdown" unicode="&#xa1;" horiz-adv-x="305" 
d="M50 -376l43 1074h119l43 -1074h-205zM59 872v222h186v-222h-186z" />
    <glyph glyph-name="cent" unicode="&#xa2;" horiz-adv-x="541" 
d="M216 -120v294q-57 14 -94 55t-54.5 106t-17.5 152v498q0 132 41 210.5t125 98.5v236h114v-236q70 -12 104.5 -55t45.5 -106t11 -138v-96h-168v138q0 50 -13 67t-38 17q-26 0 -38.5 -23t-12.5 -61v-596q0 -30 11.5 -58.5t38.5 -28.5q25 0 38.5 19t13.5 68v152h168v-116
q0 -86 -14.5 -149t-49.5 -101t-97 -50v-297h-114z" />
    <glyph glyph-name="sterling" unicode="&#xa3;" horiz-adv-x="717" 
d="M160 -16l-125 78q28 77 72.5 136.5t101.5 71.5q14 47 22.5 99.5t8.5 94.5q0 38 -7 81t-19 89h-155v134h121q-24 73 -46.5 163.5t-22.5 190.5q0 103 28.5 185t85 130.5t138.5 48.5q144 0 204.5 -104.5t60.5 -287.5h-186q0 83 -17 137.5t-59 54.5q-39 0 -56 -44.5
t-17 -119.5q0 -102 24 -194t47 -160h156v-134h-125q10 -49 14 -84t4 -77q0 -32 -8.5 -75t-21.5 -83.5t-29 -64.5q17 0 33 -14.5t33 -29t34 -14.5q22 0 35 29t19.5 72t8.5 85l165 -22q-11 -184 -69 -278t-139 -94q-37 0 -77.5 25t-78 50t-68.5 25q-32 0 -56 -32.5t-34 -67.5z
" />
    <glyph glyph-name="currency" unicode="&#xa4;" horiz-adv-x="728" 
d="M133 323l-58 69l78 92q-49 78 -49 177q0 98 49 177l-77 90l58 69l78 -91q68 57 152 57q83 0 151 -57l79 92l59 -69l-79 -91q49 -78 49 -177t-49 -177l79 -92l-58 -69l-79 92q-68 -57 -152 -57q-85 0 -152 57zM364 507q55 0 93.5 45t38.5 109t-39 108.5t-93 44.5
q-55 0 -93.5 -44.5t-38.5 -108.5t38.5 -109t93.5 -45z" />
    <glyph glyph-name="yen" unicode="&#xa5;" horiz-adv-x="624" 
d="M74 465h466v-133h-466v133zM74 731h466v-133h-466v133zM218 0v626l-193 844h195l83 -470l6 -64h6l6 64l82 470h196l-192 -844v-626h-189z" />
    <glyph glyph-name="brokenbar" unicode="&#xa6;" horiz-adv-x="308" 
d="M70 -500v893h168v-893h-168zM70 759v893h168v-893h-168z" />
    <glyph glyph-name="section" unicode="&#xa7;" horiz-adv-x="590" 
d="M519 640q0 -165 -93 -239q37 -62 52 -113.5t15 -111.5q0 -129 -59.5 -205.5t-160.5 -76.5q-110 0 -171 87t-61 247h166q0 -78 17.5 -122t48.5 -44q51 0 51 118q0 37 -7.5 65t-30 65t-66.5 99q-85 115 -118.5 188t-33.5 145q0 88 24.5 148.5t71.5 95.5q-40 66 -55 112.5
t-15 107.5q0 134 54 205.5t155 72.5q106 1 161.5 -75t55.5 -221h-162q0 57 -14 92.5t-37 35.5q-21 0 -33 -31t-12 -85q0 -34 7.5 -61.5t30 -61.5t66.5 -89q57 -71 90.5 -128.5t48 -110t14.5 -109.5zM244 789q-2 -18 0.5 -38t14 -46.5t36.5 -63.5q8 -21 19 -26t31 -22
q3 31 -7 65t-44 84q-6 13 -12.5 17.5t-15.5 10t-22 19.5z" />
    <glyph glyph-name="dieresis" unicode="&#xa8;" horiz-adv-x="830" 
d="M465 1216v196h164v-196h-164zM216 1216v196h164v-196h-164z" />
    <glyph glyph-name="copyright" unicode="&#xa9;" horiz-adv-x="1444" 
d="M721 -16q-145 0 -268.5 58.5t-214.5 161.5t-141.5 239t-50.5 291q0 157 50.5 293.5t142 239.5t215 161t267.5 58q147 0 270.5 -58.5t214.5 -161.5t141.5 -239.5t50.5 -292.5q0 -155 -50.5 -291t-141.5 -239t-214.5 -161.5t-270.5 -58.5zM719 284q-81 0 -126.5 55
t-45.5 137v518q0 85 46 138.5t126 53.5q77 0 123 -56t46 -136v-122h-123v122q0 26 -10 44t-34 18q-23 0 -33.5 -20.5t-10.5 -41.5v-518q0 -62 44 -62q24 0 34 18.5t10 43.5v122h123v-122q0 -82 -46 -137t-123 -55zM721 100q121 0 223.5 49.5t178 136.5t117.5 202t42 246
q0 132 -41.5 247.5t-116.5 202.5t-177.5 136.5t-225.5 49.5q-122 0 -224.5 -50t-177.5 -138.5t-116 -203.5t-41 -244t42 -244t117.5 -202.5t177.5 -137.5t222 -50z" />
    <glyph glyph-name="ordfeminine" unicode="&#xaa;" horiz-adv-x="321" 
d="M98 539q-69 0 -69 135q0 134 99 197q23 15 40 36v60q0 48 -21 48q-12 0 -16.5 -18.5t-4.5 -63.5h-89v28q0 60 33.5 100.5t81.5 40.5q44 0 73.5 -35t29.5 -89v-336q0 -23 1.5 -43.5t4.5 -51.5h-83q-3 5 -6.5 17.5t-3.5 21.5h-4q-22 -47 -66 -47zM136 636q12 0 21.5 11
t9.5 24v133q-22 -15 -37 -49.5t-15 -72.5q0 -46 21 -46z" />
    <glyph glyph-name="guillemotleft" unicode="&#xab;" horiz-adv-x="640" 
d="M580 204l-245 265v152l245 265v-195l-179 -188v85l179 -188v-196zM305 204l-245 265v152l245 265v-195l-179 -188v85l179 -188v-196z" />
    <glyph glyph-name="logicalnot" unicode="&#xac;" horiz-adv-x="859" 
d="M627 296v338h-578v168h731v-506h-153z" />
    <glyph glyph-name="uni00AD" unicode="&#xad;" horiz-adv-x="377" 
d="M49 444v190h250v-190h-250z" />
    <glyph glyph-name="registered" unicode="&#xae;" horiz-adv-x="1444" 
d="M721 -16q-145 0 -268.5 58.5t-214.5 161.5t-141.5 239t-50.5 291q0 157 50.5 293.5t142 239.5t215 161t267.5 58q147 0 270.5 -58.5t214.5 -161.5t141.5 -239.5t50.5 -292.5q0 -155 -50.5 -291t-141.5 -239t-214.5 -161.5t-270.5 -58.5zM721 100q121 0 223.5 49.5
t178 136.5t117.5 202t42 246q0 132 -41.5 247.5t-116.5 202.5t-177.5 136.5t-225.5 49.5q-122 0 -224.5 -50t-177.5 -138.5t-116 -203.5t-41 -244t42 -244t117.5 -202.5t177.5 -137.5t222 -50zM540 306v858h178q112 0 161 -66.5t49 -185.5q0 -64 -12 -115t-68 -101l97 -390
h-138l-85 356h-50v-356h-132zM672 786h41q57 0 76 40q8 18 10.5 40t2.5 44q0 23 -2.5 45.5t-10.5 40.5q-9 18 -28 30t-48 12h-41v-252z" />
    <glyph glyph-name="macron" unicode="&#xaf;" horiz-adv-x="830" 
d="M252 1235v148h347v-148h-347z" />
    <glyph glyph-name="degree" unicode="&#xb0;" horiz-adv-x="351" 
d="M184 1168q-53 0 -91 39.5t-38 100.5q0 62 38 101t91 39t90 -39t37 -101q0 -61 -37 -100.5t-90 -39.5zM184 1241q19 0 35.5 19.5t16.5 47.5q0 29 -16.5 47.5t-35.5 18.5t-35.5 -18.5t-16.5 -47.5q0 -28 16.5 -47.5t35.5 -19.5z" />
    <glyph glyph-name="plusminus" unicode="&#xb1;" horiz-adv-x="858" 
d="M353 296v338h-289v168h289v338h153v-338h289v-168h-289v-338h-153zM64 0v168h730v-168h-730z" />
    <glyph glyph-name="uni00B2" unicode="&#xb2;" horiz-adv-x="570" 
d="M100 600v117q79 104 128.5 199t73.5 174.5t25 134.5q0 34 -11 51.5t-29 17.5q-25 0 -32.5 -27t-7.5 -61v-55h-143v55q0 100 47.5 154.5t137.5 54.5q87 0 132.5 -48t45.5 -143q0 -58 -20 -125t-64 -156.5t-118 -217.5h200v-125h-365z" />
    <glyph glyph-name="uni00B3" unicode="&#xb3;" horiz-adv-x="566" 
d="M279 591q-173 0 -173 242h140q0 -65 10.5 -94.5t30.5 -29.5q24 0 31.5 25t7.5 84q0 63 -7.5 93.5t-31.5 41t-74 11.5v100q45 7 67 19t29 39.5t7 79.5q0 56 -7.5 76t-27.5 20q-22 0 -31 -27.5t-9 -97.5h-141q0 242 181 242q86 0 131 -50.5t45 -146.5q0 -58 -17.5 -101
t-59.5 -84q45 -38 65.5 -87t20.5 -120q0 -113 -48.5 -174t-138.5 -61z" />
    <glyph glyph-name="acute" unicode="&#xb4;" horiz-adv-x="830" 
d="M317 1224l118 180h186l-167 -180h-137z" />
    <glyph glyph-name="uni00B5" unicode="&#xb5;" horiz-adv-x="570" 
d="M49 -376v1470h180v-865q0 -59 39 -59q20 0 33.5 20.5t13.5 51.5v852h180v-1094h-180v74q-21 -24 -43 -43t-43 -31v-376h-180z" />
    <glyph glyph-name="paragraph" unicode="&#xb6;" horiz-adv-x="895" 
d="M358 -300v888q-148 2 -226 115t-78 327q0 215 78 327.5t225 112.5h192v-1770h-191zM634 -300l-1 1770h192v-1770h-191z" />
    <glyph glyph-name="periodcentered" unicode="&#xb7;" horiz-adv-x="198" 
d="M-9 634v222h186v-222h-186z" />
    <glyph glyph-name="cedilla" unicode="&#xb8;" horiz-adv-x="830" 
d="M533 -65q36 0 69.5 -27.5t33.5 -97.5q0 -65 -31 -106.5t-79 -60.5t-100 -19q-44 0 -90.5 16t-67.5 35l43 101q15 -13 52 -29.5t72 -16.5q37 0 62.5 17.5t25.5 54.5q0 31 -14 43t-30 12q-37 0 -53 -34l-90 36l48 141h99l-39 -108h-7q6 22 34 32.5t62 10.5z" />
    <glyph glyph-name="uni00B9" unicode="&#xb9;" horiz-adv-x="430" 
d="M187 600v629h-87v78q38 7 63.5 20.5t46.5 34.5q20 20 29 41h91v-803h-143z" />
    <glyph glyph-name="ordmasculine" unicode="&#xba;" horiz-adv-x="386" 
d="M193 925q-72 0 -110 52t-38 132v188q0 79 38 131t110 52q73 0 110.5 -52t37.5 -131v-188q0 -80 -37.5 -132t-110.5 -52zM194 1043q20 0 27 18t7 50v184q0 31 -7 49t-27 18q-21 0 -28 -18t-7 -49v-184q0 -32 7 -50t28 -18z" />
    <glyph glyph-name="guillemotright" unicode="&#xbb;" horiz-adv-x="640" 
d="M60 204v196l179 188v-85l-179 188v195l245 -265v-152zM335 204v196l179 188v-85l-179 188v195l245 -265v-152z" />
    <glyph glyph-name="onequarter" unicode="&#xbc;" horiz-adv-x="1564" 
d="M187 600v629h-87v78q38 7 63.5 20.5t46.5 34.5q20 20 29 41h91v-803h-143zM180 0l968 1470h142l-964 -1470h-146zM1287 0v175h-210v103l195 525h142v-517h60v-111h-60v-175h-127zM1202 286h86v266h-5l-6 -37z" />
    <glyph glyph-name="onehalf" unicode="&#xbd;" horiz-adv-x="1609" 
d="M187 600v629h-87v78q38 7 63.5 20.5t46.5 34.5q20 20 29 41h91v-803h-143zM180 0l968 1470h142l-964 -1470h-146zM1139 0v117q79 104 128.5 199t73.5 174.5t25 134.5q0 34 -11 51.5t-29 17.5q-25 0 -32.5 -27t-7.5 -61v-55h-143v55q0 100 47.5 154.5t137.5 54.5
q87 0 132.5 -48t45.5 -143q0 -58 -20 -125t-64 -156.5t-118 -217.5h200v-125h-365z" />
    <glyph glyph-name="threequarters" unicode="&#xbe;" horiz-adv-x="1700" 
d="M279 591q-173 0 -173 242h140q0 -65 10.5 -94.5t30.5 -29.5q24 0 31.5 25t7.5 84q0 63 -7.5 93.5t-31.5 41t-74 11.5v100q45 7 67 19t29 39.5t7 79.5q0 56 -7.5 76t-27.5 20q-22 0 -31 -27.5t-9 -97.5h-141q0 242 181 242q86 0 131 -50.5t45 -146.5q0 -58 -17.5 -101
t-59.5 -84q45 -38 65.5 -87t20.5 -120q0 -113 -48.5 -174t-138.5 -61zM316 0l968 1470h142l-964 -1470h-146zM1423 0v175h-210v103l195 525h142v-517h60v-111h-60v-175h-127zM1338 286h86v266h-5l-6 -37z" />
    <glyph glyph-name="questiondown" unicode="&#xbf;" horiz-adv-x="580" 
d="M383 698v-250q0 -81 -24 -159t-56 -151.5t-56 -140t-24 -125.5q0 -28 13.5 -48t40.5 -20q41 0 65.5 40.5t38.5 101.5l149 -82q-15 -70 -51.5 -126t-88.5 -89t-114 -33q-80 0 -130 39.5t-73 101.5t-23 129q0 75 25.5 139t59 127.5t59 135t25.5 160.5v250h164zM393 1094
v-222h-186v222h186z" />
    <glyph glyph-name="Agrave" unicode="&#xc0;" horiz-adv-x="649" 
d="M28 0l183 1470h229l182 -1470h-191l-31 300h-150l-31 -300h-191zM271 517h108l-47 535l-3 54h-8l-3 -54zM407 1600h-138l-166 180h185z" />
    <glyph glyph-name="Aacute" unicode="&#xc1;" horiz-adv-x="649" 
d="M28 0l183 1470h229l182 -1470h-191l-31 300h-150l-31 -300h-191zM271 517h108l-47 535l-3 54h-8l-3 -54zM240 1600l118 180h186l-167 -180h-137z" />
    <glyph glyph-name="Acircumflex" unicode="&#xc2;" horiz-adv-x="649" 
d="M28 0l183 1470h229l182 -1470h-191l-31 300h-150l-31 -300h-191zM271 517h108l-47 535l-3 54h-8l-3 -54zM111 1604l121 180h188l121 -180h-162l-54 90l-52 -90h-162z" />
    <glyph glyph-name="Atilde" unicode="&#xc3;" horiz-adv-x="649" 
d="M28 0l183 1470h229l182 -1470h-191l-31 300h-150l-31 -300h-191zM271 517h108l-47 535l-3 54h-8l-3 -54zM405 1581q-43 0 -78 18q-38 20 -81 20q-24 0 -50 -9.5t-45 -22.5v148q13 11 28 18.5t32 13.5q16 6 35 6q43 0 79 -16q20 -8 40 -15t40 -7q24 0 50 9.5t45 22.5v-148
q-17 -17 -45.5 -27.5t-49.5 -10.5z" />
    <glyph glyph-name="Adieresis" unicode="&#xc4;" horiz-adv-x="649" 
d="M28 0l183 1470h229l182 -1470h-191l-31 300h-150l-31 -300h-191zM271 517h108l-47 535l-3 54h-8l-3 -54zM368 1592v196h164v-196h-164zM119 1592v196h164v-196h-164z" />
    <glyph glyph-name="Aring" unicode="&#xc5;" horiz-adv-x="649" 
d="M28 0l183 1470h229l182 -1470h-191l-31 300h-150l-31 -300h-191zM271 517h108l-47 535l-3 54h-8l-3 -54zM327 1570q-61 0 -105.5 39.5t-44.5 100.5q0 62 44.5 101t105.5 39q62 0 105 -39t43 -101q0 -61 -43 -100.5t-105 -39.5zM327 1640q29 0 51.5 21t22.5 49
q0 29 -22.5 49.5t-51.5 20.5q-28 0 -51 -20.5t-23 -49.5q0 -28 23 -49t51 -21z" />
    <glyph glyph-name="AE" unicode="&#xc6;" horiz-adv-x="920" 
d="M28 0l328 1470h504v-222h-222v-386h160v-236h-160v-404h222v-222h-413v300h-160l-70 -300h-189zM337 528h110v525h-6z" />
    <glyph glyph-name="Ccedilla" unicode="&#xc7;" horiz-adv-x="585" 
d="M292 -16q-85 0 -138.5 44.5t-78.5 115t-25 148.5v886q0 78 26.5 148.5t80 115t135.5 44.5q64 0 109.5 -28t75.5 -73.5t44 -99.5t14 -107v-212h-182v216q0 35 -11.5 64.5t-45.5 29.5q-31 0 -42 -30t-11 -64v-894q0 -34 12 -64t41 -30q34 0 45.5 29.5t11.5 64.5v216h182
v-212q0 -83 -26.5 -153t-80 -112.5t-136.5 -42.5zM399 -65q36 0 69.5 -27.5t33.5 -97.5q0 -65 -31 -106.5t-79 -60.5t-100 -19q-44 0 -90.5 16t-67.5 35l43 101q15 -13 52 -29.5t72 -16.5q37 0 62.5 17.5t25.5 54.5q0 31 -14 43t-30 12q-37 0 -53 -34l-90 36l48 141h99
l-39 -108h-7q6 22 34 32.5t62 10.5z" />
    <glyph glyph-name="Egrave" unicode="&#xc8;" horiz-adv-x="533" 
d="M60 0v1470h413v-222h-222v-396h165v-216h-165v-414h222v-222h-413zM347 1600h-138l-166 180h185z" />
    <glyph glyph-name="Eacute" unicode="&#xc9;" horiz-adv-x="521" 
d="M55 0v1470h413v-222h-222v-386h160v-236h-160v-404h222v-222h-413zM175 1600l83 180h185l-126 -180h-142z" />
    <glyph glyph-name="Ecircumflex" unicode="&#xca;" horiz-adv-x="533" 
d="M60 0v1470h413v-222h-222v-396h165v-216h-165v-414h222v-222h-413zM51 1604l121 180h188l121 -180h-162l-54 90l-52 -90h-162z" />
    <glyph glyph-name="Edieresis" unicode="&#xcb;" horiz-adv-x="533" 
d="M60 0v1470h413v-222h-222v-396h165v-216h-165v-414h222v-222h-413zM309 1592v196h164v-196h-164zM60 1592v196h164v-196h-164z" />
    <glyph glyph-name="Igrave" unicode="&#xcc;" horiz-adv-x="311" 
d="M60 0v1470h191v-1470h-191zM237 1600h-138l-166 180h185z" />
    <glyph glyph-name="Iacute" unicode="&#xcd;" horiz-adv-x="311" 
d="M60 0v1470h191v-1470h-191zM70 1600l118 180h186l-167 -180h-137z" />
    <glyph glyph-name="Icircumflex" unicode="&#xce;" horiz-adv-x="311" 
d="M60 0v1470h191v-1470h-191zM-59 1604l121 180h188l121 -180h-162l-54 90l-52 -90h-162z" />
    <glyph glyph-name="Idieresis" unicode="&#xcf;" horiz-adv-x="311" 
d="M60 0v1470h191v-1470h-191zM198 1592v196h164v-196h-164zM-51 1592v196h164v-196h-164z" />
    <glyph glyph-name="Eth" unicode="&#xd0;" horiz-adv-x="630" 
d="M22 634v190h300v-190h-300zM60 0v1470h174q97 0 160.5 -42t100 -131t51.5 -228.5t15 -334.5q0 -198 -16 -337.5t-53.5 -227t-100 -128.5t-155.5 -41h-176zM251 216q57 0 80.5 64t29 180.5t5.5 274.5q0 159 -5.5 275.5t-29.5 180t-80 63.5v-1038z" />
    <glyph glyph-name="Ntilde" unicode="&#xd1;" horiz-adv-x="642" 
d="M60 0v1470h176l149 -701l14 -78h7v779h176v-1470h-161l-163 698l-14 91h-8v-789h-176zM417 1581q-43 0 -78 18q-38 20 -81 20q-24 0 -50 -9.5t-45 -22.5v148q13 11 28 18.5t32 13.5q16 6 35 6q43 0 79 -16q20 -8 40 -15t40 -7q24 0 50 9.5t45 22.5v-148
q-17 -17 -45.5 -27.5t-49.5 -10.5z" />
    <glyph glyph-name="Ograve" unicode="&#xd2;" horiz-adv-x="589" 
d="M295 -16q-82 0 -136.5 42.5t-81.5 112.5t-27 153v886q0 82 27 152t81.5 113t136.5 43q85 0 139 -43t79.5 -113t25.5 -152v-886q0 -83 -26.5 -153t-80.5 -112.5t-137 -42.5zM296 194q32 0 42 30.5t10 67.5v886q0 38 -10.5 68t-41.5 30q-29 0 -41 -29.5t-12 -68.5v-886
q0 -40 11.5 -69t41.5 -29zM377 1600h-138l-166 180h185z" />
    <glyph glyph-name="Oacute" unicode="&#xd3;" horiz-adv-x="589" 
d="M295 -16q-82 0 -136.5 42.5t-81.5 112.5t-27 153v886q0 82 27 152t81.5 113t136.5 43q85 0 139 -43t79.5 -113t25.5 -152v-886q0 -83 -26.5 -153t-80.5 -112.5t-137 -42.5zM296 194q32 0 42 30.5t10 67.5v886q0 38 -10.5 68t-41.5 30q-29 0 -41 -29.5t-12 -68.5v-886
q0 -40 11.5 -69t41.5 -29zM210 1600l118 180h186l-167 -180h-137z" />
    <glyph glyph-name="Ocircumflex" unicode="&#xd4;" horiz-adv-x="589" 
d="M295 -16q-82 0 -136.5 42.5t-81.5 112.5t-27 153v886q0 82 27 152t81.5 113t136.5 43q85 0 139 -43t79.5 -113t25.5 -152v-886q0 -83 -26.5 -153t-80.5 -112.5t-137 -42.5zM296 194q32 0 42 30.5t10 67.5v886q0 38 -10.5 68t-41.5 30q-29 0 -41 -29.5t-12 -68.5v-886
q0 -40 11.5 -69t41.5 -29zM81 1604l121 180h188l121 -180h-162l-54 90l-52 -90h-162z" />
    <glyph glyph-name="Otilde" unicode="&#xd5;" horiz-adv-x="589" 
d="M295 -16q-82 0 -136.5 42.5t-81.5 112.5t-27 153v886q0 82 27 152t81.5 113t136.5 43q85 0 139 -43t79.5 -113t25.5 -152v-886q0 -83 -26.5 -153t-80.5 -112.5t-137 -42.5zM296 194q32 0 42 30.5t10 67.5v886q0 38 -10.5 68t-41.5 30q-29 0 -41 -29.5t-12 -68.5v-886
q0 -40 11.5 -69t41.5 -29zM375 1581q-43 0 -78 18q-38 20 -81 20q-24 0 -50 -9.5t-45 -22.5v148q13 11 28 18.5t32 13.5q16 6 35 6q43 0 79 -16q20 -8 40 -15t40 -7q24 0 50 9.5t45 22.5v-148q-17 -17 -45.5 -27.5t-49.5 -10.5z" />
    <glyph glyph-name="Odieresis" unicode="&#xd6;" horiz-adv-x="589" 
d="M295 -16q-82 0 -136.5 42.5t-81.5 112.5t-27 153v886q0 82 27 152t81.5 113t136.5 43q85 0 139 -43t79.5 -113t25.5 -152v-886q0 -83 -26.5 -153t-80.5 -112.5t-137 -42.5zM296 194q32 0 42 30.5t10 67.5v886q0 38 -10.5 68t-41.5 30q-29 0 -41 -29.5t-12 -68.5v-886
q0 -40 11.5 -69t41.5 -29zM338 1592v196h164v-196h-164zM89 1592v196h164v-196h-164z" />
    <glyph glyph-name="multiply" unicode="&#xd7;" horiz-adv-x="741" 
d="M151 360l-102 119l205 239l-205 239l102 119l204 -239l205 239l102 -119l-205 -239l205 -239l-102 -119l-205 239z" />
    <glyph glyph-name="Oslash" unicode="&#xd8;" horiz-adv-x="589" 
d="M29 22l433 1472l114 -53l-428 -1472zM295 -16q-82 0 -136.5 42.5t-81.5 112.5t-27 153v886q0 82 27 152t81.5 113t136.5 43q85 0 139 -43t79.5 -113t25.5 -152v-886q0 -83 -26.5 -153t-80.5 -112.5t-137 -42.5zM296 194q32 0 42 30.5t10 67.5v886q0 38 -10.5 68t-41.5 30
q-29 0 -41 -29.5t-12 -68.5v-886q0 -40 11.5 -69t41.5 -29z" />
    <glyph glyph-name="Ugrave" unicode="&#xd9;" horiz-adv-x="605" 
d="M303 -16q-85 0 -139 41t-79 111t-25 156v1178h191v-1178q0 -42 12 -70t40 -28q29 0 40 28t11 70v1178h191v-1178q0 -86 -25 -156t-78.5 -111t-138.5 -41zM384 1600h-138l-166 180h185z" />
    <glyph glyph-name="Uacute" unicode="&#xda;" horiz-adv-x="605" 
d="M303 -16q-85 0 -139 41t-79 111t-25 156v1178h191v-1178q0 -42 12 -70t40 -28q29 0 40 28t11 70v1178h191v-1178q0 -86 -25 -156t-78.5 -111t-138.5 -41zM217 1600l118 180h186l-167 -180h-137z" />
    <glyph glyph-name="Ucircumflex" unicode="&#xdb;" horiz-adv-x="605" 
d="M303 -16q-85 0 -139 41t-79 111t-25 156v1178h191v-1178q0 -42 12 -70t40 -28q29 0 40 28t11 70v1178h191v-1178q0 -86 -25 -156t-78.5 -111t-138.5 -41zM88 1604l121 180h188l121 -180h-162l-54 90l-52 -90h-162z" />
    <glyph glyph-name="Udieresis" unicode="&#xdc;" horiz-adv-x="605" 
d="M303 -16q-85 0 -139 41t-79 111t-25 156v1178h191v-1178q0 -42 12 -70t40 -28q29 0 40 28t11 70v1178h191v-1178q0 -86 -25 -156t-78.5 -111t-138.5 -41zM346 1592v196h164v-196h-164zM97 1592v196h164v-196h-164z" />
    <glyph glyph-name="Yacute" unicode="&#xdd;" horiz-adv-x="619" 
d="M215 0v626l-192 844h195l83 -470l6 -64h5l7 64l82 470h196l-193 -844v-626h-189zM222 1600l118 180h186l-167 -180h-137z" />
    <glyph glyph-name="Thorn" unicode="&#xde;" horiz-adv-x="598" 
d="M60 0v1470h190v-236q106 0 173.5 -58t99.5 -157.5t32 -224.5q0 -122 -32 -222.5t-99 -160t-173 -59.5v-352h-191zM251 572q45 0 69 26.5t34 75t10 112.5t-10 115.5t-34.5 82t-68.5 30.5v-442z" />
    <glyph glyph-name="germandbls" unicode="&#xdf;" horiz-adv-x="603" 
d="M50 0v1206q0 80 27.5 143t81 100t129.5 37q82 0 133 -39t74.5 -102.5t23.5 -136.5q0 -51 -19 -94.5t-53 -75.5q29 -21 52 -57t37 -89q17 -57 24.5 -138.5t7.5 -191.5q0 -181 -16.5 -292.5t-50.5 -171.5q-33 -60 -86.5 -79t-125.5 -19v188q24 0 44 13t32 53
q12 41 18 114.5t6 193.5q0 128 -6 205t-18 119t-32 56t-44 14v138q28 0 48 31t20 83q0 41 -16 69.5t-51 28.5q-29 0 -44.5 -28.5t-15.5 -71.5v-1206h-180z" />
    <glyph glyph-name="agrave" unicode="&#xe0;" horiz-adv-x="542" 
d="M181 -16q-67 0 -110 79t-43 215q0 128 50 215.5t152 154.5q29 19 52 38t28 34v119q0 34 -6.5 65t-34.5 31q-27 0 -35 -33t-8 -68v-62h-177v61q0 76 27 139t78.5 100.5t123.5 37.5q68 0 114 -37.5t69.5 -96.5t23.5 -124v-682q0 -64 3.5 -103t8.5 -67h-166
q-8 11 -13.5 36.5t-5.5 40.5h-9q-19 -38 -49 -65.5t-73 -27.5zM248 178q28 0 44.5 23.5t16.5 51.5v257q-50 -32 -77.5 -92.5t-27.5 -132.5q0 -40 10 -73.5t34 -33.5zM367 1224h-138l-166 180h185z" />
    <glyph glyph-name="aacute" unicode="&#xe1;" horiz-adv-x="542" 
d="M181 -16q-67 0 -110 79t-43 215q0 128 50 215.5t152 154.5q29 19 52 38t28 34v119q0 34 -6.5 65t-34.5 31q-27 0 -35 -33t-8 -68v-62h-177v61q0 76 27 139t78.5 100.5t123.5 37.5q68 0 114 -37.5t69.5 -96.5t23.5 -124v-682q0 -64 3.5 -103t8.5 -67h-166
q-8 11 -13.5 36.5t-5.5 40.5h-9q-19 -38 -49 -65.5t-73 -27.5zM248 178q28 0 44.5 23.5t16.5 51.5v257q-50 -32 -77.5 -92.5t-27.5 -132.5q0 -40 10 -73.5t34 -33.5zM200 1224l118 180h186l-167 -180h-137z" />
    <glyph glyph-name="acircumflex" unicode="&#xe2;" horiz-adv-x="542" 
d="M181 -16q-67 0 -110 79t-43 215q0 128 50 215.5t152 154.5q29 19 52 38t28 34v119q0 34 -6.5 65t-34.5 31q-27 0 -35 -33t-8 -68v-62h-177v61q0 76 27 139t78.5 100.5t123.5 37.5q68 0 114 -37.5t69.5 -96.5t23.5 -124v-682q0 -64 3.5 -103t8.5 -67h-166
q-8 11 -13.5 36.5t-5.5 40.5h-9q-19 -38 -49 -65.5t-73 -27.5zM248 178q28 0 44.5 23.5t16.5 51.5v257q-50 -32 -77.5 -92.5t-27.5 -132.5q0 -40 10 -73.5t34 -33.5zM71 1228l121 180h188l121 -180h-162l-54 90l-52 -90h-162z" />
    <glyph glyph-name="atilde" unicode="&#xe3;" horiz-adv-x="542" 
d="M181 -16q-67 0 -110 79t-43 215q0 128 50 215.5t152 154.5q29 19 52 38t28 34v119q0 34 -6.5 65t-34.5 31q-27 0 -35 -33t-8 -68v-62h-177v61q0 76 27 139t78.5 100.5t123.5 37.5q68 0 114 -37.5t69.5 -96.5t23.5 -124v-682q0 -64 3.5 -103t8.5 -67h-166
q-8 11 -13.5 36.5t-5.5 40.5h-9q-19 -38 -49 -65.5t-73 -27.5zM248 178q28 0 44.5 23.5t16.5 51.5v257q-50 -32 -77.5 -92.5t-27.5 -132.5q0 -40 10 -73.5t34 -33.5zM365 1205q-43 0 -78 18q-38 20 -81 20q-24 0 -50 -9.5t-45 -22.5v148q13 11 28 18.5t32 13.5q16 6 35 6
q43 0 79 -16q20 -8 40 -15t40 -7q24 0 50 9.5t45 22.5v-148q-17 -17 -45.5 -27.5t-49.5 -10.5z" />
    <glyph glyph-name="adieresis" unicode="&#xe4;" horiz-adv-x="542" 
d="M181 -16q-67 0 -110 79t-43 215q0 128 50 215.5t152 154.5q29 19 52 38t28 34v119q0 34 -6.5 65t-34.5 31q-27 0 -35 -33t-8 -68v-62h-177v61q0 76 27 139t78.5 100.5t123.5 37.5q68 0 114 -37.5t69.5 -96.5t23.5 -124v-682q0 -64 3.5 -103t8.5 -67h-166
q-8 11 -13.5 36.5t-5.5 40.5h-9q-19 -38 -49 -65.5t-73 -27.5zM248 178q28 0 44.5 23.5t16.5 51.5v257q-50 -32 -77.5 -92.5t-27.5 -132.5q0 -40 10 -73.5t34 -33.5zM328 1216v196h164v-196h-164zM79 1216v196h164v-196h-164z" />
    <glyph glyph-name="aring" unicode="&#xe5;" horiz-adv-x="542" 
d="M181 -16q-67 0 -110 79t-43 215q0 128 50 215.5t152 154.5q29 19 52 38t28 34v119q0 34 -6.5 65t-34.5 31q-27 0 -35 -33t-8 -68v-62h-177v61q0 76 27 139t78.5 100.5t123.5 37.5q68 0 114 -37.5t69.5 -96.5t23.5 -124v-682q0 -64 3.5 -103t8.5 -67h-166
q-8 11 -13.5 36.5t-5.5 40.5h-9q-19 -38 -49 -65.5t-73 -27.5zM248 178q28 0 44.5 23.5t16.5 51.5v257q-50 -32 -77.5 -92.5t-27.5 -132.5q0 -40 10 -73.5t34 -33.5zM287 1194q-61 0 -105.5 39.5t-44.5 100.5q0 62 44.5 101t105.5 39q62 0 105 -39t43 -101q0 -61 -43 -100.5
t-105 -39.5zM287 1264q29 0 51.5 21t22.5 49q0 29 -22.5 49.5t-51.5 20.5q-28 0 -51 -20.5t-23 -49.5q0 -28 23 -49t51 -21z" />
    <glyph glyph-name="ae" unicode="&#xe6;" horiz-adv-x="799" 
d="M261 -16q-59 0 -112 28t-87 92.5t-34 173.5q0 128 50 203t152 142q29 19 52 38t28 34v144q0 34 -6.5 65t-34.5 31q-27 0 -35 -33t-8 -68v-62h-177v61q0 76 27 139t78.5 100.5t123.5 37.5q68 0 112.5 -37.5t67 -96.5t22.5 -124v-639q0 -112 -64.5 -170.5t-154.5 -58.5z
M248 178q28 0 44.5 23.5t16.5 51.5v232q-50 -32 -77.5 -80t-27.5 -120q0 -40 10 -73.5t34 -33.5zM539 -16q-109 0 -165.5 77.5t-56.5 198.5v569q0 121 56 201t167 80q73 0 123 -37.5t75.5 -100.5t25.5 -140v-322h-276v-253q0 -39 12 -67t41 -28q30 0 42 27t12 69v134h169
v-137q0 -124 -57 -197.5t-168 -73.5zM488 668h107v169q0 43 -10.5 70t-43.5 27q-29 0 -41 -28t-12 -69v-169z" />
    <glyph glyph-name="ccedilla" unicode="&#xe7;" horiz-adv-x="515" 
d="M257 -15q-115 0 -168.5 79.5t-53.5 204.5v557q0 126 53.5 205t168.5 79q116 0 169.5 -78t53.5 -206v-116h-177v128q0 42 -8 68t-36 26q-27 0 -35.5 -26t-8.5 -68v-581q0 -41 8.5 -67.5t35.5 -26.5q28 0 36 26.5t8 67.5v128h177v-116q0 -127 -53.5 -205.5t-169.5 -78.5z
M355 -65q36 0 69.5 -27.5t33.5 -97.5q0 -65 -31 -106.5t-79 -60.5t-100 -19q-44 0 -90.5 16t-67.5 35l43 101q15 -13 52 -29.5t72 -16.5q37 0 62.5 17.5t25.5 54.5q0 31 -14 43t-30 12q-37 0 -53 -34l-90 36l48 141h99l-39 -108h-7q6 22 34 32.5t62 10.5z" />
    <glyph glyph-name="egrave" unicode="&#xe8;" horiz-adv-x="517" 
d="M257 -16q-109 0 -165.5 77.5t-56.5 198.5v569q0 121 56.5 201t166.5 80q73 0 123 -37.5t75.5 -100.5t25.5 -140v-322h-276v-253q0 -39 12 -67t41 -28q31 0 42.5 27t11.5 69v134h169v-137q0 -124 -56.5 -197.5t-168.5 -73.5zM206 668h107v169q0 43 -10 70t-44 27
q-28 0 -40.5 -28t-12.5 -69v-169zM347 1224h-138l-166 180h185z" />
    <glyph glyph-name="eacute" unicode="&#xe9;" horiz-adv-x="517" 
d="M257 -16q-109 0 -165.5 77.5t-56.5 198.5v569q0 121 56.5 201t166.5 80q73 0 123 -37.5t75.5 -100.5t25.5 -140v-322h-276v-253q0 -39 12 -67t41 -28q31 0 42.5 27t11.5 69v134h169v-137q0 -124 -56.5 -197.5t-168.5 -73.5zM206 668h107v169q0 43 -10 70t-44 27
q-28 0 -40.5 -28t-12.5 -69v-169zM180 1224l118 180h186l-167 -180h-137z" />
    <glyph glyph-name="ecircumflex" unicode="&#xea;" horiz-adv-x="517" 
d="M257 -16q-109 0 -165.5 77.5t-56.5 198.5v569q0 121 56.5 201t166.5 80q73 0 123 -37.5t75.5 -100.5t25.5 -140v-322h-276v-253q0 -39 12 -67t41 -28q31 0 42.5 27t11.5 69v134h169v-137q0 -124 -56.5 -197.5t-168.5 -73.5zM206 668h107v169q0 43 -10 70t-44 27
q-28 0 -40.5 -28t-12.5 -69v-169zM51 1228l121 180h188l121 -180h-162l-54 90l-52 -90h-162z" />
    <glyph glyph-name="edieresis" unicode="&#xeb;" horiz-adv-x="517" 
d="M257 -16q-109 0 -165.5 77.5t-56.5 198.5v569q0 121 56.5 201t166.5 80q73 0 123 -37.5t75.5 -100.5t25.5 -140v-322h-276v-253q0 -39 12 -67t41 -28q31 0 42.5 27t11.5 69v134h169v-137q0 -124 -56.5 -197.5t-168.5 -73.5zM206 668h107v169q0 43 -10 70t-44 27
q-28 0 -40.5 -28t-12.5 -69v-169zM309 1216v196h164v-196h-164zM60 1216v196h164v-196h-164z" />
    <glyph glyph-name="igrave" unicode="&#xec;" horiz-adv-x="300" 
d="M60 0v1094h180v-1094h-180zM231 1224h-138l-166 180h185z" />
    <glyph glyph-name="iacute" unicode="&#xed;" horiz-adv-x="300" 
d="M60 0v1094h180v-1094h-180zM64 1224l118 180h186l-167 -180h-137z" />
    <glyph glyph-name="icircumflex" unicode="&#xee;" horiz-adv-x="300" 
d="M60 0v1094h180v-1094h-180zM-65 1228l121 180h188l121 -180h-162l-54 90l-52 -90h-162z" />
    <glyph glyph-name="idieresis" unicode="&#xef;" horiz-adv-x="300" 
d="M60 0v1094h180v-1094h-180zM193 1216v196h164v-196h-164zM-56 1216v196h164v-196h-164z" />
    <glyph glyph-name="eth" unicode="&#xf0;" horiz-adv-x="513" 
d="M256 -16q-76 0 -125 42.5t-72.5 109t-23.5 136.5v566q0 46 6 93.5t22 88t45.5 65.5t75.5 25q26 0 54.5 -15t56.5 -40q-5 47 -14.5 89t-20.5 72l-61 -66l-49 74l81 88q-6 15 -17.5 32t-20.5 30l95 113q7 -8 21 -28t21 -35l73 80l49 -76l-77 -86q37 -72 70 -180t33 -256
v-640q0 -69 -24 -133.5t-73 -106.5t-125 -42zM256 162q28 0 40 33t12 67v570q0 44 -11.5 73t-40.5 29q-27 0 -39 -31t-12 -71v-570q0 -38 11 -69t40 -31z" />
    <glyph glyph-name="ntilde" unicode="&#xf1;" 
d="M45 0v1094h180v-74q26 29 65 59.5t70 30.5q50 0 78.5 -35.5t40 -85.5t11.5 -93v-896h-179v860q0 32 -9 48t-30 16q-18 0 -29 -17.5t-18 -44.5v-862h-180zM355 1205q-43 0 -78 18q-38 20 -81 20q-24 0 -50 -9.5t-45 -22.5v148q13 11 28 18.5t32 13.5q16 6 35 6
q43 0 79 -16q20 -8 40 -15t40 -7q24 0 50 9.5t45 22.5v-148q-17 -17 -45.5 -27.5t-49.5 -10.5z" />
    <glyph glyph-name="ograve" unicode="&#xf2;" horiz-adv-x="514" 
d="M257 -14q-109 0 -165.5 78t-56.5 197v574q0 120 56.5 197.5t165.5 77.5t165.5 -77.5t56.5 -197.5v-574q0 -119 -56.5 -197t-165.5 -78zM258 162q30 0 40.5 27.5t10.5 74.5v568q0 48 -10.5 75t-40.5 27q-31 0 -42 -27t-11 -75v-568q0 -47 11 -74.5t42 -27.5zM348 1224
h-138l-166 180h185z" />
    <glyph glyph-name="oacute" unicode="&#xf3;" horiz-adv-x="514" 
d="M257 -14q-109 0 -165.5 78t-56.5 197v574q0 120 56.5 197.5t165.5 77.5t165.5 -77.5t56.5 -197.5v-574q0 -119 -56.5 -197t-165.5 -78zM258 162q30 0 40.5 27.5t10.5 74.5v568q0 48 -10.5 75t-40.5 27q-31 0 -42 -27t-11 -75v-568q0 -47 11 -74.5t42 -27.5zM181 1224
l118 180h186l-167 -180h-137z" />
    <glyph glyph-name="ocircumflex" unicode="&#xf4;" horiz-adv-x="514" 
d="M257 -14q-109 0 -165.5 78t-56.5 197v574q0 120 56.5 197.5t165.5 77.5t165.5 -77.5t56.5 -197.5v-574q0 -119 -56.5 -197t-165.5 -78zM258 162q30 0 40.5 27.5t10.5 74.5v568q0 48 -10.5 75t-40.5 27q-31 0 -42 -27t-11 -75v-568q0 -47 11 -74.5t42 -27.5zM52 1228
l121 180h188l121 -180h-162l-54 90l-52 -90h-162z" />
    <glyph glyph-name="otilde" unicode="&#xf5;" horiz-adv-x="514" 
d="M257 -14q-109 0 -165.5 78t-56.5 197v574q0 120 56.5 197.5t165.5 77.5t165.5 -77.5t56.5 -197.5v-574q0 -119 -56.5 -197t-165.5 -78zM258 162q30 0 40.5 27.5t10.5 74.5v568q0 48 -10.5 75t-40.5 27q-31 0 -42 -27t-11 -75v-568q0 -47 11 -74.5t42 -27.5zM347 1205
q-43 0 -78 18q-38 20 -81 20q-24 0 -50 -9.5t-45 -22.5v148q13 11 28 18.5t32 13.5q16 6 35 6q43 0 79 -16q20 -8 40 -15t40 -7q24 0 50 9.5t45 22.5v-148q-17 -17 -45.5 -27.5t-49.5 -10.5z" />
    <glyph glyph-name="odieresis" unicode="&#xf6;" horiz-adv-x="514" 
d="M257 -14q-109 0 -165.5 78t-56.5 197v574q0 120 56.5 197.5t165.5 77.5t165.5 -77.5t56.5 -197.5v-574q0 -119 -56.5 -197t-165.5 -78zM258 162q30 0 40.5 27.5t10.5 74.5v568q0 48 -10.5 75t-40.5 27q-31 0 -42 -27t-11 -75v-568q0 -47 11 -74.5t42 -27.5zM310 1216v196
h164v-196h-164zM61 1216v196h164v-196h-164z" />
    <glyph glyph-name="divide" unicode="&#xf7;" horiz-adv-x="611" 
d="M51 634v168h509v-168h-509zM307 872q-40 0 -68 31t-28 75q0 43 28 73.5t68 30.5q39 0 66.5 -30.5t27.5 -73.5q0 -44 -27.5 -75t-66.5 -31zM307 354q-40 0 -68 31t-28 75q0 43 28 73.5t68 30.5q39 0 66.5 -30.5t27.5 -73.5q0 -44 -27.5 -75t-66.5 -31z" />
    <glyph glyph-name="oslash" unicode="&#xf8;" horiz-adv-x="514" 
d="M39 12l327 1122l104 -44l-322 -1121zM257 -14q-109 0 -165.5 78t-56.5 197v574q0 120 56.5 197.5t165.5 77.5t165.5 -77.5t56.5 -197.5v-574q0 -119 -56.5 -197t-165.5 -78zM258 162q30 0 40.5 27.5t10.5 74.5v568q0 48 -10.5 75t-40.5 27q-31 0 -42 -27t-11 -75v-568
q0 -47 11 -74.5t42 -27.5z" />
    <glyph glyph-name="ugrave" unicode="&#xf9;" 
d="M175 -16q-50 0 -78.5 36t-40 86t-11.5 92v896h179v-860q0 -31 9.5 -47.5t29.5 -16.5q19 0 30 18t17 44v862h180v-1094h-180v74q-25 -28 -64 -59t-71 -31zM362 1224h-138l-166 180h185z" />
    <glyph glyph-name="uacute" unicode="&#xfa;" 
d="M175 -16q-50 0 -78.5 36t-40 86t-11.5 92v896h179v-860q0 -31 9.5 -47.5t29.5 -16.5q19 0 30 18t17 44v862h180v-1094h-180v74q-25 -28 -64 -59t-71 -31zM195 1224l118 180h186l-167 -180h-137z" />
    <glyph glyph-name="ucircumflex" unicode="&#xfb;" 
d="M175 -16q-50 0 -78.5 36t-40 86t-11.5 92v896h179v-860q0 -31 9.5 -47.5t29.5 -16.5q19 0 30 18t17 44v862h180v-1094h-180v74q-25 -28 -64 -59t-71 -31zM66 1228l121 180h188l121 -180h-162l-54 90l-52 -90h-162z" />
    <glyph glyph-name="udieresis" unicode="&#xfc;" 
d="M175 -16q-50 0 -78.5 36t-40 86t-11.5 92v896h179v-860q0 -31 9.5 -47.5t29.5 -16.5q19 0 30 18t17 44v862h180v-1094h-180v74q-25 -28 -64 -59t-71 -31zM324 1216v196h164v-196h-164zM75 1216v196h164v-196h-164z" />
    <glyph glyph-name="yacute" unicode="&#xfd;" horiz-adv-x="516" 
d="M87 -394q-13 0 -28.5 2t-31.5 6v178q6 -2 16.5 -3.5t15.5 -1.5q34 0 56.5 17t32.5 47q14 25 17.5 58t3.5 59l-159 1126h176l66 -642l4 -85h6l4 85l63 642h177l-165 -1176q-10 -84 -40.5 -155t-83.5 -114t-130 -43zM174 1224l118 180h186l-167 -180h-137z" />
    <glyph glyph-name="thorn" unicode="&#xfe;" horiz-adv-x="525" 
d="M45 1470h180v-401h-180v401zM45 -376v1470h180v-64q28 31 66.5 55.5t70.5 24.5q45 0 73 -28.5t41.5 -76t13.5 -104.5v-703q0 -46 -12.5 -95.5t-41.5 -84t-79 -34.5q-34 0 -69.5 25t-62.5 59v-444h-180zM278 174q19 0 26 15.5t7 45.5v617q0 34 -6.5 54.5t-26.5 20.5
q-19 0 -36 -18t-17 -47v-624q0 -29 17 -46.5t36 -17.5z" />
    <glyph glyph-name="ydieresis" unicode="&#xff;" horiz-adv-x="516" 
d="M87 -394q-13 0 -28.5 2t-31.5 6v178q6 -2 16.5 -3.5t15.5 -1.5q34 0 56.5 17t32.5 47q14 25 17.5 58t3.5 59l-159 1126h176l66 -642l4 -85h6l4 85l63 642h177l-165 -1176q-10 -84 -40.5 -155t-83.5 -114t-130 -43zM302 1216v196h164v-196h-164zM53 1216v196h164v-196
h-164z" />
    <glyph glyph-name="Amacron" unicode="&#x100;" horiz-adv-x="649" 
d="M28 0l183 1470h229l182 -1470h-191l-31 300h-150l-31 -300h-191zM271 517h108l-47 535l-3 54h-8l-3 -54zM153 1611v148h347v-148h-347z" />
    <glyph glyph-name="amacron" unicode="&#x101;" horiz-adv-x="542" 
d="M181 -16q-67 0 -110 79t-43 215q0 128 50 215.5t152 154.5q29 19 52 38t28 34v119q0 34 -6.5 65t-34.5 31q-27 0 -35 -33t-8 -68v-62h-177v61q0 76 27 139t78.5 100.5t123.5 37.5q68 0 114 -37.5t69.5 -96.5t23.5 -124v-682q0 -64 3.5 -103t8.5 -67h-166
q-8 11 -13.5 36.5t-5.5 40.5h-9q-19 -38 -49 -65.5t-73 -27.5zM248 178q28 0 44.5 23.5t16.5 51.5v257q-50 -32 -77.5 -92.5t-27.5 -132.5q0 -40 10 -73.5t34 -33.5zM113 1235v148h347v-148h-347z" />
    <glyph glyph-name="Abreve" unicode="&#x102;" horiz-adv-x="649" 
d="M28 0l183 1470h229l182 -1470h-191l-31 300h-150l-31 -300h-191zM271 517h108l-47 535l-3 54h-8l-3 -54zM326 1573q-55 0 -105 27t-79 68l95 98q14 -25 38.5 -37.5t50.5 -12.5q27 0 53 12.5t40 36.5l91 -97q-36 -44 -82 -69.5t-102 -25.5z" />
    <glyph glyph-name="abreve" unicode="&#x103;" horiz-adv-x="542" 
d="M181 -16q-67 0 -110 79t-43 215q0 128 50 215.5t152 154.5q29 19 52 38t28 34v119q0 34 -6.5 65t-34.5 31q-27 0 -35 -33t-8 -68v-62h-177v61q0 76 27 139t78.5 100.5t123.5 37.5q68 0 114 -37.5t69.5 -96.5t23.5 -124v-682q0 -64 3.5 -103t8.5 -67h-166
q-8 11 -13.5 36.5t-5.5 40.5h-9q-19 -38 -49 -65.5t-73 -27.5zM248 178q28 0 44.5 23.5t16.5 51.5v257q-50 -32 -77.5 -92.5t-27.5 -132.5q0 -40 10 -73.5t34 -33.5zM286 1197q-55 0 -105 27t-79 68l95 98q14 -25 38.5 -37.5t50.5 -12.5q27 0 53 12.5t40 36.5l91 -97
q-36 -44 -82 -69.5t-102 -25.5z" />
    <glyph glyph-name="Aogonek" unicode="&#x104;" horiz-adv-x="649" 
d="M28 0l183 1470h229l182 -1470h-191l-31 300h-150l-31 -300h-191zM271 517h108l-47 535l-3 54h-8l-3 -54zM618 -375q-72 0 -120 34.5t-48 124.5q0 51 20 105.5t54 110.5h98q-13 -35 -25.5 -89t-12.5 -88q0 -43 21 -54t37 -11q40 0 72 23v-133q-32 -23 -96 -23z" />
    <glyph glyph-name="aogonek" unicode="&#x105;" horiz-adv-x="542" 
d="M181 -16q-67 0 -110 79t-43 215q0 128 50 215.5t152 154.5q29 19 52 38t28 34v119q0 34 -6.5 65t-34.5 31q-27 0 -35 -33t-8 -68v-62h-177v61q0 76 27 139t78.5 100.5t123.5 37.5q68 0 114 -37.5t69.5 -96.5t23.5 -124v-682q0 -64 3.5 -103t8.5 -67h-166
q-8 11 -13.5 36.5t-5.5 40.5h-9q-19 -38 -49 -65.5t-73 -27.5zM248 178q28 0 44.5 23.5t16.5 51.5v257q-50 -32 -77.5 -92.5t-27.5 -132.5q0 -40 10 -73.5t34 -33.5zM493 -375q-72 0 -120 34.5t-48 124.5q0 51 20 105.5t54 110.5h98q-13 -35 -25.5 -89t-12.5 -88
q0 -43 21 -54t37 -11q40 0 72 23v-133q-32 -23 -96 -23z" />
    <glyph glyph-name="Cacute" unicode="&#x106;" horiz-adv-x="585" 
d="M292 -16q-85 0 -138.5 44.5t-78.5 115t-25 148.5v886q0 78 26.5 148.5t80 115t135.5 44.5q64 0 109.5 -28t75.5 -73.5t44 -99.5t14 -107v-212h-182v216q0 35 -11.5 64.5t-45.5 29.5q-31 0 -42 -30t-11 -64v-894q0 -34 12 -64t41 -30q34 0 45.5 29.5t11.5 64.5v216h182
v-212q0 -83 -26.5 -153t-80 -112.5t-136.5 -42.5zM202 1600l118 180h186l-167 -180h-137z" />
    <glyph glyph-name="cacute" unicode="&#x107;" horiz-adv-x="515" 
d="M257 -15q-115 0 -168.5 79.5t-53.5 204.5v557q0 126 53.5 205t168.5 79q116 0 169.5 -78t53.5 -206v-116h-177v128q0 42 -8 68t-36 26q-27 0 -35.5 -26t-8.5 -68v-581q0 -41 8.5 -67.5t35.5 -26.5q28 0 36 26.5t8 67.5v128h177v-116q0 -127 -53.5 -205.5t-169.5 -78.5z
M170 1224l118 180h186l-167 -180h-137z" />
    <glyph glyph-name="Cdotaccent" unicode="&#x10a;" horiz-adv-x="585" 
d="M292 -16q-85 0 -138.5 44.5t-78.5 115t-25 148.5v886q0 78 26.5 148.5t80 115t135.5 44.5q64 0 109.5 -28t75.5 -73.5t44 -99.5t14 -107v-212h-182v216q0 35 -11.5 64.5t-45.5 29.5q-31 0 -42 -30t-11 -64v-894q0 -34 12 -64t41 -30q34 0 45.5 29.5t11.5 64.5v216h182
v-212q0 -83 -26.5 -153t-80 -112.5t-136.5 -42.5zM199 1595v202h180v-202h-180z" />
    <glyph glyph-name="cdotaccent" unicode="&#x10b;" horiz-adv-x="515" 
d="M257 -15q-115 0 -168.5 79.5t-53.5 204.5v557q0 126 53.5 205t168.5 79q116 0 169.5 -78t53.5 -206v-116h-177v128q0 42 -8 68t-36 26q-27 0 -35.5 -26t-8.5 -68v-581q0 -41 8.5 -67.5t35.5 -26.5q28 0 36 26.5t8 67.5v128h177v-116q0 -127 -53.5 -205.5t-169.5 -78.5z
M166 1219v202h180v-202h-180z" />
    <glyph glyph-name="Ccaron" unicode="&#x10c;" horiz-adv-x="585" 
d="M292 -16q-85 0 -138.5 44.5t-78.5 115t-25 148.5v886q0 78 26.5 148.5t80 115t135.5 44.5q64 0 109.5 -28t75.5 -73.5t44 -99.5t14 -107v-212h-182v216q0 35 -11.5 64.5t-45.5 29.5q-31 0 -42 -30t-11 -64v-894q0 -34 12 -64t41 -30q34 0 45.5 29.5t11.5 64.5v216h182
v-212q0 -83 -26.5 -153t-80 -112.5t-136.5 -42.5zM192 1605l-123 180h164l54 -90l55 90h165l-124 -180h-191z" />
    <glyph glyph-name="ccaron" unicode="&#x10d;" horiz-adv-x="515" 
d="M257 -15q-115 0 -168.5 79.5t-53.5 204.5v557q0 126 53.5 205t168.5 79q116 0 169.5 -78t53.5 -206v-116h-177v128q0 42 -8 68t-36 26q-27 0 -35.5 -26t-8.5 -68v-581q0 -41 8.5 -67.5t35.5 -26.5q28 0 36 26.5t8 67.5v128h177v-116q0 -127 -53.5 -205.5t-169.5 -78.5z
M160 1229l-123 180h164l54 -90l55 90h165l-124 -180h-191z" />
    <glyph glyph-name="Dcaron" unicode="&#x10e;" horiz-adv-x="630" 
d="M60 0v1470h174q97 0 160.5 -42t100 -131t51.5 -228.5t15 -334.5q0 -198 -16 -337.5t-53.5 -227t-100 -128.5t-155.5 -41h-176zM251 216q57 0 80.5 64t29 180.5t5.5 274.5q0 159 -5.5 275.5t-29.5 180t-80 63.5v-1038zM222 1605l-123 180h164l54 -90l55 90h165l-124 -180
h-191z" />
    <glyph glyph-name="dcaron" unicode="&#x10f;" horiz-adv-x="695" 
d="M165 -16q-45 0 -73.5 34.5t-42.5 84t-14 95.5v698q0 49 13 98.5t41.5 82.5t74.5 33q34 0 70 -23.5t61 -51.5v435h180v-1470h-175l-5 71q-23 -26 -56 -56.5t-74 -30.5zM249 174q19 0 32.5 21.5t13.5 49.5v613q0 24 -13.5 46.5t-32.5 22.5q-17 0 -28 -20t-11 -49v-613
q0 -29 10 -50t29 -21zM509 988l56 260h-56v222h186v-222l-88 -260h-98z" />
    <glyph glyph-name="Dcroat" unicode="&#x110;" horiz-adv-x="630" 
d="M22 634v190h300v-190h-300zM60 0v1470h174q97 0 160.5 -42t100 -131t51.5 -228.5t15 -334.5q0 -198 -16 -337.5t-53.5 -227t-100 -128.5t-155.5 -41h-176zM251 216q57 0 80.5 64t29 180.5t5.5 274.5q0 159 -5.5 275.5t-29.5 180t-80 63.5v-1038z" />
    <glyph glyph-name="dcroat" unicode="&#x111;" horiz-adv-x="536" 
d="M177 1220v142h357v-142h-357zM165 -16q-45 0 -73.5 34.5t-42.5 84t-14 95.5v698q0 49 13 98.5t41.5 82.5t74.5 33q34 0 70 -23.5t61 -51.5v435h180v-1470h-175l-5 71q-23 -26 -56 -56.5t-74 -30.5zM249 174q19 0 32.5 21.5t13.5 49.5v613q0 24 -13.5 46.5t-32.5 22.5
q-17 0 -28 -20t-11 -49v-613q0 -29 10 -50t29 -21z" />
    <glyph glyph-name="Emacron" unicode="&#x112;" horiz-adv-x="533" 
d="M60 0v1470h413v-222h-222v-396h165v-216h-165v-414h222v-222h-413zM93 1611v148h347v-148h-347z" />
    <glyph glyph-name="emacron" unicode="&#x113;" horiz-adv-x="517" 
d="M257 -16q-109 0 -165.5 77.5t-56.5 198.5v569q0 121 56.5 201t166.5 80q73 0 123 -37.5t75.5 -100.5t25.5 -140v-322h-276v-253q0 -39 12 -67t41 -28q31 0 42.5 27t11.5 69v134h169v-137q0 -124 -56.5 -197.5t-168.5 -73.5zM206 668h107v169q0 43 -10 70t-44 27
q-28 0 -40.5 -28t-12.5 -69v-169zM93 1235v148h347v-148h-347z" />
    <glyph glyph-name="Edotaccent" unicode="&#x116;" horiz-adv-x="533" 
d="M60 0v1470h413v-222h-222v-396h165v-216h-165v-414h222v-222h-413zM177 1595v202h180v-202h-180z" />
    <glyph glyph-name="edotaccent" unicode="&#x117;" horiz-adv-x="517" 
d="M257 -16q-109 0 -165.5 77.5t-56.5 198.5v569q0 121 56.5 201t166.5 80q73 0 123 -37.5t75.5 -100.5t25.5 -140v-322h-276v-253q0 -39 12 -67t41 -28q31 0 42.5 27t11.5 69v134h169v-137q0 -124 -56.5 -197.5t-168.5 -73.5zM206 668h107v169q0 43 -10 70t-44 27
q-28 0 -40.5 -28t-12.5 -69v-169zM177 1219v202h180v-202h-180z" />
    <glyph glyph-name="Eogonek" unicode="&#x118;" horiz-adv-x="533" 
d="M60 0v1470h413v-222h-222v-396h165v-216h-165v-414h222v-222h-413zM469 -375q-72 0 -120 34.5t-48 124.5q0 51 20 105.5t54 110.5h98q-13 -35 -25.5 -89t-12.5 -88q0 -43 21 -54t37 -11q40 0 72 23v-133q-32 -23 -96 -23z" />
    <glyph glyph-name="eogonek" unicode="&#x119;" horiz-adv-x="517" 
d="M257 -16q-109 0 -165.5 77.5t-56.5 198.5v569q0 121 56.5 201t166.5 80q73 0 123 -37.5t75.5 -100.5t25.5 -140v-322h-276v-253q0 -39 12 -67t41 -28q31 0 42.5 27t11.5 69v134h169v-137q0 -124 -56.5 -197.5t-168.5 -73.5zM206 668h107v169q0 43 -10 70t-44 27
q-28 0 -40.5 -28t-12.5 -69v-169zM380 -355q-72 0 -120 34.5t-48 124.5q0 51 20 105.5t54 110.5h98q-13 -35 -25.5 -89t-12.5 -88q0 -43 21 -54t37 -11q40 0 72 23v-133q-32 -23 -96 -23z" />
    <glyph glyph-name="Ecaron" unicode="&#x11a;" horiz-adv-x="533" 
d="M60 0v1470h413v-222h-222v-396h165v-216h-165v-414h222v-222h-413zM170 1605l-123 180h164l54 -90l55 90h165l-124 -180h-191z" />
    <glyph glyph-name="ecaron" unicode="&#x11b;" horiz-adv-x="517" 
d="M257 -16q-109 0 -165.5 77.5t-56.5 198.5v569q0 121 56.5 201t166.5 80q73 0 123 -37.5t75.5 -100.5t25.5 -140v-322h-276v-253q0 -39 12 -67t41 -28q31 0 42.5 27t11.5 69v134h169v-137q0 -124 -56.5 -197.5t-168.5 -73.5zM206 668h107v169q0 43 -10 70t-44 27
q-28 0 -40.5 -28t-12.5 -69v-169zM170 1229l-123 180h164l54 -90l55 90h165l-124 -180h-191z" />
    <glyph glyph-name="Gbreve" unicode="&#x11e;" horiz-adv-x="596" 
d="M263 -16q-81 0 -127.5 44.5t-66 115t-19.5 148.5v886q0 78 27 148.5t81 115t135 44.5q64 0 110 -27t75.5 -72t43.5 -99.5t14 -109.5v-236h-191v240q0 35 -10.5 64.5t-41.5 29.5q-30 0 -40.5 -30t-10.5 -64v-912q0 -37 12 -65.5t42 -28.5q32 0 43.5 29t11.5 65v260h-61
v202h246v-732h-107l-22 67q-20 -39 -58 -61t-86 -22zM296 1573q-55 0 -105 27t-79 68l95 98q14 -25 38.5 -37.5t50.5 -12.5q27 0 53 12.5t40 36.5l91 -97q-36 -44 -82 -69.5t-102 -25.5z" />
    <glyph glyph-name="gbreve" unicode="&#x11f;" horiz-adv-x="584" 
d="M281 -392q-77 0 -139 23.5t-98 68t-36 105.5q0 51 23.5 88.5t55.5 62.5t57 35q-45 17 -74 47.5t-29 88.5q0 54 32.5 93.5t71.5 65.5q-43 30 -69.5 80.5t-26.5 142.5v333q0 120 58.5 194t160.5 74q61 0 100.5 -23.5t62.5 -60.5q27 40 66.5 62t79.5 22v-180
q-34 0 -58.5 -6.5t-37.5 -17.5q3 -6 6 -25.5t3 -32.5v-345q0 -109 -59 -182t-158 -73q-24 0 -34 4q-9 -10 -14.5 -21.5t-5.5 -26.5q0 -34 32 -48.5t81 -23.5q104 -19 172 -71.5t68 -167.5q0 -84 -38 -148.5t-104 -100.5t-149 -36zM284 -222q41 0 70 21t29 58q0 41 -20 57.5
t-56 26.5l-66 17q-22 -16 -38 -42t-16 -62q0 -31 22.5 -53.5t74.5 -22.5zM270 416q26 0 35 26t9 62v335q0 37 -8.5 63.5t-35.5 26.5q-28 0 -36 -27t-8 -63v-335q0 -36 8.5 -62t35.5 -26zM286 1197q-55 0 -105 27t-79 68l95 98q14 -25 38.5 -37.5t50.5 -12.5q27 0 53 12.5
t40 36.5l91 -97q-36 -44 -82 -69.5t-102 -25.5z" />
    <glyph glyph-name="Gdotaccent" unicode="&#x120;" horiz-adv-x="596" 
d="M263 -16q-81 0 -127.5 44.5t-66 115t-19.5 148.5v886q0 78 27 148.5t81 115t135 44.5q64 0 110 -27t75.5 -72t43.5 -99.5t14 -109.5v-236h-191v240q0 35 -10.5 64.5t-41.5 29.5q-30 0 -40.5 -30t-10.5 -64v-912q0 -37 12 -65.5t42 -28.5q32 0 43.5 29t11.5 65v260h-61
v202h246v-732h-107l-22 67q-20 -39 -58 -61t-86 -22zM207 1595v202h180v-202h-180z" />
    <glyph glyph-name="gdotaccent" unicode="&#x121;" horiz-adv-x="584" 
d="M281 -392q-77 0 -139 23.5t-98 68t-36 105.5q0 51 23.5 88.5t55.5 62.5t57 35q-45 17 -74 47.5t-29 88.5q0 54 32.5 93.5t71.5 65.5q-43 30 -69.5 80.5t-26.5 142.5v333q0 120 58.5 194t160.5 74q61 0 100.5 -23.5t62.5 -60.5q27 40 66.5 62t79.5 22v-180
q-34 0 -58.5 -6.5t-37.5 -17.5q3 -6 6 -25.5t3 -32.5v-345q0 -109 -59 -182t-158 -73q-24 0 -34 4q-9 -10 -14.5 -21.5t-5.5 -26.5q0 -34 32 -48.5t81 -23.5q104 -19 172 -71.5t68 -167.5q0 -84 -38 -148.5t-104 -100.5t-149 -36zM284 -222q41 0 70 21t29 58q0 41 -20 57.5
t-56 26.5l-66 17q-22 -16 -38 -42t-16 -62q0 -31 22.5 -53.5t74.5 -22.5zM270 416q26 0 35 26t9 62v335q0 37 -8.5 63.5t-35.5 26.5q-28 0 -36 -27t-8 -63v-335q0 -36 8.5 -62t35.5 -26zM197 1219v202h180v-202h-180z" />
    <glyph glyph-name="uni0122" unicode="&#x122;" horiz-adv-x="596" 
d="M263 -16q-81 0 -127.5 44.5t-66 115t-19.5 148.5v886q0 78 27 148.5t81 115t135 44.5q64 0 110 -27t75.5 -72t43.5 -99.5t14 -109.5v-236h-191v240q0 35 -10.5 64.5t-41.5 29.5q-30 0 -40.5 -30t-10.5 -64v-912q0 -37 12 -65.5t42 -28.5q32 0 43.5 29t11.5 65v260h-61
v202h246v-732h-107l-22 67q-20 -39 -58 -61t-86 -22zM225 -458l58 166h-58v208h172v-208l-90 -166h-82z" />
    <glyph glyph-name="uni0123" unicode="&#x123;" horiz-adv-x="584" 
d="M281 -392q-77 0 -139 23.5t-98 68t-36 105.5q0 51 23.5 88.5t55.5 62.5t57 35q-45 17 -74 47.5t-29 88.5q0 54 32.5 93.5t71.5 65.5q-43 30 -69.5 80.5t-26.5 142.5v333q0 120 58.5 194t160.5 74q61 0 100.5 -23.5t62.5 -60.5q27 40 66.5 62t79.5 22v-180
q-34 0 -58.5 -6.5t-37.5 -17.5q3 -6 6 -25.5t3 -32.5v-345q0 -109 -59 -182t-158 -73q-24 0 -34 4q-9 -10 -14.5 -21.5t-5.5 -26.5q0 -34 32 -48.5t81 -23.5q104 -19 172 -71.5t68 -167.5q0 -84 -38 -148.5t-104 -100.5t-149 -36zM284 -222q41 0 70 21t29 58q0 41 -20 57.5
t-56 26.5l-66 17q-22 -16 -38 -42t-16 -62q0 -31 22.5 -53.5t74.5 -22.5zM270 416q26 0 35 26t9 62v335q0 37 -8.5 63.5t-35.5 26.5q-28 0 -36 -27t-8 -63v-335q0 -36 8.5 -62t35.5 -26zM372 1571l-58 -166h58v-208h-172v208l90 166h82z" />
    <glyph glyph-name="Hbar" unicode="&#x126;" horiz-adv-x="618" 
d="M20 1136v190h585v-190h-585zM60 0v1470h191v-608h116v608h191v-1470h-191v640h-116v-640h-191z" />
    <glyph glyph-name="hbar" unicode="&#x127;" horiz-adv-x="527" 
d="M0 1220v142h357v-142h-357zM45 0v1470h180v-436q21 23 62.5 49.5t77.5 26.5q50 0 77.5 -34t38.5 -84t11 -96v-896h-176v858q0 24 -9 47t-25 23q-19 0 -38 -25t-19 -49v-854h-180z" />
    <glyph glyph-name="Itilde" unicode="&#x128;" horiz-adv-x="311" 
d="M60 0v1470h191v-1470h-191zM235 1581q-43 0 -78 18q-38 20 -81 20q-24 0 -50 -9.5t-45 -22.5v148q13 11 28 18.5t32 13.5q16 6 35 6q43 0 79 -16q20 -8 40 -15t40 -7q24 0 50 9.5t45 22.5v-148q-17 -17 -45.5 -27.5t-49.5 -10.5z" />
    <glyph glyph-name="itilde" unicode="&#x129;" horiz-adv-x="300" 
d="M60 0v1094h180v-1094h-180zM230 1205q-43 0 -78 18q-38 20 -81 20q-24 0 -50 -9.5t-45 -22.5v148q13 11 28 18.5t32 13.5q16 6 35 6q43 0 79 -16q20 -8 40 -15t40 -7q24 0 50 9.5t45 22.5v-148q-17 -17 -45.5 -27.5t-49.5 -10.5z" />
    <glyph glyph-name="Imacron" unicode="&#x12a;" horiz-adv-x="311" 
d="M60 0v1470h191v-1470h-191zM-17 1611v148h347v-148h-347z" />
    <glyph glyph-name="imacron" unicode="&#x12b;" horiz-adv-x="320" 
d="M55 0v1094h180v-1094h-180zM-17 1284v158h328v-158h-328z" />
    <glyph glyph-name="Iogonek" unicode="&#x12e;" horiz-adv-x="311" 
d="M60 0v1470h191v-1470h-191zM247 -375q-72 0 -120 34.5t-48 124.5q0 51 20 105.5t54 110.5h98q-13 -35 -25.5 -89t-12.5 -88q0 -43 21 -54t37 -11q40 0 72 23v-133q-32 -23 -96 -23z" />
    <glyph glyph-name="iogonek" unicode="&#x12f;" horiz-adv-x="300" 
d="M60 0v1094h180v-1094h-180zM61 1219v202h180v-202h-180zM236 -375q-72 0 -120 34.5t-48 124.5q0 51 20 105.5t54 110.5h98q-13 -35 -25.5 -89t-12.5 -88q0 -43 21 -54t37 -11q40 0 72 23v-133q-32 -23 -96 -23z" />
    <glyph glyph-name="Idotaccent" unicode="&#x130;" horiz-adv-x="311" 
d="M60 0v1470h191v-1470h-191zM66 1595v202h180v-202h-180z" />
    <glyph glyph-name="dotlessi" unicode="&#x131;" horiz-adv-x="300" 
d="M60 0v1094h180v-1094h-180z" />
    <glyph glyph-name="IJ" unicode="&#x132;" horiz-adv-x="662" 
d="M310 -13v214q35 -6 56 8.5t30 41t9 55.5v1164h191v-1198q0 -93 -30 -159.5t-93 -99.5t-163 -26zM55 0v1470h191v-1470h-191z" />
    <glyph glyph-name="ij" unicode="&#x133;" horiz-adv-x="604" 
d="M326 -376q-21 0 -38.5 3t-40.5 11l2 184q7 -2 20 -4t20 -2q37 0 44.5 44t7.5 91v1143h180v-1122q0 -95 -14 -174t-56 -126.5t-125 -47.5zM55 0v1094h180v-1094h-180zM55 1268v202h180v-202h-180zM341 1268v202h180v-202h-180z" />
    <glyph glyph-name="uni0136" unicode="&#x136;" horiz-adv-x="635" 
d="M60 0v1470h188v-490v-24h7l9 24l146 490h193l-169 -489l192 -981h-193l-126 665h-5l-54 -155v-510h-188zM235 -458l58 166h-58v208h172v-208l-90 -166h-82z" />
    <glyph glyph-name="uni0137" unicode="&#x137;" horiz-adv-x="533" 
d="M45 0v1470h177v-662v-36h9l11 36l86 286h168l-132 -356l156 -738h-178l-88 442l-2 16h-2l-28 -85v-373h-177zM170 -458l58 166h-58v208h172v-208l-90 -166h-82z" />
    <glyph glyph-name="Lacute" unicode="&#x139;" horiz-adv-x="507" 
d="M60 0v1470h191v-1270h229v-200h-420zM171 1600l118 180h186l-167 -180h-137z" />
    <glyph glyph-name="lacute" unicode="&#x13a;" horiz-adv-x="280" 
d="M50 0v1470h180v-1470h-180zM51 1600l118 180h186l-167 -180h-137z" />
    <glyph glyph-name="uni013B" unicode="&#x13b;" horiz-adv-x="507" 
d="M60 0v1470h191v-1270h229v-200h-420zM171 -458l58 166h-58v208h172v-208l-90 -166h-82z" />
    <glyph glyph-name="uni013C" unicode="&#x13c;" horiz-adv-x="280" 
d="M50 0v1470h180v-1470h-180zM69 -458l58 166h-58v208h172v-208l-90 -166h-82z" />
    <glyph glyph-name="Lcaron" unicode="&#x13d;" horiz-adv-x="532" 
d="M55 0v1470h191v-1270h229v-200h-420zM315 1214l56 260h-56v222h186v-222l-88 -260h-98z" />
    <glyph glyph-name="lcaron" unicode="&#x13e;" horiz-adv-x="473" 
d="M50 0v1470h180v-1470h-180zM287 988l56 260h-56v222h186v-222l-88 -260h-98z" />
    <glyph glyph-name="Ldot" unicode="&#x13f;" horiz-adv-x="518" 
d="M55 0v1470h191v-1270h229v-200h-420zM309 658v222h186v-222h-186z" />
    <glyph glyph-name="Lslash" unicode="&#x141;" horiz-adv-x="507" 
d="M-73 638l393 304l85 -117l-393 -304zM60 0v1470h191v-1270h229v-200h-420z" />
    <glyph glyph-name="lslash" unicode="&#x142;" horiz-adv-x="300" 
d="M-58 663l334 258l85 -117l-334 -258zM50 0v1470h180v-1470h-180z" />
    <glyph glyph-name="Nacute" unicode="&#x143;" horiz-adv-x="642" 
d="M60 0v1470h176l149 -701l14 -78h7v779h176v-1470h-161l-163 698l-14 91h-8v-789h-176zM251 1600l118 180h186l-167 -180h-137z" />
    <glyph glyph-name="nacute" unicode="&#x144;" 
d="M45 0v1094h180v-74q26 29 65 59.5t70 30.5q50 0 78.5 -35.5t40 -85.5t11.5 -93v-896h-179v860q0 32 -9 48t-30 16q-18 0 -29 -17.5t-18 -44.5v-862h-180zM189 1224l118 180h186l-167 -180h-137z" />
    <glyph glyph-name="uni0145" unicode="&#x145;" horiz-adv-x="642" 
d="M60 0v1470h176l149 -701l14 -78h7v779h176v-1470h-161l-163 698l-14 91h-8v-789h-176zM251 -458l58 166h-58v208h172v-208l-90 -166h-82z" />
    <glyph glyph-name="uni0146" unicode="&#x146;" 
d="M45 0v1094h180v-74q26 29 65 59.5t70 30.5q50 0 78.5 -35.5t40 -85.5t11.5 -93v-896h-179v860q0 32 -9 48t-30 16q-18 0 -29 -17.5t-18 -44.5v-862h-180zM189 -458l58 166h-58v208h172v-208l-90 -166h-82z" />
    <glyph glyph-name="Ncaron" unicode="&#x147;" horiz-adv-x="642" 
d="M60 0v1470h176l149 -701l14 -78h7v779h176v-1470h-161l-163 698l-14 91h-8v-789h-176zM241 1605l-123 180h164l54 -90l55 90h165l-124 -180h-191z" />
    <glyph glyph-name="ncaron" unicode="&#x148;" 
d="M45 0v1094h180v-74q26 29 65 59.5t70 30.5q50 0 78.5 -35.5t40 -85.5t11.5 -93v-896h-179v860q0 32 -9 48t-30 16q-18 0 -29 -17.5t-18 -44.5v-862h-180zM179 1229l-123 180h164l54 -90l55 90h165l-124 -180h-191z" />
    <glyph glyph-name="Eng" unicode="&#x14a;" horiz-adv-x="642" 
d="M391 -376q-53 0 -79 14v186q15 -10 50 -10q42 0 49 49.5t7 110.5v139h164v-141q0 -103 -12.5 -181.5t-53 -122.5t-125.5 -44zM60 0v1470h176l148 -701l14 -78h8v779h176v-1470h-161l-163 698l-15 91h-7v-789h-176z" />
    <glyph glyph-name="eng" unicode="&#x14b;" 
d="M284 -376q-53 0 -79 14v186q15 -10 50 -10q43 0 49.5 49.5t6.5 110.5v139h179v-141q0 -103 -16 -181.5t-60 -122.5t-130 -44zM45 0v1094h180v-74q26 29 65 59.5t70 30.5q50 0 78.5 -35.5t40 -85.5t11.5 -93v-896h-179v860q0 32 -9 48t-30 16q-18 0 -29 -17.5t-18 -44.5
v-862h-180z" />
    <glyph glyph-name="Omacron" unicode="&#x14c;" horiz-adv-x="589" 
d="M295 -16q-82 0 -136.5 42.5t-81.5 112.5t-27 153v886q0 82 27 152t81.5 113t136.5 43q85 0 139 -43t79.5 -113t25.5 -152v-886q0 -83 -26.5 -153t-80.5 -112.5t-137 -42.5zM296 194q32 0 42 30.5t10 67.5v886q0 38 -10.5 68t-41.5 30q-29 0 -41 -29.5t-12 -68.5v-886
q0 -40 11.5 -69t41.5 -29zM123 1611v148h347v-148h-347z" />
    <glyph glyph-name="omacron" unicode="&#x14d;" horiz-adv-x="514" 
d="M257 -14q-109 0 -165.5 78t-56.5 197v574q0 120 56.5 197.5t165.5 77.5t165.5 -77.5t56.5 -197.5v-574q0 -119 -56.5 -197t-165.5 -78zM258 162q30 0 40.5 27.5t10.5 74.5v568q0 48 -10.5 75t-40.5 27q-31 0 -42 -27t-11 -75v-568q0 -47 11 -74.5t42 -27.5zM94 1235v148
h347v-148h-347z" />
    <glyph glyph-name="Ohungarumlaut" unicode="&#x150;" horiz-adv-x="589" 
d="M295 -16q-82 0 -136.5 42.5t-81.5 112.5t-27 153v886q0 82 27 152t81.5 113t136.5 43q85 0 139 -43t79.5 -113t25.5 -152v-886q0 -83 -26.5 -153t-80.5 -112.5t-137 -42.5zM296 194q32 0 42 30.5t10 67.5v886q0 38 -10.5 68t-41.5 30q-29 0 -41 -29.5t-12 -68.5v-886
q0 -40 11.5 -69t41.5 -29zM271 1600l117 180h184l-156 -180h-145zM20 1600l109 180h175l-147 -180h-137z" />
    <glyph glyph-name="ohungarumlaut" unicode="&#x151;" horiz-adv-x="514" 
d="M257 -14q-109 0 -165.5 78t-56.5 197v574q0 120 56.5 197.5t165.5 77.5t165.5 -77.5t56.5 -197.5v-574q0 -119 -56.5 -197t-165.5 -78zM258 162q30 0 40.5 27.5t10.5 74.5v568q0 48 -10.5 75t-40.5 27q-31 0 -42 -27t-11 -75v-568q0 -47 11 -74.5t42 -27.5zM242 1224
l117 180h184l-156 -180h-145zM-9 1224l109 180h175l-147 -180h-137z" />
    <glyph glyph-name="OE" unicode="&#x152;" horiz-adv-x="830" 
d="M357 0v1470h413v-222h-222v-396h165v-216h-165v-414h222v-222h-413zM295 -16q-82 0 -136.5 42.5t-81.5 112.5t-27 153v886q0 82 27 152t81.5 113t136.5 43q85 0 139 -43t79.5 -113t25.5 -152v-886q0 -83 -26.5 -153t-80.5 -112.5t-137 -42.5zM296 194q32 0 42 30.5
t10 67.5v886q0 38 -10.5 68t-41.5 30q-29 0 -41 -29.5t-12 -68.5v-886q0 -40 11.5 -69t41.5 -29z" />
    <glyph glyph-name="oe" unicode="&#x153;" horiz-adv-x="793" 
d="M257 -14q-109 0 -165.5 78t-56.5 197v574q0 120 56.5 197.5t165.5 77.5t165.5 -77.5t56.5 -197.5v-574q0 -119 -56.5 -197t-165.5 -78zM258 162q30 0 40.5 27.5t10.5 74.5v568q0 48 -10.5 75t-40.5 27q-31 0 -42 -27t-11 -75v-568q0 -47 11 -74.5t42 -27.5zM533 -16
q-109 0 -165.5 77.5t-56.5 198.5v569q0 121 56.5 201t166.5 80q73 0 123 -37.5t75.5 -100.5t25.5 -140v-322h-276v-253q0 -39 12 -67t41 -28q31 0 42.5 27t11.5 69v134h169v-137q0 -124 -56.5 -197.5t-168.5 -73.5zM482 668h107v169q0 43 -10 70t-44 27q-28 0 -40.5 -28
t-12.5 -69v-169z" />
    <glyph glyph-name="Racute" unicode="&#x154;" horiz-adv-x="594" 
d="M60 0v1470h187q156 0 230 -107.5t74 -316.5q0 -114 -31 -205t-81 -135l124 -706h-194l-96 630h-22v-630h-191zM251 815q44 0 68 30t34 81t10 112q0 95 -23 156.5t-89 61.5v-441zM224 1600l118 180h186l-167 -180h-137z" />
    <glyph glyph-name="racute" unicode="&#x155;" horiz-adv-x="409" 
d="M45 0v1094h178v-104q9 29 33.5 56.5t60 45.5t74.5 18v-232q-11 5 -22.5 6.5t-23.5 1.5q-51 0 -86.5 -34.5t-35.5 -91.5v-760h-178zM152 1224l118 180h186l-167 -180h-137z" />
    <glyph glyph-name="uni0156" unicode="&#x156;" horiz-adv-x="594" 
d="M60 0v1470h187q156 0 230 -107.5t74 -316.5q0 -114 -31 -205t-81 -135l124 -706h-194l-96 630h-22v-630h-191zM251 815q44 0 68 30t34 81t10 112q0 95 -23 156.5t-89 61.5v-441zM224 -458l58 166h-58v208h172v-208l-90 -166h-82z" />
    <glyph glyph-name="uni0157" unicode="&#x157;" horiz-adv-x="409" 
d="M45 0v1094h178v-104q9 29 33.5 56.5t60 45.5t74.5 18v-232q-11 5 -22.5 6.5t-23.5 1.5q-51 0 -86.5 -34.5t-35.5 -91.5v-760h-178zM116 -458l58 166h-58v208h172v-208l-90 -166h-82z" />
    <glyph glyph-name="Rcaron" unicode="&#x158;" horiz-adv-x="594" 
d="M60 0v1470h187q156 0 230 -107.5t74 -316.5q0 -114 -31 -205t-81 -135l124 -706h-194l-96 630h-22v-630h-191zM251 815q44 0 68 30t34 81t10 112q0 95 -23 156.5t-89 61.5v-441zM214 1605l-123 180h164l54 -90l55 90h165l-124 -180h-191z" />
    <glyph glyph-name="rcaron" unicode="&#x159;" horiz-adv-x="409" 
d="M45 0v1094h178v-104q9 29 33.5 56.5t60 45.5t74.5 18v-232q-11 5 -22.5 6.5t-23.5 1.5q-51 0 -86.5 -34.5t-35.5 -91.5v-760h-178zM142 1229l-123 180h164l54 -90l55 90h165l-124 -180h-191z" />
    <glyph glyph-name="Sacute" unicode="&#x15a;" horiz-adv-x="574" 
d="M275 -16q-77 0 -127 33.5t-77.5 92.5t-39 136.5t-11.5 164.5l187 22q0 -32 2.5 -74.5t9 -83t20.5 -67t36 -26.5q36 0 48.5 40.5t12.5 106.5q0 75 -28.5 154t-82.5 171q-54 83 -96.5 165.5t-67.5 163.5t-25 159q0 65 13.5 126.5t42 110.5t73.5 78t108 29q78 0 127 -31
t76 -85.5t37.5 -124.5t10.5 -148l-188 -22q0 29 -2 65t-8 70t-17.5 56t-31.5 22q-30 0 -40.5 -38t-10.5 -103q0 -78 34.5 -158.5t97.5 -186.5q77 -126 122.5 -230.5t45.5 -222.5q0 -65 -12 -130t-41 -118t-77 -85t-121 -32zM199 1600l118 180h186l-167 -180h-137z" />
    <glyph glyph-name="sacute" unicode="&#x15b;" horiz-adv-x="504" 
d="M257 -16q-67 0 -112 27.5t-71 74.5t-37.5 107t-11.5 125h166q0 -67 15 -116.5t51 -49.5q33 0 42 35.5t9 86.5q0 55 -34.5 112t-75.5 110q-64 79 -107.5 160t-43.5 186q0 115 54.5 191.5t159.5 76.5q67 0 109.5 -24.5t66 -67t32.5 -95t9 -109.5h-162q0 54 -8.5 91
t-41.5 37q-27 0 -39 -32t-12 -79q0 -59 24.5 -109t69.5 -101q60 -71 114 -159t54 -196q0 -50 -12 -100t-38 -91t-68 -66t-102 -25zM181 1224l118 180h186l-167 -180h-137z" />
    <glyph glyph-name="Scedilla" unicode="&#x15e;" horiz-adv-x="574" 
d="M275 -16q-77 0 -127 33.5t-77.5 92.5t-39 136.5t-11.5 164.5l187 22q0 -32 2.5 -74.5t9 -83t20.5 -67t36 -26.5q36 0 48.5 40.5t12.5 106.5q0 75 -28.5 154t-82.5 171q-54 83 -96.5 165.5t-67.5 163.5t-25 159q0 65 13.5 126.5t42 110.5t73.5 78t108 29q78 0 127 -31
t76 -85.5t37.5 -124.5t10.5 -148l-188 -22q0 29 -2 65t-8 70t-17.5 56t-31.5 22q-30 0 -40.5 -38t-10.5 -103q0 -78 34.5 -158.5t97.5 -186.5q77 -126 122.5 -230.5t45.5 -222.5q0 -65 -12 -130t-41 -118t-77 -85t-121 -32zM384 -65q36 0 69.5 -27.5t33.5 -97.5
q0 -65 -31 -106.5t-79 -60.5t-100 -19q-44 0 -90.5 16t-67.5 35l43 101q15 -13 52 -29.5t72 -16.5q37 0 62.5 17.5t25.5 54.5q0 31 -14 43t-30 12q-37 0 -53 -34l-90 36l48 141h99l-39 -108h-7q6 22 34 32.5t62 10.5z" />
    <glyph glyph-name="scedilla" unicode="&#x15f;" horiz-adv-x="504" 
d="M257 -16q-67 0 -112 27.5t-71 74.5t-37.5 107t-11.5 125h166q0 -67 15 -116.5t51 -49.5q33 0 42 35.5t9 86.5q0 55 -34.5 112t-75.5 110q-64 79 -107.5 160t-43.5 186q0 115 54.5 191.5t159.5 76.5q67 0 109.5 -24.5t66 -67t32.5 -95t9 -109.5h-162q0 54 -8.5 91
t-41.5 37q-27 0 -39 -32t-12 -79q0 -59 24.5 -109t69.5 -101q60 -71 114 -159t54 -196q0 -50 -12 -100t-38 -91t-68 -66t-102 -25zM366 -65q36 0 69.5 -27.5t33.5 -97.5q0 -65 -31 -106.5t-79 -60.5t-100 -19q-44 0 -90.5 16t-67.5 35l43 101q15 -13 52 -29.5t72 -16.5
q37 0 62.5 17.5t25.5 54.5q0 31 -14 43t-30 12q-37 0 -53 -34l-90 36l48 141h99l-39 -108h-7q6 22 34 32.5t62 10.5z" />
    <glyph glyph-name="Scaron" unicode="&#x160;" horiz-adv-x="574" 
d="M275 -16q-77 0 -127 33.5t-77.5 92.5t-39 136.5t-11.5 164.5l187 22q0 -32 2.5 -74.5t9 -83t20.5 -67t36 -26.5q36 0 48.5 40.5t12.5 106.5q0 75 -28.5 154t-82.5 171q-54 83 -96.5 165.5t-67.5 163.5t-25 159q0 65 13.5 126.5t42 110.5t73.5 78t108 29q78 0 127 -31
t76 -85.5t37.5 -124.5t10.5 -148l-188 -22q0 29 -2 65t-8 70t-17.5 56t-31.5 22q-30 0 -40.5 -38t-10.5 -103q0 -78 34.5 -158.5t97.5 -186.5q77 -126 122.5 -230.5t45.5 -222.5q0 -65 -12 -130t-41 -118t-77 -85t-121 -32zM189 1605l-123 180h164l54 -90l55 90h165
l-124 -180h-191z" />
    <glyph glyph-name="scaron" unicode="&#x161;" horiz-adv-x="504" 
d="M257 -16q-67 0 -112 27.5t-71 74.5t-37.5 107t-11.5 125h166q0 -67 15 -116.5t51 -49.5q33 0 42 35.5t9 86.5q0 55 -34.5 112t-75.5 110q-64 79 -107.5 160t-43.5 186q0 115 54.5 191.5t159.5 76.5q67 0 109.5 -24.5t66 -67t32.5 -95t9 -109.5h-162q0 54 -8.5 91
t-41.5 37q-27 0 -39 -32t-12 -79q0 -59 24.5 -109t69.5 -101q60 -71 114 -159t54 -196q0 -50 -12 -100t-38 -91t-68 -66t-102 -25zM171 1229l-123 180h164l54 -90l55 90h165l-124 -180h-191z" />
    <glyph glyph-name="uni0162" unicode="&#x162;" horiz-adv-x="557" 
d="M183 0v1248h-163v222h517v-222h-163v-1248h-191zM378 -65q36 0 69.5 -27.5t33.5 -97.5q0 -65 -31 -106.5t-79 -60.5t-100 -19q-44 0 -90.5 16t-67.5 35l43 101q15 -13 52 -29.5t72 -16.5q37 0 62.5 17.5t25.5 54.5q0 31 -14 43t-30 12q-37 0 -53 -34l-90 36l48 141h99
l-39 -108h-7q6 22 34 32.5t62 10.5z" />
    <glyph glyph-name="uni0163" unicode="&#x163;" horiz-adv-x="424" 
d="M310 -16q-79 0 -124 39.5t-64 115t-19 183.5v590h-93v182h93v270h184v-270h127v-182h-127v-609q0 -64 15 -94.5t54 -30.5q17 0 30 3t22 7v-185q-19 -8 -40 -13.5t-58 -5.5zM382 -65q36 0 69.5 -27.5t33.5 -97.5q0 -65 -31 -106.5t-79 -60.5t-100 -19q-44 0 -90.5 16
t-67.5 35l43 101q15 -13 52 -29.5t72 -16.5q37 0 62.5 17.5t25.5 54.5q0 31 -14 43t-30 12q-37 0 -53 -34l-90 36l48 141h99l-39 -108h-7q6 22 34 32.5t62 10.5z" />
    <glyph glyph-name="Tcaron" unicode="&#x164;" horiz-adv-x="557" 
d="M183 0v1248h-163v222h517v-222h-163v-1248h-191zM183 1605l-123 180h164l54 -90l55 90h165l-124 -180h-191z" />
    <glyph glyph-name="tcaron" unicode="&#x165;" horiz-adv-x="424" 
d="M310 -16q-79 0 -124 39.5t-64 115t-19 183.5v590h-93v182h93v270h184v-270h127v-182h-127v-609q0 -64 15 -94.5t54 -30.5q17 0 30 3t22 7v-185q-19 -8 -40 -13.5t-58 -5.5zM109 1499l-123 180h164l54 -90l55 90h165l-124 -180h-191z" />
    <glyph glyph-name="Tbar" unicode="&#x166;" horiz-adv-x="557" 
d="M72 639v190h414v-190h-414zM183 0v1248h-163v222h517v-222h-163v-1248h-191z" />
    <glyph glyph-name="tbar" unicode="&#x167;" horiz-adv-x="454" 
d="M45 589v154h342v-154h-342zM310 -16q-79 0 -124 39.5t-64 115t-19 183.5v590h-93v182h93v270h184v-270h127v-182h-127v-609q0 -64 15 -94.5t54 -30.5q17 0 30 3t22 7v-185q-19 -8 -40 -13.5t-58 -5.5z" />
    <glyph glyph-name="Utilde" unicode="&#x168;" horiz-adv-x="605" 
d="M303 -16q-85 0 -139 41t-79 111t-25 156v1178h191v-1178q0 -42 12 -70t40 -28q29 0 40 28t11 70v1178h191v-1178q0 -86 -25 -156t-78.5 -111t-138.5 -41zM383 1581q-43 0 -78 18q-38 20 -81 20q-24 0 -50 -9.5t-45 -22.5v148q13 11 28 18.5t32 13.5q16 6 35 6
q43 0 79 -16q20 -8 40 -15t40 -7q24 0 50 9.5t45 22.5v-148q-17 -17 -45.5 -27.5t-49.5 -10.5z" />
    <glyph glyph-name="utilde" unicode="&#x169;" 
d="M175 -16q-50 0 -78.5 36t-40 86t-11.5 92v896h179v-860q0 -31 9.5 -47.5t29.5 -16.5q19 0 30 18t17 44v862h180v-1094h-180v74q-25 -28 -64 -59t-71 -31zM361 1205q-43 0 -78 18q-38 20 -81 20q-24 0 -50 -9.5t-45 -22.5v148q13 11 28 18.5t32 13.5q16 6 35 6
q43 0 79 -16q20 -8 40 -15t40 -7q24 0 50 9.5t45 22.5v-148q-17 -17 -45.5 -27.5t-49.5 -10.5z" />
    <glyph glyph-name="Umacron" unicode="&#x16a;" horiz-adv-x="605" 
d="M303 -16q-85 0 -139 41t-79 111t-25 156v1178h191v-1178q0 -42 12 -70t40 -28q29 0 40 28t11 70v1178h191v-1178q0 -86 -25 -156t-78.5 -111t-138.5 -41zM130 1611v148h347v-148h-347z" />
    <glyph glyph-name="umacron" unicode="&#x16b;" 
d="M175 -16q-50 0 -78.5 36t-40 86t-11.5 92v896h179v-860q0 -31 9.5 -47.5t29.5 -16.5q19 0 30 18t17 44v862h180v-1094h-180v74q-25 -28 -64 -59t-71 -31zM108 1235v148h347v-148h-347z" />
    <glyph glyph-name="Uring" unicode="&#x16e;" horiz-adv-x="605" 
d="M303 -16q-85 0 -139 41t-79 111t-25 156v1178h191v-1178q0 -42 12 -70t40 -28q29 0 40 28t11 70v1178h191v-1178q0 -86 -25 -156t-78.5 -111t-138.5 -41zM305 1570q-61 0 -105.5 39.5t-44.5 100.5q0 62 44.5 101t105.5 39q62 0 105 -39t43 -101q0 -61 -43 -100.5
t-105 -39.5zM305 1640q29 0 51.5 21t22.5 49q0 29 -22.5 49.5t-51.5 20.5q-28 0 -51 -20.5t-23 -49.5q0 -28 23 -49t51 -21z" />
    <glyph glyph-name="uring" unicode="&#x16f;" 
d="M175 -16q-50 0 -78.5 36t-40 86t-11.5 92v896h179v-860q0 -31 9.5 -47.5t29.5 -16.5q19 0 30 18t17 44v862h180v-1094h-180v74q-25 -28 -64 -59t-71 -31zM283 1194q-61 0 -105.5 39.5t-44.5 100.5q0 62 44.5 101t105.5 39q62 0 105 -39t43 -101q0 -61 -43 -100.5
t-105 -39.5zM283 1264q29 0 51.5 21t22.5 49q0 29 -22.5 49.5t-51.5 20.5q-28 0 -51 -20.5t-23 -49.5q0 -28 23 -49t51 -21z" />
    <glyph glyph-name="Uhungarumlaut" unicode="&#x170;" horiz-adv-x="605" 
d="M303 -16q-85 0 -139 41t-79 111t-25 156v1178h191v-1178q0 -42 12 -70t40 -28q29 0 40 28t11 70v1178h191v-1178q0 -86 -25 -156t-78.5 -111t-138.5 -41zM278 1600l117 180h184l-156 -180h-145zM27 1600l109 180h175l-147 -180h-137z" />
    <glyph glyph-name="uhungarumlaut" unicode="&#x171;" 
d="M175 -16q-50 0 -78.5 36t-40 86t-11.5 92v896h179v-860q0 -31 9.5 -47.5t29.5 -16.5q19 0 30 18t17 44v862h180v-1094h-180v74q-25 -28 -64 -59t-71 -31zM256 1224l117 180h184l-156 -180h-145zM5 1224l109 180h175l-147 -180h-137z" />
    <glyph glyph-name="Uogonek" unicode="&#x172;" horiz-adv-x="605" 
d="M303 -16q-85 0 -139 41t-79 111t-25 156v1178h191v-1178q0 -42 12 -70t40 -28q29 0 40 28t11 70v1178h191v-1178q0 -86 -25 -156t-78.5 -111t-138.5 -41zM468 -314q-72 0 -120 34.5t-48 124.5q0 51 20 105.5t54 110.5h98q-13 -35 -25.5 -89t-12.5 -88q0 -43 21 -54
t37 -11q40 0 72 23v-133q-32 -23 -96 -23z" />
    <glyph glyph-name="uogonek" unicode="&#x173;" 
d="M175 -16q-50 0 -78.5 36t-40 86t-11.5 92v896h179v-860q0 -31 9.5 -47.5t29.5 -16.5q19 0 30 18t17 44v862h180v-1094h-180v74q-25 -28 -64 -59t-71 -31zM486 -375q-72 0 -120 34.5t-48 124.5q0 51 20 105.5t54 110.5h98q-13 -35 -25.5 -89t-12.5 -88q0 -43 21 -54
t37 -11q40 0 72 23v-133q-32 -23 -96 -23z" />
    <glyph glyph-name="Wcircumflex" unicode="&#x174;" horiz-adv-x="857" 
d="M177 0l-154 1470h181l56 -764l4 -48h13l5 48l72 764h149l72 -764l5 -48h13l3 48l57 764h181l-155 -1470h-159l-78 696l-10 86h-7l-10 -86l-78 -696h-160zM227 1604l121 180h188l121 -180h-162l-54 90l-52 -90h-162z" />
    <glyph glyph-name="wcircumflex" unicode="&#x175;" horiz-adv-x="713" 
d="M135 0l-125 1094h173l35 -520l5 -98h8l7 98l65 520h108l64 -520l7 -98h8l5 98l35 520h173l-124 -1094h-154l-59 511l-7 86h-6l-6 -86l-59 -511h-153zM144 1228l121 180h188l121 -180h-162l-54 90l-52 -90h-162z" />
    <glyph glyph-name="Ycircumflex" unicode="&#x176;" horiz-adv-x="619" 
d="M215 0v626l-192 844h195l83 -470l6 -64h5l7 64l82 470h196l-193 -844v-626h-189zM93 1604l121 180h188l121 -180h-162l-54 90l-52 -90h-162z" />
    <glyph glyph-name="ycircumflex" unicode="&#x177;" horiz-adv-x="516" 
d="M87 -394q-13 0 -28.5 2t-31.5 6v178q6 -2 16.5 -3.5t15.5 -1.5q34 0 56.5 17t32.5 47q14 25 17.5 58t3.5 59l-159 1126h176l66 -642l4 -85h6l4 85l63 642h177l-165 -1176q-10 -84 -40.5 -155t-83.5 -114t-130 -43zM45 1228l121 180h188l121 -180h-162l-54 90l-52 -90
h-162z" />
    <glyph glyph-name="Ydieresis" unicode="&#x178;" horiz-adv-x="619" 
d="M215 0v626l-192 844h195l83 -470l6 -64h5l7 64l82 470h196l-193 -844v-626h-189zM351 1592v196h164v-196h-164zM102 1592v196h164v-196h-164z" />
    <glyph glyph-name="Zacute" unicode="&#x179;" horiz-adv-x="521" 
d="M23 0v232l270 1024h-232v214h438v-214l-276 -1042h276v-214h-476zM190 1600l118 180h186l-167 -180h-137z" />
    <glyph glyph-name="zacute" unicode="&#x17a;" horiz-adv-x="501" 
d="M45 0v164l222 746h-187v184h376v-164l-222 -746h222v-184h-411zM181 1224l118 180h186l-167 -180h-137z" />
    <glyph glyph-name="Zdotaccent" unicode="&#x17b;" horiz-adv-x="521" 
d="M23 0v232l270 1024h-232v214h438v-214l-276 -1042h276v-214h-476zM186 1595v202h180v-202h-180z" />
    <glyph glyph-name="zdotaccent" unicode="&#x17c;" horiz-adv-x="501" 
d="M45 0v164l222 746h-187v184h376v-164l-222 -746h222v-184h-411zM178 1219v202h180v-202h-180z" />
    <glyph glyph-name="Zcaron" unicode="&#x17d;" horiz-adv-x="521" 
d="M23 0v232l270 1024h-232v214h438v-214l-276 -1042h276v-214h-476zM180 1605l-123 180h164l54 -90l55 90h165l-124 -180h-191z" />
    <glyph glyph-name="zcaron" unicode="&#x17e;" horiz-adv-x="501" 
d="M45 0v164l222 746h-187v184h376v-164l-222 -746h222v-184h-411zM171 1229l-123 180h164l54 -90l55 90h165l-124 -180h-191z" />
    <glyph glyph-name="longs" unicode="&#x17f;" horiz-adv-x="401" 
d="M20 0v1146q0 121 27 188t74.5 93.5t110.5 26.5q28 0 58.5 -4t64.5 -14l-20 -158q-21 7 -39.5 9.5t-37.5 2.5q-53 0 -75 -32.5t-22 -127.5v-1130h-141z" />
    <glyph glyph-name="Ohorn" unicode="&#x1a0;" horiz-adv-x="589" 
d="M295 -16q-82 0 -136.5 42.5t-81.5 112.5t-27 153v886q0 82 27 152t81.5 113t136.5 43q85 0 139 -43t79.5 -113t25.5 -152v-886q0 -83 -26.5 -153t-80.5 -112.5t-137 -42.5zM296 194q32 0 42 30.5t10 67.5v886q0 38 -10.5 68t-41.5 30q-29 0 -41 -29.5t-12 -68.5v-886
q0 -40 11.5 -69t41.5 -29zM379 1470q44 0 66 18.5t29 64t7 125.5h151q0 -139 -29.5 -214t-86 -103t-137.5 -28v137z" />
    <glyph glyph-name="ohorn" unicode="&#x1a1;" horiz-adv-x="514" 
d="M257 -14q-109 0 -165.5 78t-56.5 197v574q0 120 56.5 197.5t165.5 77.5t165.5 -77.5t56.5 -197.5v-574q0 -119 -56.5 -197t-165.5 -78zM258 162q30 0 40.5 27.5t10.5 74.5v568q0 48 -10.5 75t-40.5 27q-31 0 -42 -27t-11 -75v-568q0 -47 11 -74.5t42 -27.5zM337 1081
q44 0 66 18.5t29 64t7 125.5h151q0 -139 -29.5 -214t-86 -103t-137.5 -28v137z" />
    <glyph glyph-name="Uhorn" unicode="&#x1af;" horiz-adv-x="605" 
d="M303 -16q-85 0 -139 41t-79 111t-25 156v1178h191v-1178q0 -42 12 -70t40 -28q29 0 40 28t11 70v1178h191v-1178q0 -86 -25 -156t-78.5 -111t-138.5 -41zM467 1470q44 0 66 18.5t29 64t7 125.5h151q0 -139 -29.5 -214t-86 -103t-137.5 -28v137z" />
    <glyph glyph-name="uhorn" unicode="&#x1b0;" 
d="M175 -16q-50 0 -78.5 36t-40 86t-11.5 92v896h179v-860q0 -31 9.5 -47.5t29.5 -16.5q19 0 30 18t17 44v862h180v-1094h-180v74q-25 -28 -64 -59t-71 -31zM448 1094q44 0 66 18.5t29 64t7 125.5h151q0 -139 -29.5 -214t-86 -103t-137.5 -28v137z" />
    <glyph glyph-name="uni01CD" unicode="&#x1cd;" horiz-adv-x="649" 
d="M28 0l183 1470h229l182 -1470h-191l-31 300h-150l-31 -300h-191zM271 517h108l-47 535l-3 54h-8l-3 -54zM230 1605l-123 180h164l54 -90l55 90h165l-124 -180h-191z" />
    <glyph glyph-name="uni01CE" unicode="&#x1ce;" horiz-adv-x="542" 
d="M181 -16q-67 0 -110 79t-43 215q0 128 50 215.5t152 154.5q29 19 52 38t28 34v119q0 34 -6.5 65t-34.5 31q-27 0 -35 -33t-8 -68v-62h-177v61q0 76 27 139t78.5 100.5t123.5 37.5q68 0 114 -37.5t69.5 -96.5t23.5 -124v-682q0 -64 3.5 -103t8.5 -67h-166
q-8 11 -13.5 36.5t-5.5 40.5h-9q-19 -38 -49 -65.5t-73 -27.5zM248 178q28 0 44.5 23.5t16.5 51.5v257q-50 -32 -77.5 -92.5t-27.5 -132.5q0 -40 10 -73.5t34 -33.5zM190 1229l-123 180h164l54 -90l55 90h165l-124 -180h-191z" />
    <glyph glyph-name="uni01CF" unicode="&#x1cf;" horiz-adv-x="311" 
d="M60 0v1470h191v-1470h-191zM60 1605l-123 180h164l54 -90l55 90h165l-124 -180h-191z" />
    <glyph glyph-name="uni01D0" unicode="&#x1d0;" horiz-adv-x="300" 
d="M60 0v1094h180v-1094h-180zM54 1229l-123 180h164l54 -90l55 90h165l-124 -180h-191z" />
    <glyph glyph-name="uni01D1" unicode="&#x1d1;" horiz-adv-x="589" 
d="M295 -16q-82 0 -136.5 42.5t-81.5 112.5t-27 153v886q0 82 27 152t81.5 113t136.5 43q85 0 139 -43t79.5 -113t25.5 -152v-886q0 -83 -26.5 -153t-80.5 -112.5t-137 -42.5zM296 194q32 0 42 30.5t10 67.5v886q0 38 -10.5 68t-41.5 30q-29 0 -41 -29.5t-12 -68.5v-886
q0 -40 11.5 -69t41.5 -29zM200 1605l-123 180h164l54 -90l55 90h165l-124 -180h-191z" />
    <glyph glyph-name="uni01D2" unicode="&#x1d2;" horiz-adv-x="514" 
d="M257 -14q-109 0 -165.5 78t-56.5 197v574q0 120 56.5 197.5t165.5 77.5t165.5 -77.5t56.5 -197.5v-574q0 -119 -56.5 -197t-165.5 -78zM258 162q30 0 40.5 27.5t10.5 74.5v568q0 48 -10.5 75t-40.5 27q-31 0 -42 -27t-11 -75v-568q0 -47 11 -74.5t42 -27.5zM171 1229
l-123 180h164l54 -90l55 90h165l-124 -180h-191z" />
    <glyph glyph-name="uni01D3" unicode="&#x1d3;" horiz-adv-x="605" 
d="M303 -16q-85 0 -139 41t-79 111t-25 156v1178h191v-1178q0 -42 12 -70t40 -28q29 0 40 28t11 70v1178h191v-1178q0 -86 -25 -156t-78.5 -111t-138.5 -41zM207 1605l-123 180h164l54 -90l55 90h165l-124 -180h-191z" />
    <glyph glyph-name="uni01D4" unicode="&#x1d4;" 
d="M175 -16q-50 0 -78.5 36t-40 86t-11.5 92v896h179v-860q0 -31 9.5 -47.5t29.5 -16.5q19 0 30 18t17 44v862h180v-1094h-180v74q-25 -28 -64 -59t-71 -31zM185 1229l-123 180h164l54 -90l55 90h165l-124 -180h-191z" />
    <glyph glyph-name="uni01D5" unicode="&#x1d5;" horiz-adv-x="605" 
d="M303 -16q-85 0 -139 41t-79 111t-25 156v1178h191v-1178q0 -42 12 -70t40 -28q29 0 40 28t11 70v1178h191v-1178q0 -86 -25 -156t-78.5 -111t-138.5 -41zM346 1592v196h164v-196h-164zM97 1592v196h164v-196h-164zM130 1929v148h347v-148h-347z" />
    <glyph glyph-name="uni01D6" unicode="&#x1d6;" 
d="M175 -16q-50 0 -78.5 36t-40 86t-11.5 92v896h179v-860q0 -31 9.5 -47.5t29.5 -16.5q19 0 30 18t17 44v862h180v-1094h-180v74q-25 -28 -64 -59t-71 -31zM324 1216v196h164v-196h-164zM75 1216v196h164v-196h-164zM108 1553v148h347v-148h-347z" />
    <glyph glyph-name="uni01D7" unicode="&#x1d7;" horiz-adv-x="605" 
d="M303 -16q-85 0 -139 41t-79 111t-25 156v1178h191v-1178q0 -42 12 -70t40 -28q29 0 40 28t11 70v1178h191v-1178q0 -86 -25 -156t-78.5 -111t-138.5 -41zM346 1592v196h164v-196h-164zM97 1592v196h164v-196h-164zM217 1918l118 180h186l-167 -180h-137z" />
    <glyph glyph-name="uni01D8" unicode="&#x1d8;" 
d="M175 -16q-50 0 -78.5 36t-40 86t-11.5 92v896h179v-860q0 -31 9.5 -47.5t29.5 -16.5q19 0 30 18t17 44v862h180v-1094h-180v74q-25 -28 -64 -59t-71 -31zM324 1216v196h164v-196h-164zM75 1216v196h164v-196h-164zM195 1542l118 180h186l-167 -180h-137z" />
    <glyph glyph-name="uni01D9" unicode="&#x1d9;" horiz-adv-x="605" 
d="M303 -16q-85 0 -139 41t-79 111t-25 156v1178h191v-1178q0 -42 12 -70t40 -28q29 0 40 28t11 70v1178h191v-1178q0 -86 -25 -156t-78.5 -111t-138.5 -41zM346 1592v196h164v-196h-164zM97 1592v196h164v-196h-164zM207 1923l-123 180h164l54 -90l55 90h165l-124 -180
h-191z" />
    <glyph glyph-name="uni01DA" unicode="&#x1da;" 
d="M175 -16q-50 0 -78.5 36t-40 86t-11.5 92v896h179v-860q0 -31 9.5 -47.5t29.5 -16.5q19 0 30 18t17 44v862h180v-1094h-180v74q-25 -28 -64 -59t-71 -31zM324 1216v196h164v-196h-164zM75 1216v196h164v-196h-164zM185 1547l-123 180h164l54 -90l55 90h165l-124 -180
h-191z" />
    <glyph glyph-name="uni01DB" unicode="&#x1db;" horiz-adv-x="605" 
d="M303 -16q-85 0 -139 41t-79 111t-25 156v1178h191v-1178q0 -42 12 -70t40 -28q29 0 40 28t11 70v1178h191v-1178q0 -86 -25 -156t-78.5 -111t-138.5 -41zM346 1592v196h164v-196h-164zM97 1592v196h164v-196h-164zM384 1918h-138l-166 180h185z" />
    <glyph glyph-name="uni01DC" unicode="&#x1dc;" 
d="M175 -16q-50 0 -78.5 36t-40 86t-11.5 92v896h179v-860q0 -31 9.5 -47.5t29.5 -16.5q19 0 30 18t17 44v862h180v-1094h-180v74q-25 -28 -64 -59t-71 -31zM324 1216v196h164v-196h-164zM75 1216v196h164v-196h-164zM362 1542h-138l-166 180h185z" />
    <glyph glyph-name="uni0218" unicode="&#x218;" horiz-adv-x="574" 
d="M275 -16q-77 0 -127 33.5t-77.5 92.5t-39 136.5t-11.5 164.5l187 22q0 -32 2.5 -74.5t9 -83t20.5 -67t36 -26.5q36 0 48.5 40.5t12.5 106.5q0 75 -28.5 154t-82.5 171q-54 83 -96.5 165.5t-67.5 163.5t-25 159q0 65 13.5 126.5t42 110.5t73.5 78t108 29q78 0 127 -31
t76 -85.5t37.5 -124.5t10.5 -148l-188 -22q0 29 -2 65t-8 70t-17.5 56t-31.5 22q-30 0 -40.5 -38t-10.5 -103q0 -78 34.5 -158.5t97.5 -186.5q77 -126 122.5 -230.5t45.5 -222.5q0 -65 -12 -130t-41 -118t-77 -85t-121 -32zM199 -458l58 166h-58v208h172v-208l-90 -166h-82z
" />
    <glyph glyph-name="uni0219" unicode="&#x219;" horiz-adv-x="504" 
d="M257 -16q-67 0 -112 27.5t-71 74.5t-37.5 107t-11.5 125h166q0 -67 15 -116.5t51 -49.5q33 0 42 35.5t9 86.5q0 55 -34.5 112t-75.5 110q-64 79 -107.5 160t-43.5 186q0 115 54.5 191.5t159.5 76.5q67 0 109.5 -24.5t66 -67t32.5 -95t9 -109.5h-162q0 54 -8.5 91
t-41.5 37q-27 0 -39 -32t-12 -79q0 -59 24.5 -109t69.5 -101q60 -71 114 -159t54 -196q0 -50 -12 -100t-38 -91t-68 -66t-102 -25zM181 -458l58 166h-58v208h172v-208l-90 -166h-82z" />
    <glyph glyph-name="uni021A" unicode="&#x21a;" horiz-adv-x="557" 
d="M183 0v1248h-163v222h517v-222h-163v-1248h-191zM193 -458l58 166h-58v208h172v-208l-90 -166h-82z" />
    <glyph glyph-name="uni021B" unicode="&#x21b;" horiz-adv-x="424" 
d="M310 -16q-79 0 -124 39.5t-64 115t-19 183.5v590h-93v182h93v270h184v-270h127v-182h-127v-609q0 -64 15 -94.5t54 -30.5q17 0 30 3t22 7v-185q-19 -8 -40 -13.5t-58 -5.5zM197 -458l58 166h-58v208h172v-208l-90 -166h-82z" />
    <glyph glyph-name="circumflex" unicode="&#x2c6;" horiz-adv-x="828" 
d="M194 1228l121 180h188l121 -180h-162l-54 90l-52 -90h-162z" />
    <glyph glyph-name="caron" unicode="&#x2c7;" horiz-adv-x="828" 
d="M327 1229l-123 180h164l54 -90l55 90h165l-124 -180h-191z" />
    <glyph glyph-name="breve" unicode="&#x2d8;" horiz-adv-x="830" 
d="M400 1197q-55 0 -105 27t-79 68l95 98q14 -25 38.5 -37.5t50.5 -12.5q27 0 53 12.5t40 36.5l91 -97q-36 -44 -82 -69.5t-102 -25.5z" />
    <glyph glyph-name="dotaccent" unicode="&#x2d9;" horiz-adv-x="828" 
d="M303 1219v202h180v-202h-180z" />
    <glyph glyph-name="ring" unicode="&#x2da;" horiz-adv-x="828" 
d="M419 1194q-61 0 -105.5 39.5t-44.5 100.5q0 62 44.5 101t105.5 39q62 0 105 -39t43 -101q0 -61 -43 -100.5t-105 -39.5zM419 1264q29 0 51.5 21t22.5 49q0 29 -22.5 49.5t-51.5 20.5q-28 0 -51 -20.5t-23 -49.5q0 -28 23 -49t51 -21z" />
    <glyph glyph-name="ogonek" unicode="&#x2db;" horiz-adv-x="830" 
d="M434 -375q-72 0 -120 34.5t-48 124.5q0 51 20 105.5t54 110.5h98q-13 -35 -25.5 -89t-12.5 -88q0 -43 21 -54t37 -11q40 0 72 23v-133q-32 -23 -96 -23z" />
    <glyph glyph-name="tilde" unicode="&#x2dc;" horiz-adv-x="830" 
d="M505 1205q-43 0 -78 18q-38 20 -81 20q-24 0 -50 -9.5t-45 -22.5v148q13 11 28 18.5t32 13.5q16 6 35 6q43 0 79 -16q20 -8 40 -15t40 -7q24 0 50 9.5t45 22.5v-148q-17 -17 -45.5 -27.5t-49.5 -10.5z" />
    <glyph glyph-name="hungarumlaut" unicode="&#x2dd;" horiz-adv-x="830" 
d="M402 1224l117 180h184l-156 -180h-145zM151 1224l109 180h175l-147 -180h-137z" />
    <glyph glyph-name="gravecomb" unicode="&#x300;" horiz-adv-x="0" 
d="M537 1224h-138l-166 180h185z" />
    <glyph glyph-name="acutecomb" unicode="&#x301;" horiz-adv-x="0" 
d="M317 1224l118 180h186l-167 -180h-137z" />
    <glyph glyph-name="uni0302" unicode="&#x302;" horiz-adv-x="0" 
d="M194 1228l121 180h188l121 -180h-162l-54 90l-52 -90h-162z" />
    <glyph glyph-name="tildecomb" unicode="&#x303;" horiz-adv-x="0" 
d="M505 1205q-43 0 -78 18q-38 20 -81 20q-24 0 -50 -9.5t-45 -22.5v148q13 11 28 18.5t32 13.5q16 6 35 6q43 0 79 -16q20 -8 40 -15t40 -7q24 0 50 9.5t45 22.5v-148q-17 -17 -45.5 -27.5t-49.5 -10.5z" />
    <glyph glyph-name="uni0304" unicode="&#x304;" horiz-adv-x="0" 
d="M252 1235v148h347v-148h-347z" />
    <glyph glyph-name="uni0306" unicode="&#x306;" horiz-adv-x="0" 
d="M400 1197q-55 0 -105 27t-79 68l95 98q14 -25 38.5 -37.5t50.5 -12.5q27 0 53 12.5t40 36.5l91 -97q-36 -44 -82 -69.5t-102 -25.5z" />
    <glyph glyph-name="uni0307" unicode="&#x307;" horiz-adv-x="0" 
d="M303 1219v202h180v-202h-180z" />
    <glyph glyph-name="uni0308" unicode="&#x308;" horiz-adv-x="0" 
d="M465 1216v196h164v-196h-164zM216 1216v196h164v-196h-164z" />
    <glyph glyph-name="hookabovecomb" unicode="&#x309;" horiz-adv-x="0" 
d="M266 1437q65 0 124 -6.5t97.5 -30t38.5 -73.5q0 -64 -54 -95t-133 -31l-20 74q24 2 53.5 10t29.5 30q0 20 -32.5 27t-103.5 7v88z" />
    <glyph glyph-name="uni030A" unicode="&#x30a;" horiz-adv-x="0" 
d="M419 1194q-61 0 -105.5 39.5t-44.5 100.5q0 62 44.5 101t105.5 39q62 0 105 -39t43 -101q0 -61 -43 -100.5t-105 -39.5zM419 1264q29 0 51.5 21t22.5 49q0 29 -22.5 49.5t-51.5 20.5q-28 0 -51 -20.5t-23 -49.5q0 -28 23 -49t51 -21z" />
    <glyph glyph-name="uni030B" unicode="&#x30b;" horiz-adv-x="0" 
d="M402 1224l117 180h184l-156 -180h-145zM151 1224l109 180h175l-147 -180h-137z" />
    <glyph glyph-name="uni030C" unicode="&#x30c;" horiz-adv-x="0" 
d="M327 1229l-123 180h164l54 -90l55 90h165l-124 -180h-191z" />
    <glyph glyph-name="uni0312" unicode="&#x312;" horiz-adv-x="0" 
d="M460 1571l-58 -166h58v-208h-172v208l90 166h82z" />
    <glyph glyph-name="uni031B" unicode="&#x31b;" horiz-adv-x="0" 
d="M297 1094q44 0 66 18.5t29 64t7 125.5h151q0 -139 -29.5 -214t-86 -103t-137.5 -28v137z" />
    <glyph glyph-name="dotbelowcomb" unicode="&#x323;" horiz-adv-x="0" 
d="M343 -287v202h180v-202h-180z" />
    <glyph glyph-name="uni0326" unicode="&#x326;" horiz-adv-x="0" 
d="M299 -458l58 166h-58v208h172v-208l-90 -166h-82z" />
    <glyph glyph-name="uni0327" unicode="&#x327;" horiz-adv-x="0" 
d="M533 -65q36 0 69.5 -27.5t33.5 -97.5q0 -65 -31 -106.5t-79 -60.5t-100 -19q-44 0 -90.5 16t-67.5 35l43 101q15 -13 52 -29.5t72 -16.5q37 0 62.5 17.5t25.5 54.5q0 31 -14 43t-30 12q-37 0 -53 -34l-90 36l48 141h99l-39 -108h-7q6 22 34 32.5t62 10.5z" />
    <glyph glyph-name="uni0328" unicode="&#x328;" horiz-adv-x="0" 
d="M434 -375q-72 0 -120 34.5t-48 124.5q0 51 20 105.5t54 110.5h98q-13 -35 -25.5 -89t-12.5 -88q0 -43 21 -54t37 -11q40 0 72 23v-133q-32 -23 -96 -23z" />
    <glyph glyph-name="Wgrave" unicode="&#x1e80;" horiz-adv-x="857" 
d="M177 0l-154 1470h181l56 -764l4 -48h13l5 48l72 764h149l72 -764l5 -48h13l3 48l57 764h181l-155 -1470h-159l-78 696l-10 86h-7l-10 -86l-78 -696h-160zM523 1600h-138l-166 180h185z" />
    <glyph glyph-name="wgrave" unicode="&#x1e81;" horiz-adv-x="713" 
d="M135 0l-125 1094h173l35 -520l5 -98h8l7 98l65 520h108l64 -520l7 -98h8l5 98l35 520h173l-124 -1094h-154l-59 511l-7 86h-6l-6 -86l-59 -511h-153zM440 1224h-138l-166 180h185z" />
    <glyph glyph-name="Wacute" unicode="&#x1e82;" horiz-adv-x="857" 
d="M177 0l-154 1470h181l56 -764l4 -48h13l5 48l72 764h149l72 -764l5 -48h13l3 48l57 764h181l-155 -1470h-159l-78 696l-10 86h-7l-10 -86l-78 -696h-160zM356 1600l118 180h186l-167 -180h-137z" />
    <glyph glyph-name="wacute" unicode="&#x1e83;" horiz-adv-x="713" 
d="M135 0l-125 1094h173l35 -520l5 -98h8l7 98l65 520h108l64 -520l7 -98h8l5 98l35 520h173l-124 -1094h-154l-59 511l-7 86h-6l-6 -86l-59 -511h-153zM273 1224l118 180h186l-167 -180h-137z" />
    <glyph glyph-name="Wdieresis" unicode="&#x1e84;" horiz-adv-x="857" 
d="M177 0l-154 1470h181l56 -764l4 -48h13l5 48l72 764h149l72 -764l5 -48h13l3 48l57 764h181l-155 -1470h-159l-78 696l-10 86h-7l-10 -86l-78 -696h-160zM484 1592v196h164v-196h-164zM235 1592v196h164v-196h-164z" />
    <glyph glyph-name="wdieresis" unicode="&#x1e85;" horiz-adv-x="713" 
d="M135 0l-125 1094h173l35 -520l5 -98h8l7 98l65 520h108l64 -520l7 -98h8l5 98l35 520h173l-124 -1094h-154l-59 511l-7 86h-6l-6 -86l-59 -511h-153zM401 1216v196h164v-196h-164zM152 1216v196h164v-196h-164z" />
    <glyph glyph-name="uni1E9E" unicode="&#x1e9e;" horiz-adv-x="603" 
d="M50 0v1206q0 80 27.5 143t81 100t129.5 37q82 0 133 -39t74.5 -102.5t23.5 -136.5q0 -51 -19 -94.5t-53 -75.5q29 -21 52 -57t37 -89q17 -57 24.5 -138.5t7.5 -191.5q0 -181 -16.5 -292.5t-50.5 -171.5q-33 -60 -86.5 -79t-125.5 -19v188q24 0 44 13t32 53
q12 41 18 114.5t6 193.5q0 128 -6 205t-18 119t-32 56t-44 14v138q28 0 48 31t20 83q0 41 -16 69.5t-51 28.5q-29 0 -44.5 -28.5t-15.5 -71.5v-1206h-180z" />
    <glyph glyph-name="uni1EA0" unicode="&#x1ea0;" horiz-adv-x="649" 
d="M28 0l183 1470h229l182 -1470h-191l-31 300h-150l-31 -300h-191zM271 517h108l-47 535l-3 54h-8l-3 -54zM235 -287v202h180v-202h-180z" />
    <glyph glyph-name="uni1EA1" unicode="&#x1ea1;" horiz-adv-x="542" 
d="M181 -16q-67 0 -110 79t-43 215q0 128 50 215.5t152 154.5q29 19 52 38t28 34v119q0 34 -6.5 65t-34.5 31q-27 0 -35 -33t-8 -68v-62h-177v61q0 76 27 139t78.5 100.5t123.5 37.5q68 0 114 -37.5t69.5 -96.5t23.5 -124v-682q0 -64 3.5 -103t8.5 -67h-166
q-8 11 -13.5 36.5t-5.5 40.5h-9q-19 -38 -49 -65.5t-73 -27.5zM248 178q28 0 44.5 23.5t16.5 51.5v257q-50 -32 -77.5 -92.5t-27.5 -132.5q0 -40 10 -73.5t34 -33.5zM178 -287v202h180v-202h-180z" />
    <glyph glyph-name="uni1EA2" unicode="&#x1ea2;" horiz-adv-x="649" 
d="M28 0l183 1470h229l182 -1470h-191l-31 300h-150l-31 -300h-191zM271 517h108l-47 535l-3 54h-8l-3 -54zM208 1813q65 0 124 -6.5t97.5 -30t38.5 -73.5q0 -64 -54 -95t-133 -31l-20 74q24 2 53.5 10t29.5 30q0 20 -32.5 27t-103.5 7v88z" />
    <glyph glyph-name="uni1EA3" unicode="&#x1ea3;" horiz-adv-x="542" 
d="M181 -16q-67 0 -110 79t-43 215q0 128 50 215.5t152 154.5q29 19 52 38t28 34v119q0 34 -6.5 65t-34.5 31q-27 0 -35 -33t-8 -68v-62h-177v61q0 76 27 139t78.5 100.5t123.5 37.5q68 0 114 -37.5t69.5 -96.5t23.5 -124v-682q0 -64 3.5 -103t8.5 -67h-166
q-8 11 -13.5 36.5t-5.5 40.5h-9q-19 -38 -49 -65.5t-73 -27.5zM248 178q28 0 44.5 23.5t16.5 51.5v257q-50 -32 -77.5 -92.5t-27.5 -132.5q0 -40 10 -73.5t34 -33.5zM168 1437q65 0 124 -6.5t97.5 -30t38.5 -73.5q0 -64 -54 -95t-133 -31l-20 74q24 2 53.5 10t29.5 30
q0 20 -32.5 27t-103.5 7v88z" />
    <glyph glyph-name="uni1EA4" unicode="&#x1ea4;" horiz-adv-x="649" 
d="M28 0l183 1470h229l182 -1470h-191l-31 300h-150l-31 -300h-191zM271 517h108l-47 535l-3 54h-8l-3 -54zM111 1604l121 180h188l121 -180h-162l-54 90l-52 -90h-162zM480 1747l118 180h186l-167 -180h-137z" />
    <glyph glyph-name="uni1EA5" unicode="&#x1ea5;" horiz-adv-x="542" 
d="M181 -16q-67 0 -110 79t-43 215q0 128 50 215.5t152 154.5q29 19 52 38t28 34v119q0 34 -6.5 65t-34.5 31q-27 0 -35 -33t-8 -68v-62h-177v61q0 76 27 139t78.5 100.5t123.5 37.5q68 0 114 -37.5t69.5 -96.5t23.5 -124v-682q0 -64 3.5 -103t8.5 -67h-166
q-8 11 -13.5 36.5t-5.5 40.5h-9q-19 -38 -49 -65.5t-73 -27.5zM248 178q28 0 44.5 23.5t16.5 51.5v257q-50 -32 -77.5 -92.5t-27.5 -132.5q0 -40 10 -73.5t34 -33.5zM71 1228l121 180h188l121 -180h-162l-54 90l-52 -90h-162zM440 1371l118 180h186l-167 -180h-137z" />
    <glyph glyph-name="uni1EA6" unicode="&#x1ea6;" horiz-adv-x="649" 
d="M28 0l183 1470h229l182 -1470h-191l-31 300h-150l-31 -300h-191zM271 517h108l-47 535l-3 54h-8l-3 -54zM111 1604l121 180h188l121 -180h-162l-54 90l-52 -90h-162zM666 1749h-138l-166 180h185z" />
    <glyph glyph-name="uni1EA7" unicode="&#x1ea7;" horiz-adv-x="542" 
d="M181 -16q-67 0 -110 79t-43 215q0 128 50 215.5t152 154.5q29 19 52 38t28 34v119q0 34 -6.5 65t-34.5 31q-27 0 -35 -33t-8 -68v-62h-177v61q0 76 27 139t78.5 100.5t123.5 37.5q68 0 114 -37.5t69.5 -96.5t23.5 -124v-682q0 -64 3.5 -103t8.5 -67h-166
q-8 11 -13.5 36.5t-5.5 40.5h-9q-19 -38 -49 -65.5t-73 -27.5zM248 178q28 0 44.5 23.5t16.5 51.5v257q-50 -32 -77.5 -92.5t-27.5 -132.5q0 -40 10 -73.5t34 -33.5zM71 1228l121 180h188l121 -180h-162l-54 90l-52 -90h-162zM626 1373h-138l-166 180h185z" />
    <glyph glyph-name="uni1EA8" unicode="&#x1ea8;" horiz-adv-x="649" 
d="M28 0l183 1470h229l182 -1470h-191l-31 300h-150l-31 -300h-191zM271 517h108l-47 535l-3 54h-8l-3 -54zM111 1604l121 180h188l121 -180h-162l-54 90l-52 -90h-162zM425 1980q65 0 124 -6.5t97.5 -30t38.5 -73.5q0 -64 -54 -95t-133 -31l-20 74q24 2 53.5 10t29.5 30
q0 20 -32.5 27t-103.5 7v88z" />
    <glyph glyph-name="uni1EA9" unicode="&#x1ea9;" horiz-adv-x="542" 
d="M181 -16q-67 0 -110 79t-43 215q0 128 50 215.5t152 154.5q29 19 52 38t28 34v119q0 34 -6.5 65t-34.5 31q-27 0 -35 -33t-8 -68v-62h-177v61q0 76 27 139t78.5 100.5t123.5 37.5q68 0 114 -37.5t69.5 -96.5t23.5 -124v-682q0 -64 3.5 -103t8.5 -67h-166
q-8 11 -13.5 36.5t-5.5 40.5h-9q-19 -38 -49 -65.5t-73 -27.5zM248 178q28 0 44.5 23.5t16.5 51.5v257q-50 -32 -77.5 -92.5t-27.5 -132.5q0 -40 10 -73.5t34 -33.5zM71 1228l121 180h188l121 -180h-162l-54 90l-52 -90h-162zM385 1604q65 0 124 -6.5t97.5 -30t38.5 -73.5
q0 -64 -54 -95t-133 -31l-20 74q24 2 53.5 10t29.5 30q0 20 -32.5 27t-103.5 7v88z" />
    <glyph glyph-name="uni1EAA" unicode="&#x1eaa;" horiz-adv-x="649" 
d="M28 0l183 1470h229l182 -1470h-191l-31 300h-150l-31 -300h-191zM271 517h108l-47 535l-3 54h-8l-3 -54zM111 1604l121 180h188l121 -180h-162l-54 90l-52 -90h-162zM405 1834q-43 0 -78 18q-38 20 -81 20q-24 0 -50 -9.5t-45 -22.5v148q13 11 28 18.5t32 13.5q16 6 35 6
q43 0 79 -16q20 -8 40 -15t40 -7q24 0 50 9.5t45 22.5v-148q-17 -17 -45.5 -27.5t-49.5 -10.5z" />
    <glyph glyph-name="uni1EAB" unicode="&#x1eab;" horiz-adv-x="542" 
d="M181 -16q-67 0 -110 79t-43 215q0 128 50 215.5t152 154.5q29 19 52 38t28 34v119q0 34 -6.5 65t-34.5 31q-27 0 -35 -33t-8 -68v-62h-177v61q0 76 27 139t78.5 100.5t123.5 37.5q68 0 114 -37.5t69.5 -96.5t23.5 -124v-682q0 -64 3.5 -103t8.5 -67h-166
q-8 11 -13.5 36.5t-5.5 40.5h-9q-19 -38 -49 -65.5t-73 -27.5zM248 178q28 0 44.5 23.5t16.5 51.5v257q-50 -32 -77.5 -92.5t-27.5 -132.5q0 -40 10 -73.5t34 -33.5zM71 1228l121 180h188l121 -180h-162l-54 90l-52 -90h-162zM365 1458q-43 0 -78 18q-38 20 -81 20
q-24 0 -50 -9.5t-45 -22.5v148q13 11 28 18.5t32 13.5q16 6 35 6q43 0 79 -16q20 -8 40 -15t40 -7q24 0 50 9.5t45 22.5v-148q-17 -17 -45.5 -27.5t-49.5 -10.5z" />
    <glyph glyph-name="uni1EAC" unicode="&#x1eac;" horiz-adv-x="649" 
d="M28 0l183 1470h229l182 -1470h-191l-31 300h-150l-31 -300h-191zM271 517h108l-47 535l-3 54h-8l-3 -54zM235 -287v202h180v-202h-180zM111 1604l121 180h188l121 -180h-162l-54 90l-52 -90h-162z" />
    <glyph glyph-name="uni1EAD" unicode="&#x1ead;" horiz-adv-x="542" 
d="M181 -16q-67 0 -110 79t-43 215q0 128 50 215.5t152 154.5q29 19 52 38t28 34v119q0 34 -6.5 65t-34.5 31q-27 0 -35 -33t-8 -68v-62h-177v61q0 76 27 139t78.5 100.5t123.5 37.5q68 0 114 -37.5t69.5 -96.5t23.5 -124v-682q0 -64 3.5 -103t8.5 -67h-166
q-8 11 -13.5 36.5t-5.5 40.5h-9q-19 -38 -49 -65.5t-73 -27.5zM248 178q28 0 44.5 23.5t16.5 51.5v257q-50 -32 -77.5 -92.5t-27.5 -132.5q0 -40 10 -73.5t34 -33.5zM178 -287v202h180v-202h-180zM71 1228l121 180h188l121 -180h-162l-54 90l-52 -90h-162z" />
    <glyph glyph-name="uni1EAE" unicode="&#x1eae;" horiz-adv-x="649" 
d="M28 0l183 1470h229l182 -1470h-191l-31 300h-150l-31 -300h-191zM271 517h108l-47 535l-3 54h-8l-3 -54zM326 1573q-55 0 -105 27t-79 68l95 98q14 -25 38.5 -37.5t50.5 -12.5q27 0 53 12.5t40 36.5l91 -97q-36 -44 -82 -69.5t-102 -25.5zM226 1832l118 180h186
l-167 -180h-137z" />
    <glyph glyph-name="uni1EAF" unicode="&#x1eaf;" horiz-adv-x="542" 
d="M181 -16q-67 0 -110 79t-43 215q0 128 50 215.5t152 154.5q29 19 52 38t28 34v119q0 34 -6.5 65t-34.5 31q-27 0 -35 -33t-8 -68v-62h-177v61q0 76 27 139t78.5 100.5t123.5 37.5q68 0 114 -37.5t69.5 -96.5t23.5 -124v-682q0 -64 3.5 -103t8.5 -67h-166
q-8 11 -13.5 36.5t-5.5 40.5h-9q-19 -38 -49 -65.5t-73 -27.5zM248 178q28 0 44.5 23.5t16.5 51.5v257q-50 -32 -77.5 -92.5t-27.5 -132.5q0 -40 10 -73.5t34 -33.5zM286 1197q-55 0 -105 27t-79 68l95 98q14 -25 38.5 -37.5t50.5 -12.5q27 0 53 12.5t40 36.5l91 -97
q-36 -44 -82 -69.5t-102 -25.5zM186 1456l118 180h186l-167 -180h-137z" />
    <glyph glyph-name="uni1EB0" unicode="&#x1eb0;" horiz-adv-x="649" 
d="M28 0l183 1470h229l182 -1470h-191l-31 300h-150l-31 -300h-191zM271 517h108l-47 535l-3 54h-8l-3 -54zM326 1573q-55 0 -105 27t-79 68l95 98q14 -25 38.5 -37.5t50.5 -12.5q27 0 53 12.5t40 36.5l91 -97q-36 -44 -82 -69.5t-102 -25.5zM419 1836h-138l-166 180h185z
" />
    <glyph glyph-name="uni1EB1" unicode="&#x1eb1;" horiz-adv-x="542" 
d="M181 -16q-67 0 -110 79t-43 215q0 128 50 215.5t152 154.5q29 19 52 38t28 34v119q0 34 -6.5 65t-34.5 31q-27 0 -35 -33t-8 -68v-62h-177v61q0 76 27 139t78.5 100.5t123.5 37.5q68 0 114 -37.5t69.5 -96.5t23.5 -124v-682q0 -64 3.5 -103t8.5 -67h-166
q-8 11 -13.5 36.5t-5.5 40.5h-9q-19 -38 -49 -65.5t-73 -27.5zM248 178q28 0 44.5 23.5t16.5 51.5v257q-50 -32 -77.5 -92.5t-27.5 -132.5q0 -40 10 -73.5t34 -33.5zM286 1197q-55 0 -105 27t-79 68l95 98q14 -25 38.5 -37.5t50.5 -12.5q27 0 53 12.5t40 36.5l91 -97
q-36 -44 -82 -69.5t-102 -25.5zM379 1460h-138l-166 180h185z" />
    <glyph glyph-name="uni1EB2" unicode="&#x1eb2;" horiz-adv-x="649" 
d="M28 0l183 1470h229l182 -1470h-191l-31 300h-150l-31 -300h-191zM271 517h108l-47 535l-3 54h-8l-3 -54zM326 1573q-55 0 -105 27t-79 68l95 98q14 -25 38.5 -37.5t50.5 -12.5q27 0 53 12.5t40 36.5l91 -97q-36 -44 -82 -69.5t-102 -25.5zM203 2043q65 0 124 -6.5
t97.5 -30t38.5 -73.5q0 -64 -54 -95t-133 -31l-20 74q24 2 53.5 10t29.5 30q0 20 -32.5 27t-103.5 7v88z" />
    <glyph glyph-name="uni1EB3" unicode="&#x1eb3;" horiz-adv-x="542" 
d="M181 -16q-67 0 -110 79t-43 215q0 128 50 215.5t152 154.5q29 19 52 38t28 34v119q0 34 -6.5 65t-34.5 31q-27 0 -35 -33t-8 -68v-62h-177v61q0 76 27 139t78.5 100.5t123.5 37.5q68 0 114 -37.5t69.5 -96.5t23.5 -124v-682q0 -64 3.5 -103t8.5 -67h-166
q-8 11 -13.5 36.5t-5.5 40.5h-9q-19 -38 -49 -65.5t-73 -27.5zM248 178q28 0 44.5 23.5t16.5 51.5v257q-50 -32 -77.5 -92.5t-27.5 -132.5q0 -40 10 -73.5t34 -33.5zM286 1197q-55 0 -105 27t-79 68l95 98q14 -25 38.5 -37.5t50.5 -12.5q27 0 53 12.5t40 36.5l91 -97
q-36 -44 -82 -69.5t-102 -25.5zM163 1667q65 0 124 -6.5t97.5 -30t38.5 -73.5q0 -64 -54 -95t-133 -31l-20 74q24 2 53.5 10t29.5 30q0 20 -32.5 27t-103.5 7v88z" />
    <glyph glyph-name="uni1EB4" unicode="&#x1eb4;" horiz-adv-x="649" 
d="M28 0l183 1470h229l182 -1470h-191l-31 300h-150l-31 -300h-191zM271 517h108l-47 535l-3 54h-8l-3 -54zM326 1573q-55 0 -105 27t-79 68l95 98q14 -25 38.5 -37.5t50.5 -12.5q27 0 53 12.5t40 36.5l91 -97q-36 -44 -82 -69.5t-102 -25.5zM406 1810q-43 0 -78 18
q-38 20 -81 20q-24 0 -50 -9.5t-45 -22.5v148q13 11 28 18.5t32 13.5q16 6 35 6q43 0 79 -16q20 -8 40 -15t40 -7q24 0 50 9.5t45 22.5v-148q-17 -17 -45.5 -27.5t-49.5 -10.5z" />
    <glyph glyph-name="uni1EB5" unicode="&#x1eb5;" horiz-adv-x="542" 
d="M181 -16q-67 0 -110 79t-43 215q0 128 50 215.5t152 154.5q29 19 52 38t28 34v119q0 34 -6.5 65t-34.5 31q-27 0 -35 -33t-8 -68v-62h-177v61q0 76 27 139t78.5 100.5t123.5 37.5q68 0 114 -37.5t69.5 -96.5t23.5 -124v-682q0 -64 3.5 -103t8.5 -67h-166
q-8 11 -13.5 36.5t-5.5 40.5h-9q-19 -38 -49 -65.5t-73 -27.5zM248 178q28 0 44.5 23.5t16.5 51.5v257q-50 -32 -77.5 -92.5t-27.5 -132.5q0 -40 10 -73.5t34 -33.5zM286 1197q-55 0 -105 27t-79 68l95 98q14 -25 38.5 -37.5t50.5 -12.5q27 0 53 12.5t40 36.5l91 -97
q-36 -44 -82 -69.5t-102 -25.5zM366 1434q-43 0 -78 18q-38 20 -81 20q-24 0 -50 -9.5t-45 -22.5v148q13 11 28 18.5t32 13.5q16 6 35 6q43 0 79 -16q20 -8 40 -15t40 -7q24 0 50 9.5t45 22.5v-148q-17 -17 -45.5 -27.5t-49.5 -10.5z" />
    <glyph glyph-name="uni1EB6" unicode="&#x1eb6;" horiz-adv-x="649" 
d="M28 0l183 1470h229l182 -1470h-191l-31 300h-150l-31 -300h-191zM271 517h108l-47 535l-3 54h-8l-3 -54zM235 -287v202h180v-202h-180zM326 1573q-55 0 -105 27t-79 68l95 98q14 -25 38.5 -37.5t50.5 -12.5q27 0 53 12.5t40 36.5l91 -97q-36 -44 -82 -69.5t-102 -25.5z
" />
    <glyph glyph-name="uni1EB7" unicode="&#x1eb7;" horiz-adv-x="542" 
d="M181 -16q-67 0 -110 79t-43 215q0 128 50 215.5t152 154.5q29 19 52 38t28 34v119q0 34 -6.5 65t-34.5 31q-27 0 -35 -33t-8 -68v-62h-177v61q0 76 27 139t78.5 100.5t123.5 37.5q68 0 114 -37.5t69.5 -96.5t23.5 -124v-682q0 -64 3.5 -103t8.5 -67h-166
q-8 11 -13.5 36.5t-5.5 40.5h-9q-19 -38 -49 -65.5t-73 -27.5zM248 178q28 0 44.5 23.5t16.5 51.5v257q-50 -32 -77.5 -92.5t-27.5 -132.5q0 -40 10 -73.5t34 -33.5zM178 -287v202h180v-202h-180zM286 1197q-55 0 -105 27t-79 68l95 98q14 -25 38.5 -37.5t50.5 -12.5
q27 0 53 12.5t40 36.5l91 -97q-36 -44 -82 -69.5t-102 -25.5z" />
    <glyph glyph-name="uni1EB8" unicode="&#x1eb8;" horiz-adv-x="533" 
d="M60 0v1470h413v-222h-222v-396h165v-216h-165v-414h222v-222h-413zM177 -287v202h180v-202h-180z" />
    <glyph glyph-name="uni1EB9" unicode="&#x1eb9;" horiz-adv-x="517" 
d="M257 -16q-109 0 -165.5 77.5t-56.5 198.5v569q0 121 56.5 201t166.5 80q73 0 123 -37.5t75.5 -100.5t25.5 -140v-322h-276v-253q0 -39 12 -67t41 -28q31 0 42.5 27t11.5 69v134h169v-137q0 -124 -56.5 -197.5t-168.5 -73.5zM206 668h107v169q0 43 -10 70t-44 27
q-28 0 -40.5 -28t-12.5 -69v-169zM177 -287v202h180v-202h-180z" />
    <glyph glyph-name="uni1EBA" unicode="&#x1eba;" horiz-adv-x="533" 
d="M60 0v1470h413v-222h-222v-396h165v-216h-165v-414h222v-222h-413zM148 1813q65 0 124 -6.5t97.5 -30t38.5 -73.5q0 -64 -54 -95t-133 -31l-20 74q24 2 53.5 10t29.5 30q0 20 -32.5 27t-103.5 7v88z" />
    <glyph glyph-name="uni1EBB" unicode="&#x1ebb;" horiz-adv-x="517" 
d="M257 -16q-109 0 -165.5 77.5t-56.5 198.5v569q0 121 56.5 201t166.5 80q73 0 123 -37.5t75.5 -100.5t25.5 -140v-322h-276v-253q0 -39 12 -67t41 -28q31 0 42.5 27t11.5 69v134h169v-137q0 -124 -56.5 -197.5t-168.5 -73.5zM206 668h107v169q0 43 -10 70t-44 27
q-28 0 -40.5 -28t-12.5 -69v-169zM148 1437q65 0 124 -6.5t97.5 -30t38.5 -73.5q0 -64 -54 -95t-133 -31l-20 74q24 2 53.5 10t29.5 30q0 20 -32.5 27t-103.5 7v88z" />
    <glyph glyph-name="uni1EBC" unicode="&#x1ebc;" horiz-adv-x="533" 
d="M60 0v1470h413v-222h-222v-396h165v-216h-165v-414h222v-222h-413zM346 1581q-43 0 -78 18q-38 20 -81 20q-24 0 -50 -9.5t-45 -22.5v148q13 11 28 18.5t32 13.5q16 6 35 6q43 0 79 -16q20 -8 40 -15t40 -7q24 0 50 9.5t45 22.5v-148q-17 -17 -45.5 -27.5t-49.5 -10.5z
" />
    <glyph glyph-name="uni1EBD" unicode="&#x1ebd;" horiz-adv-x="517" 
d="M257 -16q-109 0 -165.5 77.5t-56.5 198.5v569q0 121 56.5 201t166.5 80q73 0 123 -37.5t75.5 -100.5t25.5 -140v-322h-276v-253q0 -39 12 -67t41 -28q31 0 42.5 27t11.5 69v134h169v-137q0 -124 -56.5 -197.5t-168.5 -73.5zM206 668h107v169q0 43 -10 70t-44 27
q-28 0 -40.5 -28t-12.5 -69v-169zM346 1205q-43 0 -78 18q-38 20 -81 20q-24 0 -50 -9.5t-45 -22.5v148q13 11 28 18.5t32 13.5q16 6 35 6q43 0 79 -16q20 -8 40 -15t40 -7q24 0 50 9.5t45 22.5v-148q-17 -17 -45.5 -27.5t-49.5 -10.5z" />
    <glyph glyph-name="uni1EBE" unicode="&#x1ebe;" horiz-adv-x="533" 
d="M60 0v1470h413v-222h-222v-396h165v-216h-165v-414h222v-222h-413zM51 1604l121 180h188l121 -180h-162l-54 90l-52 -90h-162zM420 1747l118 180h186l-167 -180h-137z" />
    <glyph glyph-name="uni1EBF" unicode="&#x1ebf;" horiz-adv-x="517" 
d="M257 -16q-109 0 -165.5 77.5t-56.5 198.5v569q0 121 56.5 201t166.5 80q73 0 123 -37.5t75.5 -100.5t25.5 -140v-322h-276v-253q0 -39 12 -67t41 -28q31 0 42.5 27t11.5 69v134h169v-137q0 -124 -56.5 -197.5t-168.5 -73.5zM206 668h107v169q0 43 -10 70t-44 27
q-28 0 -40.5 -28t-12.5 -69v-169zM51 1228l121 180h188l121 -180h-162l-54 90l-52 -90h-162zM420 1371l118 180h186l-167 -180h-137z" />
    <glyph glyph-name="uni1EC0" unicode="&#x1ec0;" horiz-adv-x="533" 
d="M60 0v1470h413v-222h-222v-396h165v-216h-165v-414h222v-222h-413zM51 1604l121 180h188l121 -180h-162l-54 90l-52 -90h-162zM607 1749h-138l-166 180h185z" />
    <glyph glyph-name="uni1EC1" unicode="&#x1ec1;" horiz-adv-x="517" 
d="M257 -16q-109 0 -165.5 77.5t-56.5 198.5v569q0 121 56.5 201t166.5 80q73 0 123 -37.5t75.5 -100.5t25.5 -140v-322h-276v-253q0 -39 12 -67t41 -28q31 0 42.5 27t11.5 69v134h169v-137q0 -124 -56.5 -197.5t-168.5 -73.5zM206 668h107v169q0 43 -10 70t-44 27
q-28 0 -40.5 -28t-12.5 -69v-169zM51 1228l121 180h188l121 -180h-162l-54 90l-52 -90h-162zM607 1373h-138l-166 180h185z" />
    <glyph glyph-name="uni1EC2" unicode="&#x1ec2;" horiz-adv-x="533" 
d="M60 0v1470h413v-222h-222v-396h165v-216h-165v-414h222v-222h-413zM51 1604l121 180h188l121 -180h-162l-54 90l-52 -90h-162zM365 1980q65 0 124 -6.5t97.5 -30t38.5 -73.5q0 -64 -54 -95t-133 -31l-20 74q24 2 53.5 10t29.5 30q0 20 -32.5 27t-103.5 7v88z" />
    <glyph glyph-name="uni1EC3" unicode="&#x1ec3;" horiz-adv-x="517" 
d="M257 -16q-109 0 -165.5 77.5t-56.5 198.5v569q0 121 56.5 201t166.5 80q73 0 123 -37.5t75.5 -100.5t25.5 -140v-322h-276v-253q0 -39 12 -67t41 -28q31 0 42.5 27t11.5 69v134h169v-137q0 -124 -56.5 -197.5t-168.5 -73.5zM206 668h107v169q0 43 -10 70t-44 27
q-28 0 -40.5 -28t-12.5 -69v-169zM51 1228l121 180h188l121 -180h-162l-54 90l-52 -90h-162zM365 1604q65 0 124 -6.5t97.5 -30t38.5 -73.5q0 -64 -54 -95t-133 -31l-20 74q24 2 53.5 10t29.5 30q0 20 -32.5 27t-103.5 7v88z" />
    <glyph glyph-name="uni1EC4" unicode="&#x1ec4;" horiz-adv-x="533" 
d="M60 0v1470h413v-222h-222v-396h165v-216h-165v-414h222v-222h-413zM51 1604l121 180h188l121 -180h-162l-54 90l-52 -90h-162zM345 1834q-43 0 -78 18q-38 20 -81 20q-24 0 -50 -9.5t-45 -22.5v148q13 11 28 18.5t32 13.5q16 6 35 6q43 0 79 -16q20 -8 40 -15t40 -7
q24 0 50 9.5t45 22.5v-148q-17 -17 -45.5 -27.5t-49.5 -10.5z" />
    <glyph glyph-name="uni1EC5" unicode="&#x1ec5;" horiz-adv-x="517" 
d="M257 -16q-109 0 -165.5 77.5t-56.5 198.5v569q0 121 56.5 201t166.5 80q73 0 123 -37.5t75.5 -100.5t25.5 -140v-322h-276v-253q0 -39 12 -67t41 -28q31 0 42.5 27t11.5 69v134h169v-137q0 -124 -56.5 -197.5t-168.5 -73.5zM206 668h107v169q0 43 -10 70t-44 27
q-28 0 -40.5 -28t-12.5 -69v-169zM51 1228l121 180h188l121 -180h-162l-54 90l-52 -90h-162zM345 1458q-43 0 -78 18q-38 20 -81 20q-24 0 -50 -9.5t-45 -22.5v148q13 11 28 18.5t32 13.5q16 6 35 6q43 0 79 -16q20 -8 40 -15t40 -7q24 0 50 9.5t45 22.5v-148
q-17 -17 -45.5 -27.5t-49.5 -10.5z" />
    <glyph glyph-name="uni1EC6" unicode="&#x1ec6;" horiz-adv-x="533" 
d="M60 0v1470h413v-222h-222v-396h165v-216h-165v-414h222v-222h-413zM177 -287v202h180v-202h-180zM51 1604l121 180h188l121 -180h-162l-54 90l-52 -90h-162z" />
    <glyph glyph-name="uni1EC7" unicode="&#x1ec7;" horiz-adv-x="517" 
d="M257 -16q-109 0 -165.5 77.5t-56.5 198.5v569q0 121 56.5 201t166.5 80q73 0 123 -37.5t75.5 -100.5t25.5 -140v-322h-276v-253q0 -39 12 -67t41 -28q31 0 42.5 27t11.5 69v134h169v-137q0 -124 -56.5 -197.5t-168.5 -73.5zM206 668h107v169q0 43 -10 70t-44 27
q-28 0 -40.5 -28t-12.5 -69v-169zM177 -287v202h180v-202h-180zM51 1228l121 180h188l121 -180h-162l-54 90l-52 -90h-162z" />
    <glyph glyph-name="uni1EC8" unicode="&#x1ec8;" horiz-adv-x="311" 
d="M60 0v1470h191v-1470h-191zM38 1813q65 0 124 -6.5t97.5 -30t38.5 -73.5q0 -64 -54 -95t-133 -31l-20 74q24 2 53.5 10t29.5 30q0 20 -32.5 27t-103.5 7v88z" />
    <glyph glyph-name="uni1EC9" unicode="&#x1ec9;" horiz-adv-x="300" 
d="M60 0v1094h180v-1094h-180zM32 1437q65 0 124 -6.5t97.5 -30t38.5 -73.5q0 -64 -54 -95t-133 -31l-20 74q24 2 53.5 10t29.5 30q0 20 -32.5 27t-103.5 7v88z" />
    <glyph glyph-name="uni1ECA" unicode="&#x1eca;" horiz-adv-x="311" 
d="M60 0v1470h191v-1470h-191zM66 -287v202h180v-202h-180z" />
    <glyph glyph-name="uni1ECB" unicode="&#x1ecb;" horiz-adv-x="280" 
d="M50 0v1094h180v-1094h-180zM50 1268v202h180v-202h-180zM51 -287v202h180v-202h-180z" />
    <glyph glyph-name="uni1ECC" unicode="&#x1ecc;" horiz-adv-x="589" 
d="M295 -16q-82 0 -136.5 42.5t-81.5 112.5t-27 153v886q0 82 27 152t81.5 113t136.5 43q85 0 139 -43t79.5 -113t25.5 -152v-886q0 -83 -26.5 -153t-80.5 -112.5t-137 -42.5zM296 194q32 0 42 30.5t10 67.5v886q0 38 -10.5 68t-41.5 30q-29 0 -41 -29.5t-12 -68.5v-886
q0 -40 11.5 -69t41.5 -29zM205 -287v202h180v-202h-180z" />
    <glyph glyph-name="uni1ECD" unicode="&#x1ecd;" horiz-adv-x="514" 
d="M257 -14q-109 0 -165.5 78t-56.5 197v574q0 120 56.5 197.5t165.5 77.5t165.5 -77.5t56.5 -197.5v-574q0 -119 -56.5 -197t-165.5 -78zM258 162q30 0 40.5 27.5t10.5 74.5v568q0 48 -10.5 75t-40.5 27q-31 0 -42 -27t-11 -75v-568q0 -47 11 -74.5t42 -27.5zM168 -287v202
h180v-202h-180z" />
    <glyph glyph-name="uni1ECE" unicode="&#x1ece;" horiz-adv-x="589" 
d="M295 -16q-82 0 -136.5 42.5t-81.5 112.5t-27 153v886q0 82 27 152t81.5 113t136.5 43q85 0 139 -43t79.5 -113t25.5 -152v-886q0 -83 -26.5 -153t-80.5 -112.5t-137 -42.5zM296 194q32 0 42 30.5t10 67.5v886q0 38 -10.5 68t-41.5 30q-29 0 -41 -29.5t-12 -68.5v-886
q0 -40 11.5 -69t41.5 -29zM178 1813q65 0 124 -6.5t97.5 -30t38.5 -73.5q0 -64 -54 -95t-133 -31l-20 74q24 2 53.5 10t29.5 30q0 20 -32.5 27t-103.5 7v88z" />
    <glyph glyph-name="uni1ECF" unicode="&#x1ecf;" horiz-adv-x="514" 
d="M257 -14q-109 0 -165.5 78t-56.5 197v574q0 120 56.5 197.5t165.5 77.5t165.5 -77.5t56.5 -197.5v-574q0 -119 -56.5 -197t-165.5 -78zM258 162q30 0 40.5 27.5t10.5 74.5v568q0 48 -10.5 75t-40.5 27q-31 0 -42 -27t-11 -75v-568q0 -47 11 -74.5t42 -27.5zM149 1437
q65 0 124 -6.5t97.5 -30t38.5 -73.5q0 -64 -54 -95t-133 -31l-20 74q24 2 53.5 10t29.5 30q0 20 -32.5 27t-103.5 7v88z" />
    <glyph glyph-name="uni1ED0" unicode="&#x1ed0;" horiz-adv-x="589" 
d="M295 -16q-82 0 -136.5 42.5t-81.5 112.5t-27 153v886q0 82 27 152t81.5 113t136.5 43q85 0 139 -43t79.5 -113t25.5 -152v-886q0 -83 -26.5 -153t-80.5 -112.5t-137 -42.5zM296 194q32 0 42 30.5t10 67.5v886q0 38 -10.5 68t-41.5 30q-29 0 -41 -29.5t-12 -68.5v-886
q0 -40 11.5 -69t41.5 -29zM81 1604l121 180h188l121 -180h-162l-54 90l-52 -90h-162zM450 1747l118 180h186l-167 -180h-137z" />
    <glyph glyph-name="uni1ED1" unicode="&#x1ed1;" horiz-adv-x="514" 
d="M257 -14q-109 0 -165.5 78t-56.5 197v574q0 120 56.5 197.5t165.5 77.5t165.5 -77.5t56.5 -197.5v-574q0 -119 -56.5 -197t-165.5 -78zM258 162q30 0 40.5 27.5t10.5 74.5v568q0 48 -10.5 75t-40.5 27q-31 0 -42 -27t-11 -75v-568q0 -47 11 -74.5t42 -27.5zM52 1228
l121 180h188l121 -180h-162l-54 90l-52 -90h-162zM421 1371l118 180h186l-167 -180h-137z" />
    <glyph glyph-name="uni1ED2" unicode="&#x1ed2;" horiz-adv-x="589" 
d="M295 -16q-82 0 -136.5 42.5t-81.5 112.5t-27 153v886q0 82 27 152t81.5 113t136.5 43q85 0 139 -43t79.5 -113t25.5 -152v-886q0 -83 -26.5 -153t-80.5 -112.5t-137 -42.5zM296 194q32 0 42 30.5t10 67.5v886q0 38 -10.5 68t-41.5 30q-29 0 -41 -29.5t-12 -68.5v-886
q0 -40 11.5 -69t41.5 -29zM81 1604l121 180h188l121 -180h-162l-54 90l-52 -90h-162zM636 1749h-138l-166 180h185z" />
    <glyph glyph-name="uni1ED3" unicode="&#x1ed3;" horiz-adv-x="514" 
d="M257 -14q-109 0 -165.5 78t-56.5 197v574q0 120 56.5 197.5t165.5 77.5t165.5 -77.5t56.5 -197.5v-574q0 -119 -56.5 -197t-165.5 -78zM258 162q30 0 40.5 27.5t10.5 74.5v568q0 48 -10.5 75t-40.5 27q-31 0 -42 -27t-11 -75v-568q0 -47 11 -74.5t42 -27.5zM52 1228
l121 180h188l121 -180h-162l-54 90l-52 -90h-162zM608 1373h-138l-166 180h185z" />
    <glyph glyph-name="uni1ED4" unicode="&#x1ed4;" horiz-adv-x="589" 
d="M295 -16q-82 0 -136.5 42.5t-81.5 112.5t-27 153v886q0 82 27 152t81.5 113t136.5 43q85 0 139 -43t79.5 -113t25.5 -152v-886q0 -83 -26.5 -153t-80.5 -112.5t-137 -42.5zM296 194q32 0 42 30.5t10 67.5v886q0 38 -10.5 68t-41.5 30q-29 0 -41 -29.5t-12 -68.5v-886
q0 -40 11.5 -69t41.5 -29zM81 1604l121 180h188l121 -180h-162l-54 90l-52 -90h-162zM395 1980q65 0 124 -6.5t97.5 -30t38.5 -73.5q0 -64 -54 -95t-133 -31l-20 74q24 2 53.5 10t29.5 30q0 20 -32.5 27t-103.5 7v88z" />
    <glyph glyph-name="uni1ED5" unicode="&#x1ed5;" horiz-adv-x="514" 
d="M257 -14q-109 0 -165.5 78t-56.5 197v574q0 120 56.5 197.5t165.5 77.5t165.5 -77.5t56.5 -197.5v-574q0 -119 -56.5 -197t-165.5 -78zM258 162q30 0 40.5 27.5t10.5 74.5v568q0 48 -10.5 75t-40.5 27q-31 0 -42 -27t-11 -75v-568q0 -47 11 -74.5t42 -27.5zM52 1228
l121 180h188l121 -180h-162l-54 90l-52 -90h-162zM366 1604q65 0 124 -6.5t97.5 -30t38.5 -73.5q0 -64 -54 -95t-133 -31l-20 74q24 2 53.5 10t29.5 30q0 20 -32.5 27t-103.5 7v88z" />
    <glyph glyph-name="uni1ED6" unicode="&#x1ed6;" horiz-adv-x="589" 
d="M295 -16q-82 0 -136.5 42.5t-81.5 112.5t-27 153v886q0 82 27 152t81.5 113t136.5 43q85 0 139 -43t79.5 -113t25.5 -152v-886q0 -83 -26.5 -153t-80.5 -112.5t-137 -42.5zM296 194q32 0 42 30.5t10 67.5v886q0 38 -10.5 68t-41.5 30q-29 0 -41 -29.5t-12 -68.5v-886
q0 -40 11.5 -69t41.5 -29zM81 1604l121 180h188l121 -180h-162l-54 90l-52 -90h-162zM375 1834q-43 0 -78 18q-38 20 -81 20q-24 0 -50 -9.5t-45 -22.5v148q13 11 28 18.5t32 13.5q16 6 35 6q43 0 79 -16q20 -8 40 -15t40 -7q24 0 50 9.5t45 22.5v-148q-17 -17 -45.5 -27.5
t-49.5 -10.5z" />
    <glyph glyph-name="uni1ED7" unicode="&#x1ed7;" horiz-adv-x="514" 
d="M257 -14q-109 0 -165.5 78t-56.5 197v574q0 120 56.5 197.5t165.5 77.5t165.5 -77.5t56.5 -197.5v-574q0 -119 -56.5 -197t-165.5 -78zM258 162q30 0 40.5 27.5t10.5 74.5v568q0 48 -10.5 75t-40.5 27q-31 0 -42 -27t-11 -75v-568q0 -47 11 -74.5t42 -27.5zM52 1228
l121 180h188l121 -180h-162l-54 90l-52 -90h-162zM346 1458q-43 0 -78 18q-38 20 -81 20q-24 0 -50 -9.5t-45 -22.5v148q13 11 28 18.5t32 13.5q16 6 35 6q43 0 79 -16q20 -8 40 -15t40 -7q24 0 50 9.5t45 22.5v-148q-17 -17 -45.5 -27.5t-49.5 -10.5z" />
    <glyph glyph-name="uni1ED8" unicode="&#x1ed8;" horiz-adv-x="589" 
d="M295 -16q-82 0 -136.5 42.5t-81.5 112.5t-27 153v886q0 82 27 152t81.5 113t136.5 43q85 0 139 -43t79.5 -113t25.5 -152v-886q0 -83 -26.5 -153t-80.5 -112.5t-137 -42.5zM296 194q32 0 42 30.5t10 67.5v886q0 38 -10.5 68t-41.5 30q-29 0 -41 -29.5t-12 -68.5v-886
q0 -40 11.5 -69t41.5 -29zM205 -287v202h180v-202h-180zM81 1604l121 180h188l121 -180h-162l-54 90l-52 -90h-162z" />
    <glyph glyph-name="uni1ED9" unicode="&#x1ed9;" horiz-adv-x="514" 
d="M257 -14q-109 0 -165.5 78t-56.5 197v574q0 120 56.5 197.5t165.5 77.5t165.5 -77.5t56.5 -197.5v-574q0 -119 -56.5 -197t-165.5 -78zM258 162q30 0 40.5 27.5t10.5 74.5v568q0 48 -10.5 75t-40.5 27q-31 0 -42 -27t-11 -75v-568q0 -47 11 -74.5t42 -27.5zM168 -287v202
h180v-202h-180zM52 1228l121 180h188l121 -180h-162l-54 90l-52 -90h-162z" />
    <glyph glyph-name="uni1EDA" unicode="&#x1eda;" horiz-adv-x="589" 
d="M295 -16q-82 0 -136.5 42.5t-81.5 112.5t-27 153v886q0 82 27 152t81.5 113t136.5 43q85 0 139 -43t79.5 -113t25.5 -152v-886q0 -83 -26.5 -153t-80.5 -112.5t-137 -42.5zM296 194q32 0 42 30.5t10 67.5v886q0 38 -10.5 68t-41.5 30q-29 0 -41 -29.5t-12 -68.5v-886
q0 -40 11.5 -69t41.5 -29zM379 1470q44 0 66 18.5t29 64t7 125.5h151q0 -139 -29.5 -214t-86 -103t-137.5 -28v137zM210 1600l118 180h186l-167 -180h-137z" />
    <glyph glyph-name="uni1EDB" unicode="&#x1edb;" horiz-adv-x="514" 
d="M257 -14q-109 0 -165.5 78t-56.5 197v574q0 120 56.5 197.5t165.5 77.5t165.5 -77.5t56.5 -197.5v-574q0 -119 -56.5 -197t-165.5 -78zM258 162q30 0 40.5 27.5t10.5 74.5v568q0 48 -10.5 75t-40.5 27q-31 0 -42 -27t-11 -75v-568q0 -47 11 -74.5t42 -27.5zM337 1081
q44 0 66 18.5t29 64t7 125.5h151q0 -139 -29.5 -214t-86 -103t-137.5 -28v137zM181 1224l118 180h186l-167 -180h-137z" />
    <glyph glyph-name="uni1EDC" unicode="&#x1edc;" horiz-adv-x="589" 
d="M295 -16q-82 0 -136.5 42.5t-81.5 112.5t-27 153v886q0 82 27 152t81.5 113t136.5 43q85 0 139 -43t79.5 -113t25.5 -152v-886q0 -83 -26.5 -153t-80.5 -112.5t-137 -42.5zM296 194q32 0 42 30.5t10 67.5v886q0 38 -10.5 68t-41.5 30q-29 0 -41 -29.5t-12 -68.5v-886
q0 -40 11.5 -69t41.5 -29zM379 1470q44 0 66 18.5t29 64t7 125.5h151q0 -139 -29.5 -214t-86 -103t-137.5 -28v137zM377 1600h-138l-166 180h185z" />
    <glyph glyph-name="uni1EDD" unicode="&#x1edd;" horiz-adv-x="514" 
d="M257 -14q-109 0 -165.5 78t-56.5 197v574q0 120 56.5 197.5t165.5 77.5t165.5 -77.5t56.5 -197.5v-574q0 -119 -56.5 -197t-165.5 -78zM258 162q30 0 40.5 27.5t10.5 74.5v568q0 48 -10.5 75t-40.5 27q-31 0 -42 -27t-11 -75v-568q0 -47 11 -74.5t42 -27.5zM337 1081
q44 0 66 18.5t29 64t7 125.5h151q0 -139 -29.5 -214t-86 -103t-137.5 -28v137zM348 1224h-138l-166 180h185z" />
    <glyph glyph-name="uni1EDE" unicode="&#x1ede;" horiz-adv-x="589" 
d="M295 -16q-82 0 -136.5 42.5t-81.5 112.5t-27 153v886q0 82 27 152t81.5 113t136.5 43q85 0 139 -43t79.5 -113t25.5 -152v-886q0 -83 -26.5 -153t-80.5 -112.5t-137 -42.5zM296 194q32 0 42 30.5t10 67.5v886q0 38 -10.5 68t-41.5 30q-29 0 -41 -29.5t-12 -68.5v-886
q0 -40 11.5 -69t41.5 -29zM379 1470q44 0 66 18.5t29 64t7 125.5h151q0 -139 -29.5 -214t-86 -103t-137.5 -28v137zM178 1813q65 0 124 -6.5t97.5 -30t38.5 -73.5q0 -64 -54 -95t-133 -31l-20 74q24 2 53.5 10t29.5 30q0 20 -32.5 27t-103.5 7v88z" />
    <glyph glyph-name="uni1EDF" unicode="&#x1edf;" horiz-adv-x="514" 
d="M257 -14q-109 0 -165.5 78t-56.5 197v574q0 120 56.5 197.5t165.5 77.5t165.5 -77.5t56.5 -197.5v-574q0 -119 -56.5 -197t-165.5 -78zM258 162q30 0 40.5 27.5t10.5 74.5v568q0 48 -10.5 75t-40.5 27q-31 0 -42 -27t-11 -75v-568q0 -47 11 -74.5t42 -27.5zM337 1081
q44 0 66 18.5t29 64t7 125.5h151q0 -139 -29.5 -214t-86 -103t-137.5 -28v137zM149 1437q65 0 124 -6.5t97.5 -30t38.5 -73.5q0 -64 -54 -95t-133 -31l-20 74q24 2 53.5 10t29.5 30q0 20 -32.5 27t-103.5 7v88z" />
    <glyph glyph-name="uni1EE0" unicode="&#x1ee0;" horiz-adv-x="589" 
d="M295 -16q-82 0 -136.5 42.5t-81.5 112.5t-27 153v886q0 82 27 152t81.5 113t136.5 43q85 0 139 -43t79.5 -113t25.5 -152v-886q0 -83 -26.5 -153t-80.5 -112.5t-137 -42.5zM296 194q32 0 42 30.5t10 67.5v886q0 38 -10.5 68t-41.5 30q-29 0 -41 -29.5t-12 -68.5v-886
q0 -40 11.5 -69t41.5 -29zM379 1470q44 0 66 18.5t29 64t7 125.5h151q0 -139 -29.5 -214t-86 -103t-137.5 -28v137zM375 1581q-43 0 -78 18q-38 20 -81 20q-24 0 -50 -9.5t-45 -22.5v148q13 11 28 18.5t32 13.5q16 6 35 6q43 0 79 -16q20 -8 40 -15t40 -7q24 0 50 9.5
t45 22.5v-148q-17 -17 -45.5 -27.5t-49.5 -10.5z" />
    <glyph glyph-name="uni1EE1" unicode="&#x1ee1;" horiz-adv-x="514" 
d="M257 -14q-109 0 -165.5 78t-56.5 197v574q0 120 56.5 197.5t165.5 77.5t165.5 -77.5t56.5 -197.5v-574q0 -119 -56.5 -197t-165.5 -78zM258 162q30 0 40.5 27.5t10.5 74.5v568q0 48 -10.5 75t-40.5 27q-31 0 -42 -27t-11 -75v-568q0 -47 11 -74.5t42 -27.5zM337 1081
q44 0 66 18.5t29 64t7 125.5h151q0 -139 -29.5 -214t-86 -103t-137.5 -28v137zM347 1205q-43 0 -78 18q-38 20 -81 20q-24 0 -50 -9.5t-45 -22.5v148q13 11 28 18.5t32 13.5q16 6 35 6q43 0 79 -16q20 -8 40 -15t40 -7q24 0 50 9.5t45 22.5v-148q-17 -17 -45.5 -27.5
t-49.5 -10.5z" />
    <glyph glyph-name="uni1EE2" unicode="&#x1ee2;" horiz-adv-x="589" 
d="M295 -16q-82 0 -136.5 42.5t-81.5 112.5t-27 153v886q0 82 27 152t81.5 113t136.5 43q85 0 139 -43t79.5 -113t25.5 -152v-886q0 -83 -26.5 -153t-80.5 -112.5t-137 -42.5zM296 194q32 0 42 30.5t10 67.5v886q0 38 -10.5 68t-41.5 30q-29 0 -41 -29.5t-12 -68.5v-886
q0 -40 11.5 -69t41.5 -29zM379 1470q44 0 66 18.5t29 64t7 125.5h151q0 -139 -29.5 -214t-86 -103t-137.5 -28v137zM205 -287v202h180v-202h-180z" />
    <glyph glyph-name="uni1EE3" unicode="&#x1ee3;" horiz-adv-x="514" 
d="M257 -14q-109 0 -165.5 78t-56.5 197v574q0 120 56.5 197.5t165.5 77.5t165.5 -77.5t56.5 -197.5v-574q0 -119 -56.5 -197t-165.5 -78zM258 162q30 0 40.5 27.5t10.5 74.5v568q0 48 -10.5 75t-40.5 27q-31 0 -42 -27t-11 -75v-568q0 -47 11 -74.5t42 -27.5zM337 1081
q44 0 66 18.5t29 64t7 125.5h151q0 -139 -29.5 -214t-86 -103t-137.5 -28v137zM168 -287v202h180v-202h-180z" />
    <glyph glyph-name="uni1EE4" unicode="&#x1ee4;" horiz-adv-x="605" 
d="M303 -16q-85 0 -139 41t-79 111t-25 156v1178h191v-1178q0 -42 12 -70t40 -28q29 0 40 28t11 70v1178h191v-1178q0 -86 -25 -156t-78.5 -111t-138.5 -41zM213 -287v202h180v-202h-180z" />
    <glyph glyph-name="uni1EE5" unicode="&#x1ee5;" 
d="M175 -16q-50 0 -78.5 36t-40 86t-11.5 92v896h179v-860q0 -31 9.5 -47.5t29.5 -16.5q19 0 30 18t17 44v862h180v-1094h-180v74q-25 -28 -64 -59t-71 -31zM190 -287v202h180v-202h-180z" />
    <glyph glyph-name="uni1EE6" unicode="&#x1ee6;" horiz-adv-x="605" 
d="M303 -16q-85 0 -139 41t-79 111t-25 156v1178h191v-1178q0 -42 12 -70t40 -28q29 0 40 28t11 70v1178h191v-1178q0 -86 -25 -156t-78.5 -111t-138.5 -41zM185 1813q65 0 124 -6.5t97.5 -30t38.5 -73.5q0 -64 -54 -95t-133 -31l-20 74q24 2 53.5 10t29.5 30q0 20 -32.5 27
t-103.5 7v88z" />
    <glyph glyph-name="uni1EE7" unicode="&#x1ee7;" 
d="M175 -16q-50 0 -78.5 36t-40 86t-11.5 92v896h179v-860q0 -31 9.5 -47.5t29.5 -16.5q19 0 30 18t17 44v862h180v-1094h-180v74q-25 -28 -64 -59t-71 -31zM163 1437q65 0 124 -6.5t97.5 -30t38.5 -73.5q0 -64 -54 -95t-133 -31l-20 74q24 2 53.5 10t29.5 30q0 20 -32.5 27
t-103.5 7v88z" />
    <glyph glyph-name="uni1EE8" unicode="&#x1ee8;" horiz-adv-x="605" 
d="M303 -16q-85 0 -139 41t-79 111t-25 156v1178h191v-1178q0 -42 12 -70t40 -28q29 0 40 28t11 70v1178h191v-1178q0 -86 -25 -156t-78.5 -111t-138.5 -41zM467 1470q44 0 66 18.5t29 64t7 125.5h151q0 -139 -29.5 -214t-86 -103t-137.5 -28v137zM217 1600l118 180h186
l-167 -180h-137z" />
    <glyph glyph-name="uni1EE9" unicode="&#x1ee9;" 
d="M175 -16q-50 0 -78.5 36t-40 86t-11.5 92v896h179v-860q0 -31 9.5 -47.5t29.5 -16.5q19 0 30 18t17 44v862h180v-1094h-180v74q-25 -28 -64 -59t-71 -31zM448 1094q44 0 66 18.5t29 64t7 125.5h151q0 -139 -29.5 -214t-86 -103t-137.5 -28v137zM195 1224l118 180h186
l-167 -180h-137z" />
    <glyph glyph-name="uni1EEA" unicode="&#x1eea;" horiz-adv-x="605" 
d="M303 -16q-85 0 -139 41t-79 111t-25 156v1178h191v-1178q0 -42 12 -70t40 -28q29 0 40 28t11 70v1178h191v-1178q0 -86 -25 -156t-78.5 -111t-138.5 -41zM467 1470q44 0 66 18.5t29 64t7 125.5h151q0 -139 -29.5 -214t-86 -103t-137.5 -28v137zM384 1600h-138l-166 180
h185z" />
    <glyph glyph-name="uni1EEB" unicode="&#x1eeb;" 
d="M175 -16q-50 0 -78.5 36t-40 86t-11.5 92v896h179v-860q0 -31 9.5 -47.5t29.5 -16.5q19 0 30 18t17 44v862h180v-1094h-180v74q-25 -28 -64 -59t-71 -31zM448 1094q44 0 66 18.5t29 64t7 125.5h151q0 -139 -29.5 -214t-86 -103t-137.5 -28v137zM362 1224h-138l-166 180
h185z" />
    <glyph glyph-name="uni1EEC" unicode="&#x1eec;" horiz-adv-x="605" 
d="M303 -16q-85 0 -139 41t-79 111t-25 156v1178h191v-1178q0 -42 12 -70t40 -28q29 0 40 28t11 70v1178h191v-1178q0 -86 -25 -156t-78.5 -111t-138.5 -41zM467 1470q44 0 66 18.5t29 64t7 125.5h151q0 -139 -29.5 -214t-86 -103t-137.5 -28v137zM185 1813q65 0 124 -6.5
t97.5 -30t38.5 -73.5q0 -64 -54 -95t-133 -31l-20 74q24 2 53.5 10t29.5 30q0 20 -32.5 27t-103.5 7v88z" />
    <glyph glyph-name="uni1EED" unicode="&#x1eed;" 
d="M175 -16q-50 0 -78.5 36t-40 86t-11.5 92v896h179v-860q0 -31 9.5 -47.5t29.5 -16.5q19 0 30 18t17 44v862h180v-1094h-180v74q-25 -28 -64 -59t-71 -31zM448 1094q44 0 66 18.5t29 64t7 125.5h151q0 -139 -29.5 -214t-86 -103t-137.5 -28v137zM163 1437q65 0 124 -6.5
t97.5 -30t38.5 -73.5q0 -64 -54 -95t-133 -31l-20 74q24 2 53.5 10t29.5 30q0 20 -32.5 27t-103.5 7v88z" />
    <glyph glyph-name="uni1EEE" unicode="&#x1eee;" horiz-adv-x="605" 
d="M303 -16q-85 0 -139 41t-79 111t-25 156v1178h191v-1178q0 -42 12 -70t40 -28q29 0 40 28t11 70v1178h191v-1178q0 -86 -25 -156t-78.5 -111t-138.5 -41zM467 1470q44 0 66 18.5t29 64t7 125.5h151q0 -139 -29.5 -214t-86 -103t-137.5 -28v137zM383 1581q-43 0 -78 18
q-38 20 -81 20q-24 0 -50 -9.5t-45 -22.5v148q13 11 28 18.5t32 13.5q16 6 35 6q43 0 79 -16q20 -8 40 -15t40 -7q24 0 50 9.5t45 22.5v-148q-17 -17 -45.5 -27.5t-49.5 -10.5z" />
    <glyph glyph-name="uni1EEF" unicode="&#x1eef;" 
d="M175 -16q-50 0 -78.5 36t-40 86t-11.5 92v896h179v-860q0 -31 9.5 -47.5t29.5 -16.5q19 0 30 18t17 44v862h180v-1094h-180v74q-25 -28 -64 -59t-71 -31zM448 1094q44 0 66 18.5t29 64t7 125.5h151q0 -139 -29.5 -214t-86 -103t-137.5 -28v137zM361 1205q-43 0 -78 18
q-38 20 -81 20q-24 0 -50 -9.5t-45 -22.5v148q13 11 28 18.5t32 13.5q16 6 35 6q43 0 79 -16q20 -8 40 -15t40 -7q24 0 50 9.5t45 22.5v-148q-17 -17 -45.5 -27.5t-49.5 -10.5z" />
    <glyph glyph-name="uni1EF0" unicode="&#x1ef0;" horiz-adv-x="605" 
d="M303 -16q-85 0 -139 41t-79 111t-25 156v1178h191v-1178q0 -42 12 -70t40 -28q29 0 40 28t11 70v1178h191v-1178q0 -86 -25 -156t-78.5 -111t-138.5 -41zM467 1470q44 0 66 18.5t29 64t7 125.5h151q0 -139 -29.5 -214t-86 -103t-137.5 -28v137zM213 -287v202h180v-202
h-180z" />
    <glyph glyph-name="uni1EF1" unicode="&#x1ef1;" 
d="M175 -16q-50 0 -78.5 36t-40 86t-11.5 92v896h179v-860q0 -31 9.5 -47.5t29.5 -16.5q19 0 30 18t17 44v862h180v-1094h-180v74q-25 -28 -64 -59t-71 -31zM448 1094q44 0 66 18.5t29 64t7 125.5h151q0 -139 -29.5 -214t-86 -103t-137.5 -28v137zM190 -287v202h180v-202
h-180z" />
    <glyph glyph-name="Ygrave" unicode="&#x1ef2;" horiz-adv-x="619" 
d="M215 0v626l-192 844h195l83 -470l6 -64h5l7 64l82 470h196l-193 -844v-626h-189zM389 1600h-138l-166 180h185z" />
    <glyph glyph-name="ygrave" unicode="&#x1ef3;" horiz-adv-x="516" 
d="M87 -394q-13 0 -28.5 2t-31.5 6v178q6 -2 16.5 -3.5t15.5 -1.5q34 0 56.5 17t32.5 47q14 25 17.5 58t3.5 59l-159 1126h176l66 -642l4 -85h6l4 85l63 642h177l-165 -1176q-10 -84 -40.5 -155t-83.5 -114t-130 -43zM341 1224h-138l-166 180h185z" />
    <glyph glyph-name="uni1EF4" unicode="&#x1ef4;" horiz-adv-x="619" 
d="M215 0v626l-192 844h195l83 -470l6 -64h5l7 64l82 470h196l-193 -844v-626h-189zM220 -287v202h180v-202h-180z" />
    <glyph glyph-name="uni1EF5" unicode="&#x1ef5;" horiz-adv-x="516" 
d="M87 -394q-13 0 -28.5 2t-31.5 6v178q6 -2 16.5 -3.5t15.5 -1.5q34 0 56.5 17t32.5 47q14 25 17.5 58t3.5 59l-159 1126h176l66 -642l4 -85h6l4 85l63 642h177l-165 -1176q-10 -84 -40.5 -155t-83.5 -114t-130 -43zM384 -287v202h180v-202h-180z" />
    <glyph glyph-name="uni1EF6" unicode="&#x1ef6;" horiz-adv-x="619" 
d="M215 0v626l-192 844h195l83 -470l6 -64h5l7 64l82 470h196l-193 -844v-626h-189zM190 1813q65 0 124 -6.5t97.5 -30t38.5 -73.5q0 -64 -54 -95t-133 -31l-20 74q24 2 53.5 10t29.5 30q0 20 -32.5 27t-103.5 7v88z" />
    <glyph glyph-name="uni1EF7" unicode="&#x1ef7;" horiz-adv-x="516" 
d="M87 -394q-13 0 -28.5 2t-31.5 6v178q6 -2 16.5 -3.5t15.5 -1.5q34 0 56.5 17t32.5 47q14 25 17.5 58t3.5 59l-159 1126h176l66 -642l4 -85h6l4 85l63 642h177l-165 -1176q-10 -84 -40.5 -155t-83.5 -114t-130 -43zM142 1437q65 0 124 -6.5t97.5 -30t38.5 -73.5
q0 -64 -54 -95t-133 -31l-20 74q24 2 53.5 10t29.5 30q0 20 -32.5 27t-103.5 7v88z" />
    <glyph glyph-name="uni1EF8" unicode="&#x1ef8;" horiz-adv-x="619" 
d="M215 0v626l-192 844h195l83 -470l6 -64h5l7 64l82 470h196l-193 -844v-626h-189zM388 1581q-43 0 -78 18q-38 20 -81 20q-24 0 -50 -9.5t-45 -22.5v148q13 11 28 18.5t32 13.5q16 6 35 6q43 0 79 -16q20 -8 40 -15t40 -7q24 0 50 9.5t45 22.5v-148q-17 -17 -45.5 -27.5
t-49.5 -10.5z" />
    <glyph glyph-name="uni1EF9" unicode="&#x1ef9;" horiz-adv-x="516" 
d="M87 -394q-13 0 -28.5 2t-31.5 6v178q6 -2 16.5 -3.5t15.5 -1.5q34 0 56.5 17t32.5 47q14 25 17.5 58t3.5 59l-159 1126h176l66 -642l4 -85h6l4 85l63 642h177l-165 -1176q-10 -84 -40.5 -155t-83.5 -114t-130 -43zM339 1205q-43 0 -78 18q-38 20 -81 20q-24 0 -50 -9.5
t-45 -22.5v148q13 11 28 18.5t32 13.5q16 6 35 6q43 0 79 -16q20 -8 40 -15t40 -7q24 0 50 9.5t45 22.5v-148q-17 -17 -45.5 -27.5t-49.5 -10.5z" />
    <glyph glyph-name="endash" unicode="&#x2013;" horiz-adv-x="660" 
d="M49 634v190h533v-190h-533z" />
    <glyph glyph-name="emdash" unicode="&#x2014;" horiz-adv-x="790" 
d="M49 634v190h662v-190h-662z" />
    <glyph glyph-name="quoteleft" unicode="&#x2018;" horiz-adv-x="272" 
d="M29 988v222l88 260h98l-56 -260h56v-222h-186z" />
    <glyph glyph-name="quoteright" unicode="&#x2019;" horiz-adv-x="272" 
d="M26 988l56 260h-56v222h186v-222l-88 -260h-98z" />
    <glyph glyph-name="quotesinglbase" unicode="&#x201a;" horiz-adv-x="272" 
d="M26 -260l56 260h-56v222h186v-222l-88 -260h-98z" />
    <glyph glyph-name="quotedblleft" unicode="&#x201c;" horiz-adv-x="537" 
d="M289 988v222l88 260h98l-56 -260h56v-222h-186zM33 988v222l88 260h98l-56 -260h56v-222h-186z" />
    <glyph glyph-name="quotedblright" unicode="&#x201d;" horiz-adv-x="533" 
d="M289 988l56 260h-56v222h186v-222l-88 -260h-98zM33 988l56 260h-56v222h186v-222l-88 -260h-98z" />
    <glyph glyph-name="quotedblbase" unicode="&#x201e;" horiz-adv-x="518" 
d="M269 -260l56 260h-56v222h186v-222l-88 -260h-98zM33 -260l56 260h-56v222h186v-222l-88 -260h-98z" />
    <glyph glyph-name="uni201F" unicode="&#x201f;" horiz-adv-x="533" 
d="M387 988l-88 260v222h186v-222h-60l60 -260h-98zM121 988l-88 260v222h186v-222h-60l60 -260h-98z" />
    <glyph glyph-name="bullet" unicode="&#x2022;" horiz-adv-x="548" 
d="M260 593q-57 0 -104 28t-75 75t-28 104t28 103.5t75 74t104 27.5q86 0 145.5 -59.5t59.5 -145.5q0 -58 -28 -104.5t-74.5 -74.5t-102.5 -28z" />
    <glyph glyph-name="ellipsis" unicode="&#x2026;" horiz-adv-x="789" 
d="M555 0v222h186v-222h-186zM33 0v222h186v-222h-186zM294 0v222h186v-222h-186z" />
    <glyph glyph-name="guilsinglleft" unicode="&#x2039;" horiz-adv-x="365" 
d="M305 204l-245 265v152l245 265v-195l-179 -188v85l179 -188v-196z" />
    <glyph glyph-name="guilsinglright" unicode="&#x203a;" horiz-adv-x="365" 
d="M60 204v196l179 188v-85l-179 188v195l245 -265v-152z" />
    <glyph glyph-name="fraction" unicode="&#x2044;" horiz-adv-x="610" 
d="M-250 0l968 1470h142l-964 -1470h-146z" />
    <glyph glyph-name="uni2074" unicode="&#x2074;" horiz-adv-x="525" 
d="M248 600v175h-210v103l195 525h142v-517h60v-111h-60v-175h-127zM163 886h86v266h-5l-6 -37z" />
    <glyph glyph-name="Euro" unicode="&#x20ac;" horiz-adv-x="691" 
d="M386 -16q-121 0 -187 92.5t-66 225.5v232h-91v134h91v134h-91v134h91v232q0 89 30.5 161t87.5 114.5t134 42.5q121 0 187 -91.5t66 -226.5v-82h-182v82q0 46 -14 77t-53 31q-35 0 -48 -32t-13 -76v-232h194v-134h-194v-134h194v-134h-194v-232q0 -40 14.5 -74t46.5 -34
q40 0 53.5 31t13.5 77v82h182v-82q0 -134 -67.5 -226t-184.5 -92z" />
    <glyph glyph-name="trademark" unicode="&#x2122;" horiz-adv-x="782" 
d="M371 802v668h113l55 -312h5l55 312h113v-668h-86v438l-64 -438h-41l-66 438v-438h-84zM156 802v566h-86v102h264v-102h-86v-566h-92z" />
    <glyph glyph-name="minus" unicode="&#x2212;" horiz-adv-x="636" 
d="M49 634v168h509v-168h-509z" />
    <glyph glyph-name="uni2215" unicode="&#x2215;" horiz-adv-x="593" 
d="M-3 -144l424 1614h145l-419 -1614h-150z" />
    <glyph glyph-name="a.ss01" horiz-adv-x="520" 
d="M165 -16q-45 0 -73.5 34.5t-42.5 84t-14 95.5v698q0 49 13 98.5t41.5 82.5t74.5 33q34 0 70 -23.5t61 -51.5v59h180v-1094h-175l-5 71q-23 -26 -56 -56.5t-74 -30.5zM249 174q19 0 32.5 21.5t13.5 49.5v613q0 24 -13.5 46.5t-32.5 22.5q-17 0 -28 -20t-11 -49v-613
q0 -29 10 -50t29 -21z" />
    <glyph glyph-name="aacute.ss01" horiz-adv-x="520" 
d="M165 -16q-45 0 -73.5 34.5t-42.5 84t-14 95.5v698q0 49 13 98.5t41.5 82.5t74.5 33q34 0 70 -23.5t61 -51.5v59h180v-1094h-175l-5 71q-23 -26 -56 -56.5t-74 -30.5zM249 174q19 0 32.5 21.5t13.5 49.5v613q0 24 -13.5 46.5t-32.5 22.5q-17 0 -28 -20t-11 -49v-613
q0 -29 10 -50t29 -21zM174 1224l118 180h186l-167 -180h-137z" />
    <glyph glyph-name="abreve.ss01" horiz-adv-x="520" 
d="M165 -16q-45 0 -73.5 34.5t-42.5 84t-14 95.5v698q0 49 13 98.5t41.5 82.5t74.5 33q34 0 70 -23.5t61 -51.5v59h180v-1094h-175l-5 71q-23 -26 -56 -56.5t-74 -30.5zM249 174q19 0 32.5 21.5t13.5 49.5v613q0 24 -13.5 46.5t-32.5 22.5q-17 0 -28 -20t-11 -49v-613
q0 -29 10 -50t29 -21zM260 1197q-55 0 -105 27t-79 68l95 98q14 -25 38.5 -37.5t50.5 -12.5q27 0 53 12.5t40 36.5l91 -97q-36 -44 -82 -69.5t-102 -25.5z" />
    <glyph glyph-name="uni1EAF.ss01" horiz-adv-x="520" 
d="M165 -16q-45 0 -73.5 34.5t-42.5 84t-14 95.5v698q0 49 13 98.5t41.5 82.5t74.5 33q34 0 70 -23.5t61 -51.5v59h180v-1094h-175l-5 71q-23 -26 -56 -56.5t-74 -30.5zM249 174q19 0 32.5 21.5t13.5 49.5v613q0 24 -13.5 46.5t-32.5 22.5q-17 0 -28 -20t-11 -49v-613
q0 -29 10 -50t29 -21zM260 1197q-55 0 -105 27t-79 68l95 98q14 -25 38.5 -37.5t50.5 -12.5q27 0 53 12.5t40 36.5l91 -97q-36 -44 -82 -69.5t-102 -25.5zM160 1456l118 180h186l-167 -180h-137z" />
    <glyph glyph-name="uni1EB7.ss01" horiz-adv-x="520" 
d="M165 -16q-45 0 -73.5 34.5t-42.5 84t-14 95.5v698q0 49 13 98.5t41.5 82.5t74.5 33q34 0 70 -23.5t61 -51.5v59h180v-1094h-175l-5 71q-23 -26 -56 -56.5t-74 -30.5zM249 174q19 0 32.5 21.5t13.5 49.5v613q0 24 -13.5 46.5t-32.5 22.5q-17 0 -28 -20t-11 -49v-613
q0 -29 10 -50t29 -21zM173 -287v202h180v-202h-180zM260 1197q-55 0 -105 27t-79 68l95 98q14 -25 38.5 -37.5t50.5 -12.5q27 0 53 12.5t40 36.5l91 -97q-36 -44 -82 -69.5t-102 -25.5z" />
    <glyph glyph-name="uni1EB1.ss01" horiz-adv-x="520" 
d="M165 -16q-45 0 -73.5 34.5t-42.5 84t-14 95.5v698q0 49 13 98.5t41.5 82.5t74.5 33q34 0 70 -23.5t61 -51.5v59h180v-1094h-175l-5 71q-23 -26 -56 -56.5t-74 -30.5zM249 174q19 0 32.5 21.5t13.5 49.5v613q0 24 -13.5 46.5t-32.5 22.5q-17 0 -28 -20t-11 -49v-613
q0 -29 10 -50t29 -21zM260 1197q-55 0 -105 27t-79 68l95 98q14 -25 38.5 -37.5t50.5 -12.5q27 0 53 12.5t40 36.5l91 -97q-36 -44 -82 -69.5t-102 -25.5zM353 1460h-138l-166 180h185z" />
    <glyph glyph-name="uni1EB3.ss01" horiz-adv-x="520" 
d="M165 -16q-45 0 -73.5 34.5t-42.5 84t-14 95.5v698q0 49 13 98.5t41.5 82.5t74.5 33q34 0 70 -23.5t61 -51.5v59h180v-1094h-175l-5 71q-23 -26 -56 -56.5t-74 -30.5zM249 174q19 0 32.5 21.5t13.5 49.5v613q0 24 -13.5 46.5t-32.5 22.5q-17 0 -28 -20t-11 -49v-613
q0 -29 10 -50t29 -21zM260 1197q-55 0 -105 27t-79 68l95 98q14 -25 38.5 -37.5t50.5 -12.5q27 0 53 12.5t40 36.5l91 -97q-36 -44 -82 -69.5t-102 -25.5zM137 1667q65 0 124 -6.5t97.5 -30t38.5 -73.5q0 -64 -54 -95t-133 -31l-20 74q24 2 53.5 10t29.5 30q0 20 -32.5 27
t-103.5 7v88z" />
    <glyph glyph-name="uni1EB5.ss01" horiz-adv-x="520" 
d="M165 -16q-45 0 -73.5 34.5t-42.5 84t-14 95.5v698q0 49 13 98.5t41.5 82.5t74.5 33q34 0 70 -23.5t61 -51.5v59h180v-1094h-175l-5 71q-23 -26 -56 -56.5t-74 -30.5zM249 174q19 0 32.5 21.5t13.5 49.5v613q0 24 -13.5 46.5t-32.5 22.5q-17 0 -28 -20t-11 -49v-613
q0 -29 10 -50t29 -21zM260 1197q-55 0 -105 27t-79 68l95 98q14 -25 38.5 -37.5t50.5 -12.5q27 0 53 12.5t40 36.5l91 -97q-36 -44 -82 -69.5t-102 -25.5zM341 1434q-43 0 -78 18q-38 20 -81 20q-24 0 -50 -9.5t-45 -22.5v148q13 11 28 18.5t32 13.5q16 6 35 6q43 0 79 -16
q20 -8 40 -15t40 -7q24 0 50 9.5t45 22.5v-148q-17 -17 -45.5 -27.5t-49.5 -10.5z" />
    <glyph glyph-name="uni01CE.ss01" horiz-adv-x="520" 
d="M165 -16q-45 0 -73.5 34.5t-42.5 84t-14 95.5v698q0 49 13 98.5t41.5 82.5t74.5 33q34 0 70 -23.5t61 -51.5v59h180v-1094h-175l-5 71q-23 -26 -56 -56.5t-74 -30.5zM249 174q19 0 32.5 21.5t13.5 49.5v613q0 24 -13.5 46.5t-32.5 22.5q-17 0 -28 -20t-11 -49v-613
q0 -29 10 -50t29 -21zM164 1229l-123 180h164l54 -90l55 90h165l-124 -180h-191z" />
    <glyph glyph-name="acircumflex.ss01" horiz-adv-x="520" 
d="M165 -16q-45 0 -73.5 34.5t-42.5 84t-14 95.5v698q0 49 13 98.5t41.5 82.5t74.5 33q34 0 70 -23.5t61 -51.5v59h180v-1094h-175l-5 71q-23 -26 -56 -56.5t-74 -30.5zM249 174q19 0 32.5 21.5t13.5 49.5v613q0 24 -13.5 46.5t-32.5 22.5q-17 0 -28 -20t-11 -49v-613
q0 -29 10 -50t29 -21zM45 1228l121 180h188l121 -180h-162l-54 90l-52 -90h-162z" />
    <glyph glyph-name="uni1EA5.ss01" horiz-adv-x="520" 
d="M165 -16q-45 0 -73.5 34.5t-42.5 84t-14 95.5v698q0 49 13 98.5t41.5 82.5t74.5 33q34 0 70 -23.5t61 -51.5v59h180v-1094h-175l-5 71q-23 -26 -56 -56.5t-74 -30.5zM249 174q19 0 32.5 21.5t13.5 49.5v613q0 24 -13.5 46.5t-32.5 22.5q-17 0 -28 -20t-11 -49v-613
q0 -29 10 -50t29 -21zM45 1228l121 180h188l121 -180h-162l-54 90l-52 -90h-162zM414 1371l118 180h186l-167 -180h-137z" />
    <glyph glyph-name="uni1EAD.ss01" horiz-adv-x="520" 
d="M165 -16q-45 0 -73.5 34.5t-42.5 84t-14 95.5v698q0 49 13 98.5t41.5 82.5t74.5 33q34 0 70 -23.5t61 -51.5v59h180v-1094h-175l-5 71q-23 -26 -56 -56.5t-74 -30.5zM249 174q19 0 32.5 21.5t13.5 49.5v613q0 24 -13.5 46.5t-32.5 22.5q-17 0 -28 -20t-11 -49v-613
q0 -29 10 -50t29 -21zM173 -287v202h180v-202h-180zM45 1228l121 180h188l121 -180h-162l-54 90l-52 -90h-162z" />
    <glyph glyph-name="uni1EA7.ss01" horiz-adv-x="520" 
d="M165 -16q-45 0 -73.5 34.5t-42.5 84t-14 95.5v698q0 49 13 98.5t41.5 82.5t74.5 33q34 0 70 -23.5t61 -51.5v59h180v-1094h-175l-5 71q-23 -26 -56 -56.5t-74 -30.5zM249 174q19 0 32.5 21.5t13.5 49.5v613q0 24 -13.5 46.5t-32.5 22.5q-17 0 -28 -20t-11 -49v-613
q0 -29 10 -50t29 -21zM45 1228l121 180h188l121 -180h-162l-54 90l-52 -90h-162zM601 1373h-138l-166 180h185z" />
    <glyph glyph-name="uni1EA9.ss01" horiz-adv-x="520" 
d="M165 -16q-45 0 -73.5 34.5t-42.5 84t-14 95.5v698q0 49 13 98.5t41.5 82.5t74.5 33q34 0 70 -23.5t61 -51.5v59h180v-1094h-175l-5 71q-23 -26 -56 -56.5t-74 -30.5zM249 174q19 0 32.5 21.5t13.5 49.5v613q0 24 -13.5 46.5t-32.5 22.5q-17 0 -28 -20t-11 -49v-613
q0 -29 10 -50t29 -21zM45 1228l121 180h188l121 -180h-162l-54 90l-52 -90h-162zM359 1604q65 0 124 -6.5t97.5 -30t38.5 -73.5q0 -64 -54 -95t-133 -31l-20 74q24 2 53.5 10t29.5 30q0 20 -32.5 27t-103.5 7v88z" />
    <glyph glyph-name="uni1EAB.ss01" horiz-adv-x="520" 
d="M165 -16q-45 0 -73.5 34.5t-42.5 84t-14 95.5v698q0 49 13 98.5t41.5 82.5t74.5 33q34 0 70 -23.5t61 -51.5v59h180v-1094h-175l-5 71q-23 -26 -56 -56.5t-74 -30.5zM249 174q19 0 32.5 21.5t13.5 49.5v613q0 24 -13.5 46.5t-32.5 22.5q-17 0 -28 -20t-11 -49v-613
q0 -29 10 -50t29 -21zM45 1228l121 180h188l121 -180h-162l-54 90l-52 -90h-162zM339 1458q-43 0 -78 18q-38 20 -81 20q-24 0 -50 -9.5t-45 -22.5v148q13 11 28 18.5t32 13.5q16 6 35 6q43 0 79 -16q20 -8 40 -15t40 -7q24 0 50 9.5t45 22.5v-148q-17 -17 -45.5 -27.5
t-49.5 -10.5z" />
    <glyph glyph-name="adieresis.ss01" horiz-adv-x="520" 
d="M165 -16q-45 0 -73.5 34.5t-42.5 84t-14 95.5v698q0 49 13 98.5t41.5 82.5t74.5 33q34 0 70 -23.5t61 -51.5v59h180v-1094h-175l-5 71q-23 -26 -56 -56.5t-74 -30.5zM249 174q19 0 32.5 21.5t13.5 49.5v613q0 24 -13.5 46.5t-32.5 22.5q-17 0 -28 -20t-11 -49v-613
q0 -29 10 -50t29 -21zM303 1216v196h164v-196h-164zM54 1216v196h164v-196h-164z" />
    <glyph glyph-name="uni1EA1.ss01" horiz-adv-x="520" 
d="M165 -16q-45 0 -73.5 34.5t-42.5 84t-14 95.5v698q0 49 13 98.5t41.5 82.5t74.5 33q34 0 70 -23.5t61 -51.5v59h180v-1094h-175l-5 71q-23 -26 -56 -56.5t-74 -30.5zM249 174q19 0 32.5 21.5t13.5 49.5v613q0 24 -13.5 46.5t-32.5 22.5q-17 0 -28 -20t-11 -49v-613
q0 -29 10 -50t29 -21zM173 -287v202h180v-202h-180z" />
    <glyph glyph-name="agrave.ss01" horiz-adv-x="520" 
d="M165 -16q-45 0 -73.5 34.5t-42.5 84t-14 95.5v698q0 49 13 98.5t41.5 82.5t74.5 33q34 0 70 -23.5t61 -51.5v59h180v-1094h-175l-5 71q-23 -26 -56 -56.5t-74 -30.5zM249 174q19 0 32.5 21.5t13.5 49.5v613q0 24 -13.5 46.5t-32.5 22.5q-17 0 -28 -20t-11 -49v-613
q0 -29 10 -50t29 -21zM341 1224h-138l-166 180h185z" />
    <glyph glyph-name="uni1EA3.ss01" horiz-adv-x="520" 
d="M165 -16q-45 0 -73.5 34.5t-42.5 84t-14 95.5v698q0 49 13 98.5t41.5 82.5t74.5 33q34 0 70 -23.5t61 -51.5v59h180v-1094h-175l-5 71q-23 -26 -56 -56.5t-74 -30.5zM249 174q19 0 32.5 21.5t13.5 49.5v613q0 24 -13.5 46.5t-32.5 22.5q-17 0 -28 -20t-11 -49v-613
q0 -29 10 -50t29 -21zM142 1437q65 0 124 -6.5t97.5 -30t38.5 -73.5q0 -64 -54 -95t-133 -31l-20 74q24 2 53.5 10t29.5 30q0 20 -32.5 27t-103.5 7v88z" />
    <glyph glyph-name="amacron.ss01" horiz-adv-x="520" 
d="M165 -16q-45 0 -73.5 34.5t-42.5 84t-14 95.5v698q0 49 13 98.5t41.5 82.5t74.5 33q34 0 70 -23.5t61 -51.5v59h180v-1094h-175l-5 71q-23 -26 -56 -56.5t-74 -30.5zM249 174q19 0 32.5 21.5t13.5 49.5v613q0 24 -13.5 46.5t-32.5 22.5q-17 0 -28 -20t-11 -49v-613
q0 -29 10 -50t29 -21zM87 1235v148h347v-148h-347z" />
    <glyph glyph-name="aogonek.ss01" horiz-adv-x="520" 
d="M165 -16q-45 0 -73.5 34.5t-42.5 84t-14 95.5v698q0 49 13 98.5t41.5 82.5t74.5 33q34 0 70 -23.5t61 -51.5v59h180v-1094h-175l-5 71q-23 -26 -56 -56.5t-74 -30.5zM249 174q19 0 32.5 21.5t13.5 49.5v613q0 24 -13.5 46.5t-32.5 22.5q-17 0 -28 -20t-11 -49v-613
q0 -29 10 -50t29 -21zM471 -375q-72 0 -120 34.5t-48 124.5q0 51 20 105.5t54 110.5h98q-13 -35 -25.5 -89t-12.5 -88q0 -43 21 -54t37 -11q40 0 72 23v-133q-32 -23 -96 -23z" />
    <glyph glyph-name="aring.ss01" horiz-adv-x="520" 
d="M165 -16q-45 0 -73.5 34.5t-42.5 84t-14 95.5v698q0 49 13 98.5t41.5 82.5t74.5 33q34 0 70 -23.5t61 -51.5v59h180v-1094h-175l-5 71q-23 -26 -56 -56.5t-74 -30.5zM249 174q19 0 32.5 21.5t13.5 49.5v613q0 24 -13.5 46.5t-32.5 22.5q-17 0 -28 -20t-11 -49v-613
q0 -29 10 -50t29 -21zM262 1194q-61 0 -105.5 39.5t-44.5 100.5q0 62 44.5 101t105.5 39q62 0 105 -39t43 -101q0 -61 -43 -100.5t-105 -39.5zM262 1264q29 0 51.5 21t22.5 49q0 29 -22.5 49.5t-51.5 20.5q-28 0 -51 -20.5t-23 -49.5q0 -28 23 -49t51 -21z" />
    <glyph glyph-name="atilde.ss01" horiz-adv-x="520" 
d="M165 -16q-45 0 -73.5 34.5t-42.5 84t-14 95.5v698q0 49 13 98.5t41.5 82.5t74.5 33q34 0 70 -23.5t61 -51.5v59h180v-1094h-175l-5 71q-23 -26 -56 -56.5t-74 -30.5zM249 174q19 0 32.5 21.5t13.5 49.5v613q0 24 -13.5 46.5t-32.5 22.5q-17 0 -28 -20t-11 -49v-613
q0 -29 10 -50t29 -21zM340 1205q-43 0 -78 18q-38 20 -81 20q-24 0 -50 -9.5t-45 -22.5v148q13 11 28 18.5t32 13.5q16 6 35 6q43 0 79 -16q20 -8 40 -15t40 -7q24 0 50 9.5t45 22.5v-148q-17 -17 -45.5 -27.5t-49.5 -10.5z" />
    <glyph glyph-name="g.ss01" horiz-adv-x="520" 
d="M210 -376q-48 0 -79.5 8t-45.5 15v180q22 -11 50.5 -17.5t67.5 -6.5q46 0 69 27t23 88v211h180v-203q0 -135 -70.5 -218.5t-194.5 -83.5zM165 -16q-45 0 -73.5 34.5t-42.5 84t-14 95.5v698q0 49 13 98.5t41.5 82.5t74.5 33q34 0 70 -23.5t61 -51.5v59h180v-1094h-175
l-5 71q-23 -26 -56 -56.5t-74 -30.5zM249 174q19 0 32.5 21.5t13.5 49.5v613q0 24 -13.5 46.5t-32.5 22.5q-17 0 -28 -20t-11 -49v-613q0 -29 10 -50t29 -21z" />
    <glyph glyph-name="gbreve.ss01" horiz-adv-x="520" 
d="M210 -376q-48 0 -79.5 8t-45.5 15v180q22 -11 50.5 -17.5t67.5 -6.5q46 0 69 27t23 88v211h180v-203q0 -135 -70.5 -218.5t-194.5 -83.5zM165 -16q-45 0 -73.5 34.5t-42.5 84t-14 95.5v698q0 49 13 98.5t41.5 82.5t74.5 33q34 0 70 -23.5t61 -51.5v59h180v-1094h-175
l-5 71q-23 -26 -56 -56.5t-74 -30.5zM249 174q19 0 32.5 21.5t13.5 49.5v613q0 24 -13.5 46.5t-32.5 22.5q-17 0 -28 -20t-11 -49v-613q0 -29 10 -50t29 -21zM260 1197q-55 0 -105 27t-79 68l95 98q14 -25 38.5 -37.5t50.5 -12.5q27 0 53 12.5t40 36.5l91 -97
q-36 -44 -82 -69.5t-102 -25.5z" />
    <glyph glyph-name="uni0123.ss01" horiz-adv-x="520" 
d="M210 -376q-48 0 -79.5 8t-45.5 15v180q22 -11 50.5 -17.5t67.5 -6.5q46 0 69 27t23 88v211h180v-203q0 -135 -70.5 -218.5t-194.5 -83.5zM165 -16q-45 0 -73.5 34.5t-42.5 84t-14 95.5v698q0 49 13 98.5t41.5 82.5t74.5 33q34 0 70 -23.5t61 -51.5v59h180v-1094h-175
l-5 71q-23 -26 -56 -56.5t-74 -30.5zM249 174q19 0 32.5 21.5t13.5 49.5v613q0 24 -13.5 46.5t-32.5 22.5q-17 0 -28 -20t-11 -49v-613q0 -29 10 -50t29 -21zM346 1571l-58 -166h58v-208h-172v208l90 166h82z" />
    <glyph glyph-name="gdotaccent.ss01" horiz-adv-x="520" 
d="M210 -376q-48 0 -79.5 8t-45.5 15v180q22 -11 50.5 -17.5t67.5 -6.5q46 0 69 27t23 88v211h180v-203q0 -135 -70.5 -218.5t-194.5 -83.5zM165 -16q-45 0 -73.5 34.5t-42.5 84t-14 95.5v698q0 49 13 98.5t41.5 82.5t74.5 33q34 0 70 -23.5t61 -51.5v59h180v-1094h-175
l-5 71q-23 -26 -56 -56.5t-74 -30.5zM249 174q19 0 32.5 21.5t13.5 49.5v613q0 24 -13.5 46.5t-32.5 22.5q-17 0 -28 -20t-11 -49v-613q0 -29 10 -50t29 -21zM171 1219v202h180v-202h-180z" />
    <glyph glyph-name="i.loclTRK" horiz-adv-x="300" 
d="M60 0v1094h180v-1094h-180zM61 1219v202h180v-202h-180z" />
    <glyph glyph-name="one.dnom" horiz-adv-x="430" 
d="M187 0v629h-87v78q38 7 63.5 20.5t46.5 34.5q20 20 29 41h91v-803h-143z" />
    <glyph glyph-name="two.dnom" horiz-adv-x="570" 
d="M100 0v117q79 104 128.5 199t73.5 174.5t25 134.5q0 34 -11 51.5t-29 17.5q-25 0 -32.5 -27t-7.5 -61v-55h-143v55q0 100 47.5 154.5t137.5 54.5q87 0 132.5 -48t45.5 -143q0 -58 -20 -125t-64 -156.5t-118 -217.5h200v-125h-365z" />
    <glyph glyph-name="three.dnom" horiz-adv-x="566" 
d="M279 -9q-173 0 -173 242h140q0 -65 10.5 -94.5t30.5 -29.5q24 0 31.5 25t7.5 84q0 63 -7.5 93.5t-31.5 41t-74 11.5v100q45 7 67 19t29 39.5t7 79.5q0 56 -7.5 76t-27.5 20q-22 0 -31 -27.5t-9 -97.5h-141q0 242 181 242q86 0 131 -50.5t45 -146.5q0 -58 -17.5 -101
t-59.5 -84q45 -38 65.5 -87t20.5 -120q0 -113 -48.5 -174t-138.5 -61z" />
    <glyph glyph-name="four.dnom" horiz-adv-x="525" 
d="M248 0v175h-210v103l195 525h142v-517h60v-111h-60v-175h-127zM163 286h86v266h-5l-6 -37z" />
    <glyph glyph-name="exclamdown.case" horiz-adv-x="305" 
d="M50 0l43 1074h119l43 -1074h-205zM59 1248v222h186v-222h-186z" />
    <glyph glyph-name="questiondown.case" horiz-adv-x="580" 
d="M383 1074v-250q0 -81 -24 -159t-56 -151.5t-56 -140t-24 -125.5q0 -28 13.5 -48t40.5 -20q41 0 65.5 40.5t38.5 101.5l149 -82q-15 -70 -51.5 -126t-88.5 -89t-114 -33q-80 0 -130 39.5t-73 101.5t-23 129q0 75 25.5 139t59 127.5t59 135t25.5 160.5v250h164zM393 1470
v-222h-186v222h186z" />
    <glyph glyph-name="uni03060301" horiz-adv-x="0" 
d="M400 1197q-55 0 -105 27t-79 68l95 98q14 -25 38.5 -37.5t50.5 -12.5q27 0 53 12.5t40 36.5l91 -97q-36 -44 -82 -69.5t-102 -25.5zM300 1456l118 180h186l-167 -180h-137z" />
    <glyph glyph-name="uni03060300" horiz-adv-x="0" 
d="M400 1197q-55 0 -105 27t-79 68l95 98q14 -25 38.5 -37.5t50.5 -12.5q27 0 53 12.5t40 36.5l91 -97q-36 -44 -82 -69.5t-102 -25.5zM493 1460h-138l-166 180h185z" />
    <glyph glyph-name="uni03060309" horiz-adv-x="0" 
d="M400 1197q-55 0 -105 27t-79 68l95 98q14 -25 38.5 -37.5t50.5 -12.5q27 0 53 12.5t40 36.5l91 -97q-36 -44 -82 -69.5t-102 -25.5zM277 1667q65 0 124 -6.5t97.5 -30t38.5 -73.5q0 -64 -54 -95t-133 -31l-20 74q24 2 53.5 10t29.5 30q0 20 -32.5 27t-103.5 7v88z" />
    <glyph glyph-name="uni03060303" horiz-adv-x="0" 
d="M400 1197q-55 0 -105 27t-79 68l95 98q14 -25 38.5 -37.5t50.5 -12.5q27 0 53 12.5t40 36.5l91 -97q-36 -44 -82 -69.5t-102 -25.5zM481 1434q-43 0 -78 18q-38 20 -81 20q-24 0 -50 -9.5t-45 -22.5v148q13 11 28 18.5t32 13.5q16 6 35 6q43 0 79 -16q20 -8 40 -15t40 -7
q24 0 50 9.5t45 22.5v-148q-17 -17 -45.5 -27.5t-49.5 -10.5z" />
    <glyph glyph-name="uni03020301" horiz-adv-x="0" 
d="M194 1228l121 180h188l121 -180h-162l-54 90l-52 -90h-162zM563 1371l118 180h186l-167 -180h-137z" />
    <glyph glyph-name="uni03020300" horiz-adv-x="0" 
d="M194 1228l121 180h188l121 -180h-162l-54 90l-52 -90h-162zM750 1373h-138l-166 180h185z" />
    <glyph glyph-name="uni03020309" horiz-adv-x="0" 
d="M194 1228l121 180h188l121 -180h-162l-54 90l-52 -90h-162zM508 1604q65 0 124 -6.5t97.5 -30t38.5 -73.5q0 -64 -54 -95t-133 -31l-20 74q24 2 53.5 10t29.5 30q0 20 -32.5 27t-103.5 7v88z" />
    <glyph glyph-name="uni03020303" horiz-adv-x="0" 
d="M194 1228l121 180h188l121 -180h-162l-54 90l-52 -90h-162zM488 1458q-43 0 -78 18q-38 20 -81 20q-24 0 -50 -9.5t-45 -22.5v148q13 11 28 18.5t32 13.5q16 6 35 6q43 0 79 -16q20 -8 40 -15t40 -7q24 0 50 9.5t45 22.5v-148q-17 -17 -45.5 -27.5t-49.5 -10.5z" />
    </font>
</defs>
</svg>
